<svg width="24" height="24" viewBox="0 0 24 24" fill="none" xmlns="http://www.w3.org/2000/svg">
<path d="M5.25955 14.2979C4.94647 14.2979 4.64042 14.3907 4.3801 14.5646C4.11978 14.7386 3.91688 14.9858 3.79707 15.2751C3.67726 15.5643 3.64591 15.8826 3.70699 16.1897C3.76807 16.4967 3.91884 16.7788 4.14022 17.0002C4.3616 17.2215 4.64366 17.3723 4.95073 17.4334C5.2578 17.4945 5.57608 17.4631 5.86533 17.3433C6.15459 17.2235 6.40181 17.0206 6.57575 16.7603C6.74969 16.5 6.84253 16.1939 6.84253 15.8808C6.84205 15.4611 6.67511 15.0588 6.37835 14.762C6.08159 14.4653 5.67924 14.2983 5.25955 14.2979ZM5.25955 16.7489C5.08786 16.7489 4.92003 16.698 4.77727 16.6026C4.63452 16.5072 4.52325 16.3717 4.45755 16.213C4.39184 16.0544 4.37465 15.8799 4.40815 15.7115C4.44164 15.5431 4.52432 15.3884 4.64573 15.267C4.76713 15.1456 4.92181 15.0629 5.0902 15.0294C5.25859 14.9959 5.43313 15.0131 5.59176 15.0788C5.75038 15.1445 5.88595 15.2558 5.98134 15.3985C6.07673 15.5413 6.12764 15.7091 6.12764 15.8808C6.12742 16.111 6.03589 16.3317 5.87314 16.4944C5.71039 16.6572 5.48972 16.7487 5.25955 16.7489ZM18.1276 14.2979C17.8146 14.2979 17.5085 14.3907 17.2482 14.5646C16.9879 14.7386 16.785 14.9858 16.6652 15.2751C16.5453 15.5643 16.514 15.8826 16.5751 16.1897C16.6362 16.4967 16.7869 16.7788 17.0083 17.0002C17.2297 17.2215 17.5117 17.3723 17.8188 17.4334C18.1259 17.4945 18.4442 17.4631 18.7334 17.3433C19.0227 17.2235 19.2699 17.0206 19.4438 16.7603C19.6178 16.5 19.7106 16.1939 19.7106 15.8808C19.7101 15.4611 19.5432 15.0588 19.2464 14.762C18.9497 14.4653 18.5473 14.2983 18.1276 14.2979ZM18.1276 16.7489C17.9559 16.7489 17.7881 16.698 17.6454 16.6026C17.5026 16.5072 17.3913 16.3717 17.3256 16.213C17.2599 16.0544 17.2427 15.8799 17.2762 15.7115C17.3097 15.5431 17.3924 15.3884 17.5138 15.267C17.6352 15.1456 17.7899 15.0629 17.9583 15.0294C18.1267 14.9959 18.3012 15.0131 18.4598 15.0788C18.6185 15.1445 18.754 15.2558 18.8494 15.3985C18.9448 15.5413 18.9957 15.7091 18.9957 15.8808C18.9955 16.111 18.904 16.3317 18.7412 16.4944C18.5785 16.6572 18.3578 16.7487 18.1276 16.7489Z" fill="black"/>
<path d="M22.9532 9.93107L18.7043 9.46721L14.9537 5.76672C14.6581 5.47352 14.2583 5.3095 13.842 5.31061H3.50665C3.23188 5.31124 2.96196 5.38307 2.72323 5.5191C2.48449 5.65513 2.28509 5.85072 2.14448 6.08678L0.2208 9.33812C0.0762685 9.5822 7.6807e-06 9.86065 5.50782e-08 10.1443V14.9766C-4.05232e-05 15.0497 0.0223415 15.121 0.0641259 15.181C0.10591 15.241 0.165086 15.2867 0.233668 15.312L2.46393 16.1347C2.52577 16.8238 2.83999 17.4658 3.34626 17.9373C3.85252 18.4089 4.51514 18.6768 5.20688 18.6896C5.89862 18.7025 6.57072 18.4593 7.09414 18.0069C7.61755 17.5544 7.95538 16.9246 8.04276 16.2383H15.3445C15.4307 16.9155 15.7609 17.5381 16.2733 17.9894C16.7856 18.4406 17.4449 18.6896 18.1277 18.6896C18.8104 18.6896 19.4697 18.4406 19.982 17.9894C20.4944 17.5381 20.8246 16.9155 20.9108 16.2383H23.6425C23.6895 16.2383 23.736 16.2291 23.7794 16.2111C23.8228 16.1932 23.8622 16.1668 23.8954 16.1336C23.9286 16.1004 23.9549 16.061 23.9728 16.0176C23.9908 15.9743 24 15.9278 24 15.8808V11.0986C24.0004 10.8091 23.8937 10.5297 23.7004 10.3141C23.5072 10.0986 23.241 9.96213 22.9532 9.93107ZM0.714894 11.8703H2.04255V12.0602C2.04261 12.0984 2.03408 12.136 2.01761 12.1704C2.00113 12.2048 1.97713 12.2351 1.94737 12.259L1.31009 12.7733C1.22826 12.8392 1.12637 12.8753 1.02128 12.8754H0.714894V11.8703ZM5.25957 17.9744C4.8455 17.9744 4.44072 17.8517 4.09642 17.6216C3.75213 17.3916 3.48378 17.0646 3.32532 16.682C3.16686 16.2995 3.1254 15.8785 3.20619 15.4724C3.28697 15.0663 3.48637 14.6932 3.77916 14.4004C4.07196 14.1076 4.44501 13.9082 4.85113 13.8274C5.25725 13.7467 5.67821 13.7881 6.06077 13.9466C6.44332 14.105 6.7703 14.3734 7.00035 14.7177C7.2304 15.062 7.35319 15.4667 7.35319 15.8808C7.3526 16.4359 7.13183 16.9681 6.73933 17.3606C6.34683 17.7531 5.81465 17.9738 5.25957 17.9744ZM18.1277 17.9744C17.7136 17.9744 17.3088 17.8517 16.9645 17.6216C16.6202 17.3916 16.3519 17.0646 16.1934 16.682C16.0349 16.2995 15.9935 15.8785 16.0743 15.4724C16.1551 15.0663 16.3544 14.6932 16.6472 14.4004C16.94 14.1076 17.3131 13.9082 17.7192 13.8274C18.1253 13.7467 18.5463 13.7881 18.9289 13.9466C19.3114 14.105 19.6384 14.3734 19.8684 14.7177C20.0985 15.062 20.2213 15.4667 20.2213 15.8808C20.2207 16.4359 19.9999 16.9681 19.6074 17.3606C19.2149 17.7531 18.6827 17.9738 18.1277 17.9744ZM20.9108 15.5234C20.8246 14.8461 20.4944 14.2235 19.982 13.7723C19.4697 13.321 18.8104 13.0721 18.1277 13.0721C17.4449 13.0721 16.7856 13.321 16.2733 13.7723C15.7609 14.2235 15.4307 14.8461 15.3445 15.5234H8.04276C7.95796 14.8581 7.63769 14.2453 7.13996 13.7958C6.64223 13.3464 5.99998 13.0901 5.32957 13.0734C4.65915 13.0566 4.00492 13.2806 3.48541 13.7047C2.96591 14.1288 2.61548 14.7249 2.49763 15.3851L0.714894 14.7274V13.5903H1.02128C1.2897 13.59 1.54997 13.498 1.75905 13.3297L2.39632 12.8152C2.50939 12.7244 2.60057 12.6093 2.66308 12.4785C2.7256 12.3476 2.75785 12.2044 2.75745 12.0594V11.512C2.75728 11.4173 2.71955 11.3266 2.65252 11.2597C2.5855 11.1929 2.49468 11.1553 2.4 11.1554H0.714894V10.1443C0.714894 9.98878 0.75673 9.83611 0.836017 9.70231L2.76031 6.45138C2.83738 6.32189 2.94671 6.21458 3.07763 6.13994C3.20854 6.06531 3.35657 6.02588 3.50727 6.02551H13.8426C14.0705 6.02518 14.2893 6.11514 14.4511 6.27572L18.2911 10.0634C18.3484 10.1199 18.4232 10.1554 18.5033 10.1641L22.8758 10.6417C22.9884 10.6538 23.0926 10.7072 23.1683 10.7915C23.244 10.8759 23.2857 10.9853 23.2855 11.0986V11.4712L20.4145 11.1576C20.3527 11.1502 20.2901 11.1593 20.233 11.184C20.1759 11.2088 20.1264 11.2482 20.0895 11.2984C20.0523 11.3481 20.0286 11.4066 20.0209 11.4683C20.0132 11.5299 20.0217 11.5925 20.0456 11.6499L20.5499 12.8656C20.6384 13.0804 20.7888 13.264 20.982 13.3931C21.1752 13.5221 21.4024 13.5908 21.6347 13.5903H23.2855V15.5234H20.9108ZM23.2851 12.8754H21.6343C21.5435 12.8756 21.4546 12.8489 21.379 12.7984C21.3034 12.748 21.2446 12.6763 21.2099 12.5923L20.937 11.9344L23.2859 12.1907L23.2851 12.8754Z" fill="black"/>
<path d="M14.093 6.63933C14.0259 6.57379 13.9358 6.53713 13.842 6.5372H3.46969C3.40784 6.53738 3.3471 6.5536 3.29339 6.58428C3.23969 6.61496 3.19487 6.65906 3.16331 6.71225L2.17042 8.38489C2.14469 8.42823 2.12842 8.47653 2.12268 8.5266C2.11695 8.57667 2.12187 8.62739 2.13713 8.67543C2.15239 8.72347 2.17764 8.76773 2.21122 8.80531C2.24481 8.84289 2.28596 8.87295 2.33199 8.89349L5.11374 10.1354C5.15961 10.1559 5.20932 10.1665 5.25958 10.1664H16.7965C16.8676 10.1665 16.9371 10.1455 16.9961 10.1059C17.0551 10.0664 17.1011 10.0102 17.128 9.94443C17.155 9.87869 17.1617 9.80641 17.1474 9.73681C17.1332 9.66721 17.0984 9.60344 17.0478 9.55364L14.093 6.63933ZM10.675 7.25209L11.234 9.45151H7.45532V7.25128L10.675 7.25209ZM2.98989 8.40409L3.67333 7.25128H6.74043V9.45151H5.33577L2.98989 8.40409ZM11.9716 9.45151L11.4126 7.25128H13.6953L15.9254 9.45151H11.9716ZM12.7149 10.7694H11.6936C11.5988 10.7694 11.5079 10.807 11.4409 10.8741C11.3738 10.9411 11.3362 11.032 11.3362 11.1268C11.3362 11.2216 11.3738 11.3125 11.4409 11.3796C11.5079 11.4466 11.5988 11.4843 11.6936 11.4843H12.7149C12.8097 11.4843 12.9006 11.4466 12.9677 11.3796C13.0347 11.3125 13.0723 11.2216 13.0723 11.1268C13.0723 11.032 13.0347 10.9411 12.9677 10.8741C12.9006 10.807 12.8097 10.7694 12.7149 10.7694Z" fill="black"/>
</svg>
