<svg width="30" height="30" viewBox="0 0 30 30" fill="none" xmlns="http://www.w3.org/2000/svg">
<path d="M4 15.5084H9.9383V18.5911H4V15.5084ZM20.0617 15.5084H26V18.5911H20.0617V15.5084Z" stroke="#041614" stroke-width="1.20192" stroke-miterlimit="10" stroke-linecap="round" stroke-linejoin="round"/>
<path d="M9.9383 15.5084H4V26.0001H9.9383M9.9383 15.5084V26.0001M9.9383 15.5084H20.0617M9.9383 26.0001H20.0617M20.0617 15.5084H26V26.0001H20.0617M20.0617 15.5084V26.0001" stroke="#041614" stroke-width="1.20192" stroke-miterlimit="10" stroke-linecap="round" stroke-linejoin="round"/>
<path d="M18.1835 19.9778V24.1219H11.8162V19.9778H18.1835Z" stroke="#041614" stroke-width="1.20192" stroke-miterlimit="10" stroke-linecap="round" stroke-linejoin="round"/>
<path d="M12.2525 17.3873H12.6863M14.7728 17.3873H15.2066M17.293 17.3873H17.7268M13.0953 6.50049H16.9047V4H13.0953V6.50049ZM13.0953 6.50049L9.96526 9.44813M13.0953 6.50049H16.9047L20.0348 9.44813M20.0348 9.44813H9.96526M20.0348 9.44813V11.5927H9.96526V9.44813M9.12993 11.5927H20.8702M22.2211 21.1574V21.8881M7.77899 21.1574V21.8881" stroke="#041614" stroke-width="1.20192" stroke-miterlimit="10" stroke-linecap="round" stroke-linejoin="round"/>
<path d="M4 4H26V6.50049H4V4Z" stroke="#041614" stroke-width="1.20192" stroke-miterlimit="10" stroke-linecap="round" stroke-linejoin="round"/>
</svg>
