<svg width="25" height="24" viewBox="0 0 25 24" fill="none" xmlns="http://www.w3.org/2000/svg">
<path d="M21.7775 11.6194L21.4597 10.56H22.58C22.771 10.56 22.9541 10.4842 23.0891 10.3491C23.2242 10.2141 23.3 10.031 23.3 9.84001C23.3 9.64906 23.2242 9.46592 23.0891 9.3309C22.9541 9.19587 22.771 9.12001 22.58 9.12001H21.0277L19.9777 5.61913C19.846 5.17308 19.5731 4.78184 19.1999 4.50428C18.8267 4.22671 18.3735 4.07783 17.9084 4.08001H16.1V2.64001C16.1 1.84585 15.4542 1.20001 14.66 1.20001H10.34C9.54587 1.20001 8.90002 1.84585 8.90002 2.64001V4.08001H7.09162C6.62649 4.07786 6.17322 4.22681 5.80004 4.50447C5.42686 4.78213 5.15394 5.17347 5.02235 5.61961L3.97235 9.12001H2.42003C2.22907 9.12001 2.04593 9.19587 1.91091 9.3309C1.77588 9.46592 1.70003 9.64906 1.70003 9.84001C1.70003 10.031 1.77588 10.2141 1.91091 10.3491C2.04593 10.4842 2.22907 10.56 2.42003 10.56H3.54035L3.22259 11.6194L2.75435 12.0876C2.41905 12.4211 2.15322 12.8177 1.97225 13.2546C1.79127 13.6915 1.69875 14.1599 1.70003 14.6328V18.48C1.70003 19.2742 2.34587 19.92 3.14003 19.92V21.36C3.14003 22.1542 3.78587 22.8 4.58003 22.8H6.74003C7.53418 22.8 8.18003 22.1542 8.18003 21.36V19.92H16.82V21.36C16.82 22.1542 17.4659 22.8 18.26 22.8H20.42C21.2142 22.8 21.86 22.1542 21.86 21.36V19.92C22.6542 19.92 23.3 19.2742 23.3 18.48V14.6328C23.3013 14.1599 23.2088 13.6915 23.0278 13.2546C22.8468 12.8177 22.581 12.4211 22.2457 12.0876L21.7775 11.6194ZM10.34 2.64001H14.66V4.08001H10.34V2.64001ZM6.40187 6.03337C6.4457 5.88463 6.53666 5.75415 6.66106 5.66156C6.78546 5.56898 6.93656 5.5193 7.09162 5.52001H17.9084C18.2291 5.52001 18.506 5.72641 18.5982 6.03289L20.1723 11.28H4.82771L6.40187 6.03337ZM6.74003 21.36H4.58003V19.92H6.74003V21.36ZM20.42 21.36H18.26V19.92H20.42V21.36ZM3.14003 18.48V14.6328C3.14003 14.0643 3.37067 13.5077 3.77243 13.1057L4.15811 12.72H20.8419L21.2276 13.1057C21.631 13.5118 21.8583 14.0604 21.86 14.6328L21.861 18.48H3.14003ZM18.98 13.44C17.7889 13.44 16.82 14.4089 16.82 15.6C16.82 16.7911 17.7889 17.76 18.98 17.76C20.1711 17.76 21.14 16.7911 21.14 15.6C21.14 14.4089 20.1711 13.44 18.98 13.44ZM18.98 16.32C18.5831 16.32 18.26 15.997 18.26 15.6C18.26 15.2031 18.5831 14.88 18.98 14.88C19.377 14.88 19.7 15.2031 19.7 15.6C19.7 15.997 19.377 16.32 18.98 16.32ZM6.02002 13.44C4.82891 13.44 3.86003 14.4089 3.86003 15.6C3.86003 16.7911 4.82891 17.76 6.02002 17.76C7.21114 17.76 8.18003 16.7911 8.18003 15.6C8.18003 14.4089 7.21114 13.44 6.02002 13.44ZM6.02002 16.32C5.62306 16.32 5.30003 15.997 5.30003 15.6C5.30003 15.2031 5.62306 14.88 6.02002 14.88C6.41699 14.88 6.74003 15.2031 6.74003 15.6C6.74003 15.997 6.41699 16.32 6.02002 16.32Z" fill="#115779"/>
</svg>
