<svg width="110" height="50" viewBox="0 0 110 50" fill="none" xmlns="http://www.w3.org/2000/svg">
<g clip-path="url(#clip0_1_963)">
<path d="M40.3333 40.6252L45.9206 9.59485H54.6508L49.2381 40.6252H40.3333Z" fill="#3C58BF"/>
<path d="M40.3333 40.6252L47.4921 9.59485H54.6508L49.2381 40.6252H40.3333Z" fill="#293688"/>
<path d="M80.8413 9.93967C79.0952 9.25011 76.3016 8.56055 72.8095 8.56055C64.0794 8.56055 57.7936 12.8703 57.7936 19.0764C57.7936 23.7309 62.1587 26.1444 65.6508 27.6959C69.1429 29.2474 70.1905 30.2818 70.1905 31.6609C70.1905 33.7296 67.3968 34.7639 64.9524 34.7639C61.4603 34.7639 59.5397 34.2467 56.5714 33.04L55.3492 32.5228L54.127 39.5909C56.2222 40.4528 60.0635 41.3148 64.0794 41.3148C73.3333 41.3148 79.4444 37.005 79.4444 30.4542C79.4444 26.834 77.1746 24.0757 71.9365 21.8346C68.7937 20.2831 66.873 19.4212 66.873 17.8696C66.873 16.4905 68.4444 15.1114 71.9365 15.1114C74.9048 15.1114 77 15.6286 78.5714 16.3181L79.4444 16.6629L80.8413 9.93967Z" fill="#3C58BF"/>
<path d="M80.8413 9.93967C79.0952 9.25011 76.3016 8.56055 72.8095 8.56055C64.0794 8.56055 59.3651 12.8703 59.3651 19.0764C59.3651 23.7309 62.1587 26.1444 65.6508 27.6959C69.1429 29.2474 70.1905 30.2818 70.1905 31.6609C70.1905 33.7296 67.3968 34.7639 64.9524 34.7639C61.4603 34.7639 59.5397 34.2467 56.5714 33.04L55.3492 32.5228L54.127 39.5909C56.2222 40.4528 60.0635 41.3148 64.0794 41.3148C73.3333 41.3148 79.4444 37.005 79.4444 30.4542C79.4444 26.834 77.1746 24.0757 71.9365 21.8346C68.7937 20.2831 66.873 19.4212 66.873 17.8696C66.873 16.4905 68.4444 15.1114 71.9365 15.1114C74.9048 15.1114 77 15.6286 78.5714 16.3181L79.4444 16.6629L80.8413 9.93967Z" fill="#293688"/>
<path d="M95.8572 9.59485C93.7619 9.59485 92.1905 9.76724 91.3175 11.8359L78.2222 40.6252H87.6508L89.3968 35.4534H100.571L101.619 40.6252H110L102.667 9.59485H95.8572ZM91.8413 30.2817C92.3651 28.7302 95.3333 21.145 95.3333 21.145C95.3333 21.145 96.0318 19.2487 96.5556 18.042L97.0794 20.9726C97.0794 20.9726 98.8254 28.7302 99.1746 30.4541H91.8413V30.2817Z" fill="#3C58BF"/>
<path d="M97.9524 9.59485C95.8571 9.59485 94.2857 9.76724 93.4127 11.8359L78.2222 40.6252H87.6508L89.3968 35.4534H100.571L101.619 40.6252H110L102.667 9.59485H97.9524ZM91.8413 30.2817C92.5397 28.5578 95.3333 21.145 95.3333 21.145C95.3333 21.145 96.0318 19.2487 96.5556 18.042L97.0794 20.9726C97.0794 20.9726 98.8254 28.7302 99.1746 30.4541H91.8413V30.2817Z" fill="#293688"/>
<path d="M24.2698 31.3162L23.3968 26.834C21.8254 21.6623 16.7619 15.9734 11.1746 13.2151L19.0317 40.7976H28.4603L42.6032 9.76733H33.1746L24.2698 31.3162Z" fill="#3C58BF"/>
<path d="M24.2698 31.3162L23.3968 26.834C21.8254 21.6623 16.7619 15.9734 11.1746 13.2151L19.0317 40.7976H28.4603L42.6032 9.76733H34.9206L24.2698 31.3162Z" fill="#293688"/>
<path d="M0 9.59485L1.57143 9.93963C12.746 12.5255 20.4286 19.0763 23.3968 26.8339L20.254 12.1807C19.7302 10.112 18.1587 9.59485 16.2381 9.59485H0Z" fill="#FFBC00"/>
<path d="M0 9.59485C11.1746 12.1807 20.4286 18.9039 23.3968 26.6615L20.4286 14.4218C19.9048 12.3531 18.1587 11.1464 16.2381 11.1464L0 9.59485Z" fill="#F7981D"/>
<path d="M0 9.59485C11.1746 12.1807 20.4286 18.9039 23.3968 26.6615L21.3016 19.9383C20.7778 17.8696 20.0794 15.8009 17.6349 14.939L0 9.59485Z" fill="#ED7C00"/>
<path d="M33 30.2818L27.0635 24.4205L24.2698 30.9713L23.5714 26.6616C22 21.4899 16.9365 15.801 11.3492 13.0427L19.2064 40.6252H28.6349L33 30.2818ZM49.2381 40.6252L41.7302 33.04L40.3333 40.6252H49.2381ZM69.3175 29.937C70.0159 30.6266 70.3651 31.1437 70.1905 31.8333C70.1905 33.902 67.3968 34.9363 64.9524 34.9363C61.4603 34.9363 59.5397 34.4192 56.5714 33.2124L55.3492 32.6953L54.127 39.7633C56.2222 40.6252 60.0635 41.4872 64.0794 41.4872C69.6667 41.4872 74.2064 39.9357 76.8254 37.1774L69.3175 29.937ZM79.4445 40.6252H87.6508L89.3968 35.4535H100.571L101.619 40.6252H110L107.032 28.0407L96.5556 18.0421L97.0794 20.8003C97.0794 20.8003 98.8254 28.5579 99.1746 30.2818H91.8413C92.5397 28.5579 95.3333 21.1451 95.3333 21.1451C95.3333 21.1451 96.0317 19.2488 96.5556 18.0421" fill="#051244"/>
</g>
<defs>
<clipPath id="clip0_1_963">
<rect width="110" height="49" fill="white" transform="translate(0 0.5)"/>
</clipPath>
</defs>
</svg>
