<svg width="24" height="192" viewBox="0 0 24 192" fill="none" xmlns="http://www.w3.org/2000/svg">
<path d="M12 0.333333C10.5272 0.333333 9.33333 1.52724 9.33333 3C9.33333 4.47276 10.5272 5.66667 12 5.66667C13.4728 5.66667 14.6667 4.47276 14.6667 3C14.6667 1.52724 13.4728 0.333333 12 0.333333ZM12 186.333C10.5272 186.333 9.33334 187.527 9.33334 189C9.33334 190.473 10.5272 191.667 12 191.667C13.4728 191.667 14.6667 190.473 14.6667 189C14.6667 187.527 13.4728 186.333 12 186.333ZM11.5 3L11.5 189L12.5 189L12.5 3L11.5 3Z" fill="#115779"/>
<path d="M10 99.053L2 94L2 92L10 94.526L10 89.166L7 87.5L7 86L11.5 87L16 86L16 87.5L13 89.167L13 94.527L21 92L21 94L13 99.053L13 104.5C13 104.697 12.9612 104.892 12.8858 105.074C12.8104 105.256 12.6999 105.421 12.5607 105.561C12.4214 105.7 12.256 105.81 12.074 105.886C11.892 105.961 11.697 106 11.5 106C11.303 106 11.108 105.961 10.926 105.886C10.744 105.81 10.5786 105.7 10.4393 105.561C10.3001 105.421 10.1896 105.256 10.1142 105.074C10.0388 104.892 10 104.697 10 104.5L10 99.053Z" fill="#115779"/>
</svg>
