<svg width="24" height="25" viewBox="0 0 24 25" fill="none" xmlns="http://www.w3.org/2000/svg">
<g clip-path="url(#clip0_1_1028)">
<path d="M20.1059 0.5C18.7331 0.5 17.6203 1.61281 17.6203 2.98555V10.4019H21.8883C22.2766 10.4019 22.5914 10.0871 22.5914 9.69875V2.98555C22.5914 1.61281 21.4786 0.5 20.1059 0.5ZM8.5013 18.1719C8.5013 13.9244 11.9565 10.4261 16.2608 10.4378V3.28841C16.2608 2.21886 16.6635 1.2417 17.3248 0.5H4.92328C2.98547 0.5 1.40859 2.07688 1.40859 4.01469V23.7842C1.40859 24.4167 2.18236 24.7275 2.61984 24.2703L3.51938 23.3309L4.46953 24.2816C4.74375 24.5558 5.18906 24.5558 5.46375 24.2816L6.36422 23.3816L7.27359 24.2834C7.54781 24.5553 7.98984 24.5553 8.26406 24.2834L9.18797 23.3675L10.1123 24.2834C10.3861 24.5553 10.8277 24.5553 11.1019 24.2839L11.2809 24.1067C9.53756 22.6491 8.5013 20.4939 8.5013 18.1719ZM7.09669 6.17188H8.48438V4.78419C8.48438 4.39588 8.79919 4.08106 9.1875 4.08106C9.57581 4.08106 9.89062 4.39588 9.89062 4.78419V6.17188H11.2783C11.6666 6.17188 11.9814 6.48669 11.9814 6.875C11.9814 7.26331 11.6666 7.57812 11.2783 7.57812H9.89062V8.96581C9.89062 9.35413 9.57581 9.66894 9.1875 9.66894C8.79919 9.66894 8.48438 9.35413 8.48438 8.96581V7.57812H7.09669C6.70837 7.57812 6.39356 7.26331 6.39356 6.875C6.39356 6.48669 6.70837 6.17188 7.09669 6.17188ZM4.9687 11.0961H9.70312C10.0914 11.0961 10.4062 11.4109 10.4062 11.7992C10.4062 12.1875 10.0914 12.5023 9.70312 12.5023H4.9687C4.58039 12.5023 4.26558 12.1875 4.26558 11.7992C4.26558 11.4109 4.58039 11.0961 4.9687 11.0961ZM7.3148 18.1227H4.96402C4.5757 18.1227 4.26089 17.8078 4.26089 17.4195C4.26089 17.0312 4.5757 16.7164 4.96402 16.7164H7.3148C7.70311 16.7164 8.01792 17.0312 8.01792 17.4195C8.01792 17.8078 7.70311 18.1227 7.3148 18.1227ZM7.78359 15.3148H4.96631C4.578 15.3148 4.26319 15 4.26319 14.6117C4.26319 14.2234 4.578 13.9086 4.96631 13.9086H7.78359C8.17191 13.9086 8.48672 14.2234 8.48672 14.6117C8.48672 15 8.17191 15.3148 7.78359 15.3148Z" fill="#0DB561"/>
<path d="M16.2357 11.8438C12.7464 11.8438 9.90759 14.6825 9.90759 18.1719C9.90759 21.6612 12.7464 24.5 16.2357 24.5C19.725 24.5 22.5638 21.6612 22.5638 18.1719C22.5638 14.6825 19.725 11.8438 16.2357 11.8438ZM16.941 20.8798V20.9466C16.941 21.335 16.6262 21.6498 16.2379 21.6498C15.8496 21.6498 15.5348 21.335 15.5348 20.9466V20.9347C15.2198 20.8597 14.9276 20.7356 14.6959 20.584C14.3709 20.3714 14.2799 19.9356 14.4924 19.6107C14.7051 19.2856 15.1408 19.1946 15.4658 19.4072C15.7536 19.5955 16.2279 19.667 16.4611 19.5573C16.6122 19.4862 16.7291 19.3344 16.7453 19.1883C16.7802 18.8769 16.2924 18.7032 16.0012 18.5882C15.5604 18.4142 15.0119 18.1975 14.6935 17.6226C14.2396 16.8033 14.6371 15.723 15.5348 15.3535V15.3181C15.5348 14.9298 15.8496 14.615 16.2379 14.615C16.6224 14.615 16.9343 14.9237 16.9405 15.3067C17.1936 15.3858 17.4267 15.5124 17.6134 15.6845C17.8988 15.9478 17.9168 16.3926 17.6535 16.6781C17.3902 16.9636 16.9454 16.9815 16.6599 16.7182C16.5443 16.6115 16.1878 16.5685 16.0329 16.6725C15.9287 16.7425 15.8879 16.8767 15.9236 16.9411C16.0721 17.2092 16.8497 17.3011 17.4382 17.7597C18.6405 18.6965 18.2222 20.3884 16.941 20.8798Z" fill="#0DB561"/>
</g>
<defs>
<clipPath id="clip0_1_1028">
<rect width="24" height="24" fill="white" transform="translate(0 0.5)"/>
</clipPath>
</defs>
</svg>
