<svg width="24" height="24" viewBox="0 0 24 24" fill="none" xmlns="http://www.w3.org/2000/svg">
<g clip-path="url(#clip0_3_989)">
<path d="M12.0001 23.5182C9.99399 23.5177 8.02279 22.9933 6.28154 21.9971C4.54029 21.0008 3.08934 19.5672 2.07225 17.838C1.05517 16.1088 0.507204 14.1441 0.482573 12.1381C0.457942 10.1321 0.957501 8.15452 1.93182 6.40089C1.99265 6.29175 2.09434 6.21125 2.21453 6.17709C2.33472 6.14293 2.46355 6.15791 2.57269 6.21874C2.68183 6.27957 2.76234 6.38126 2.7965 6.50145C2.83066 6.62164 2.81568 6.75047 2.75485 6.85961C1.62651 8.88809 1.19674 11.2314 1.5318 13.5283C1.86686 15.8252 2.94815 17.948 4.60896 19.5697C6.26977 21.1913 8.41787 22.2215 10.7221 22.5017C13.0263 22.7818 15.3587 22.2962 17.3597 21.1197C19.3606 19.9432 20.919 18.1412 21.7946 15.9915C22.6702 13.8418 22.8144 11.4638 22.2049 9.22405C21.5955 6.98431 20.2662 5.00724 18.422 3.59764C16.5778 2.18805 14.3212 1.42421 12 1.42389C10.3679 1.41915 8.75722 1.79606 7.29666 2.52452C7.24119 2.55273 7.18068 2.56967 7.11863 2.57437C7.05657 2.57907 6.9942 2.57142 6.93511 2.55188C6.87603 2.53234 6.8214 2.50129 6.77438 2.46052C6.72736 2.41975 6.68889 2.37007 6.66117 2.31435C6.63346 2.25862 6.61706 2.19797 6.61292 2.13587C6.60878 2.07378 6.61698 2.01148 6.63705 1.95257C6.65712 1.89366 6.68867 1.83931 6.72986 1.79266C6.77105 1.74601 6.82107 1.70798 6.87704 1.68077C8.46789 0.887238 10.2222 0.476593 12 0.481613C15.0549 0.481613 17.9846 1.69515 20.1447 3.85525C22.3048 6.01535 23.5183 8.94508 23.5183 11.9999C23.5183 15.0548 22.3048 17.9845 20.1447 20.1446C17.9846 22.3047 15.0549 23.5182 12 23.5182H12.0001Z" fill="#041614"/>
<path d="M19.6147 13.9834H4.38516C4.26022 13.9834 4.14041 13.9338 4.05207 13.8454C3.96373 13.7571 3.91409 13.6373 3.91406 13.5123V10.4876C3.91409 10.3626 3.96373 10.2428 4.05207 10.1545C4.14041 10.0661 4.26022 10.0165 4.38516 10.0165H19.6147C19.7397 10.0165 19.8595 10.0661 19.9478 10.1545C20.0362 10.2428 20.0858 10.3626 20.0858 10.4876V13.5123C20.0858 13.6373 20.0362 13.7571 19.9478 13.8454C19.8595 13.9338 19.7397 13.9834 19.6147 13.9834ZM4.85625 13.0412H19.1435V10.9588H4.85634L4.85625 13.0412Z" fill="#041614"/>
<path d="M16.7478 13.9834C16.6228 13.9834 16.503 13.9338 16.4146 13.8455C16.3263 13.7571 16.2766 13.6373 16.2766 13.5123V10.4876C16.2766 10.3626 16.3262 10.2428 16.4146 10.1544C16.503 10.0661 16.6228 10.0164 16.7477 10.0164C16.8727 10.0164 16.9925 10.0661 17.0809 10.1544C17.1692 10.2428 17.2189 10.3626 17.2189 10.4876V13.5123C17.2189 13.6373 17.1692 13.7571 17.0809 13.8454C16.9925 13.9338 16.8727 13.9834 16.7478 13.9834ZM6.1397 13.9834C6.01475 13.9834 5.89492 13.9338 5.80655 13.8455C5.71819 13.7571 5.66854 13.6373 5.66851 13.5123V10.4876C5.66851 10.3626 5.71815 10.2428 5.80649 10.1545C5.89484 10.0661 6.01466 10.0165 6.13961 10.0165C6.26455 10.0165 6.38437 10.0661 6.47272 10.1545C6.56107 10.2428 6.6107 10.3626 6.6107 10.4876V13.5123C6.61068 13.6373 6.56103 13.7571 6.47269 13.8454C6.38435 13.9338 6.26463 13.9834 6.1397 13.9834ZM4.11836 9.06399C4.03404 9.06388 3.9513 9.04115 3.87876 8.99817C3.80623 8.95519 3.74654 8.89354 3.70594 8.81965C3.66534 8.74575 3.64531 8.66232 3.64793 8.57805C3.65056 8.49377 3.67574 8.41175 3.72086 8.34052C3.72536 8.3333 4.17161 7.61058 4.01401 6.86855C3.91895 6.42118 3.69451 6.11105 3.45686 5.78255C3.16736 5.38252 2.83932 4.92905 2.83932 4.26605C2.83932 3.24605 3.38233 2.32702 3.40539 2.28839C3.46956 2.18115 3.57371 2.1038 3.69491 2.07335C3.81612 2.0429 3.94446 2.06184 4.0517 2.12602C4.15894 2.19019 4.23629 2.29434 4.26674 2.41555C4.29719 2.53675 4.27825 2.66509 4.21408 2.77233C4.21033 2.77871 3.78161 3.51146 3.78161 4.26605C3.78161 4.6073 3.94023 4.84299 4.22036 5.23018C4.47826 5.58671 4.79936 6.03033 4.93576 6.67271C5.17511 7.79883 4.54276 8.80439 4.51576 8.84658C4.47315 8.91334 4.41438 8.96826 4.3449 9.00627C4.27541 9.04427 4.19755 9.06412 4.11836 9.06399ZM6.07201 7.48636C5.9885 7.48625 5.90653 7.46394 5.83447 7.42174C5.76242 7.37953 5.70287 7.31894 5.66192 7.24616C5.62098 7.17338 5.60011 7.09102 5.60145 7.00752C5.60279 6.92403 5.62629 6.84239 5.66954 6.77096C5.80389 6.54746 6.11832 5.85502 5.96186 5.33986C5.82454 4.88507 5.61084 4.45696 5.32989 4.07386C5.07489 3.70064 4.81145 3.31449 4.81145 2.65692C4.82651 1.96891 5.01683 1.29611 5.36439 0.702143C5.43082 0.596297 5.53659 0.521178 5.65841 0.493311C5.78023 0.465445 5.90814 0.487113 6.01398 0.55355C6.11983 0.619986 6.19495 0.725749 6.22281 0.847572C6.25068 0.969394 6.22901 1.0973 6.16258 1.20314C5.90933 1.64692 5.76897 2.14611 5.75383 2.65683C5.75383 3.02349 5.87964 3.20789 6.10811 3.54249C6.44402 4.00416 6.69941 4.51933 6.86345 5.06621C7.1702 6.07618 6.54676 7.1423 6.47476 7.26043C6.43268 7.3295 6.37352 7.38657 6.30298 7.42614C6.23244 7.46571 6.15289 7.48645 6.07201 7.48636ZM4.97373 20.9961C4.88616 20.996 4.80035 20.9715 4.72591 20.9254C4.65148 20.8793 4.59138 20.8133 4.55234 20.7349C4.5133 20.6565 4.49687 20.5688 4.5049 20.4816C4.51293 20.3944 4.5451 20.3112 4.59779 20.2412L17.8853 2.61755C17.9225 2.56814 17.9691 2.52656 18.0224 2.49516C18.0757 2.46377 18.1347 2.44319 18.196 2.43459C18.2573 2.42598 18.3196 2.42954 18.3795 2.44504C18.4394 2.46054 18.4957 2.48768 18.5451 2.52492C18.5945 2.56217 18.6361 2.60878 18.6675 2.66209C18.6989 2.7154 18.7194 2.77438 18.728 2.83565C18.7366 2.89692 18.7331 2.95928 18.7176 3.01918C18.7021 3.07907 18.6749 3.13533 18.6377 3.18474L5.35023 20.8086C5.30634 20.867 5.24947 20.9143 5.18412 20.9468C5.11877 20.9794 5.04674 20.9963 4.97373 20.9962V20.9961Z" fill="#041614"/>
</g>
<defs>
<clipPath id="clip0_3_989">
<rect width="24" height="24" fill="white"/>
</clipPath>
</defs>
</svg>
