<svg width="25" height="24" viewBox="0 0 25 24" fill="none" xmlns="http://www.w3.org/2000/svg">
<path d="M21.5 9.75H22.25C22.4489 9.75 22.6397 9.67098 22.7803 9.53033C22.921 9.38968 23 9.19891 23 9C23 8.80109 22.921 8.61032 22.7803 8.46967C22.6397 8.32902 22.4489 8.25 22.25 8.25H20.4245L19.2665 6.32025C18.932 5.76628 18.4604 5.3078 17.8973 4.98899C17.3341 4.67017 16.6984 4.50177 16.0513 4.5H8.94875C7.63925 4.5 6.407 5.1975 5.7335 6.32025L4.5755 8.25H2.75C2.55109 8.25 2.36032 8.32902 2.21967 8.46967C2.07902 8.61032 2 8.80109 2 9C2 9.19891 2.07902 9.38968 2.21967 9.53033C2.36032 9.67098 2.55109 9.75 2.75 9.75H3.5L3.05 10.35C2.37046 11.2598 2.00226 12.3644 2 13.5V17.25C2 18.4905 3.0095 19.5 4.25 19.5H5.75C6.9905 19.5 8 18.4905 8 17.25H17C17 18.4905 18.0095 19.5 19.25 19.5H20.75C21.9905 19.5 23 18.4905 23 17.25V13.5C22.9979 12.3644 22.6296 11.2598 21.95 10.35L21.5 9.75ZM7.01975 7.09275C7.2204 6.76031 7.50328 6.48514 7.84114 6.29375C8.179 6.10236 8.56045 6.00119 8.94875 6H16.052C16.838 6 17.5768 6.4185 17.981 7.09275L18.989 8.77275L18.4678 9.12C17.8519 9.53134 17.1278 9.7506 16.3873 9.75H8.612C7.8695 9.75 7.15025 9.5325 6.53225 9.12075L6.011 8.77275L7.019 7.092L7.01975 7.09275ZM21.5007 17.25C21.5007 17.6632 21.164 18 20.7507 18H19.2507C18.8375 18 18.5007 17.6632 18.5007 17.25V16.5C18.5007 16.3011 18.4217 16.1103 18.2811 15.9697C18.1404 15.829 17.9497 15.75 17.7507 15.75H7.25C7.05109 15.75 6.86032 15.829 6.71967 15.9697C6.57902 16.1103 6.5 16.3011 6.5 16.5V17.25C6.5 17.6632 6.16325 18 5.75 18H4.25C3.83675 18 3.5 17.6632 3.5 17.25V13.5C3.5 12.6938 3.76625 11.8942 4.25 11.25L5.174 10.0178L5.7005 10.3687C6.56232 10.9443 7.57565 11.251 8.612 11.25H16.3873C17.4239 11.2508 18.4375 10.9439 19.2995 10.368L19.8253 10.0178L20.7493 11.25C21.233 11.8942 21.4993 12.6938 21.4993 13.5V17.25H21.5007Z" fill="#115779"/>
<path d="M19.25 14.25C19.6642 14.25 20 13.9142 20 13.5C20 13.0858 19.6642 12.75 19.25 12.75C18.8358 12.75 18.5 13.0858 18.5 13.5C18.5 13.9142 18.8358 14.25 19.25 14.25Z" fill="#115779"/>
<path d="M5.75 14.25C6.16421 14.25 6.5 13.9142 6.5 13.5C6.5 13.0858 6.16421 12.75 5.75 12.75C5.33579 12.75 5 13.0858 5 13.5C5 13.9142 5.33579 14.25 5.75 14.25Z" fill="#115779"/>
</svg>
