<svg width="48" height="48" viewBox="0 0 48 48" fill="none" xmlns="http://www.w3.org/2000/svg">
<g clip-path="url(#clip0_2_108)">
<path d="M33.2373 0H33.5787C33.8527 3.38506 32.5607 5.91437 30.9904 7.74602C29.4496 9.56501 27.3398 11.3292 23.9273 11.0615C23.6997 7.72494 24.9938 5.38322 26.562 3.55579C28.0164 1.85272 30.6827 0.337241 33.2373 0ZM43.5674 35.2333V35.3282C42.6084 38.2326 41.2404 40.7219 39.5711 43.032C38.0472 45.1292 36.1797 47.9515 32.8452 47.9515C29.9639 47.9515 28.0501 46.0988 25.0971 46.0482C21.9734 45.9976 20.2556 47.5974 17.3996 48H16.4258C14.3286 47.6965 12.636 46.0356 11.403 44.5391C7.76712 40.117 4.95748 34.405 4.43475 27.0952V24.9474C4.65607 19.716 7.19803 15.4625 10.5768 13.4011C12.3599 12.3051 14.8113 11.3714 17.5408 11.7887C18.7106 11.97 19.9057 12.3704 20.9533 12.7667C21.946 13.1482 23.1875 13.8248 24.3636 13.789C25.1603 13.7658 25.9529 13.3505 26.7559 13.0576C29.1082 12.2081 31.4141 11.2344 34.4535 11.6917C38.1062 12.244 40.6988 13.8669 42.3006 16.371C39.2107 18.3375 36.7678 21.301 37.1851 26.3617C37.5561 30.9588 40.2287 33.6483 43.5674 35.2333Z" fill="black"/>
</g>
<defs>
<clipPath id="clip0_2_108">
<rect width="48" height="48" fill="white"/>
</clipPath>
</defs>
</svg>
