<svg width="24" height="24" viewBox="0 0 24 24" fill="none" xmlns="http://www.w3.org/2000/svg">
<path fill-rule="evenodd" clip-rule="evenodd" d="M18.4236 15.2232C18.254 15.2232 18.1149 15.0855 18.1149 14.9167C18.1149 14.7476 18.254 14.6104 18.4236 14.6104C18.5905 14.6104 18.7296 14.7476 18.7296 14.9167C18.7296 15.0855 18.5905 15.2232 18.4236 15.2232ZM18.4236 13.8829C17.8535 13.8829 17.389 14.3465 17.389 14.9167C17.389 15.4866 17.8535 15.9505 18.4236 15.9505C18.9938 15.9505 19.4555 15.4866 19.4555 14.9167C19.4555 14.3465 18.9938 13.8829 18.4236 13.8829ZM15.5477 13.5755C15.5477 13.7763 15.3836 13.9393 15.1834 13.9393H7.68762C7.48739 13.9393 7.32604 13.7763 7.32604 13.5755C7.32604 13.3747 7.48733 13.212 7.68762 13.212H15.1834C15.3836 13.212 15.5477 13.3747 15.5477 13.5755ZM4.45014 15.2232C4.28047 15.2232 4.14142 15.0855 4.14142 14.9167C4.14142 14.7476 4.28047 14.6104 4.45014 14.6104C4.617 14.6104 4.75605 14.7476 4.75605 14.9167C4.75611 15.0855 4.61706 15.2232 4.45014 15.2232ZM4.45014 13.8829C3.87995 13.8829 3.4155 14.3465 3.4155 14.9167C3.4155 15.4866 3.87995 15.9505 4.45014 15.9505C5.01752 15.9505 5.48203 15.4866 5.48203 14.9167C5.48203 14.3465 5.01758 13.8829 4.45014 13.8829ZM10.7137 11.7937C10.5135 11.7937 10.3494 11.6307 10.3494 11.4299C10.3494 11.2286 10.5135 11.0662 10.7137 11.0662H11.5175C11.7178 11.0662 11.8819 11.2286 11.8819 11.4299C11.8819 11.6307 11.7178 11.7937 11.5175 11.7937H10.7137ZM10.4078 9.99423V8.57492H13.1836C13.3338 8.57492 13.4312 8.60328 13.5591 8.68369L15.6757 9.99423H10.4078ZM6.85046 9.83431L5.9298 9.54585L7.33441 8.66722C7.44565 8.59712 7.53745 8.57487 7.70712 8.57487H9.6791V9.99417H7.89623C7.52076 9.99423 7.20923 9.9461 6.85046 9.83431ZM17.1442 10.0485L13.9429 8.06592C13.7037 7.91519 13.4673 7.84784 13.1836 7.84784H7.70717C7.40121 7.84784 7.18148 7.90627 6.95063 8.05033L4.87297 9.34782C4.61034 9.51259 4.66337 9.91085 4.9564 10.0034L6.63354 10.5279C7.05911 10.6617 7.44846 10.7215 7.89628 10.7215H16.9524C17.3131 10.7216 17.451 10.2419 17.1442 10.0485ZM23.2688 14.5532H20.7015C20.5263 13.4523 19.5723 12.6082 18.4236 12.6082C17.2722 12.6082 16.3182 13.4523 16.1429 14.5532H6.72809C6.55286 13.4523 5.59884 12.6082 4.4502 12.6082C3.29869 12.6082 2.34472 13.4523 2.16949 14.5532H0.725957V11.9356C0.725957 11.4882 0.920627 11.1154 1.28502 10.8573C1.66329 10.5926 2.09994 10.3881 2.58945 10.2488C2.85924 10.1731 3.08177 10.0733 3.31819 9.92583L6.76427 7.77306C7.06187 7.58588 7.3539 7.50217 7.70717 7.50217H13.1836C13.5368 7.50217 13.8261 7.58588 14.1265 7.77306L17.4446 9.84571C17.8271 10.0851 18.1881 10.1378 18.5766 10.2276C19.0523 10.338 19.4806 10.422 19.8561 10.4954C21.4275 10.8039 22.1201 10.9402 22.7236 12.1389H21.9643C21.764 12.1389 21.5999 12.3019 21.5999 12.5024C21.5999 12.7035 21.764 12.8662 21.9643 12.8662H23.0323C23.2187 13.4164 23.2966 13.9727 23.2688 14.5532ZM18.4236 16.4973C19.2942 16.4973 20.0035 15.7886 20.0035 14.9166C20.0035 14.0449 19.2942 13.3354 18.4236 13.3354C17.5503 13.3354 16.8411 14.0449 16.8411 14.9166C16.8411 15.7886 17.5503 16.4973 18.4236 16.4973ZM4.45014 16.4973C5.32068 16.4973 6.02992 15.7886 6.02992 14.9166C6.02992 14.0449 5.32068 13.3354 4.45014 13.3354C3.57679 13.3354 2.86755 14.0449 2.86755 14.9166C2.86755 15.7886 3.57679 16.4973 4.45014 16.4973ZM23.6331 12.3962L23.6081 12.3322C22.7959 10.3308 21.803 10.1358 19.9979 9.78172L18.5683 9.48076C18.279 9.41705 18.0482 9.36671 17.8285 9.22904L14.5131 7.15639C14.0959 6.8958 13.6731 6.77454 13.1836 6.77454H7.70717C7.21766 6.77454 6.79489 6.8958 6.37768 7.15639L2.93435 9.30917C2.75637 9.42013 2.59502 9.49189 2.39197 9.54921C1.82459 9.71051 1.31002 9.95056 0.867816 10.2629C0.30875 10.657 3.05176e-05 11.2511 3.05176e-05 11.9356V14.9167C3.05176e-05 15.1175 0.161329 15.2805 0.361617 15.2805H2.16949C2.34472 16.3805 3.29869 17.2246 4.4502 17.2246C5.59889 17.2246 6.55286 16.3805 6.72809 15.2805H16.1429C16.3182 16.3805 17.2721 17.2246 18.4236 17.2246C19.5723 17.2246 20.5264 16.3805 20.7015 15.2805H23.6025C23.786 15.2805 23.9418 15.1422 23.9613 14.9595C24.067 14.0794 23.9558 13.2173 23.6331 12.3962Z" fill="black"/>
</svg>
