<svg width="20" height="20" viewBox="0 0 20 20" fill="none" xmlns="http://www.w3.org/2000/svg">
<path d="M14.7461 9.61328C14.7461 9.03173 14.273 8.55859 13.6914 8.55859H12.6367C12.0552 8.55859 11.582 9.03173 11.582 9.61328V13.3047H14.7461V9.61328ZM3.14453 3.63672C3.14453 2.76449 3.85434 2.05469 4.72656 2.05469H5.78125C6.49401 2.05469 7.09806 2.52873 7.29522 3.178C6.12726 3.44877 5.25391 4.49699 5.25391 5.74609V6.27344H10.5273V5.74609C10.5273 4.45698 9.59722 3.38173 8.37297 3.15438C8.14561 1.93002 7.07022 1 5.78125 1H4.72656C3.27285 1 2.08984 2.18266 2.08984 3.63672V8.55859H3.14453V3.63672Z" fill="#041614"/>
<path d="M15.8008 14.3594H10.5273V12.7773H2.08984V14.3594C2.08984 15.7393 2.85098 16.9445 3.97534 17.5779L3.29901 18.2542L4.04474 19L5.0641 17.9806C5.30029 18.0273 5.54049 18.0508 5.78125 18.0508H14.2188C14.4641 18.0508 14.7038 18.0265 14.9359 17.9806L15.9553 19L16.701 18.2542L16.0247 17.5779C17.149 16.9445 17.9102 15.7393 17.9102 14.3594V12.7773H15.8008V14.3594ZM17.9453 9.61328H15.8008V11.7227H17.9453C18.5268 11.7227 19 11.2495 19 10.668C19 10.0865 18.5268 9.61328 17.9453 9.61328ZM10.5273 9.61328H2.05469C1.4732 9.61328 1 10.0865 1 10.668C1 11.2495 1.4732 11.7227 2.05469 11.7227H10.5273V9.61328Z" fill="#041614"/>
</svg>
