<svg width="24" height="24" viewBox="0 0 24 24" fill="none" xmlns="http://www.w3.org/2000/svg">
<g clip-path="url(#clip0_0_111)">
<path d="M12 24C18.6274 24 24 18.6274 24 12C24 5.37258 18.6274 0 12 0C5.37258 0 0 5.37258 0 12C0 18.6274 5.37258 24 12 24Z" fill="#F7931E"/>
<path d="M24 12C24 18.64 18.64 24 12 24C5.36 24 0 18.64 0 12H24Z" fill="#009245"/>
<path d="M24 12C24 10.64 23.76 9.28 23.28 8H0.72C-0.24 10.56 -0.24 13.44 0.72 16H23.36C23.76 14.72 24 13.36 24 12Z" fill="#F0F0F0"/>
<path fill-rule="evenodd" clip-rule="evenodd" d="M8.67188 12.0234C8.67188 13.8486 10.1514 15.3281 11.9766 15.3281C13.8017 15.3281 15.2812 13.8486 15.2812 12.0234C15.2812 10.1983 13.8017 8.71875 11.9766 8.71875C10.1514 8.71875 8.67188 10.1983 8.67188 12.0234ZM14.4551 12.0234C14.4551 13.3923 13.3454 14.502 11.9766 14.502C10.6077 14.502 9.49805 13.3923 9.49805 12.0234C9.49805 10.6546 10.6077 9.54492 11.9766 9.54492C13.3454 9.54492 14.4551 10.6546 14.4551 12.0234Z" fill="#3D58DB"/>
<path fill-rule="evenodd" clip-rule="evenodd" d="M11.9725 12.7345L11.5009 15.3126L11.7747 12.7061L10.5959 15.0469L11.593 12.6231L9.80241 14.537L11.442 12.4923L9.18474 13.8241L11.334 12.3242L8.79291 12.9662L11.2777 12.1325L8.65868 12.0326L11.2777 11.9327L8.79291 11.099L11.334 11.741L9.18474 10.241L11.442 11.5729L9.80241 9.52815L11.593 11.442L10.5959 9.01821L11.7747 11.359L11.5009 8.75248L11.9725 11.3306L12.4441 8.75248L12.1703 11.359L13.3491 9.01821L12.352 11.442L14.1426 9.52815L12.503 11.5729L14.7603 10.241L12.611 11.741L15.1521 11.099L12.6673 11.9327L15.2863 12.0326L12.6673 12.1325L15.1521 12.9662L12.611 12.3242L14.7603 13.8241L12.503 12.4923L14.1426 14.537L12.352 12.6231L13.3491 15.0469L12.1703 12.7061L12.4441 15.3126L11.9725 12.7345Z" fill="#3D58DB"/>
</g>
<defs>
<clipPath id="clip0_0_111">
<rect width="24" height="24" fill="white"/>
</clipPath>
</defs>
</svg>
