<svg width="20" height="20" viewBox="0 0 20 20" fill="none" xmlns="http://www.w3.org/2000/svg">
<path d="M18.7269 18.5404V6.86622H1.27234V18.5462H1.27343C1.27381 18.6424 1.3123 18.7345 1.38045 18.8024C1.4486 18.8703 1.54088 18.9084 1.63707 18.9084H18.3643C18.4608 18.9084 18.5533 18.8701 18.6215 18.8019C18.6897 18.7337 18.728 18.6412 18.728 18.5448C18.728 18.5433 18.7269 18.5422 18.7269 18.5404ZM4.17779 11.5389C4.17779 11.6989 4.04688 11.8262 3.88688 11.8262H2.6687C2.5087 11.8262 2.37779 11.6989 2.37779 11.5389V8.94622C2.37779 8.78622 2.5087 8.65531 2.6687 8.65531H3.88688C4.04688 8.65531 4.17779 8.78622 4.17779 8.94622V11.5389ZM12.7996 18.1811H7.20325V13.7317C7.20325 12.9826 8.67961 11.8226 9.99961 11.1099C11.4214 11.8771 12.7996 13.0371 12.7996 13.7317V18.1811ZM14.676 18.1811H13.9487V12.9971C13.9487 11.3099 11.2287 9.66622 9.99961 9.08077C8.77052 9.66622 6.05052 11.3099 6.05052 12.9971V18.1811H5.32325V12.9971C5.32325 10.408 9.6687 8.43349 9.85052 8.34986C9.94507 8.30622 10.0542 8.30622 10.1487 8.34986C10.3342 8.43349 14.676 10.408 14.676 12.9971V18.1811ZM17.6251 11.5389C17.6251 11.6989 17.4942 11.8262 17.3342 11.8262H16.1123C15.9523 11.8262 15.8251 11.6989 15.8251 11.5389V8.94622C15.8251 8.78622 15.9523 8.65531 16.1123 8.65531H17.3342C17.4942 8.65531 17.6251 8.78622 17.6251 8.94622V11.5389ZM12.7196 2.18258C12.7196 1.57895 12.1923 1.09167 11.5487 1.09167C10.9014 1.09167 10.3778 1.57895 10.3778 2.18258V3.43713H12.7196V2.18258ZM15.8142 2.18258C15.8142 1.57895 15.2869 1.09167 14.6432 1.09167C13.996 1.09167 13.4723 1.57895 13.4723 2.18258V3.43713H15.8142V2.18258ZM18.7269 1.09167H17.9232C17.1596 1.09167 16.5414 1.70986 16.5414 2.47349V3.43713H18.7269V1.09167ZM3.46143 2.47349C3.46143 1.70986 2.83961 1.09167 2.07598 1.09167H1.27234V3.43713H3.46143V2.47349ZM18.7269 5.52077H18.5014C18.3014 5.52077 18.1378 5.35713 18.1378 5.15713C18.1378 4.95713 18.3014 4.79349 18.5014 4.79349H18.7269V4.1644H1.27234V4.79349H2.50143C2.70143 4.79349 2.86507 4.95713 2.86507 5.15713C2.86507 5.35713 2.70143 5.52077 2.50143 5.52077H1.27234V6.13895H18.7269V5.52077ZM5.41052 5.52004H3.95598C3.85953 5.52004 3.76704 5.48173 3.69885 5.41353C3.63065 5.34534 3.59234 5.25284 3.59234 5.1564C3.59234 5.05996 3.63065 4.96747 3.69885 4.89927C3.76704 4.83108 3.85953 4.79277 3.95598 4.79277H5.41052C5.50696 4.79277 5.59946 4.83108 5.66765 4.89927C5.73585 4.96747 5.77416 5.05996 5.77416 5.1564C5.77416 5.25284 5.73585 5.34534 5.66765 5.41353C5.59946 5.48173 5.50696 5.52004 5.41052 5.52004ZM8.31961 5.52004H6.86507C6.76862 5.52004 6.67613 5.48173 6.60794 5.41353C6.53974 5.34534 6.50143 5.25284 6.50143 5.1564C6.50143 5.05996 6.53974 4.96747 6.60794 4.89927C6.67613 4.83108 6.76862 4.79277 6.86507 4.79277H8.31961C8.41605 4.79277 8.50855 4.83108 8.57674 4.89927C8.64494 4.96747 8.68325 5.05996 8.68325 5.1564C8.68325 5.25284 8.64494 5.34534 8.57674 5.41353C8.50855 5.48173 8.41605 5.52004 8.31961 5.52004ZM11.2287 5.52004H9.77416C9.67771 5.52004 9.58522 5.48173 9.51703 5.41353C9.44883 5.34534 9.41052 5.25284 9.41052 5.1564C9.41052 5.05996 9.44883 4.96747 9.51703 4.89927C9.58522 4.83108 9.67771 4.79277 9.77416 4.79277H11.2287C11.3251 4.79277 11.4176 4.83108 11.4858 4.89927C11.554 4.96747 11.5923 5.05996 11.5923 5.1564C11.5923 5.25284 11.554 5.34534 11.4858 5.41353C11.4176 5.48173 11.3251 5.52004 11.2287 5.52004ZM14.1378 5.52004H12.6832C12.5868 5.52004 12.4943 5.48173 12.4261 5.41353C12.3579 5.34534 12.3196 5.25284 12.3196 5.1564C12.3196 5.05996 12.3579 4.96747 12.4261 4.89927C12.4943 4.83108 12.5868 4.79277 12.6832 4.79277H14.1378C14.2342 4.79277 14.3267 4.83108 14.3949 4.89927C14.4631 4.96747 14.5014 5.05996 14.5014 5.1564C14.5014 5.25284 14.4631 5.34534 14.3949 5.41353C14.3267 5.48173 14.2342 5.52004 14.1378 5.52004ZM17.0469 5.52004H15.5923C15.4959 5.52004 15.4034 5.48173 15.3352 5.41353C15.267 5.34534 15.2287 5.25284 15.2287 5.1564C15.2287 5.05996 15.267 4.96747 15.3352 4.89927C15.4034 4.83108 15.4959 4.79277 15.5923 4.79277H17.0469C17.1433 4.79277 17.2358 4.83108 17.304 4.89927C17.3722 4.96747 17.4105 5.05996 17.4105 5.1564C17.4105 5.25284 17.3722 5.34534 17.304 5.41353C17.2358 5.48173 17.1433 5.52004 17.0469 5.52004ZM9.62143 2.18258C9.62143 1.57895 9.09779 1.09167 8.45416 1.09167C7.80688 1.09167 7.28325 1.57895 7.28325 2.18258V3.43713H9.62143V2.18258ZM6.52688 2.18258C6.52688 1.57895 6.00325 1.09167 5.35961 1.09167C4.71234 1.09167 4.1887 1.57895 4.1887 2.18258V3.43713H6.52688V2.18258Z" fill="#1A1E1F"/>
</svg>
