<svg width="24" height="25" viewBox="0 0 24 25" fill="none" xmlns="http://www.w3.org/2000/svg">
<path d="M20.182 4.68205C18.8412 4.53993 17.5216 4.24158 16.25 3.79305C15.0835 3.3809 13.9645 2.84519 12.912 2.19506C12.6375 2.02703 12.3219 1.93811 12 1.93811C11.6781 1.93811 11.3625 2.02703 11.088 2.19506C10.0355 2.8452 8.91646 3.38092 7.75 3.79305C6.47845 4.24158 5.15883 4.53993 3.818 4.68205C3.3879 4.72636 2.98951 4.92858 2.69988 5.24961C2.41024 5.57065 2.24995 5.98768 2.25 6.42005V11.6161C2.25083 13.533 2.76393 15.415 3.73619 17.0671C4.70845 18.7193 6.10454 20.0816 7.78 21.0131L11.15 22.8851C11.4097 23.0305 11.7024 23.1068 12 23.1068C12.2976 23.1068 12.5903 23.0305 12.85 22.8851L16.22 21.0131C17.8955 20.0816 19.2916 18.7193 20.2638 17.0671C21.2361 15.415 21.7492 13.533 21.75 11.6161V6.42005C21.75 5.98768 21.5898 5.57065 21.3001 5.24961C21.0105 4.92858 20.6121 4.72636 20.182 4.68205Z" fill="#0DB561"/>
<path d="M11.3 15.733C11.0061 15.7336 10.7223 15.6257 10.503 15.43L7.653 12.897C7.53029 12.7938 7.42951 12.667 7.35661 12.5242C7.28372 12.3814 7.24019 12.2254 7.22859 12.0655C7.217 11.9055 7.23757 11.7449 7.28911 11.5931C7.34064 11.4412 7.42208 11.3012 7.52862 11.1814C7.63516 11.0616 7.76463 10.9643 7.9094 10.8953C8.05416 10.8264 8.21128 10.7871 8.37147 10.7799C8.53166 10.7727 8.69167 10.7977 8.84205 10.8533C8.99242 10.909 9.13012 10.9942 9.247 11.104L11.224 12.86L15.174 8.64601C15.3918 8.41408 15.6927 8.27803 16.0106 8.26772C16.3286 8.25741 16.6377 8.37368 16.87 8.59101C17.1024 8.80868 17.2388 9.1097 17.2493 9.42792C17.2598 9.74614 17.1435 10.0555 16.926 10.288L12.176 15.354C12.064 15.4743 11.9284 15.5701 11.7777 15.6355C11.6269 15.7009 11.4643 15.7344 11.3 15.734V15.733Z" fill="white"/>
</svg>
