<svg width="24" height="24" viewBox="0 0 24 24" fill="none" xmlns="http://www.w3.org/2000/svg">
<path d="M20.2327 15.1455L16.1527 16.8691C16.16 16.8182 16.1673 16.7673 16.1673 16.7128C16.1673 15.92 15.5236 15.2764 14.7309 15.2764H11.7927C11.6727 15.2764 11.5564 15.2509 11.4473 15.2L8.95638 14.0728C8.56398 13.8969 8.1391 13.8053 7.7091 13.8037H5.68001V14.5309H7.7091C8.03274 14.5309 8.36001 14.6 8.6582 14.7346L11.1491 15.8619C11.3527 15.9528 11.5709 16 11.7964 16H14.7346C15.1273 16 15.4436 16.32 15.4436 16.7091C15.4436 17.0982 15.1236 17.4182 14.7346 17.4182H10.9273V18.1455H14.7309C14.9818 18.1455 15.2146 18.0764 15.4182 17.9637V17.9673L20.5127 15.8109C20.7187 15.723 20.9405 15.6783 21.1644 15.6796C21.3883 15.6808 21.6096 15.728 21.8146 15.8182C22.1346 15.96 22.3964 16.1891 22.5709 16.4873L13.5782 21.2582C12.8909 21.6219 12.0727 21.6946 11.3309 21.4582L6.93092 20.0437L5.67638 20.0255V20.7528H6.76365L11.1091 22.1491C11.4691 22.2655 11.84 22.32 12.2146 22.32C12.8036 22.32 13.3927 22.1782 13.9164 21.8982L23.4982 16.8219L23.3927 16.5237C23.284 16.2195 23.114 15.9408 22.8932 15.705C22.6724 15.4692 22.4055 15.2812 22.1091 15.1528C21.5055 14.8946 20.84 14.8873 20.2327 15.1455ZM4.89092 21.3237V13.6037C4.89092 13.2037 4.56365 12.8764 4.16365 12.8764H0.501831V13.6037H4.16365V21.3273H0.501831V22.0546H4.16365C4.56365 22.051 4.89092 21.7237 4.89092 21.3237Z" fill="#041614"/>
<path d="M3.20731 20.1927C3.20712 20.2598 3.19373 20.3261 3.16789 20.388C3.14206 20.4499 3.10429 20.5061 3.05675 20.5533C3.0092 20.6006 2.95281 20.6381 2.8908 20.6635C2.82878 20.689 2.76236 20.702 2.69531 20.7018C2.62827 20.7016 2.56191 20.6883 2.50004 20.6624C2.43818 20.6366 2.382 20.5988 2.33473 20.5513C2.28745 20.5037 2.25001 20.4473 2.22453 20.3853C2.19905 20.3233 2.18603 20.2569 2.18622 20.1898C2.18661 20.0544 2.24077 19.9247 2.33678 19.8293C2.4328 19.7338 2.56282 19.6804 2.69822 19.6807C2.83363 19.6811 2.96333 19.7353 3.0588 19.8313C3.15428 19.9273 3.2077 20.0573 3.20731 20.1927ZM9.10549 10.3382L9.49822 10.6291L12.2037 9.13093L14.6509 10.6037L14.8619 10.7273L15.2546 10.4437L14.6655 7.41093L16.8291 5.53456L17.0037 5.36729L16.8509 4.91638L13.7891 4.5382L12.6764 1.90547L12.5746 1.68729L12.3419 1.68365H12.0946L10.7891 4.48729L7.93822 4.72729L7.69458 4.75638L7.54913 5.21093L9.80731 7.31638L9.10549 10.3382ZM8.7964 5.38547L11.0582 5.18911L11.2728 5.16365L12.3164 2.92365L13.2 5.00729L13.2909 5.20729L15.7491 5.50911L14.0473 6.98547L13.8764 7.13093L14.3491 9.56729L12.4 8.39275L12.2146 8.29456L10.0582 9.49093L10.5637 7.30911L10.6255 7.08365L8.7964 5.38547Z" fill="#041614"/>
<path d="M4.32363 8.99635L3.79636 11.2618L3.72363 11.5236L4.13454 11.8254L6.4 10.5709L8.4 11.7709L8.62545 11.9127L9.02909 11.6182L8.53454 9.07635L9.06181 8.62181L8.58545 8.07272L7.88363 8.67999L7.77818 8.80363V8.94908L8.12 10.7564L6.64363 9.86544L6.56727 9.79272L6.25818 9.78544L6.18545 9.85817L4.67636 10.6945L5.08363 8.92726V8.71272L3.66909 7.39635L5.4 7.24363L5.56727 7.23999L5.72 7.08726L6.49454 5.42181L7.19272 7.06908L7.30545 7.28363H7.50909L8.38545 7.39272L8.47636 6.66908L7.77454 6.58544L6.8509 4.40363L6.72727 4.1709L6.22545 4.2109L6.15636 4.42544L5.17454 6.53817L2.86181 6.73817L2.57454 6.75272L2.42181 7.28363L2.62181 7.41453L4.32363 8.99635ZM16.2764 6.58544L16.3418 7.30908L17.0436 7.24363L17.2073 7.23635L17.36 7.08363L18.1345 5.41817L18.8 6.98544L18.8073 7.27999H19.1491L20.8836 7.49453L19.5345 8.66544L19.4145 8.79272V8.94908L19.76 10.7527L18.28 9.86544L18.2036 9.78908L17.8836 9.79272L17.8182 9.86181L16.3164 10.6945L16.7273 8.92726L16.7236 8.71272L15.7927 7.84363L15.2945 8.37454L15.96 8.99635L15.4364 11.2618L15.3636 11.5054L15.76 11.8327L18.04 10.5709L20.0436 11.7745L20.2691 11.9127L20.6655 11.6145L20.1709 9.07635L21.92 7.55999C22.04 7.46544 22.0909 7.30544 22.0509 7.15999L21.9673 6.90181L19.4145 6.58908L18.4836 4.39999L18.3745 4.19999L17.9418 4.18544L17.8291 4.36363L16.8109 6.53817L16.2764 6.58544Z" fill="#041614"/>
</svg>
