<svg width="24" height="24" viewBox="0 0 24 24" fill="none" xmlns="http://www.w3.org/2000/svg">
<path d="M22.3898 11.4446L22.2833 11.4296C21.9417 11.3817 21.6131 11.2666 21.3164 11.0909C21.0196 10.9151 20.7607 10.6823 20.5545 10.4059L17.25 6C17.0748 5.76767 16.8483 5.57905 16.588 5.44893C16.3278 5.31881 16.041 5.25072 15.75 5.25H1.875C1.3779 5.2506 0.901334 5.44833 0.549832 5.79983C0.198331 6.15133 0.000595447 6.6279 0 7.125L0 15.375C0.000595447 15.8721 0.198331 16.3487 0.549832 16.7002C0.901334 17.0517 1.3779 17.2494 1.875 17.25H2.50688C2.71897 17.6987 3.05415 18.0779 3.47341 18.3434C3.89266 18.609 4.37872 18.75 4.875 18.75C5.37128 18.75 5.85734 18.609 6.27659 18.3434C6.69585 18.0779 7.03103 17.6987 7.24312 17.25H16.7569C16.969 17.6987 17.3042 18.0779 17.7234 18.3434C18.1427 18.609 18.6287 18.75 19.125 18.75C19.6213 18.75 20.1073 18.609 20.5266 18.3434C20.9458 18.0779 21.281 17.6987 21.4931 17.25H22.125C22.6221 17.2494 23.0987 17.0517 23.4502 16.7002C23.8017 16.3487 23.9994 15.8721 24 15.375V13.3009C23.998 12.85 23.8344 12.4148 23.539 12.0742C23.2435 11.7337 22.8358 11.5103 22.3898 11.4446ZM23.25 14.25H22.875C22.6424 14.2497 22.4156 14.1775 22.2256 14.0432C22.0357 13.9089 21.892 13.7192 21.8141 13.5H23.25V14.25ZM0.75 13.5C0.849456 13.5 0.944839 13.5395 1.01517 13.6098C1.08549 13.6802 1.125 13.7755 1.125 13.875V14.625C1.125 14.7245 1.08549 14.8198 1.01517 14.8902C0.944839 14.9605 0.849456 15 0.75 15V13.5ZM4.875 18C4.50416 18 4.14165 17.89 3.83331 17.684C3.52496 17.478 3.28464 17.1851 3.14273 16.8425C3.00081 16.4999 2.96368 16.1229 3.03603 15.7592C3.10837 15.3955 3.28695 15.0614 3.54917 14.7992C3.8114 14.537 4.14549 14.3584 4.50921 14.286C4.87292 14.2137 5.24992 14.2508 5.59253 14.3927C5.93514 14.5346 6.22798 14.775 6.43401 15.0833C6.64003 15.3916 6.75 15.7542 6.75 16.125C6.7494 16.6221 6.55167 17.0987 6.20017 17.4502C5.84867 17.8017 5.3721 17.9994 4.875 18ZM19.125 18C18.7542 18 18.3916 17.89 18.0833 17.684C17.775 17.478 17.5346 17.1851 17.3927 16.8425C17.2508 16.4999 17.2137 16.1229 17.286 15.7592C17.3584 15.3955 17.537 15.0614 17.7992 14.7992C18.0614 14.537 18.3955 14.3584 18.7592 14.286C19.1229 14.2137 19.4999 14.2508 19.8425 14.3927C20.1851 14.5346 20.478 14.775 20.684 15.0833C20.89 15.3916 21 15.7542 21 16.125C20.9994 16.6221 20.8017 17.0987 20.4502 17.4502C20.0987 17.8017 19.6221 17.9994 19.125 18ZM22.125 16.5H21.72C21.777 16.1261 21.7526 15.7444 21.6483 15.3809C21.5441 15.0173 21.3626 14.6806 21.1162 14.3937C20.8697 14.1069 20.5642 13.8767 20.2206 13.7188C19.8769 13.561 19.5032 13.4793 19.125 13.4793C18.7468 13.4793 18.3731 13.561 18.0294 13.7188C17.6858 13.8767 17.3803 14.1069 17.1338 14.3937C16.8874 14.6806 16.7059 15.0173 16.6017 15.3809C16.4974 15.7444 16.473 16.1261 16.53 16.5H7.47C7.52701 16.1261 7.50257 15.7444 7.39835 15.3809C7.29413 15.0173 7.11259 14.6806 6.86616 14.3937C6.61973 14.1069 6.31422 13.8767 5.97055 13.7188C5.62689 13.561 5.25318 13.4793 4.875 13.4793C4.49682 13.4793 4.12311 13.561 3.77945 13.7188C3.43578 13.8767 3.13028 14.1069 2.88384 14.3937C2.63741 14.6806 2.45587 15.0173 2.35165 15.3809C2.24743 15.7444 2.22299 16.1261 2.28 16.5H1.875C1.64192 16.4993 1.41484 16.4261 1.22527 16.2905C1.0357 16.1549 0.893052 15.9636 0.817125 15.7432C1.10255 15.7262 1.37076 15.6011 1.56726 15.3934C1.76376 15.1857 1.87379 14.9109 1.875 14.625V13.875C1.875 13.5766 1.75647 13.2905 1.5455 13.0795C1.33452 12.8685 1.04837 12.75 0.75 12.75V7.125C0.75 6.82663 0.868526 6.54048 1.0795 6.3295C1.29048 6.11853 1.57663 6 1.875 6H15.75C15.9246 6.00049 16.0966 6.04137 16.2528 6.11944C16.4089 6.19751 16.5449 6.31064 16.65 6.45L19.9545 10.8559C20.2196 11.2113 20.5526 11.5107 20.9342 11.7366C21.3157 11.9626 21.7383 12.1106 22.1775 12.1721L22.284 12.1871C22.4542 12.2123 22.6165 12.2761 22.7582 12.3737C22.9 12.4712 23.0176 12.6 23.1019 12.75H21.375C21.2755 12.75 21.1802 12.7895 21.1098 12.8598C21.0395 12.9302 21 13.0255 21 13.125C21.0006 13.6221 21.1983 14.0987 21.5498 14.4502C21.9013 14.8017 22.3779 14.9994 22.875 15H23.25V15.375C23.25 15.6734 23.1315 15.9595 22.9205 16.1705C22.7095 16.3815 22.4234 16.5 22.125 16.5Z" fill="black"/>
<path d="M17.4562 8.4C17.4267 8.3606 17.3897 8.32741 17.3473 8.30232C17.3049 8.27723 17.258 8.26073 17.2093 8.25377C17.1605 8.2468 17.1109 8.24951 17.0632 8.26173C17.0155 8.27395 16.9706 8.29545 16.9313 8.325C16.8919 8.35455 16.8587 8.39157 16.8336 8.43394C16.8085 8.47631 16.792 8.52322 16.785 8.57197C16.7781 8.62072 16.7808 8.67036 16.793 8.71807C16.8052 8.76577 16.8267 8.8106 16.8563 8.85L17.925 10.275C17.9668 10.3307 17.9922 10.397 17.9985 10.4663C18.0047 10.5357 17.9916 10.6054 17.9604 10.6677C17.9293 10.73 17.8814 10.7824 17.8221 10.819C17.7629 10.8556 17.6946 10.875 17.625 10.875H13.875C13.7755 10.875 13.6802 10.8355 13.6098 10.7652C13.5395 10.6948 13.5 10.5995 13.5 10.5V7.5C13.5 7.40054 13.5395 7.30516 13.6098 7.23483C13.6802 7.16451 13.7755 7.125 13.875 7.125H15.375C15.4332 7.125 15.4906 7.13855 15.5427 7.16459C15.5948 7.19063 15.6401 7.22843 15.675 7.275L16.0125 7.725C16.0722 7.80457 16.161 7.85717 16.2595 7.87123C16.3579 7.8853 16.4579 7.85967 16.5375 7.8C16.6171 7.74033 16.6697 7.65149 16.6837 7.55303C16.6978 7.45458 16.6722 7.35456 16.6125 7.275L16.275 6.825C16.1699 6.68558 16.034 6.57239 15.8778 6.49432C15.7217 6.41625 15.5496 6.37541 15.375 6.375H13.875C13.5766 6.375 13.2905 6.49353 13.0795 6.7045C12.8685 6.91548 12.75 7.20163 12.75 7.5V10.5C12.75 10.7984 12.8685 11.0845 13.0795 11.2955C13.2905 11.5065 13.5766 11.625 13.875 11.625H17.625C17.8339 11.625 18.0387 11.5668 18.2164 11.457C18.3942 11.3471 18.5378 11.19 18.6312 11.0031C18.7247 10.8162 18.7642 10.6071 18.7455 10.399C18.7267 10.1909 18.6504 9.99214 18.525 9.825L17.4562 8.4ZM10.875 6.375H2.25C1.95163 6.375 1.66548 6.49353 1.4545 6.7045C1.24353 6.91548 1.125 7.20163 1.125 7.5V10.5C1.125 10.7984 1.24353 11.0845 1.4545 11.2955C1.66548 11.5065 1.95163 11.625 2.25 11.625H10.875C11.1734 11.625 11.4595 11.5065 11.6705 11.2955C11.8815 11.0845 12 10.7984 12 10.5V7.5C12 7.20163 11.8815 6.91548 11.6705 6.7045C11.4595 6.49353 11.1734 6.375 10.875 6.375ZM1.875 10.5V7.5C1.875 7.40054 1.91451 7.30516 1.98484 7.23483C2.05516 7.16451 2.15054 7.125 2.25 7.125H4.5V10.875H2.25C2.15054 10.875 2.05516 10.8355 1.98484 10.7652C1.91451 10.6948 1.875 10.5995 1.875 10.5ZM5.25 7.125H7.875V10.875H5.25V7.125ZM11.25 10.5C11.25 10.5995 11.2105 10.6948 11.1402 10.7652C11.0698 10.8355 10.9745 10.875 10.875 10.875H8.625V7.125H10.875C10.9745 7.125 11.0698 7.16451 11.1402 7.23483C11.2105 7.30516 11.25 7.40054 11.25 7.5V10.5ZM19.125 15C18.9025 15 18.685 15.066 18.5 15.1896C18.315 15.3132 18.1708 15.4889 18.0856 15.6945C18.0005 15.9 17.9782 16.1262 18.0216 16.3445C18.065 16.5627 18.1722 16.7632 18.3295 16.9205C18.4868 17.0778 18.6873 17.185 18.9055 17.2284C19.1238 17.2718 19.35 17.2495 19.5555 17.1644C19.7611 17.0792 19.9368 16.935 20.0604 16.75C20.184 16.565 20.25 16.3475 20.25 16.125C20.25 15.8266 20.1315 15.5405 19.9205 15.3295C19.7095 15.1185 19.4234 15 19.125 15ZM19.125 16.5C19.0508 16.5 18.9783 16.478 18.9167 16.4368C18.855 16.3956 18.8069 16.337 18.7785 16.2685C18.7502 16.2 18.7427 16.1246 18.7572 16.0518C18.7717 15.9791 18.8074 15.9123 18.8598 15.8598C18.9123 15.8074 18.9791 15.7717 19.0518 15.7572C19.1246 15.7427 19.2 15.7502 19.2685 15.7785C19.337 15.8069 19.3956 15.855 19.4368 15.9167C19.478 15.9783 19.5 16.0508 19.5 16.125C19.5 16.2245 19.4605 16.3198 19.3902 16.3902C19.3198 16.4605 19.2245 16.5 19.125 16.5ZM4.875 15C4.6525 15 4.43499 15.066 4.24998 15.1896C4.06498 15.3132 3.92078 15.4889 3.83564 15.6945C3.75049 15.9 3.72821 16.1262 3.77162 16.3445C3.81502 16.5627 3.92217 16.7632 4.0795 16.9205C4.23684 17.0778 4.43729 17.185 4.65552 17.2284C4.87375 17.2718 5.09995 17.2495 5.30552 17.1644C5.51109 17.0792 5.68679 16.935 5.8104 16.75C5.93402 16.565 6 16.3475 6 16.125C6 15.8266 5.88147 15.5405 5.6705 15.3295C5.45952 15.1185 5.17337 15 4.875 15ZM4.875 16.5C4.80083 16.5 4.72833 16.478 4.66666 16.4368C4.60499 16.3956 4.55693 16.337 4.52855 16.2685C4.50016 16.2 4.49274 16.1246 4.50721 16.0518C4.52167 15.9791 4.55739 15.9123 4.60984 15.8598C4.66228 15.8074 4.7291 15.7717 4.80184 15.7572C4.87458 15.7427 4.94998 15.7502 5.01851 15.7785C5.08703 15.8069 5.1456 15.855 5.1868 15.9167C5.22801 15.9783 5.25 16.0508 5.25 16.125C5.25 16.2245 5.21049 16.3198 5.14016 16.3902C5.06984 16.4605 4.97446 16.5 4.875 16.5ZM14.625 12H13.875C13.7755 12 13.6802 12.0395 13.6098 12.1098C13.5395 12.1802 13.5 12.2755 13.5 12.375C13.5 12.4745 13.5395 12.5698 13.6098 12.6402C13.6802 12.7105 13.7755 12.75 13.875 12.75H14.625C14.7245 12.75 14.8198 12.7105 14.8902 12.6402C14.9605 12.5698 15 12.4745 15 12.375C15 12.2755 14.9605 12.1802 14.8902 12.1098C14.8198 12.0395 14.7245 12 14.625 12ZM10.875 12C10.7755 12 10.6802 12.0395 10.6098 12.1098C10.5395 12.1802 10.5 12.2755 10.5 12.375V12.75C10.5 12.8495 10.5395 12.9448 10.6098 13.0152C10.6802 13.0855 10.7755 13.125 10.875 13.125C10.9745 13.125 11.0698 13.0855 11.1402 13.0152C11.2105 12.9448 11.25 12.8495 11.25 12.75V12.375C11.25 12.2755 11.2105 12.1802 11.1402 12.1098C11.0698 12.0395 10.9745 12 10.875 12Z" fill="black"/>
</svg>
