<svg width="20" height="21" viewBox="0 0 20 21" fill="none" xmlns="http://www.w3.org/2000/svg">
<path d="M15.6569 12.8431C14.7855 11.9718 13.7484 11.3268 12.6168 10.9363C13.8288 10.1016 14.625 8.70463 14.625 7.125C14.625 4.57478 12.5502 2.5 10 2.5C7.44978 2.5 5.375 4.57478 5.375 7.125C5.375 8.70463 6.17122 10.1016 7.38319 10.9363C6.25163 11.3268 5.2145 11.9718 4.34316 12.8431C2.83216 14.3542 2 16.3631 2 18.5H3.25C3.25 14.778 6.27803 11.75 10 11.75C13.722 11.75 16.75 14.778 16.75 18.5H18C18 16.3631 17.1678 14.3542 15.6569 12.8431ZM10 10.5C8.13903 10.5 6.625 8.986 6.625 7.125C6.625 5.264 8.13903 3.75 10 3.75C11.861 3.75 13.375 5.264 13.375 7.125C13.375 8.986 11.861 10.5 10 10.5Z" fill="#041614"/>
</svg>
