<svg width="68" height="68" viewBox="0 0 68 68" fill="none" xmlns="http://www.w3.org/2000/svg">
<path fill-rule="evenodd" clip-rule="evenodd" d="M19.0984 60.1201C12.8567 60.1208 5.17507 60.1208 2.762 60.1208C2.66563 60.1208 2.5704 60.0999 2.48288 60.0595C2.39536 60.0192 2.31764 59.9603 2.25505 59.887C2.19247 59.8137 2.14653 59.7277 2.12038 59.635C2.09423 59.5422 2.08851 59.4449 2.1036 59.3497C3.14227 53.1926 8.4968 48.5008 14.9465 48.5008C17.9411 48.5008 20.6989 49.511 22.8983 51.2093C20.9281 53.3298 19.5573 56.0156 19.0557 58.9961L19.0525 59.0158C18.9942 59.3833 19.0098 59.7587 19.0984 60.1201ZM45.1045 51.2089C47.3039 49.5109 50.0608 48.5008 53.0535 48.5008C59.5067 48.5008 64.8615 53.1928 65.8944 59.3504C65.9093 59.4452 65.9036 59.5421 65.8775 59.6345C65.8514 59.7268 65.8056 59.8124 65.7433 59.8854C65.6809 59.9584 65.6035 60.017 65.5163 60.0572C65.4292 60.0974 65.3344 60.1182 65.2384 60.1182C62.8263 60.1198 55.146 60.1205 48.9044 60.1206C48.992 59.7636 49.0093 59.3885 48.9507 59.0169L48.9472 58.9962C48.446 56.0154 47.0752 53.3296 45.1045 51.2089ZM14.9465 47.1674C11.3209 47.1674 8.3656 44.2086 8.3656 40.583C8.3656 36.9574 11.3209 33.9986 14.9465 33.9986C18.5756 33.9986 21.5309 36.9574 21.5309 40.583C21.5309 44.2086 18.5756 47.1674 14.9465 47.1674ZM53.0535 47.1674C49.4279 47.1674 46.4725 44.2086 46.4725 40.583C46.4725 36.9574 49.4279 33.9986 53.0535 33.9986C56.6825 33.9986 59.6379 36.9574 59.6379 40.583C59.6379 44.2086 56.6825 47.1674 53.0535 47.1674ZM21.1596 59.3501C22.1956 53.1926 27.5501 48.5008 34 48.5008C40.4532 48.5008 45.808 53.1928 46.8435 59.35C46.8585 59.4451 46.8527 59.5424 46.8265 59.6351C46.8003 59.7279 46.7543 59.8138 46.6917 59.8871C46.6292 59.9603 46.5514 60.0191 46.464 60.0595C46.3765 60.0998 46.2813 60.1207 46.1849 60.1208C42.3956 60.1208 25.6057 60.1208 21.8155 60.1182C21.7195 60.1182 21.6246 60.0974 21.5374 60.0572C21.4502 60.017 21.3728 59.9584 21.3104 59.8854C21.2481 59.8124 21.2023 59.7267 21.1763 59.6343C21.1502 59.5419 21.1445 59.4449 21.1596 59.3501ZM34 47.1674C30.3744 47.1674 27.4191 44.2086 27.4191 40.583C27.4191 36.9574 30.3744 33.9986 34 33.9986C37.6291 33.9986 40.5844 36.9574 40.5844 40.583C40.5844 44.2086 37.6291 47.1674 34 47.1674ZM2 25.0477V14.3782C2 13.2053 2.95707 12.2482 4.13 12.2482H19.7203C20.8932 12.2482 21.8503 13.2053 21.8503 14.3782V25.0477C21.8503 26.2208 20.8932 27.1745 19.7203 27.1745H17.9189V30.5182C17.9189 30.598 17.895 30.6759 17.8503 30.742C17.8056 30.8081 17.7422 30.8594 17.6682 30.8891C17.5942 30.9189 17.5129 30.9259 17.4349 30.9092C17.3569 30.8925 17.2857 30.8528 17.2304 30.7953L13.7523 27.1745H4.13C2.95707 27.1745 2 26.2208 2 25.0477ZM11.9252 15.9466C9.79693 15.9466 8.06907 17.6745 8.06907 19.8026C8.06907 21.9308 9.79693 23.6586 11.9252 23.6586C14.0533 23.6586 15.7812 21.9308 15.7812 19.8026C15.7812 17.6745 14.0533 15.9466 11.9252 15.9466ZM66 25.0477C66 26.2208 65.0429 27.1745 63.87 27.1745H54.2477L50.7696 30.7953C50.7143 30.8529 50.6431 30.8926 50.5651 30.9093C50.487 30.9261 50.4058 30.9191 50.3317 30.8893C50.2577 30.8595 50.1943 30.8083 50.1496 30.7422C50.1049 30.676 50.0811 30.598 50.0811 30.5182V27.1745H48.2797C47.1068 27.1745 46.1497 26.2208 46.1497 25.0477V14.3782C46.1497 13.2053 47.1068 12.2482 48.2797 12.2482H63.87C65.0429 12.2482 66 13.2053 66 14.3782V25.0477ZM59.3297 16.3466C59.3297 16.2405 59.2876 16.1388 59.2126 16.0638C59.1376 15.9888 59.0358 15.9466 58.9297 15.9466H53.22C53.1139 15.9466 53.0122 15.9888 52.9371 16.0638C52.8621 16.1388 52.82 16.2405 52.82 16.3466V22.0565C52.82 22.1626 52.8621 22.2643 52.9371 22.3393C53.0122 22.4143 53.1139 22.4565 53.22 22.4565H58.9297C59.0358 22.4565 59.1376 22.4143 59.2126 22.3393C59.2876 22.2643 59.3297 22.1626 59.3297 22.0565V16.3466ZM42.9207 19.3833C42.9207 20.4376 42.0604 21.2949 41.0063 21.2949H32.3577L30.3911 24.4741C30.3513 24.5386 30.2939 24.5904 30.2258 24.6236C30.1576 24.6568 30.0815 24.6699 30.0061 24.6614C29.9308 24.6529 29.8595 24.6232 29.8004 24.5757C29.7413 24.5282 29.697 24.4649 29.6725 24.3932L28.6128 21.2949H26.9937C25.9396 21.2949 25.0793 20.4376 25.0793 19.3833V9.79355C25.0793 8.73928 25.9396 7.87915 26.9937 7.87915H41.0063C42.0604 7.87915 42.9207 8.73928 42.9207 9.79355V19.3833ZM33.6536 11.6161L30.5168 17.0493C30.4817 17.1101 30.4632 17.1791 30.4632 17.2493C30.4632 17.3195 30.4817 17.3885 30.5168 17.4493C30.5519 17.5101 30.6024 17.5606 30.6632 17.5957C30.724 17.6308 30.793 17.6493 30.8632 17.6493H37.1368C37.207 17.6493 37.276 17.6309 37.3369 17.5958C37.3977 17.5607 37.4482 17.5102 37.4833 17.4493C37.5184 17.3885 37.5369 17.3195 37.5369 17.2493C37.5369 17.1791 37.5183 17.1101 37.4832 17.0493L34.3464 11.6161C34.3113 11.5553 34.2608 11.5048 34.2 11.4697C34.1392 11.4346 34.0702 11.4161 34 11.4161C33.9298 11.4161 33.8608 11.4346 33.8 11.4697C33.7392 11.5048 33.6887 11.5553 33.6536 11.6161Z" fill="#115779"/>
</svg>
