<svg width="30" height="24" viewBox="0 0 30 24" fill="none" xmlns="http://www.w3.org/2000/svg">
<path d="M26.7676 10.1796H26.2344V3.99801C26.2344 2.2157 24.7843 0.765625 23.0019 0.765625H6.99809C5.21572 0.765625 3.7657 2.2157 3.7657 3.99801V10.1796H3.23238C1.45002 10.1796 0 11.6297 0 13.4121V22.3555C0 22.8409 0.393516 23.2344 0.878906 23.2344C1.3643 23.2344 1.75781 22.8409 1.75781 22.3555V21.3515H28.2422V22.3555C28.2422 22.8409 28.6357 23.2344 29.1211 23.2344C29.6065 23.2344 30 22.8409 30 22.3555V13.4121C30 11.6297 28.55 10.1796 26.7676 10.1796ZM5.52352 3.99801C5.52352 3.18496 6.18498 2.52344 6.99809 2.52344H23.002C23.8151 2.52344 24.4767 3.18496 24.4767 3.99801V10.1796H21.17C21.4052 9.72373 21.5277 9.21809 21.5274 8.70508V7.76365C21.5274 5.98135 20.0774 4.53127 18.295 4.53127H11.7052C9.92273 4.53127 8.47266 5.98135 8.47266 7.76365V8.70508C8.47231 9.21809 8.59487 9.72373 8.83008 10.1796H5.52352V3.99801ZM10.2305 8.70508V7.76365C10.2305 6.95061 10.892 6.28908 11.7052 6.28908H18.295C19.1081 6.28908 19.7696 6.95061 19.7696 7.76365V8.70508C19.7696 9.51813 19.1081 10.1796 18.295 10.1796H11.7052C10.892 10.1796 10.2305 9.51813 10.2305 8.70508ZM3.23238 11.9375H26.7677C27.5808 11.9375 28.2422 12.599 28.2422 13.4121V15.8281H1.75781V13.4121C1.75781 12.599 2.41928 11.9375 3.23238 11.9375ZM1.75781 17.5859H28.2422V19.5937H1.75781V17.5859Z" fill="black"/>
</svg>
