<svg width="24" height="24" viewBox="0 0 24 24" fill="none" xmlns="http://www.w3.org/2000/svg">
<path d="M1.5 16.4325C1.6632 16.4315 1.82622 16.4435 1.9875 16.4685C2.0005 16.4725 2.014 16.474 2.0275 16.4765C2.37217 16.5461 2.70016 16.6816 2.9935 16.8755C3.58694 17.2692 4.28652 17.4721 4.9985 17.457C5.70279 17.4737 6.39538 17.2748 6.9835 16.887C6.99027 16.8835 6.99694 16.8799 7.0035 16.876C7.44209 16.5747 7.96456 16.4195 8.4965 16.4325C9.02978 16.4206 9.55349 16.5754 9.9945 16.8755C10.5859 17.2694 11.284 17.4724 11.9945 17.457C12.7064 17.4706 13.4056 17.268 14 16.876C14.4386 16.5747 14.9611 16.4195 15.493 16.4325C16.0296 16.4211 16.5563 16.5777 16.9995 16.8805C17.5914 17.2705 18.2878 17.4715 18.9965 17.457C19.4741 17.4676 19.9488 17.379 20.3905 17.197C20.6009 17.104 20.8047 16.9968 21.0005 16.876C21.4439 16.5798 21.9668 16.4252 22.5 16.4325C22.6326 16.4325 22.7598 16.3798 22.8536 16.2861C22.9473 16.1923 23 16.0651 23 15.9325C23 15.7999 22.9473 15.6727 22.8536 15.5789C22.7598 15.4852 22.6326 15.4325 22.5 15.4325C22.3055 15.4302 22.1112 15.4439 21.919 15.4735C21.4109 15.5493 20.925 15.7336 20.4945 16.014C20.3355 16.1125 20.1701 16.2004 19.9995 16.277C19.6815 16.4068 19.3398 16.4681 18.9965 16.457C18.4584 16.4705 17.9299 16.3129 17.487 16.007C17.0675 15.7362 16.5961 15.5557 16.103 15.477L11.983 9.4605L17.2625 6.818C17.4947 6.702 17.6987 6.53644 17.8599 6.33299C18.0212 6.12954 18.1358 5.89317 18.1957 5.64057C18.2556 5.38798 18.2593 5.12531 18.2066 4.87112C18.1538 4.61694 18.0459 4.37742 17.8905 4.1695C17.6413 3.84798 17.2907 3.62012 16.8957 3.52291C16.5007 3.4257 16.0845 3.46485 15.7145 3.634L8.4205 7.0865C8.16701 7.20661 7.94107 7.3778 7.75686 7.58934C7.57264 7.80088 7.43413 8.0482 7.35 8.3158C7.26587 8.58339 7.23795 8.86548 7.26798 9.14437C7.298 9.42327 7.38534 9.69295 7.5245 9.9365L8.494 11.6605L2.0265 15.467C1.8519 15.4445 1.67605 15.4331 1.5 15.433C1.36739 15.433 1.24021 15.4857 1.14645 15.5794C1.05268 15.6732 1 15.8004 1 15.933C1 16.0656 1.05268 16.1928 1.14645 16.2866C1.24021 16.3803 1.36739 16.4325 1.5 16.4325ZM9.0035 12.5205C9.23249 12.3853 9.39896 12.1653 9.46682 11.9082C9.53468 11.6511 9.49845 11.3776 9.366 11.147L8.392 9.4395C8.32141 9.31559 8.27716 9.17843 8.26203 9.03662C8.24689 8.89481 8.2612 8.75141 8.30405 8.61539C8.34691 8.47936 8.41738 8.35365 8.51107 8.24613C8.60475 8.1386 8.71963 8.05158 8.8485 7.9905L16.1415 4.5385C16.2729 4.4749 16.4196 4.45004 16.5646 4.46685C16.7096 4.48366 16.8468 4.54144 16.9601 4.63342C17.0735 4.72539 17.1582 4.84776 17.2045 4.98618C17.2508 5.12461 17.2567 5.27335 17.2215 5.415C17.1961 5.5245 17.1465 5.62693 17.0765 5.71483C17.0064 5.80272 16.9176 5.87384 16.8165 5.923L11.539 8.5645C11.4095 8.62797 11.2951 8.71855 11.2037 8.83009C11.1122 8.94164 11.0458 9.07154 11.009 9.211C10.9718 9.35202 10.9653 9.49939 10.9901 9.64312C11.0149 9.78684 11.0703 9.92356 11.1525 10.044L14.8885 15.4765C14.3906 15.5551 13.915 15.7383 13.493 16.014C13.053 16.3162 12.5286 16.4713 11.995 16.457C11.4585 16.4698 10.9318 16.3122 10.4905 16.007C9.89919 15.6183 9.20396 15.418 8.4965 15.4325C7.79025 15.4171 7.09614 15.6177 6.507 16.0075L6.484 16.0205C6.04747 16.3195 5.52737 16.4723 4.9985 16.457C4.46441 16.4698 3.93982 16.3143 3.499 16.0125C3.429 15.9715 3.356 15.93 3.282 15.8885L9.0035 12.5205ZM22.5 18.506C21.7887 18.4915 21.0899 18.694 20.4965 19.0865C20.0502 19.3762 19.5296 19.5304 18.9975 19.5304C18.4654 19.5304 17.9448 19.3762 17.4985 19.0865C16.8992 18.7073 16.2045 18.506 15.4952 18.506C14.786 18.506 14.0913 18.7073 13.492 19.0865C13.0518 19.3879 12.5279 19.5432 11.9945 19.5305C11.4616 19.5432 10.9382 19.3879 10.4985 19.0865C9.90607 18.694 9.20802 18.4915 8.4975 18.506C7.7865 18.4914 7.08795 18.6939 6.495 19.0865C6.05497 19.388 5.53123 19.5433 4.998 19.5305C4.46494 19.5432 3.94139 19.3879 3.5015 19.0865C2.90887 18.694 2.21067 18.4915 1.5 18.506C1.36739 18.506 1.24021 18.5587 1.14645 18.6524C1.05268 18.7462 1 18.8734 1 19.006C1 19.1386 1.05268 19.2658 1.14645 19.3596C1.24021 19.4533 1.36739 19.506 1.5 19.506C2.03307 19.4933 2.55662 19.6486 2.9965 19.95C3.58928 20.3426 4.28766 20.5451 4.9985 20.5305C5.70916 20.5449 6.40733 20.3424 7 19.95C7.44003 19.6486 7.96377 19.4932 8.497 19.506C9.02975 19.4934 9.55296 19.6487 9.9925 19.95C10.5851 20.3426 11.2833 20.5451 11.994 20.5305C12.7052 20.5451 13.4039 20.3426 13.997 19.95C14.4429 19.6603 14.9633 19.5062 15.495 19.5062C16.0267 19.5062 16.5471 19.6603 16.993 19.95C17.5925 20.3293 18.2873 20.5306 18.9967 20.5306C19.7062 20.5306 20.401 20.3293 21.0005 19.95C21.4414 19.6485 21.966 19.4932 22.5 19.506C22.6326 19.506 22.7598 19.4533 22.8536 19.3596C22.9473 19.2658 23 19.1386 23 19.006C23 18.8734 22.9473 18.7462 22.8536 18.6524C22.7598 18.5587 22.6326 18.506 22.5 18.506Z" fill="#041614"/>
<path d="M15.3415 11.3235C15.3416 12.0301 15.5512 12.7209 15.9439 13.3084C16.3365 13.8959 16.8946 14.3537 17.5474 14.6241C18.2003 14.8945 18.9186 14.9652 19.6117 14.8273C20.3047 14.6894 20.9413 14.3492 21.441 13.8495C21.9407 13.3498 22.2809 12.7132 22.4188 12.0202C22.5567 11.3271 22.486 10.6088 22.2156 9.9559C21.9453 9.30304 21.4874 8.74501 20.8999 8.35237C20.3124 7.95972 19.6216 7.7501 18.915 7.75C17.9676 7.75106 17.0594 8.12791 16.3895 8.79785C15.7197 9.4678 15.3424 10.3761 15.3415 11.3235ZM18.915 8.75C19.4239 8.75 19.9214 8.9009 20.3445 9.18363C20.7676 9.46635 21.0974 9.8682 21.2921 10.3384C21.4869 10.8085 21.5378 11.3259 21.4386 11.825C21.3393 12.3241 21.0942 12.7825 20.7344 13.1424C20.3746 13.5022 19.9161 13.7473 19.417 13.8466C18.9179 13.9458 18.4005 13.8949 17.9304 13.7001C17.4602 13.5054 17.0584 13.1756 16.7756 12.7525C16.4929 12.3294 16.342 11.8319 16.342 11.323C16.3428 10.6408 16.6141 9.98685 17.0965 9.50449C17.5789 9.02213 18.2328 8.75079 18.915 8.75Z" fill="#041614"/>
</svg>
