<svg width="25" height="24" viewBox="0 0 25 24" fill="none" xmlns="http://www.w3.org/2000/svg">
<path d="M15.5 22.5H9.5C9.0875 22.5 8.75 22.1625 8.75 21.75V17.25C8.75 16.0125 9.7625 15 11 15H14C15.2375 15 16.25 16.0125 16.25 17.25V21.75C16.25 22.1625 15.9125 22.5 15.5 22.5ZM10.25 21H14.75V17.25C14.75 16.8375 14.4125 16.5 14 16.5H11C10.5875 16.5 10.25 16.8375 10.25 17.25V21Z" fill="#115779"/>
<path d="M20 22.5H5C4.5875 22.5 4.25 22.1625 4.25 21.75V7.5C4.25 5.8425 5.5925 4.5 7.25 4.5H17.75C19.4075 4.5 20.75 5.8425 20.75 7.5V21.75C20.75 22.1625 20.4125 22.5 20 22.5ZM5.75 21H19.25V7.5C19.25 6.675 18.575 6 17.75 6H7.25C6.425 6 5.75 6.675 5.75 7.5V21Z" fill="#115779"/>
<path d="M17 6H8C7.5875 6 7.25 5.6625 7.25 5.25V3.75C7.25 2.5125 8.2625 1.5 9.5 1.5H15.5C16.7375 1.5 17.75 2.5125 17.75 3.75V5.25C17.75 5.6625 17.4125 6 17 6ZM8.75 4.5H16.25V3.75C16.25 3.3375 15.9125 3 15.5 3H9.5C9.0875 3 8.75 3.3375 8.75 3.75V4.5ZM21.5 22.5H3.5C3.0875 22.5 2.75 22.1625 2.75 21.75C2.75 21.3375 3.0875 21 3.5 21H21.5C21.9125 21 22.25 21.3375 22.25 21.75C22.25 22.1625 21.9125 22.5 21.5 22.5ZM10.25 9.75H8C7.5875 9.75 7.25 9.4125 7.25 9C7.25 8.5875 7.5875 8.25 8 8.25H10.25C10.6625 8.25 11 8.5875 11 9C11 9.4125 10.6625 9.75 10.25 9.75ZM10.25 12.75H8C7.5875 12.75 7.25 12.4125 7.25 12C7.25 11.5875 7.5875 11.25 8 11.25H10.25C10.6625 11.25 11 11.5875 11 12C11 12.4125 10.6625 12.75 10.25 12.75ZM17 9.75H14.75C14.3375 9.75 14 9.4125 14 9C14 8.5875 14.3375 8.25 14.75 8.25H17C17.4125 8.25 17.75 8.5875 17.75 9C17.75 9.4125 17.4125 9.75 17 9.75ZM17 12.75H14.75C14.3375 12.75 14 12.4125 14 12C14 11.5875 14.3375 11.25 14.75 11.25H17C17.4125 11.25 17.75 11.5875 17.75 12C17.75 12.4125 17.4125 12.75 17 12.75Z" fill="#115779"/>
</svg>
