<svg width="20" height="20" viewBox="0 0 20 20" fill="none" xmlns="http://www.w3.org/2000/svg">
<path d="M17.5433 2.45801H2.45667C1.85066 2.45889 1.26976 2.70015 0.841431 3.12885C0.413106 3.55755 0.172351 4.13867 0.171999 4.74467V13.2393C0.172175 13.8453 0.412895 14.4265 0.841276 14.8551C1.26966 15.2838 1.85067 15.5248 2.45667 15.5253H7.99467L6 16.5833C5.40867 16.858 5.82 17.7627 6.41733 17.492C6.45133 17.466 9.95867 15.6193 10 15.592L13.5287 17.4673C13.6006 17.506 13.681 17.5261 13.7627 17.526C14.2727 17.5467 14.4593 16.8067 14 16.5833L12.0053 15.5253H17.5433C18.1492 15.5246 18.73 15.2836 19.1583 14.8552C19.5866 14.4267 19.8275 13.8458 19.828 13.24V4.74467C19.8276 4.13867 19.5869 3.55755 19.1586 3.12885C18.7302 2.70015 18.1493 2.45889 17.5433 2.45801ZM18.828 13.2387C18.8281 13.4075 18.7949 13.5746 18.7304 13.7306C18.6659 13.8866 18.5713 14.0283 18.452 14.1477C18.3327 14.2672 18.1911 14.3619 18.0352 14.4266C17.8792 14.4913 17.7121 14.5246 17.5433 14.5247H2.45667C2.116 14.5241 1.78944 14.3885 1.54862 14.1476C1.30779 13.9066 1.17235 13.58 1.172 13.2393V4.74467C1.172 4.03467 1.74667 3.45934 2.45667 3.45867H17.5433C17.884 3.4592 18.2106 3.59481 18.4514 3.83576C18.6922 4.07672 18.8276 4.40334 18.828 4.74401V13.2387Z" fill="black"/>
<path d="M9.11867 6.68263H5.35467C5.22206 6.68263 5.09488 6.73531 5.00111 6.82907C4.90734 6.92284 4.85467 7.05002 4.85467 7.18263C4.85467 7.31524 4.90734 7.44241 5.00111 7.53618C5.09488 7.62995 5.22206 7.68263 5.35467 7.68263H6.73667V10.8C6.73667 10.9326 6.78934 11.0597 6.88311 11.1535C6.97688 11.2473 7.10406 11.3 7.23667 11.3C7.36927 11.3 7.49645 11.2473 7.59022 11.1535C7.68399 11.0597 7.73667 10.9326 7.73667 10.8V7.68263H9.11867C9.77267 7.67996 9.77267 6.68596 9.11867 6.68263ZM14.8647 6.73329C14.8057 6.70449 14.7416 6.68759 14.676 6.68356C14.6105 6.67953 14.5448 6.68845 14.4827 6.70981C14.4206 6.73116 14.3633 6.76454 14.3141 6.80804C14.2649 6.85153 14.2248 6.90429 14.196 6.96329L12.8813 9.65796L11.5673 6.96196C11.2773 6.37529 10.3813 6.81129 10.6667 7.40196L12.432 11.0193C12.604 11.3826 13.158 11.3853 13.3307 11.0193L15.0947 7.40196C15.1235 7.34295 15.1404 7.27885 15.1444 7.21331C15.1484 7.14777 15.1395 7.08208 15.1182 7.01999C15.0968 6.9579 15.0634 6.90062 15.0199 6.85143C14.9764 6.80224 14.9237 6.7621 14.8647 6.73329Z" fill="black"/>
</svg>
