<svg width="20" height="20" viewBox="0 0 20 20" fill="none" xmlns="http://www.w3.org/2000/svg">
<g clip-path="url(#clip0_3_1158)">
<path d="M18.9637 14.7867L18.7077 13.6173L17.2961 13.9263L15.6977 12.9022L17.5937 12.4871L17.3376 11.3177L14.2723 11.9888L12.9928 11.1689V8.82862L14.2693 7.99999L17.3386 8.65301L17.5877 7.48213L15.6893 7.07823L17.2816 6.04462L18.695 6.34533L18.9441 5.17445L17.8737 4.94668L18.1014 3.87624L16.9305 3.62712L16.6298 5.04053L15.0375 6.07414L15.4414 4.17575L14.2705 3.92663L13.6175 6.99591L12.3555 7.81508L10.5985 6.93657V5.45956L12.8174 3.24066L11.971 2.39419L10.5985 3.76662V1.86827L11.6203 0.846466L10.7739 0L9.99998 0.773843L9.22614 0L8.37967 0.846466L9.40143 1.86827V3.76662L8.02904 2.39419L7.18257 3.24066L9.40143 5.45956V6.93661L7.64234 7.81616L6.37358 7.00321L5.70241 3.93785L4.533 4.19387L4.94812 6.08983L3.34975 5.06567L3.04066 3.65409L1.87134 3.91011L2.10541 4.9792L1.03633 5.21327L1.29234 6.38268L2.70392 6.07363L4.30228 7.09778L2.40632 7.51289L2.66238 8.6823L5.7277 8.01116L7.0072 8.83102V11.1713L5.73066 12L2.66134 11.347L2.41223 12.5179L4.31062 12.9218L2.7184 13.9553L1.30503 13.6546L1.05592 14.8255L2.12636 15.0533L1.89863 16.1237L3.06955 16.3728L3.37026 14.9594L4.96252 13.9258L4.55862 15.8242L5.7295 16.0733L6.38252 13.0041L7.64449 12.1849L9.40151 13.0634V14.5404L7.18257 16.7593L8.02904 17.6058L9.40147 16.2334V18.1318L8.37967 19.1535L9.22614 20L10 19.2262L10.7739 20L11.6203 19.1535L10.5986 18.1317V16.2334L11.971 17.6058L12.8174 16.7593L10.5986 14.5404V13.0634L12.3577 12.1838L13.6264 12.9968L14.2976 16.0622L15.467 15.8061L15.0519 13.9102L16.6502 14.9344L16.9593 16.3459L18.1287 16.0899L17.8947 15.0208L18.9637 14.7867ZM11.7956 11.1264L9.99998 12.0243L8.20434 11.1264V8.87355L9.99998 7.97573L11.7956 8.87355V11.1264Z" fill="black"/>
</g>
<defs>
<clipPath id="clip0_3_1158">
<rect width="20" height="20" fill="white"/>
</clipPath>
</defs>
</svg>
