<svg width="25" height="24" viewBox="0 0 25 24" fill="none" xmlns="http://www.w3.org/2000/svg">
<g clip-path="url(#clip0_2_34)">
<path d="M8.82403 2.38702L15.531 8.87302L20.491 7.54302C21.1315 7.37156 21.8139 7.46156 22.388 7.79322C22.9622 8.12487 23.3811 8.67103 23.5525 9.31152C23.724 9.95202 23.634 10.6344 23.3023 11.2085C22.9707 11.7827 22.4245 12.2016 21.784 12.373L4.09003 17.115L0.926025 10.715L4.10003 9.86502L5.77703 11.487L9.11203 10.593L5.11003 3.38302L8.82403 2.38702ZM8.10003 4.65202L12.103 11.862L5.19903 13.712L4.12203 12.67L5.15503 14.759L21.267 10.442C21.3951 10.4075 21.5043 10.3236 21.5705 10.2086C21.6367 10.0937 21.6545 9.95712 21.62 9.82902C21.5855 9.70092 21.5016 9.59177 21.3866 9.52557C21.2717 9.45937 21.1351 9.44155 21.007 9.47602L14.955 11.097L8.24803 4.61202L8.10003 4.65202ZM2.50003 19H22.5V21H2.50003V19Z" fill="#115779"/>
</g>
<defs>
<clipPath id="clip0_2_34">
<rect width="24" height="24" fill="white" transform="translate(0.5)"/>
</clipPath>
</defs>
</svg>
