<svg width="24" height="24" viewBox="0 0 24 24" fill="none" xmlns="http://www.w3.org/2000/svg">
<g clip-path="url(#clip0_1_1632)">
<path d="M10.0007 10.8189H11.6007V11.6191H10.0007V10.8189Z" fill="black"/>
<path d="M23.6584 9.62288L20.9411 9.23482C20.4456 8.93045 19.9313 8.65791 19.4013 8.41884C17.6504 7.62581 15.7502 7.21662 13.8281 7.21876H13.3561C11.0876 7.22042 8.85554 7.7896 6.86327 8.87446L5.49192 9.62255C3.88661 9.64072 2.31239 10.0675 0.917689 10.8626C0.639256 11.0222 0.407826 11.2525 0.246717 11.5301C0.0856078 11.8077 0.00051089 12.1229 2.17139e-09 12.4438L2.17139e-09 14.8192C-5.47219e-06 14.8717 0.0103403 14.9237 0.0304463 14.9723C0.0505523 15.0208 0.0800248 15.0649 0.11718 15.1021C0.154336 15.1392 0.198446 15.1687 0.246992 15.1888C0.295538 15.2089 0.347568 15.2192 0.400111 15.2192H1.74329C2.18015 16.4656 3.54466 17.1219 4.791 16.685C5.12965 16.5663 5.43724 16.373 5.69098 16.1192C5.94472 15.8655 6.13809 15.5579 6.25677 15.2192H16.9444C17.3812 16.4656 18.7458 17.1219 19.9921 16.685C20.3307 16.5663 20.6383 16.3729 20.892 16.1192C21.1458 15.8654 21.3392 15.5579 21.4579 15.2192H21.6014C21.6524 15.2192 21.7028 15.2096 21.7502 15.1908L23.0459 14.6709C23.3286 14.5589 23.5711 14.3643 23.7416 14.1125C23.9121 13.8607 24.0027 13.5633 24.0017 13.2592V10.0189C24.0016 9.92261 23.9669 9.82959 23.9039 9.75686C23.8408 9.68412 23.7537 9.63658 23.6584 9.62288ZM5.56797 14.7393C5.391 15.6051 4.54573 16.1635 3.67992 15.9866C2.81403 15.8096 2.25553 14.9644 2.43246 14.0984C2.60956 13.2326 3.45482 12.6742 4.32063 12.8511C5.0656 13.0033 5.60047 13.6588 5.60031 14.4193C5.60028 14.5267 5.58948 14.634 5.56797 14.7393ZM12.8008 14.4193H6.40036C6.40036 13.0936 5.32587 12.019 4.00028 12.019C2.67464 12.019 1.60003 13.0937 1.60003 14.4193H0.800056V12.4439C0.800268 12.2638 0.847984 12.087 0.938385 11.9313C1.02879 11.7756 1.15867 11.6465 1.31492 11.5571C2.62023 10.8118 4.09725 10.4195 5.60035 10.419H12.8009L12.8008 14.4193ZM12.8008 9.61893H7.16929L7.24642 9.5768C8.95658 8.64737 10.8563 8.1205 12.8009 8.03632L12.8008 9.61893ZM13.6009 8.01873H13.8273C15.4394 8.01692 17.0369 8.323 18.5342 8.9205L17.8357 9.61897H13.6009L13.6009 8.01873ZM20.769 14.7393C20.5921 15.6051 19.7468 16.1635 18.8809 15.9866C18.0151 15.8096 17.4566 14.9644 17.6336 14.0984C17.8105 13.2326 18.6559 12.6742 19.5217 12.8511C20.2667 13.0033 20.8016 13.6588 20.8014 14.4193C20.8014 14.5267 20.7905 14.634 20.769 14.7393ZM23.2016 10.8189H22.0015V11.6191H23.2016V13.2592C23.2021 13.4032 23.1592 13.544 23.0784 13.6632C22.9976 13.7824 22.8828 13.8745 22.7488 13.9275L21.6014 14.3883C21.6014 14.3515 21.5967 14.315 21.5943 14.2783C21.5918 14.2415 21.591 14.1983 21.5871 14.1583C21.583 14.1183 21.575 14.0782 21.5687 14.0383C21.5622 13.9983 21.5575 13.9582 21.5495 13.9219C21.5415 13.8855 21.5298 13.8451 21.5194 13.807C21.509 13.7691 21.501 13.7307 21.489 13.6934C21.4771 13.6563 21.4626 13.6207 21.4491 13.5842C21.4354 13.5479 21.423 13.5103 21.4091 13.4742C21.395 13.4382 21.3762 13.4054 21.3594 13.3714C21.3426 13.3374 21.3262 13.3002 21.3075 13.2658C21.2886 13.2315 21.2674 13.2022 21.2493 13.1703C21.2314 13.1382 21.2095 13.1018 21.1867 13.069C21.1638 13.0362 21.1426 13.0102 21.1206 12.9807C21.0986 12.951 21.0737 12.9162 21.0482 12.8854C21.0226 12.8547 20.9987 12.8306 20.9738 12.8053C20.949 12.7803 20.9214 12.7463 20.8939 12.7182C20.8662 12.6903 20.839 12.6681 20.8115 12.6434C20.7838 12.6186 20.7542 12.5893 20.7238 12.5633C20.6935 12.5374 20.6626 12.5174 20.6323 12.4946C20.6019 12.4718 20.5714 12.4474 20.5395 12.4261C20.5074 12.4049 20.4715 12.3862 20.4371 12.3637C20.4026 12.3412 20.3746 12.3237 20.3422 12.3066C20.3098 12.2894 20.2695 12.2713 20.2327 12.2537C20.1959 12.2361 20.1671 12.2205 20.1331 12.2062C20.0991 12.1917 20.053 12.1766 20.0131 12.1622C19.9731 12.1477 19.947 12.1365 19.913 12.1258C19.8674 12.1118 19.8207 12.1017 19.7742 12.0901C19.7437 12.083 19.7146 12.0733 19.6838 12.067C19.6347 12.0569 19.5842 12.0514 19.5342 12.0441C19.5046 12.0401 19.4763 12.0336 19.4467 12.0309C19.3656 12.0227 19.2842 12.0186 19.2027 12.0185C17.8776 12.0198 16.8038 13.0936 16.8024 14.4187H13.601V10.4189H18.0012C18.0538 10.4189 18.1058 10.4085 18.1543 10.3884C18.2028 10.3683 18.2469 10.3388 18.284 10.3017L19.3213 9.26432C19.7568 9.47154 20.1801 9.70314 20.5895 9.95803C20.6367 9.98754 20.6895 10.0069 20.7446 10.0149L23.2017 10.3656L23.2016 10.8189Z" fill="black"/>
</g>
<defs>
<clipPath id="clip0_1_1632">
<rect width="24" height="24" fill="white"/>
</clipPath>
</defs>
</svg>
