<svg width="50" height="50" viewBox="0 0 50 50" fill="none" xmlns="http://www.w3.org/2000/svg">
<g clip-path="url(#clip0_1_942)">
<path d="M0 0.000244141H49.8758L50 26.8038L47.4071 30.8587L49.8758 34.3003V50.0002H0V24.5555L1.54295 22.7767L0 21.0753V0.000244141Z" fill="#016FD0"/>
<path d="M9.68201 34.8415V26.9916H17.973L18.8626 28.1541L19.7815 26.9916H49.8758V34.3002C49.8758 34.3002 49.0888 34.8337 48.1786 34.8415H31.5147L30.5118 33.6041V34.8415H27.2253V32.7292C27.2253 32.7292 26.7764 33.0241 25.8058 33.0241H24.6872V34.8415H19.7112L18.8229 33.6541L17.921 34.8415H9.68201Z" fill="white"/>
<path d="M0 21.0751L1.86966 16.7054H5.10303L6.16408 19.1532V16.7054H10.1835L10.8151 18.4746L11.4275 16.7054H29.4703V17.5948C29.4703 17.5948 30.4188 16.7054 31.9776 16.7054L37.8319 16.726L38.8746 19.1416V16.7054H42.2382L43.164 18.0931V16.7054H46.5585V24.5554H43.164L42.2768 23.1633V24.5554H37.3349L36.8379 23.318H35.5094L35.0205 24.5554H31.669C30.3277 24.5554 29.4703 23.6842 29.4703 23.6842V24.5554H24.4172L23.4143 23.318V24.5554H4.62403L4.12739 23.318H2.80307L2.30994 24.5554H0V21.0751Z" fill="white"/>
<path d="M2.5314 17.6731L0.00964355 23.5509H1.65144L2.11673 22.3739H4.82172L5.2846 23.5509H6.96256L4.44321 17.6731H2.5314ZM3.4644 19.041L4.28892 21.0978H2.63748L3.4644 19.041Z" fill="#016FD0"/>
<path d="M7.13614 23.5499V17.6721L9.46922 17.6808L10.8262 21.4704L12.1507 17.6721H14.4651V23.5499H12.9993V19.2189L11.4456 23.5499H10.1601L8.60194 19.2189V23.5499H7.13614Z" fill="#016FD0"/>
<path d="M15.4681 23.5499V17.6721H20.2512V18.9869H16.9493V19.9923H20.1741V21.2297H16.9493V22.2738H20.2512V23.5499H15.4681Z" fill="#016FD0"/>
<path d="M21.0998 17.6731V23.5509H22.5656V21.4627H23.1828L24.9403 23.5509H26.7316L24.8029 21.3854C25.5945 21.3184 26.411 20.6374 26.411 19.58C26.411 18.3431 25.4425 17.6731 24.3617 17.6731H21.0998ZM22.5656 18.9879H24.2412C24.6431 18.9879 24.9355 19.3031 24.9355 19.6066C24.9355 19.9971 24.5567 20.2253 24.2629 20.2253H22.5656V18.9879Z" fill="#016FD0"/>
<path d="M28.506 23.5499H27.0093V17.6721H28.506V23.5499Z" fill="#016FD0"/>
<path d="M32.0548 23.5499H31.7317C30.1686 23.5499 29.2196 22.3154 29.2196 20.6352C29.2196 18.9135 30.158 17.6721 32.1319 17.6721H33.752V19.0642H32.0727C31.2714 19.0642 30.7047 19.6911 30.7047 20.6497C30.7047 21.788 31.3527 22.2661 32.2862 22.2661H32.672L32.0548 23.5499Z" fill="#016FD0"/>
<path d="M35.2443 17.6731L32.7226 23.5509H34.3644L34.8297 22.3739H37.5347L37.9975 23.5509H39.6755L37.1561 17.6731H35.2443ZM36.1773 19.041L37.0019 21.0978H35.3504L36.1773 19.041Z" fill="#016FD0"/>
<path d="M39.8467 23.5499V17.6721H41.7103L44.0898 21.3651V17.6721H45.5556V23.5499H43.7523L41.3125 19.7603V23.5499H39.8467Z" fill="#016FD0"/>
<path d="M10.6849 33.8361V27.9583H15.4681V29.273H12.1662V30.2784H15.3909V31.5159H12.1662V32.56H15.4681V33.8361H10.6849Z" fill="#016FD0"/>
<path d="M34.1223 33.8361V27.9583H38.9055V29.273H35.6036V30.2784H38.8129V31.5159H35.6036V32.56H38.9055V33.8361H34.1223Z" fill="#016FD0"/>
<path d="M15.6537 33.8361L17.9826 30.9334L15.5983 27.9583H17.445L18.865 29.7975L20.2898 27.9583H22.0642L19.7112 30.8972L22.0444 33.8361H20.1979L18.8192 32.0258L17.4739 33.8361H15.6537Z" fill="#016FD0"/>
<path d="M22.2185 27.9592V33.837H23.7229V31.9809H25.2658C26.5714 31.9809 27.5609 31.2865 27.5609 29.9362C27.5609 28.8176 26.7848 27.9592 25.4563 27.9592H22.2185ZM23.7229 29.2885H25.3478C25.7695 29.2885 26.071 29.5477 26.071 29.9652C26.071 30.3575 25.7711 30.6419 25.3429 30.6419H23.7229V29.2885Z" fill="#016FD0"/>
<path d="M28.1974 27.9583V33.8361H29.6632V31.7479H30.2804L32.0379 33.8361H33.8292L31.9005 31.6706C32.692 31.6036 33.5085 30.9225 33.5085 29.8652C33.5085 28.6283 32.5401 27.9583 31.4593 27.9583H28.1974ZM29.6632 29.273H31.3388C31.7407 29.273 32.0331 29.5882 32.0331 29.8917C32.0331 30.2822 31.6542 30.5105 31.3604 30.5105H29.6632V29.273Z" fill="#016FD0"/>
<path d="M39.5844 33.8361V32.56H42.5179C42.9519 32.56 43.1399 32.3248 43.1399 32.0669C43.1399 31.8198 42.9525 31.57 42.5179 31.57H41.1923C40.04 31.57 39.3982 30.8662 39.3982 29.8096C39.3982 28.8671 39.9859 27.9583 41.6982 27.9583H44.5527L43.9355 29.2808H41.4668C40.9948 29.2808 40.8496 29.529 40.8496 29.7661C40.8496 30.0097 41.0291 30.2784 41.3896 30.2784H42.7783C44.0628 30.2784 44.6202 31.0089 44.6202 31.9654C44.6202 32.9938 43.9991 33.8361 42.7083 33.8361H39.5844Z" fill="#016FD0"/>
<path d="M44.9642 33.8361V32.56H47.8977C48.3318 32.56 48.5197 32.3248 48.5197 32.0669C48.5197 31.8198 48.3324 31.57 47.8977 31.57H46.5721C45.4198 31.57 44.7781 30.8662 44.7781 29.8096C44.7781 28.8671 45.3658 27.9583 47.078 27.9583H49.9325L49.3153 29.2808H46.8466C46.3747 29.2808 46.2294 29.529 46.2294 29.7661C46.2294 30.0097 46.4089 30.2784 46.7694 30.2784H48.1581C49.4426 30.2784 50 31.0089 50 31.9654C50 32.9938 49.3789 33.8361 48.0882 33.8361H44.9642Z" fill="#016FD0"/>
</g>
<defs>
<clipPath id="clip0_1_942">
<rect width="50" height="50" fill="white"/>
</clipPath>
</defs>
</svg>
