<svg width="25" height="24" viewBox="0 0 25 24" fill="none" xmlns="http://www.w3.org/2000/svg">
<path d="M9.80198 1.203L13.518 2.198L16.084 11.168L21.042 12.497C21.3591 12.582 21.6564 12.7286 21.9169 12.9284C22.1774 13.1283 22.396 13.3775 22.5601 13.6618C22.7243 13.9462 22.8309 14.2601 22.8737 14.5856C22.9166 14.9111 22.8949 15.2419 22.81 15.559C22.725 15.8761 22.5784 16.1734 22.3786 16.4339C22.1787 16.6944 21.9295 16.913 21.6451 17.0772C21.3608 17.2413 21.0469 17.3479 20.7214 17.3908C20.3959 17.4336 20.0651 17.412 19.748 17.327L2.05298 12.584L2.51298 5.46L5.68598 6.31L6.32798 8.553L9.66298 9.447L9.80198 1.203ZM11.758 3.797L11.62 12.043L4.71598 10.193L4.30398 8.752L4.15398 11.077L20.266 15.395C20.3294 15.412 20.3956 15.4164 20.4607 15.4078C20.5258 15.3992 20.5886 15.3779 20.6454 15.3451C20.7023 15.3123 20.7522 15.2686 20.7922 15.2165C20.8321 15.1644 20.8615 15.1049 20.8785 15.0415C20.8955 14.9781 20.8998 14.9119 20.8913 14.8468C20.8827 14.7817 20.8614 14.7189 20.8286 14.662C20.7958 14.6052 20.752 14.5553 20.7 14.5153C20.6479 14.4753 20.5884 14.446 20.525 14.429L14.472 12.807L11.906 3.837L11.758 3.797ZM2.49998 19H22.5V21H2.49998V19Z" fill="#115779"/>
</svg>
