<svg width="24" height="22" viewBox="0 0 24 22" fill="none" xmlns="http://www.w3.org/2000/svg">
<path d="M22.0656 17.2544C22.128 16.9952 22.1088 16.6208 21.7824 16.1504C21.4368 15.656 20.7936 15.1424 20.1504 14.9408C20.1408 14.6 20.016 14.3408 19.8864 14.1632C19.2048 13.2224 17.5008 13.1504 16.992 13.1504C15.9072 13.1504 14.6928 13.2848 13.7904 14.2544C12.336 14.2448 11.3232 14.9744 10.9392 15.3008C10.7232 15.488 10.5504 15.7856 10.4256 16.1504C9.2256 16.7984 8.1792 18.3296 8.136 19.5536C8.112 20.192 8.2464 20.6528 8.544 20.96C8.8752 21.3008 9.2976 21.3392 9.5856 21.3392C10.2144 21.3392 10.9584 21.1424 11.352 21.0224C11.6208 21.2192 11.9568 21.3392 12.3936 21.3392C12.8976 21.3392 13.536 21.1184 13.9632 20.9312C14.3376 21.2 14.7744 21.3392 15.2448 21.3392H15.504C15.9456 21.3392 16.5888 21.3152 17.0496 21.0272C17.5056 21.3248 17.9712 21.3392 18.7296 21.3392C19.2144 21.3392 19.5312 21.176 19.7616 20.9408C19.8528 20.96 19.9584 20.9888 20.0544 21.008C20.6448 21.152 21.3936 21.3344 22.0464 21.3344C22.6704 21.3344 23.208 21.1664 23.4432 20.6384C23.9328 19.5488 22.9488 17.9792 22.0656 17.2544ZM9.2496 20.2976C9.2016 20.2496 9.096 20.0816 9.1104 19.592C9.1344 18.9392 9.6144 18.0944 10.224 17.504C10.2096 18.0656 10.272 18.68 10.4208 19.2848C10.4928 19.592 10.5888 19.9136 10.728 20.2064C10.3872 20.2928 9.9552 20.384 9.5952 20.384C9.4128 20.384 9.3072 20.3552 9.2496 20.2976ZM11.832 20.1632L11.8224 20.1536C11.6544 19.9712 11.496 19.64 11.3568 19.0592C11.112 18.0464 11.16 17.1824 11.2944 16.6304C11.2992 16.616 11.2992 16.6064 11.304 16.592C11.3808 16.3088 11.4768 16.1168 11.5728 16.0352C11.8032 15.8336 12.3408 15.4448 13.1088 15.2864C12.6288 16.3136 12.6192 17.36 12.6096 17.8736V17.9648C12.6048 18.3968 12.768 19.3856 13.2672 20.1824C12.9504 20.2976 12.6192 20.384 12.3936 20.384C12.2064 20.384 12.0144 20.3552 11.832 20.1632ZM15.384 20.384H15.2592C14.904 20.384 14.6064 20.2592 14.3472 19.9952C13.7568 19.3952 13.5744 18.2912 13.5792 17.9792V17.8832C13.584 17.2832 13.5984 16.0304 14.3856 15.0464C14.9232 14.3744 15.6576 14.1152 16.9968 14.1152C17.9616 14.1152 18.8496 14.3744 19.1088 14.7296C19.1712 14.8112 19.2288 14.9408 19.152 15.1856C19.0416 15.5264 18.7056 15.9488 18.3792 16.3568C18.1344 16.6688 17.8752 16.9904 17.6736 17.3216C17.0544 18.344 16.7856 19.0544 16.6464 20.0384C16.6032 20.3648 15.9696 20.384 15.384 20.384ZM17.592 20.2352C17.5968 20.216 17.6016 20.1968 17.6016 20.1776C17.7216 19.328 17.9472 18.7376 18.4992 17.8304C18.672 17.5472 18.9072 17.2496 19.1328 16.9616C19.416 16.6064 19.6992 16.2464 19.896 15.8768C20.2752 16.0064 20.7408 16.3472 20.9904 16.7024C21.1296 16.904 21.1344 17.0144 21.1296 17.0336C21.0144 17.336 20.8176 17.576 20.5632 17.8784C20.3328 18.152 20.0736 18.464 19.8096 18.9008C19.6416 19.1792 19.5216 19.448 19.416 19.6784C19.32 19.8944 19.248 20.048 19.176 20.1536C19.1712 20.1584 19.1712 20.1632 19.1664 20.168C19.0512 20.3408 18.9456 20.384 18.7392 20.384C18.0672 20.384 17.8128 20.3696 17.592 20.2352ZM22.5648 20.2592C22.5456 20.2976 22.3776 20.4032 21.8544 20.3648C21.3408 20.3312 20.736 20.1824 20.2896 20.0768C20.2896 20.072 20.2944 20.072 20.2944 20.0672C20.3904 19.8512 20.4912 19.6256 20.6304 19.3952C20.856 19.0208 21.0816 18.752 21.3024 18.4928C21.4032 18.368 21.504 18.248 21.6 18.1232C22.2144 18.704 22.7808 19.7696 22.5648 20.2592ZM8.8848 6.17599C8.7072 6.37279 8.7216 6.67999 8.9184 6.85759C9.0096 6.94399 9.1248 6.98239 9.2448 6.98239C9.3744 6.98239 9.504 6.92959 9.6 6.82399C11.0112 5.27359 10.1952 4.23679 9.6576 3.55519C9.1056 2.84959 8.7984 2.46559 9.7872 1.47679C9.9744 1.28958 9.9744 0.982385 9.7872 0.795185C9.6 0.607985 9.2928 0.607985 9.1056 0.795185C7.512 2.38879 8.3472 3.44959 8.8992 4.15519C9.4464 4.84639 9.7488 5.23039 8.8848 6.17599ZM12.12 6.19999C11.9568 6.41119 11.9904 6.71359 12.2016 6.87679C12.288 6.94879 12.3936 6.98239 12.4992 6.98239C12.6432 6.98239 12.7824 6.91999 12.8784 6.79999C13.6656 5.80159 13.1952 5.11519 12.9168 4.70239C12.6528 4.31359 12.5664 4.18399 12.9648 3.72319C13.1376 3.52159 13.1184 3.21919 12.9168 3.04159C12.7152 2.86879 12.4128 2.88798 12.2352 3.08959C11.3472 4.11679 11.8272 4.82239 12.1152 5.24479C12.3744 5.61919 12.4704 5.75839 12.12 6.19999ZM6.0672 6.19999C5.904 6.41119 5.9376 6.71359 6.1488 6.87679C6.2352 6.94879 6.3408 6.98239 6.4464 6.98239C6.5904 6.98239 6.7296 6.91999 6.8256 6.79999C7.6128 5.80159 7.1424 5.11519 6.864 4.70239C6.6 4.31359 6.5136 4.18399 6.912 3.72319C7.0848 3.52159 7.0656 3.21919 6.864 3.04159C6.6624 2.86879 6.36 2.88798 6.1824 3.08959C5.2944 4.11679 5.7744 4.82239 6.0624 5.24479C6.3216 5.61919 6.4176 5.75839 6.0672 6.19999Z" fill="#041614"/>
<path d="M7.4208 17.4896H6.696C6.696 17.4656 6.696 17.4368 6.6912 17.4128C6.624 16.9856 6.3792 16.6352 6.1008 16.232C5.4432 15.2816 4.3632 13.712 4.2912 9.29115H14.8944C14.8752 10.328 14.8032 11.2736 14.6736 12.1088C14.6304 12.3728 14.8128 12.6176 15.0768 12.6608C15.3408 12.6992 15.5856 12.5216 15.6288 12.2576C15.7872 11.2448 15.864 10.0832 15.864 8.80635C15.864 8.54235 15.648 8.32635 15.384 8.32635H3.8064C3.5424 8.32635 3.3264 8.54235 3.3264 8.80635C3.3264 9.49276 3.3504 10.1216 3.3888 10.6976C2.928 10.472 2.4672 10.4288 2.2032 10.4288C1.6944 10.4288 1.2528 10.6208 0.9264 10.9808C0.5712 11.3696 0.384 11.9408 0.4368 12.4688C0.5712 13.8512 1.6752 14.312 2.7408 14.7584C3.4032 15.0368 4.0896 15.3248 4.7136 15.8336C4.9248 16.2128 5.1312 16.5152 5.3136 16.7744C5.5152 17.072 5.6688 17.2928 5.7264 17.4848H2.3568C2.0928 17.4848 1.8768 17.7008 1.8768 17.9648C1.8768 18.2288 2.0928 18.4448 2.3568 18.4448H7.4208C7.6848 18.4448 7.9008 18.2288 7.9008 17.9648C7.9056 17.7056 7.6896 17.4896 7.4208 17.4896ZM3.1104 13.8752C2.0352 13.424 1.4688 13.1552 1.392 12.3776C1.3728 12.1664 1.44 11.8496 1.6368 11.6336C1.7808 11.4752 1.968 11.3984 2.2032 11.3984C2.5728 11.3984 3.2304 11.504 3.552 12.1904C3.6768 13.0208 3.8448 13.7072 4.0368 14.2832C3.7152 14.1296 3.4032 14 3.1104 13.8752Z" fill="#041614"/>
</svg>
