<svg width="20" height="20" viewBox="0 0 20 20" fill="none" xmlns="http://www.w3.org/2000/svg">
<path d="M6.725 7.57186V2.87499C6.725 2.41874 6.35625 2.04999 5.9 2.04999H1.45C0.99375 2.04999 0.625 2.41874 0.625 2.87499V7.57186C0.625 8.02499 0.99375 8.39374 1.45 8.39374H5.9C6.35625 8.39374 6.725 8.02499 6.725 7.57186ZM5.275 4.71874C5.275 5.24061 4.84688 5.66561 4.325 5.66561H3.14687V6.78749C3.14687 6.96249 3.00625 7.09999 2.83437 7.09999C2.6625 7.09999 2.52187 6.96249 2.52187 6.78749V3.63436C2.52187 3.46249 2.6625 3.32186 2.83437 3.32186H4.325C4.84688 3.32186 5.275 3.74999 5.275 4.27186V4.71874ZM3.31063 8.95843H3.07219V17.95H4.26219V8.95843H4.02375H3.31063Z" fill="#041614"/>
<path d="M4.32498 3.94687H3.14685V5.04062H4.32498C4.5031 5.04062 4.64998 4.89687 4.64998 4.71874V4.27187C4.64998 4.09374 4.5031 3.94687 4.32498 3.94687ZM18.6625 11.6094H17.6312C17.3406 10.8219 16.8875 10.1562 16.7406 9.95312C16.6036 9.76282 16.4234 9.60777 16.2148 9.50074C16.0061 9.39371 15.7751 9.33776 15.5406 9.33749H9.09373C8.61873 9.33749 8.16873 9.56874 7.89373 9.95312C7.74685 10.1562 7.29373 10.8187 7.0031 11.6094H5.97185C5.5781 11.6094 5.25935 11.9312 5.25935 12.3219C5.25935 12.5875 5.40623 12.8312 5.6406 12.9531L5.97185 13.1281C5.92185 13.3812 5.89998 13.65 5.89998 13.9312V17.3281C5.89998 17.6719 6.18123 17.95 6.52498 17.95H7.6906C8.03435 17.95 8.31248 17.6719 8.31248 17.3281V17.0594C9.5406 17.1312 11.0625 17.2031 12.3187 17.2031C13.575 17.2031 15.0937 17.1312 16.3219 17.0594V17.3281C16.3219 17.6719 16.6 17.95 16.9437 17.95H18.1094C18.4531 17.95 18.7312 17.6719 18.7312 17.3281V15.2187C18.7344 15.2 18.7344 15.1781 18.7344 15.1594V13.9312C18.7344 13.65 18.7125 13.3812 18.6625 13.1281L18.9937 12.9531C19.2281 12.8312 19.375 12.5875 19.375 12.3219C19.375 11.9312 19.0562 11.6094 18.6625 11.6094ZM8.39998 10.3187C8.55935 10.0969 8.81873 9.96249 9.09373 9.96249H15.5406C15.8156 9.96249 16.075 10.0969 16.2344 10.3187C16.3562 10.4906 16.7281 11.0312 16.9906 11.6844C15.6969 11.65 13.4656 11.6094 12.3187 11.6094C11.1719 11.6094 8.94373 11.65 7.64685 11.6844C7.90623 11.0312 8.27498 10.4906 8.39998 10.3187ZM9.75623 14.6937C9.7281 15 9.4281 15.5812 8.50623 15.5812C8.07185 15.5812 7.63435 15.3531 7.2781 14.9406C6.92498 14.5312 6.7031 14 6.74998 13.6844C6.77185 13.5375 6.88123 13.2937 7.41248 13.3062C8.0281 13.325 9.6781 13.7594 9.75623 14.6344V14.6937ZM13.9187 15.5812H10.7156C10.3219 15.5812 9.99998 15.2469 9.99998 14.8375C9.99998 14.4281 10.3219 14.0937 10.7156 14.0937H13.9187C14.3125 14.0937 14.6344 14.4281 14.6344 14.8375C14.6344 15.2469 14.3125 15.5812 13.9187 15.5812ZM17.3562 14.9406C17 15.3531 16.5625 15.5812 16.1281 15.5812C15.2031 15.5812 14.9062 15 14.8781 14.6937V14.6344C14.9562 13.7594 16.6094 13.325 17.2219 13.3062C17.7469 13.2969 17.8625 13.5375 17.8844 13.6844C17.9312 14 17.7094 14.5312 17.3562 14.9406Z" fill="#041614"/>
</svg>
