<svg width="65" height="50" viewBox="0 0 65 50" fill="none" xmlns="http://www.w3.org/2000/svg">
<g clip-path="url(#clip0_1_935)">
<path d="M11.7809 49.8905V46.5722C11.7809 45.3029 11.0003 44.4717 9.66023 44.4717C8.99019 44.4717 8.26161 44.6908 7.76071 45.4124C7.3704 44.8067 6.81095 44.4717 5.97178 44.4717C5.41233 44.4717 4.85288 44.6392 4.41053 45.2449V44.5812H3.23959V49.8905H4.41053V46.9588C4.41053 46.0181 4.91143 45.5735 5.69206 45.5735C6.47268 45.5735 6.86299 46.0696 6.86299 46.9588V49.8905H8.03393V46.9588C8.03393 46.0181 8.59338 45.5735 9.31545 45.5735C10.0961 45.5735 10.4864 46.0696 10.4864 46.9588V49.8905H11.7809ZM29.1498 44.5812H27.2503V42.9768H26.0794V44.5812H25.019V45.6315H26.0794V48.0671C26.0794 49.2848 26.5803 50 27.9203 50C28.4212 50 28.9807 49.8325 29.371 49.6134L29.0327 48.6147C28.6945 48.8338 28.3041 48.8918 28.0244 48.8918C27.465 48.8918 27.2438 48.5567 27.2438 48.0091V45.6315H29.1433V44.5812H29.1498ZM39.0898 44.4652C38.4197 44.4652 37.9709 44.8003 37.6912 45.2384V44.5748H36.5202V49.8841H37.6912V46.8944C37.6912 46.0116 38.0815 45.5091 38.81 45.5091C39.0312 45.5091 39.311 45.5671 39.5386 45.6186L39.8769 44.5104C39.6427 44.4652 39.311 44.4652 39.0898 44.4652ZM24.0693 45.0194C23.5098 44.6328 22.7292 44.4652 21.89 44.4652C20.5499 44.4652 19.6587 45.1289 19.6587 46.1792C19.6587 47.0619 20.3288 47.5645 21.4997 47.7256L22.0592 47.7835C22.6706 47.8931 23.0089 48.0606 23.0089 48.3377C23.0089 48.7243 22.56 49.0013 21.7794 49.0013C20.9988 49.0013 20.3808 48.7243 19.9905 48.4472L19.431 49.3299C20.0425 49.7745 20.8817 49.9936 21.7209 49.9936C23.2821 49.9936 24.1798 49.2719 24.1798 48.2797C24.1798 47.339 23.4513 46.8428 22.3389 46.6753L21.7794 46.6173C21.2785 46.5593 20.8882 46.4498 20.8882 46.1212C20.8882 45.7346 21.2785 45.5155 21.8965 45.5155C22.5666 45.5155 23.2366 45.7926 23.5749 45.9601L24.0693 45.0194ZM55.2227 44.4652C54.5526 44.4652 54.1038 44.8003 53.8241 45.2384V44.5748H52.6531V49.8841H53.8241V46.8944C53.8241 46.0116 54.2144 45.5091 54.943 45.5091C55.1641 45.5091 55.4439 45.5671 55.6715 45.6186L56.0098 44.5232C55.7821 44.4652 55.4504 44.4652 55.2227 44.4652ZM40.2607 47.2359C40.2607 48.8402 41.3796 50 43.11 50C43.8906 50 44.4501 49.8325 45.0095 49.3944L44.4501 48.4537C44.0012 48.7887 43.5588 48.9498 43.0514 48.9498C42.1017 48.9498 41.4316 48.2861 41.4316 47.2359C41.4316 46.2372 42.1017 45.5735 43.0514 45.522C43.5523 45.522 44.0012 45.6895 44.4501 46.0181L45.0095 45.0774C44.4501 44.6328 43.8906 44.4717 43.11 44.4717C41.3796 44.4653 40.2607 45.6315 40.2607 47.2359ZM51.0919 47.2359V44.5812H49.9209V45.2449C49.5306 44.7488 48.9712 44.4717 48.2426 44.4717C46.7334 44.4717 45.5625 45.6315 45.5625 47.2359C45.5625 48.8402 46.7334 50 48.2426 50C49.0232 50 49.5827 49.723 49.9209 49.2268V49.8905H51.0919V47.2359ZM46.7919 47.2359C46.7919 46.2951 47.4034 45.522 48.4117 45.522C49.3615 45.522 50.0315 46.2436 50.0315 47.2359C50.0315 48.1766 49.3615 48.9498 48.4117 48.9498C47.4099 48.8918 46.7919 48.1701 46.7919 47.2359ZM32.7797 44.4652C31.2185 44.4652 30.0996 45.5735 30.0996 47.2294C30.0996 48.8918 31.2185 49.9936 32.8383 49.9936C33.6189 49.9936 34.3995 49.7745 35.0175 49.272L34.4581 48.4408C34.0092 48.7758 33.4498 48.9949 32.8968 48.9949C32.1682 48.9949 31.4462 48.6598 31.277 47.7256H35.2387C35.2387 47.558 35.2387 47.4485 35.2387 47.281C35.2907 45.5735 34.2824 44.4652 32.7797 44.4652ZM32.7797 45.464C33.5083 45.464 34.0092 45.9085 34.1198 46.7333H31.3291C31.4397 46.0181 31.9406 45.464 32.7797 45.464ZM61.871 47.2359V42.4807H60.7001V45.2449C60.3097 44.7488 59.7503 44.4717 59.0217 44.4717C57.5125 44.4717 56.3416 45.6315 56.3416 47.2359C56.3416 48.8402 57.5125 50 59.0217 50C59.8023 50 60.3618 49.723 60.7001 49.2268V49.8905H61.871V47.2359ZM57.5711 47.2359C57.5711 46.2951 58.1825 45.522 59.1909 45.522C60.1406 45.522 60.8106 46.2436 60.8106 47.2359C60.8106 48.1766 60.1406 48.9498 59.1909 48.9498C58.1825 48.8918 57.5711 48.1701 57.5711 47.2359ZM18.3707 47.2359V44.5812H17.1998V45.2449C16.8094 44.7488 16.25 44.4717 15.5214 44.4717C14.0122 44.4717 12.8413 45.6315 12.8413 47.2359C12.8413 48.8402 14.0122 50 15.5214 50C16.302 50 16.8615 49.723 17.1998 49.2268V49.8905H18.3707V47.2359ZM14.0187 47.2359C14.0187 46.2951 14.6302 45.522 15.6385 45.522C16.5883 45.522 17.2583 46.2436 17.2583 47.2359C17.2583 48.1766 16.5883 48.9498 15.6385 48.9498C14.6302 48.8918 14.0187 48.1701 14.0187 47.2359Z" fill="black"/>
<path d="M41.269 4.25903H23.6789V35.5606H41.269V4.25903Z" fill="#FF5A00"/>
<path d="M24.8499 19.9098C24.8499 13.5503 27.8683 7.90593 32.5 4.25902C29.0913 1.60438 24.7913 0 20.1011 0C8.99019 0 0 8.90464 0 19.9098C0 30.915 8.99019 39.8196 20.1011 39.8196C24.7913 39.8196 29.0913 38.2152 32.5 35.5606C27.8618 31.9652 24.8499 26.2693 24.8499 19.9098Z" fill="#EB001B"/>
<path d="M65 19.9098C65 30.915 56.0098 39.8196 44.8989 39.8196C40.2087 39.8196 35.9087 38.2152 32.5 35.5606C37.1903 31.9072 40.1501 26.2693 40.1501 19.9098C40.1501 13.5503 37.1317 7.90593 32.5 4.25902C35.9022 1.60438 40.2022 0 44.8924 0C56.0098 0 65 8.96263 65 19.9098Z" fill="#F79E1B"/>
</g>
<defs>
<clipPath id="clip0_1_935">
<rect width="65" height="50" fill="white"/>
</clipPath>
</defs>
</svg>
