<svg width="80" height="80" viewBox="0 0 80 80" fill="none" xmlns="http://www.w3.org/2000/svg">
<path d="M74.3363 68.6187L62.9713 50.2312C63.5292 49.8673 64.1644 49.6385 64.8263 49.5631C66.7925 49.3412 68.4581 48.1331 69.28 46.3331C70.1019 44.5331 69.9244 42.4844 68.8044 40.8525C67.5375 39.0062 67.9044 36.4519 69.6406 35.0381C70.3915 34.432 70.971 33.6404 71.3218 32.7414C71.6726 31.8425 71.7825 30.8676 71.6406 29.9131C71.5078 28.9574 71.1276 28.0529 70.5377 27.2893C69.9478 26.5256 69.1687 25.9293 68.2775 25.5594C66.2131 24.6912 65.1413 22.3437 65.8369 20.2162C66.1408 19.3004 66.2004 18.3211 66.0096 17.3752C65.8189 16.4293 65.3845 15.5496 64.7494 14.8231C63.4531 13.3281 61.5144 12.6356 59.5669 12.9794C57.3556 13.3644 55.1894 11.97 54.625 9.80311C54.3855 8.86842 53.9061 8.01247 53.2342 7.3199C52.5624 6.62734 51.7214 6.12217 50.7944 5.85436C49.8698 5.57843 48.8891 5.54867 47.9495 5.76802C47.0099 5.98736 46.1438 6.44821 45.4369 7.10498C43.7906 8.62123 41.21 8.62186 39.5625 7.10498C38.8557 6.44805 37.9896 5.98709 37.0499 5.76774C36.1103 5.54838 35.1296 5.57824 34.205 5.85436C33.278 6.12206 32.4369 6.62719 31.765 7.31977C31.0932 8.01235 30.6138 8.86837 30.3744 9.80311C29.8094 11.9694 27.6388 13.365 25.4331 12.9794C24.4834 12.8082 23.5055 12.8883 22.5963 13.2117C21.6871 13.5351 20.8783 14.0906 20.25 14.8231C19.6148 15.5495 19.1803 16.4292 18.9894 17.3751C18.7986 18.321 18.858 19.3004 19.1619 20.2162C19.8575 22.3444 18.7856 24.6912 16.7219 25.5594C14.8975 26.3269 13.64 27.9544 13.3588 29.9131C13.0775 31.8719 13.825 33.7881 15.3594 35.0381C17.095 36.4525 17.4625 39.0062 16.195 40.8525C15.075 42.4844 14.8975 44.5331 15.7194 46.3331C16.5413 48.1331 18.2063 49.3412 20.1725 49.5631C20.8346 49.6384 21.47 49.8672 22.0281 50.2312L10.6638 68.6187C10.6077 68.7095 10.5757 68.813 10.571 68.9196C10.5662 69.0261 10.5889 69.1321 10.6367 69.2275C10.6845 69.3228 10.7559 69.4044 10.8441 69.4643C10.9323 69.5243 11.0344 69.5606 11.1406 69.57L21.4231 70.4819L26.5188 79.0687C26.5736 79.1612 26.6513 79.238 26.7445 79.2916C26.8377 79.3453 26.9431 79.374 27.0506 79.375H27.0563C27.2725 79.375 27.4738 79.2631 27.5881 79.0787L38.3438 61.6762C39.3919 62.8556 40.8788 63.5444 42.5006 63.5444C44.1225 63.5444 45.6094 62.8556 46.6569 61.6769L57.4125 79.0794C57.4686 79.17 57.5468 79.2448 57.6399 79.2966C57.733 79.3485 57.8378 79.3757 57.9444 79.3756H57.95C58.1688 79.3737 58.3706 79.2575 58.4825 79.0694L63.5781 70.4825L73.86 69.5706C74.0763 69.5512 74.2669 69.4219 74.3644 69.2281C74.4619 69.0344 74.45 68.8025 74.3363 68.6187Z" fill="#E6E7E8"/>
<path d="M59.635 47.5668C59.0578 48.0478 58.5976 48.6537 58.2892 49.3388C57.9808 50.0239 57.8324 50.7702 57.855 51.5212C57.9688 55.2618 54.0563 57.7762 50.7007 56.1193C49.5842 55.5681 48.3013 55.4568 47.1067 55.8076C45.912 56.1585 44.893 56.9457 44.2519 58.0131C44.2388 58.035 44.2225 58.0525 44.2094 58.0743L55.4438 76.25L60.7032 67.3875L71.3044 66.4468L59.635 47.5668Z" fill="#FA759E"/>
<path d="M50.7006 56.1194C50.2695 55.9064 49.8097 55.7573 49.3356 55.6769L58.68 70.7962L60.7025 67.3881L64.6169 67.0406L56.9181 54.5837C55.5731 56.4275 53.0056 57.2575 50.7006 56.1194Z" fill="#FFD7E5"/>
<path d="M35.7475 58.0125C35.1064 56.9451 34.0874 56.1579 32.8927 55.807C31.6981 55.4562 30.4152 55.5675 29.2988 56.1187C25.9431 57.7762 22.0306 55.2618 22.1444 51.5206C22.1671 50.7696 22.0186 50.0233 21.7102 49.3382C21.4018 48.6531 20.9416 48.0472 20.3644 47.5662L8.69501 66.4468L19.2963 67.3875L24.5563 76.25L35.79 58.0737C35.7769 58.0518 35.7606 58.0343 35.7475 58.0125Z" fill="#FA759E"/>
<path d="M29.2988 56.1194C26.9938 57.2575 24.4263 56.4275 23.0813 54.5844L15.3825 67.0412L19.2969 67.3887L21.3194 70.7969L30.6638 55.6775C30.1896 55.7572 29.7297 55.9061 29.2988 56.1194Z" fill="#FFD7E5"/>
<path d="M43.3606 5.065C46.1138 2.52938 50.5756 3.83938 51.5206 7.46125C51.835 8.666 52.5909 9.70848 53.6383 10.3817C54.6857 11.0548 55.9479 11.3095 57.1744 11.095C60.8613 10.45 63.9063 13.965 62.7438 17.5225C62.357 18.706 62.4293 19.9917 62.9465 21.1242C63.4637 22.2568 64.3879 23.1535 65.5356 23.6363C68.9856 25.0869 69.6475 29.69 66.7456 32.0544C65.7804 32.8408 65.1462 33.9615 64.969 35.194C64.7919 36.4264 65.0847 37.6804 65.7894 38.7069C67.9075 41.7925 65.9756 46.0225 62.2563 46.4431C61.019 46.5828 59.8796 47.1827 59.0642 48.1237C58.2488 49.0647 57.8172 50.278 57.855 51.5225C57.9688 55.2631 54.0563 57.7775 50.7006 56.1206C49.5842 55.5694 48.3013 55.4581 47.1067 55.8089C45.912 56.1598 44.893 56.947 44.2519 58.0144C42.325 61.2225 37.6744 61.2225 35.7475 58.0144C35.1064 56.947 34.0874 56.1598 32.8927 55.8089C31.6981 55.4581 30.4152 55.5694 29.2988 56.1206C25.9431 57.7781 22.0306 55.2637 22.1444 51.5225C22.1822 50.278 21.7506 49.0647 20.9352 48.1237C20.1199 47.1827 18.9804 46.5828 17.7431 46.4431C14.0244 46.0231 12.0925 41.7931 14.21 38.7069C14.9147 37.6804 15.2075 36.4264 15.0304 35.194C14.8532 33.9615 14.219 32.8408 13.2538 32.0544C10.3525 29.6906 11.0138 25.0875 14.4644 23.6363C15.6123 23.1538 16.5367 22.2571 17.0539 21.1244C17.5712 19.9918 17.6434 18.706 17.2563 17.5225C16.0931 13.965 19.1388 10.4506 22.8256 11.095C24.0521 11.3095 25.3144 11.0548 26.3618 10.3817C27.4092 9.70848 28.1651 8.666 28.4794 7.46125C29.4244 3.84 33.8863 2.53 36.6394 5.065C37.5552 5.90867 38.7548 6.37702 40 6.37702C41.2452 6.37702 42.4448 5.90867 43.3606 5.065Z" fill="#115779"/>
<path d="M40 52.8481C51.4675 52.8481 60.7638 43.5519 60.7638 32.0844C60.7638 20.6169 51.4675 11.3206 40 11.3206C28.5325 11.3206 19.2363 20.6169 19.2363 32.0844C19.2363 43.5519 28.5325 52.8481 40 52.8481Z" fill="#D4FBFF"/>
<path d="M49.8719 31.0294H50.6688C51.2493 31.0288 51.8062 31.2588 52.2171 31.6689C52.628 32.0789 52.8591 32.6354 52.8597 33.2159C52.8603 33.7964 52.6302 34.3534 52.2202 34.7642C51.8101 35.1751 51.2536 35.4063 50.6731 35.4069L49.6794 35.4087H50.5975C50.8639 35.4089 51.1275 35.4616 51.3735 35.5637C51.6195 35.6658 51.843 35.8154 52.0312 36.0039C52.2193 36.1923 52.3686 36.416 52.4703 36.6622C52.572 36.9083 52.6243 37.1721 52.6241 37.4384C52.6239 37.7048 52.5712 37.9684 52.4691 38.2144C52.367 38.4604 52.2174 38.6839 52.0289 38.8721C51.8405 39.0602 51.6168 39.2095 51.3706 39.3112C51.1245 39.4129 50.8607 39.4652 50.5944 39.465L48.1231 39.4606H49.8288C50.3199 39.4606 50.7909 39.6557 51.1382 40.003C51.4855 40.3503 51.6806 40.8213 51.6806 41.3125V41.3156C51.6808 41.5583 51.6332 41.7987 51.5404 42.023C51.4477 42.2472 51.3117 42.4511 51.1402 42.6228C50.9687 42.7945 50.7651 42.9308 50.5409 43.0238C50.3168 43.1169 50.0765 43.1648 49.8338 43.165L38.2756 43.1694C37.7322 43.1694 37.194 43.0625 36.6919 42.8545C36.1899 42.6466 35.7336 42.3418 35.3494 41.9575C34.9651 41.5732 34.6603 41.117 34.4523 40.6149C34.2444 40.1128 34.1374 39.5747 34.1375 39.0312V29.3944C35.3181 27.9619 37.0444 25.3844 37.7994 23.7281C39.4906 20.0187 39.0631 17.3131 40.2719 17.3131C42.2219 17.3131 43.3794 19.8481 43.3794 21.8294C43.3794 23.4112 43.0169 23.9194 42.6725 24.9356C42.3238 25.9656 42.5063 26.7394 43.4831 26.7394H50.9675C51.5253 26.7559 52.0548 26.989 52.4435 27.3895C52.8323 27.7899 53.0497 28.326 53.0497 28.884C53.0497 29.4421 52.8323 29.9782 52.4435 30.3786C52.0548 30.7791 51.5253 31.0122 50.9675 31.0287L49.8719 31.0294Z" fill="#FFD7E5"/>
<path d="M34.1362 41.8675V29.1662C34.1361 28.8208 33.9988 28.4896 33.7546 28.2454C33.5103 28.0012 33.1791 27.8639 32.8337 27.8637H28.1906C28.0196 27.8636 27.8501 27.8973 27.6921 27.9627C27.534 28.0281 27.3904 28.1241 27.2694 28.245C27.1485 28.366 27.0525 28.5096 26.9871 28.6677C26.9217 28.8257 26.888 28.9951 26.8881 29.1662V41.8675C26.8881 42.5856 27.4706 43.17 28.1906 43.17H32.8337C33.179 43.1695 33.51 43.0321 33.7542 42.7879C33.9984 42.5438 34.1358 42.2127 34.1362 41.8675Z" fill="#FA759E"/>
<path d="M32.8337 27.8637H28.1906C28.0196 27.8636 27.8501 27.8973 27.6921 27.9627C27.534 28.0281 27.3904 28.1241 27.2694 28.245C27.1485 28.366 27.0525 28.5096 26.9871 28.6677C26.9217 28.8257 26.888 28.9951 26.8881 29.1662V31.0412C26.8881 30.3218 27.4706 29.7387 28.1906 29.7387H32.8337C33.5519 29.7387 34.1362 30.3212 34.1362 31.0412V29.1662C34.1361 28.8208 33.9988 28.4896 33.7546 28.2454C33.5103 28.0012 33.1791 27.8639 32.8337 27.8637ZM31.3319 41.045C30.7806 41.045 30.335 40.5993 30.335 40.0481C30.335 39.4968 30.7806 39.0512 31.3319 39.0512C31.8831 39.0512 32.3287 39.4968 32.3287 40.0481C32.3287 40.5993 31.8831 41.045 31.3319 41.045Z" fill="white"/>
<path d="M71.8356 66.1187L60.4713 47.7312C61.0292 47.3673 61.6644 47.1385 62.3263 47.0631C64.2925 46.8412 65.9581 45.6331 66.78 43.8331C67.6019 42.0331 67.4244 39.9844 66.3044 38.3525C65.0375 36.5062 65.4044 33.9519 67.1406 32.5381C67.8915 31.932 68.471 31.1404 68.8218 30.2414C69.1726 29.3425 69.2825 28.3676 69.1406 27.4131C69.0078 26.4574 68.6276 25.5529 68.0377 24.7893C67.4478 24.0256 66.6687 23.4293 65.7775 23.0594C63.7131 22.1912 62.6413 19.8437 63.3369 17.7162C63.6408 16.8004 63.7004 15.8211 63.5096 14.8752C63.3189 13.9293 62.8845 13.0496 62.2494 12.3231C60.9531 10.8281 59.0144 10.1356 57.0669 10.4794C54.8556 10.8644 52.6894 9.46998 52.125 7.30311C51.8855 6.36842 51.4061 5.51246 50.7342 4.8199C50.0624 4.12734 49.2214 3.62217 48.2944 3.35436C47.3698 3.07843 46.3891 3.04867 45.4495 3.26802C44.5099 3.48736 43.6438 3.94821 42.9369 4.60498C41.2906 6.12123 38.71 6.12186 37.0625 4.60498C36.3557 3.94805 35.4896 3.48709 34.5499 3.26774C33.6103 3.04838 32.6296 3.07824 31.705 3.35436C30.778 3.62206 29.9369 4.12719 29.265 4.81977C28.5932 5.51235 28.1138 6.36837 27.8744 7.30311C27.3094 9.46936 25.1388 10.865 22.9331 10.4794C21.9834 10.3082 21.0055 10.3883 20.0963 10.7117C19.1871 11.0351 18.3783 11.5906 17.75 12.3231C17.1148 13.0495 16.6803 13.9292 16.4894 14.8751C16.2986 15.821 16.358 16.8004 16.6619 17.7162C17.3575 19.8444 16.2856 22.1912 14.2219 23.0594C12.3975 23.8269 11.14 25.4544 10.8588 27.4131C10.5775 29.3719 11.325 31.2881 12.8594 32.5381C14.595 33.9525 14.9625 36.5062 13.695 38.3525C12.575 39.9844 12.3975 42.0331 13.2194 43.8331C14.0413 45.6331 15.7063 46.8412 17.6725 47.0631C18.3346 47.1384 18.97 47.3672 19.5281 47.7312L8.16376 66.1187C8.10767 66.2095 8.07574 66.313 8.07099 66.4196C8.06625 66.5261 8.08885 66.6321 8.13665 66.7275C8.18445 66.8228 8.25586 66.9044 8.34407 66.9643C8.43229 67.0243 8.53438 67.0606 8.64063 67.07L18.9231 67.9819L24.0188 76.5687C24.0736 76.6612 24.1513 76.738 24.2445 76.7916C24.3377 76.8453 24.4431 76.874 24.5506 76.875H24.5563C24.7725 76.875 24.9738 76.7631 25.0881 76.5787L35.8438 59.1762C36.8919 60.3556 38.3788 61.0444 40.0006 61.0444C41.6225 61.0444 43.1094 60.3556 44.1569 59.1769L54.9125 76.5794C54.9686 76.67 55.0468 76.7448 55.1399 76.7966C55.233 76.8485 55.3378 76.8757 55.4444 76.8756H55.45C55.6688 76.8737 55.8706 76.7575 55.9825 76.5694L61.0781 67.9825L71.36 67.0706C71.4662 67.0611 71.5683 67.0246 71.6564 66.9645C71.7446 66.9045 71.8159 66.8229 71.8635 66.7274C71.9112 66.632 71.9337 66.526 71.9288 66.4195C71.9239 66.3129 71.8918 66.2094 71.8356 66.1187ZM20.4806 48.5681C21.1797 49.3831 21.5503 50.4292 21.52 51.5025C21.4868 52.5893 21.7735 53.662 22.3444 54.5875L15.0538 66.3837L9.75938 65.9137L20.4806 48.5681ZM19.3519 66.765L16.4469 66.5075L23.1713 55.6275C23.4475 55.9 23.7469 56.1544 24.0831 56.3706C24.8372 56.8584 25.6987 57.1551 26.5933 57.2351C27.4878 57.315 28.3883 57.1757 29.2169 56.8294L21.33 69.59L19.8338 67.0694C19.7835 66.9839 19.7136 66.9117 19.6297 66.8587C19.5459 66.8058 19.4507 66.7736 19.3519 66.765ZM24.5669 75.0437L22.05 70.8025L31.0363 56.2625C32.5725 56.1056 34.1319 56.7794 35.0463 58.0875L24.5669 75.0437ZM40 59.7937C39.251 59.7971 38.5141 59.6048 37.8622 59.236C37.2103 58.8671 36.666 58.3344 36.2831 57.6906C35.2469 55.9656 33.3819 54.9881 31.4706 54.9881C30.6213 54.9871 29.7833 55.1824 29.0219 55.5587C28.3519 55.8933 27.6061 56.0471 26.8584 56.005C26.1107 55.9629 25.387 55.7263 24.7588 55.3187C24.1268 54.9167 23.6108 54.3566 23.2618 53.6938C22.9129 53.031 22.7431 52.2885 22.7694 51.54C22.8569 48.6562 20.68 46.1444 17.8131 45.8206C16.2869 45.6481 14.9944 44.7112 14.3563 43.3137C13.7181 41.9162 13.8563 40.3262 14.7256 39.0594C16.3575 36.6806 15.8844 33.3906 13.6488 31.5687C13.0659 31.0983 12.616 30.4838 12.3436 29.786C12.0712 29.0883 11.9857 28.3315 12.0956 27.5906C12.199 26.8488 12.4942 26.1468 12.952 25.5541C13.4099 24.9614 14.0146 24.4985 14.7063 24.2112C17.365 23.0925 18.7463 20.0687 17.85 17.3275C17.3725 15.8675 17.6881 14.3025 18.6944 13.1412C19.7006 11.98 21.2063 11.445 22.7175 11.7094C25.5625 12.2087 28.3556 10.4087 29.0844 7.61811C29.2701 6.89254 29.6421 6.22807 30.1636 5.69048C30.6851 5.15289 31.3379 4.76082 32.0575 4.55311C32.7752 4.33917 33.5364 4.31617 34.2657 4.4864C34.9951 4.65662 35.6674 5.01417 36.2163 5.52373C38.3381 7.47811 41.6631 7.47748 43.7844 5.52373C44.3331 5.01406 45.0053 4.65643 45.7345 4.4862C46.4638 4.31597 47.2249 4.33903 47.9425 4.55311C48.6621 4.76088 49.3149 5.15296 49.8363 5.69054C50.3578 6.22812 50.7298 6.89257 50.9156 7.61811C51.6444 10.4087 54.4444 12.2069 57.2825 11.7094C58.7956 11.4444 60.2994 11.98 61.3056 13.1406C62.3119 14.3012 62.6275 15.8662 62.1506 17.3269C61.2544 20.0687 62.635 23.0925 65.2944 24.2106C66.7106 24.8062 67.6863 26.0694 67.905 27.59C68.1238 29.1106 67.5431 30.5975 66.3525 31.5675C64.1163 33.3894 63.6431 36.68 65.2756 39.0581C66.145 40.3244 66.2825 41.9144 65.6444 43.3119C65.0063 44.7094 63.7138 45.6469 62.1875 45.8194C59.3213 46.1431 57.1444 48.655 57.2313 51.5387C57.2575 52.2873 57.0877 53.0297 56.7388 53.6925C56.3899 54.3553 55.8739 54.9155 55.2419 55.3175C54.6135 55.7251 53.8897 55.9616 53.1419 56.0037C52.3941 56.0458 51.6483 55.892 50.9781 55.5575C48.3938 54.2806 45.2031 55.2162 43.7175 57.69C43.3346 58.3339 42.7902 58.8667 42.1382 59.2357C41.4862 59.6047 40.7492 59.797 40 59.7937ZM55.4325 75.0437L44.9531 58.0881C45.8681 56.78 47.4269 56.1062 48.9638 56.2631L57.95 70.8025L55.4325 75.0437ZM60.6481 66.765C60.5494 66.7736 60.4541 66.8057 60.3701 66.8585C60.2862 66.9113 60.2161 66.9834 60.1656 67.0687L58.67 69.5894L50.7831 56.8287C52.4713 57.5244 54.3625 57.3694 55.9169 56.37C56.2458 56.1548 56.5514 55.9059 56.8288 55.6275L63.5531 66.5075L60.6481 66.765ZM64.9463 66.3837L57.655 54.5875C58.2265 53.6623 58.5134 52.5895 58.48 51.5025C58.4498 50.4294 58.8203 49.3835 59.5194 48.5687L70.24 65.9144L64.9463 66.3837Z" fill="#3A2C60"/>
<path d="M53.7369 28.8844C53.736 28.15 53.4439 27.4459 52.9246 26.9266C52.4054 26.4073 51.7013 26.1152 50.9669 26.1144H43.4825C43.3294 26.1144 43.2169 26.0856 43.1831 26.0375C43.13 25.9637 43.0787 25.6806 43.2638 25.1356C43.335 24.925 43.4069 24.7369 43.4769 24.5562C43.7481 23.8512 44.0037 23.1856 44.0037 21.8294C44.0037 19.6737 42.7069 16.6881 40.2712 16.6881C39.115 16.6881 38.8619 17.8337 38.5406 19.2844C38.3031 20.3569 37.9781 21.8262 37.2294 23.4687C36.6469 24.7462 35.4369 26.63 34.3919 28.0419C34.2144 27.794 33.9804 27.592 33.7094 27.4524C33.4383 27.3129 33.138 27.2399 32.8331 27.2394H28.19C27.6791 27.2399 27.1893 27.443 26.828 27.8043C26.4668 28.1655 26.2636 28.6553 26.2631 29.1662V41.8675C26.2631 42.93 27.1275 43.7944 28.19 43.7944H32.8331C33.2868 43.7934 33.7256 43.6323 34.0722 43.3395C34.4187 43.0467 34.6508 42.6409 34.7275 42.1937C34.7875 42.2612 34.8406 42.3337 34.9056 42.3987C35.3467 42.8422 35.8715 43.1938 36.4494 43.4332C37.0273 43.6725 37.647 43.7949 38.2725 43.7931H38.2737L49.8319 43.7881C50.2936 43.7873 50.746 43.6574 51.1378 43.4131C51.5296 43.1687 51.8453 42.8197 52.0492 42.4055C52.2531 41.9912 52.3372 41.5281 52.2918 41.0686C52.2464 40.6091 52.0735 40.1714 51.7925 39.805C52.04 39.68 52.2688 39.515 52.4706 39.3131C52.7183 39.0674 52.9147 38.7748 53.0484 38.4525C53.1821 38.1302 53.2504 37.7845 53.2494 37.4356C53.2495 37.0624 53.1708 36.6934 53.0183 36.3528C52.8657 36.0122 52.6429 35.7077 52.3644 35.4594C52.6934 35.2108 52.9636 34.8929 53.156 34.5282C53.3483 34.1635 53.4581 33.7609 53.4774 33.349C53.4967 32.9371 53.4252 32.5261 53.2678 32.1449C53.1104 31.7638 52.8711 31.422 52.5669 31.1437C52.9284 30.8882 53.2233 30.5496 53.4269 30.1565C53.6305 29.7633 53.7368 29.3271 53.7369 28.8844ZM33.5112 41.8675C33.5112 42.2412 33.2075 42.5444 32.8337 42.5444H28.1906C28.0112 42.5442 27.8391 42.4728 27.7122 42.3459C27.5853 42.219 27.5139 42.047 27.5137 41.8675V29.1662C27.5137 28.7925 27.8175 28.4894 28.1906 28.4894H32.8337C33.2075 28.4894 33.5112 28.7931 33.5112 29.1662V41.8675ZM50.9669 30.4044H45.9081C45.7424 30.4044 45.5834 30.4702 45.4662 30.5874C45.349 30.7046 45.2831 30.8636 45.2831 31.0294C45.2831 31.1951 45.349 31.3541 45.4662 31.4713C45.5834 31.5885 45.7424 31.6544 45.9081 31.6544H50.6681C51.0826 31.6547 51.4801 31.8195 51.7733 32.1125C52.0664 32.4056 52.2314 32.803 52.2319 33.2175C52.2312 33.6314 52.0667 34.0282 51.7742 34.3212C51.4817 34.6141 51.0852 34.7793 50.6712 34.7806L45.9081 34.7825C45.7424 34.7825 45.5834 34.8483 45.4662 34.9655C45.349 35.0828 45.2831 35.2417 45.2831 35.4075C45.2831 35.5732 45.349 35.7322 45.4662 35.8494C45.5834 35.9666 45.7424 36.0325 45.9081 36.0325H50.5969C50.8742 36.0331 51.1452 36.1158 51.3756 36.2702C51.6061 36.4246 51.7856 36.6437 51.8916 36.9C51.9977 37.1563 52.0254 37.4383 51.9714 37.7104C51.9174 37.9824 51.784 38.2324 51.5881 38.4287C51.4582 38.5592 51.3037 38.6625 51.1335 38.7329C50.9634 38.8033 50.781 38.8393 50.5969 38.8387H50.5944L45.9081 38.8344C45.826 38.8344 45.7448 38.8505 45.6689 38.8819C45.5931 38.9133 45.5242 38.9594 45.4662 39.0174C45.4081 39.0755 45.3621 39.1444 45.3307 39.2202C45.2993 39.296 45.2831 39.3773 45.2831 39.4594C45.2831 39.5414 45.2993 39.6227 45.3307 39.6985C45.3621 39.7744 45.4081 39.8433 45.4662 39.9013C45.5242 39.9593 45.5931 40.0054 45.6689 40.0368C45.7448 40.0682 45.826 40.0844 45.9081 40.0844L49.9156 40.0875C50.2253 40.1102 50.515 40.2494 50.7262 40.477C50.9375 40.7046 51.0547 41.0038 51.0544 41.3144C51.0544 41.9894 50.5063 42.5381 49.8319 42.5381L38.2737 42.5431C37.8124 42.5445 37.3547 42.4542 36.9284 42.2777C36.5022 42.1011 36.1152 41.8416 35.79 41.5144C35.4627 41.1888 35.2033 40.8015 35.0267 40.3749C34.8501 39.9484 34.7599 39.491 34.7612 39.0294V29.6169C35.9419 28.1481 37.6056 25.6575 38.3669 23.9875C39.1706 22.225 39.5119 20.6812 39.7612 19.5544C39.9094 18.8856 40.0931 18.0537 40.2712 17.9381C41.8094 17.9381 42.7537 20.2044 42.7537 21.8294C42.7537 22.9537 42.5675 23.4381 42.31 24.1081C42.235 24.3037 42.1575 24.5069 42.08 24.7344C41.7169 25.8056 41.9275 26.43 42.1675 26.7656C42.3631 27.0387 42.7506 27.3644 43.4831 27.3644H50.9675C51.3705 27.3649 51.7568 27.5252 52.0418 27.8101C52.3267 28.0951 52.487 28.4814 52.4875 28.8844C52.4868 29.2874 52.3264 29.6737 52.0413 29.9587C51.7563 30.2436 51.3699 30.4039 50.9669 30.4044ZM60.7638 31.4594C60.598 31.4594 60.439 31.5252 60.3218 31.6424C60.2046 31.7596 60.1388 31.9186 60.1388 32.0844C60.1388 33.4512 60.0013 34.8169 59.73 36.1437C59.7118 36.2248 59.7099 36.3087 59.7244 36.3905C59.739 36.4723 59.7697 36.5504 59.8148 36.6202C59.8599 36.69 59.9185 36.7501 59.9871 36.797C60.0557 36.8439 60.133 36.8766 60.2144 36.8933C60.2958 36.9099 60.3797 36.9102 60.4613 36.894C60.5428 36.8779 60.6202 36.8456 60.6891 36.7992C60.7581 36.7527 60.817 36.693 60.8625 36.6235C60.9081 36.554 60.9393 36.4761 60.9544 36.3944C61.2438 34.976 61.3893 33.532 61.3888 32.0844C61.3888 31.9186 61.3229 31.7596 61.2057 31.6424C61.0885 31.5252 60.9295 31.4594 60.7638 31.4594Z" fill="#3A2C60"/>
<path d="M60.2781 38.905C60.331 38.7478 60.3193 38.576 60.2455 38.4274C60.1717 38.2788 60.0419 38.1657 59.8847 38.1128C59.7275 38.0599 59.5557 38.0717 59.4071 38.1455C59.2586 38.2192 59.1454 38.349 59.0925 38.5062C57.7498 42.5055 55.184 45.9816 51.7579 48.443C48.3318 50.9045 44.2187 52.2268 40 52.2231C28.8956 52.2231 19.8613 43.1887 19.8613 32.0844C19.8613 20.98 28.8956 11.9456 40 11.9456C50.3475 11.9456 58.9575 19.6944 60.0294 29.97C60.0366 30.0526 60.0603 30.1329 60.0989 30.2063C60.1375 30.2797 60.1903 30.3447 60.2543 30.3974C60.3183 30.4502 60.3921 30.4897 60.4715 30.5136C60.5509 30.5376 60.6342 30.5455 60.7167 30.5369C60.7992 30.5283 60.8791 30.5034 60.9519 30.4636C61.0246 30.4239 61.0887 30.37 61.1404 30.3052C61.1922 30.2404 61.2305 30.1659 61.2532 30.0862C61.2758 30.0064 61.2824 29.9229 61.2725 29.8406C60.1344 18.9262 50.9894 10.6956 40 10.6956C28.2063 10.6956 18.6113 20.2906 18.6113 32.0844C18.6113 43.8781 28.2063 53.4731 40 53.4731C44.4805 53.4768 48.8489 52.0723 52.4877 49.4582C56.1265 46.844 58.8517 43.1524 60.2781 38.905Z" fill="#3A2C60"/>
</svg>
