<svg width="20" height="20" viewBox="0 0 20 20" fill="none" xmlns="http://www.w3.org/2000/svg">
<path d="M17.3888 9.37811H17.0781V7.086C17.0789 6.88608 17.0297 6.68914 16.9349 6.51311C16.8401 6.33709 16.7028 6.18757 16.5355 6.07819V5.01233H16.752V4.54358H14.991V5.01233H15.2076V6.07819C15.0402 6.18757 14.9029 6.33708 14.8081 6.5131C14.7133 6.68913 14.6641 6.88607 14.6648 7.086V9.37788H13.5062V8.55397C13.7554 8.50003 13.9786 8.36253 14.1388 8.16427C14.299 7.96602 14.3866 7.71894 14.387 7.46405V6.84092C14.387 6.77876 14.3623 6.71915 14.3184 6.67519C14.2744 6.63124 14.2148 6.60655 14.1527 6.60655H12.3906C12.3285 6.60655 12.2688 6.63124 12.2249 6.67519C12.1809 6.71915 12.1562 6.77876 12.1562 6.84092V7.46405C12.1567 7.71901 12.2444 7.96614 12.4047 8.1644C12.565 8.36266 12.7883 8.50013 13.0375 8.55397V9.37811H11.057V8.55397C11.306 8.49999 11.5292 8.36246 11.6893 8.16421C11.8495 7.96596 11.9371 7.71891 11.9375 7.46405V6.84092C11.9375 6.77876 11.9128 6.71915 11.8688 6.67519C11.8249 6.63124 11.7653 6.60655 11.7031 6.60655H9.9414C9.87924 6.60655 9.81963 6.63124 9.77567 6.67519C9.73172 6.71915 9.70703 6.77876 9.70703 6.84092V7.46405C9.70748 7.71894 9.79508 7.96602 9.95529 8.16427C10.1155 8.36253 10.3387 8.50003 10.5878 8.55397V9.37811H2.69351C2.34657 9.3785 2.01395 9.5165 1.76863 9.76182C1.52331 10.0071 1.38531 10.3398 1.38492 10.6867C1.38492 10.7489 1.40961 10.8085 1.45357 10.8524C1.49752 10.8964 1.55713 10.9211 1.61929 10.9211H2.19336V18.4737H2.66211V10.9211H17.4199V18.4737H17.8887V10.9211H18.4627C18.5249 10.9211 18.5845 10.8964 18.6285 10.8524C18.6724 10.8085 18.6971 10.7489 18.6971 10.6867C18.6967 10.3398 18.5588 10.0072 18.3135 9.76193C18.0682 9.51662 17.7357 9.37859 17.3888 9.37811ZM15.1336 7.086C15.1332 6.94807 15.1716 6.8128 15.2444 6.69569C15.3173 6.57858 15.4217 6.48436 15.5456 6.42381C15.5848 6.40447 15.6179 6.37453 15.641 6.33739C15.6641 6.30025 15.6763 6.25739 15.6763 6.21366V5.01233H16.0669V6.21389C16.067 6.25763 16.0792 6.30049 16.1023 6.33763C16.1254 6.37477 16.1584 6.4047 16.1977 6.42405C16.3215 6.48457 16.4258 6.57877 16.4987 6.69584C16.5715 6.81291 16.6098 6.94813 16.6094 7.086V9.35944H15.1336V7.086ZM12.625 7.46405V7.0753H13.918V7.46405C13.918 7.63551 13.8499 7.79994 13.7286 7.92118C13.6074 8.04242 13.4429 8.11053 13.2715 8.11053C13.1 8.11053 12.9356 8.04242 12.8143 7.92118C12.6931 7.79994 12.625 7.63551 12.625 7.46405ZM10.1758 7.46405V7.0753H11.4687V7.46405C11.4687 7.63551 11.4006 7.79994 11.2794 7.92118C11.1582 8.04242 10.9937 8.11053 10.8223 8.11053C10.6508 8.11053 10.4864 8.04242 10.3651 7.92118C10.2439 7.79994 10.1758 7.63551 10.1758 7.46405ZM1.88672 10.4523C1.93768 10.2778 2.04382 10.1245 2.18922 10.0153C2.33462 9.9062 2.51147 9.84708 2.69328 9.84686H17.3886C17.5704 9.84708 17.7472 9.9062 17.8927 10.0153C18.0381 10.1245 18.1442 10.2778 18.1952 10.4523H1.88672Z" fill="black"/>
<path d="M6.27726 11.9346H4.33593C4.04595 11.935 3.76795 12.0503 3.5629 12.2553C3.35785 12.4604 3.24251 12.7384 3.24218 13.0284V13.587C3.24218 13.6491 3.26687 13.7087 3.31083 13.7527C3.35478 13.7967 3.4144 13.8213 3.47656 13.8213H4.64242V17.046C4.33939 17.0996 4.0649 17.2581 3.86703 17.4938C3.66916 17.7295 3.56052 18.0273 3.56015 18.335C3.56015 18.3972 3.58484 18.4568 3.6288 18.5007C3.67275 18.5447 3.73236 18.5694 3.79453 18.5694H6.81796C6.88012 18.5694 6.93974 18.5447 6.98369 18.5007C7.02764 18.4568 7.05234 18.3972 7.05234 18.335C7.05195 18.0273 6.94332 17.7295 6.74547 17.4939C6.54762 17.2582 6.27315 17.0996 5.97015 17.046V13.8214H7.13663C7.19879 13.8214 7.25841 13.7967 7.30236 13.7528C7.34632 13.7088 7.37101 13.6492 7.37101 13.587V13.0285C7.3707 12.7385 7.25537 12.4604 7.05032 12.2554C6.84527 12.0503 6.56725 11.935 6.27726 11.9346ZM6.5507 18.1006H4.06249C4.11346 17.9261 4.21959 17.7728 4.365 17.6637C4.5104 17.5545 4.68725 17.4954 4.86906 17.4952H4.87687C4.93903 17.4952 4.99864 17.4705 5.0426 17.4265C5.08655 17.3826 5.11124 17.323 5.11124 17.2608V13.8214H5.50187V17.2608C5.50187 17.323 5.52656 17.3826 5.57052 17.4265C5.61447 17.4705 5.67408 17.4952 5.73624 17.4952H5.74406C5.92588 17.4954 6.10275 17.5545 6.24816 17.6636C6.39358 17.7728 6.49972 17.9261 6.5507 18.1006ZM6.90226 13.3527H3.71093V13.0285C3.71112 12.8628 3.77703 12.7039 3.8942 12.5867C4.01136 12.4695 4.17023 12.4036 4.33593 12.4035H6.27726C6.44296 12.4036 6.60183 12.4695 6.719 12.5867C6.83617 12.7039 6.90207 12.8628 6.90226 13.0285V13.3527ZM11.0038 11.9346H9.06249C8.77252 11.935 8.49451 12.0503 8.28946 12.2553C8.08441 12.4604 7.96908 12.7384 7.96874 13.0284V13.587C7.96874 13.6491 7.99344 13.7087 8.03739 13.7527C8.08134 13.7967 8.14096 13.8213 8.20312 13.8213H9.36921V17.046C9.06619 17.0996 8.7917 17.2581 8.59383 17.4938C8.39596 17.7295 8.28732 18.0273 8.28695 18.335C8.28695 18.3972 8.31164 18.4568 8.35559 18.5007C8.39955 18.5447 8.45916 18.5694 8.52132 18.5694H11.5448C11.6069 18.5694 11.6665 18.5447 11.7105 18.5007C11.7544 18.4568 11.7791 18.3972 11.7791 18.335C11.7788 18.0273 11.6701 17.7295 11.4723 17.4939C11.2744 17.2582 10.9999 17.0996 10.6969 17.046V13.8214H11.863C11.9252 13.8214 11.9848 13.7967 12.0288 13.7528C12.0727 13.7088 12.0974 13.6492 12.0974 13.587V13.0285C12.0971 12.7385 11.9818 12.4605 11.7768 12.2554C11.5718 12.0504 11.2938 11.935 11.0038 11.9346ZM11.2773 18.1006H8.78906C8.84003 17.9261 8.94616 17.7728 9.09156 17.6637C9.23696 17.5545 9.41381 17.4954 9.59562 17.4952H9.60343C9.66559 17.4952 9.72521 17.4705 9.76916 17.4265C9.81311 17.3826 9.83781 17.323 9.83781 17.2608V13.8214H10.2284V17.2608C10.2284 17.323 10.2531 17.3826 10.2971 17.4265C10.341 17.4705 10.4006 17.4952 10.4628 17.4952H10.4706C10.6524 17.4954 10.8293 17.5545 10.9747 17.6636C11.1201 17.7728 11.2263 17.9261 11.2773 18.1006ZM11.6288 13.3527H8.43749V13.0285C8.43768 12.8628 8.50359 12.7039 8.62076 12.5867C8.73793 12.4695 8.89679 12.4036 9.06249 12.4035H11.0041C11.1698 12.4036 11.3286 12.4695 11.4458 12.5867C11.563 12.7039 11.6289 12.8628 11.6291 13.0285L11.6288 13.3527ZM15.7304 11.9346H13.7891C13.4991 11.935 13.2211 12.0503 13.016 12.2553C12.811 12.4604 12.6956 12.7384 12.6953 13.0284V13.587C12.6953 13.6491 12.72 13.7087 12.764 13.7527C12.8079 13.7967 12.8675 13.8213 12.9297 13.8213H14.0958V17.046C13.7928 17.0996 13.5183 17.2581 13.3204 17.4938C13.1225 17.7295 13.0139 18.0273 13.0135 18.335C13.0135 18.3972 13.0382 18.4568 13.0822 18.5007C13.1261 18.5447 13.1857 18.5694 13.2479 18.5694H16.2713C16.3335 18.5694 16.3931 18.5447 16.437 18.5007C16.481 18.4568 16.5057 18.3972 16.5057 18.335C16.5053 18.0273 16.3967 17.7295 16.1988 17.4939C16.001 17.2582 15.7265 17.0996 15.4235 17.046V13.8214H16.5896C16.6518 13.8214 16.7114 13.7967 16.7553 13.7528C16.7993 13.7088 16.824 13.6492 16.824 13.587V13.0285C16.8237 12.7385 16.7084 12.4605 16.5033 12.2554C16.2983 12.0504 16.0203 11.935 15.7304 11.9346ZM16.0038 18.1006H13.5156C13.5666 17.9261 13.6727 17.7728 13.8181 17.6637C13.9635 17.5545 14.1404 17.4954 14.3222 17.4952H14.33C14.3922 17.4952 14.4518 17.4705 14.4957 17.4265C14.5397 17.3826 14.5644 17.323 14.5644 17.2608V13.8214H14.955V17.2608C14.955 17.323 14.9797 17.3826 15.0236 17.4265C15.0676 17.4705 15.1272 17.4952 15.1894 17.4952H15.1972C15.379 17.4954 15.5559 17.5545 15.7013 17.6636C15.8467 17.7728 15.9528 17.9261 16.0038 18.1006ZM16.3554 13.3527H13.1641V13.0285C13.1642 12.8628 13.2302 12.7039 13.3473 12.5867C13.4645 12.4695 13.6234 12.4036 13.7891 12.4035H15.7306C15.8963 12.4036 16.0552 12.4695 16.1724 12.5867C16.2895 12.7039 16.3554 12.8628 16.3556 13.0285L16.3554 13.3527ZM1.61929 4.28564H2.10999C2.1496 4.50268 2.26409 4.69894 2.43351 4.84024C2.60294 4.98155 2.81656 5.05894 3.03718 5.05894C3.2578 5.05894 3.47143 4.98155 3.64085 4.84024C3.81028 4.69894 3.92476 4.50268 3.96437 4.28564H4.45507C4.49503 4.28566 4.53433 4.27545 4.56924 4.256C4.60414 4.23655 4.63349 4.20849 4.6545 4.1745C4.67551 4.14051 4.68749 4.10172 4.68928 4.0618C4.69108 4.02188 4.68263 3.98216 4.66476 3.94643L4.02023 2.65736C4.00075 2.61843 3.97082 2.58569 3.93379 2.56281C3.89675 2.53993 3.85407 2.52782 3.81054 2.52783H3.27148V1.62939H2.80273V2.52783H2.26367C2.22013 2.52782 2.17746 2.53993 2.14042 2.56281C2.10338 2.58569 2.07345 2.61843 2.05398 2.65736L1.40945 3.94643C1.39157 3.98216 1.38313 4.02188 1.38493 4.0618C1.38672 4.10172 1.39869 4.14051 1.4197 4.1745C1.44071 4.20849 1.47007 4.23655 1.50497 4.256C1.53988 4.27545 1.57918 4.28566 1.61913 4.28564H1.61929ZM3.03718 4.59033C2.94126 4.59018 2.84764 4.56099 2.76862 4.5066C2.68961 4.45222 2.62892 4.37519 2.59453 4.28564H3.47984C3.44546 4.37518 3.38478 4.45221 3.30578 4.50659C3.22678 4.56098 3.13309 4.59017 3.03718 4.59033ZM2.40867 2.99658H3.6657L4.07585 3.81689H1.99859L2.40867 2.99658ZM5.93749 4.28564H6.4282C6.4678 4.50268 6.58229 4.69894 6.75172 4.84024C6.92114 4.98155 7.13477 5.05894 7.35538 5.05894C7.576 5.05894 7.78963 4.98155 7.95905 4.84024C8.12848 4.69894 8.24297 4.50268 8.28257 4.28564H8.77343C8.81339 4.28566 8.85269 4.27545 8.8876 4.256C8.9225 4.23655 8.95185 4.20849 8.97286 4.1745C8.99387 4.14051 9.00585 4.10172 9.00764 4.0618C9.00944 4.02188 9.00099 3.98216 8.98312 3.94643L8.33859 2.65736C8.31911 2.61843 8.28918 2.58569 8.25215 2.56281C8.21511 2.53993 8.17243 2.52782 8.1289 2.52783H7.58984V1.62939H7.12109V2.52783H6.58203C6.53849 2.52782 6.49582 2.53993 6.45878 2.56281C6.42174 2.58569 6.39181 2.61843 6.37234 2.65736L5.72781 3.94643C5.70993 3.98216 5.70149 4.02188 5.70329 4.0618C5.70508 4.10172 5.71705 4.14051 5.73806 4.1745C5.75907 4.20849 5.78843 4.23655 5.82333 4.256C5.85824 4.27545 5.89753 4.28566 5.93749 4.28564ZM7.35531 4.59033C7.2594 4.59017 7.16578 4.56098 7.08679 4.50659C7.00779 4.45221 6.94711 4.37518 6.91273 4.28564H7.79796C7.76357 4.37519 7.70288 4.45222 7.62386 4.5066C7.54485 4.56099 7.45123 4.59018 7.35531 4.59033ZM6.72656 2.99666H7.98351L8.39367 3.81697H6.31671L6.72656 2.99666ZM10.2555 4.28564H10.7463C10.7859 4.5027 10.9003 4.699 11.0698 4.84034C11.2392 4.98167 11.4528 5.05908 11.6735 5.05908C11.8941 5.05908 12.1077 4.98167 12.2772 4.84034C12.4466 4.699 12.5611 4.5027 12.6006 4.28564H13.0914C13.1314 4.28566 13.1707 4.27545 13.2056 4.256C13.2405 4.23655 13.2698 4.20849 13.2908 4.1745C13.3118 4.14051 13.3238 4.10172 13.3256 4.0618C13.3274 4.02188 13.319 3.98216 13.3011 3.94643L12.6562 2.65744C12.6368 2.61851 12.6068 2.58577 12.5698 2.56289C12.5328 2.54001 12.4901 2.5279 12.4466 2.52791H11.9075V1.62947H11.4387V2.52791H10.8997C10.8561 2.5279 10.8135 2.54001 10.7764 2.56289C10.7394 2.58577 10.7095 2.61851 10.69 2.65744L10.0455 3.9465C10.0276 3.98224 10.0191 4.02196 10.0209 4.06188C10.0227 4.1018 10.0347 4.14059 10.0557 4.17458C10.0767 4.20857 10.1061 4.23663 10.141 4.25608C10.1759 4.27553 10.2152 4.28573 10.2552 4.28572L10.2555 4.28564ZM11.6734 4.59033C11.5775 4.59017 11.4839 4.56098 11.4049 4.50659C11.3259 4.45221 11.2652 4.37518 11.2309 4.28564H12.1161C12.0817 4.37518 12.021 4.45221 11.942 4.50659C11.863 4.56098 11.7694 4.59017 11.6735 4.59033H11.6734ZM11.0449 2.99658H12.3019L12.7121 3.81689H10.6348L11.0449 2.99658Z" fill="black"/>
</svg>
