<svg width="96" height="97" viewBox="0 0 96 97" fill="none" xmlns="http://www.w3.org/2000/svg">
<path d="M87.84 37.85C88.287 37.955 77.6175 29.2955 77.49 29.135V46.265C79.2165 44.8595 86.25 39.122 87.84 37.85Z" fill="white"/>
<path d="M89.16 40.64C81.5625 46.8275 71.6805 54.848 64.095 61.04C63.7857 61.2804 63.3945 61.3901 63.0053 61.3457C62.616 61.3012 62.2597 61.1061 62.0126 60.8021C61.7655 60.4981 61.6472 60.1094 61.6832 59.7193C61.7192 59.3292 61.9065 58.9687 62.205 58.715C64.7625 56.6255 72.03 50.7275 74.49 48.71C74.49 48.71 74.484 22.364 74.49 19.94C74.4892 19.435 74.2882 18.9509 73.9311 18.5938C73.5741 18.2368 73.09 18.0358 72.585 18.035C58.1895 18.0245 37.836 18.0425 23.415 18.035C22.91 18.0358 22.4259 18.2368 22.0688 18.5938C21.7117 18.9509 21.5108 19.435 21.51 19.94V48.71C23.925 50.6855 31.26 56.651 33.795 58.715C34.0935 58.9687 34.2808 59.3292 34.3168 59.7193C34.3527 60.1094 34.2345 60.4981 33.9874 60.8021C33.7402 61.1061 33.3839 61.3012 32.9947 61.3457C32.6055 61.3901 32.2143 61.2804 31.905 61.04C24.3315 54.842 14.4555 46.853 6.83998 40.64C6.76718 41.0105 6.732 41.3874 6.73498 41.765V84.425C6.72862 85.5372 7.03531 86.6288 7.61998 87.575L44.085 56.765C45.1792 55.8388 46.5664 55.3306 48 55.3306C49.4336 55.3306 50.8207 55.8388 51.915 56.765L88.44 87.47C88.9812 86.5466 89.266 85.4954 89.265 84.425V41.765C89.2679 41.3874 89.2327 41.0105 89.16 40.64ZM59.91 39.485C59.718 40.2951 59.3055 41.0362 58.7182 41.6263C58.1308 42.2163 57.3916 42.6322 56.5824 42.8279C55.7732 43.0236 54.9256 42.9915 54.1336 42.735C53.3415 42.4786 52.6359 42.0078 52.095 41.375C50.9917 42.4256 49.5234 43.0065 48 42.995C46.7985 42.995 45.6239 42.6387 44.6249 41.9712C43.6259 41.3036 42.8472 40.3549 42.3874 39.2448C41.9276 38.1347 41.8073 36.9133 42.0417 35.7348C42.2761 34.5564 42.8547 33.4739 43.7043 32.6243C44.5539 31.7747 45.6364 31.1961 46.8148 30.9617C47.9932 30.7273 49.2147 30.8476 50.3248 31.3074C51.4348 31.7672 52.3836 32.5459 53.0512 33.5449C53.7187 34.5439 54.075 35.7185 54.075 36.92V38.54C54.0855 38.8947 54.2239 39.2336 54.4647 39.4943C54.7056 39.7549 55.0325 39.9196 55.3853 39.958C55.7381 39.9964 56.0929 39.9058 56.3841 39.7031C56.6754 39.5004 56.8835 39.1992 56.97 38.855C57.2324 37.6013 57.231 36.3068 56.9658 35.0537C56.7006 33.8006 56.1775 32.6165 55.4297 31.5766C54.6819 30.5368 53.7258 29.664 52.6223 29.0138C51.5188 28.3636 50.292 27.9502 49.02 27.8C37.305 26.795 34.872 43.556 46.365 45.965C48.7445 46.3785 51.1916 45.8514 53.19 44.495C53.3524 44.3833 53.5352 44.3048 53.728 44.264C53.9208 44.2231 54.1198 44.2208 54.3135 44.257C54.5072 44.2932 54.6918 44.3674 54.8568 44.4751C55.0218 44.5829 55.1639 44.7222 55.275 44.885C57.0675 48.1745 47.952 49.658 45.87 48.92C36.531 47.528 32.532 35.39 39.045 28.67C47.334 19.61 62.511 27.488 59.91 39.485Z" fill="white"/>
<path d="M49.98 59.06C49.4283 58.5878 48.7261 58.3284 48 58.3284C47.2739 58.3284 46.5717 58.5878 46.02 59.06L9.78 89.69C10.7013 90.2215 11.7464 90.5009 12.81 90.5H83.19C84.2965 90.4991 85.3814 90.1929 86.325 89.615L49.98 59.06ZM60.48 15.035L51.885 7.89499C50.7911 6.99331 49.4176 6.50021 48 6.50021C46.5824 6.50021 45.2089 6.99331 44.115 7.89499L35.52 15.035H60.48ZM18.51 46.265V29.15C18.3495 29.33 7.782 37.9175 8.175 37.85C9.7125 39.0965 16.833 44.9 18.51 46.265ZM48 33.845C47.1845 33.845 46.4023 34.169 45.8256 34.7456C45.249 35.3223 44.925 36.1045 44.925 36.92C44.925 37.7355 45.249 38.5177 45.8256 39.0943C46.4023 39.671 47.1845 39.995 48 39.995C48.8155 39.995 49.5977 39.671 50.1744 39.0943C50.751 38.5177 51.075 37.7355 51.075 36.92C51.075 36.1045 50.751 35.3223 50.1744 34.7456C49.5977 34.169 48.8155 33.845 48 33.845Z" fill="white"/>
</svg>
