<svg width="28" height="28" viewBox="0 0 28 28" fill="none" xmlns="http://www.w3.org/2000/svg">
<path d="M21.5987 7.85541C21.5049 7.64453 21.294 7.51561 21.0596 7.51561H10.8018C9.81309 6.04007 10.2681 6.72311 8.63379 4.25773C8.51663 4.09365 8.34083 3.99997 8.14163 3.99997H4.58692C4.25876 3.99997 4.001 4.25773 4.001 4.58589C4.001 4.91397 4.25876 5.17181 4.58692 5.17181H7.82519C8.78822 6.60903 8.43182 6.07718 9.39555 7.51557H4.58692C4.35256 7.51557 4.15332 7.64449 4.05956 7.85537C3.95412 8.06629 3.98924 8.30069 4.1416 8.47649V8.48814L5.31348 9.85926H20.3448L21.5167 8.48814C21.6573 8.31245 21.6925 8.06633 21.5987 7.85541ZM16.3448 22.8282C15.3721 22.8282 14.587 22.043 14.587 21.0704V18.1016H11.0713V21.0704C11.0713 22.043 10.2862 22.8282 9.31351 22.8282C8.98535 22.8282 8.72759 23.0859 8.72759 23.4141C8.72759 23.7422 8.98535 24 9.31351 24H16.3448C16.673 24 16.9307 23.7422 16.9307 23.4141C16.9307 23.086 16.673 22.8282 16.3448 22.8282Z" fill="#115779"/>
<path d="M19.3135 3.99997C17.6143 3.99997 16.0518 4.93749 15.2315 6.34374H21.0596C21.7511 6.34374 22.3722 6.74214 22.6651 7.37498C22.9464 7.99602 22.8527 8.7343 22.3956 9.24994C22.3956 9.24994 20.0068 12.0392 18.88 13.3515C19.0206 13.3632 19.173 13.375 19.3136 13.375C21.9035 13.375 24.0011 11.2773 24.0011 8.68746C24.0011 6.09762 21.9034 3.99997 19.3135 3.99997Z" fill="#115779"/>
<path d="M6.36039 11.0313L11.0714 16.9298H14.587L19.3371 11.0313H6.36039Z" fill="#115779"/>
</svg>
