<svg width="104" height="103" viewBox="0 0 104 103" fill="none" xmlns="http://www.w3.org/2000/svg">
<path d="M99.2497 73.1627C98.2659 72.6288 97.1825 72.3094 96.0692 72.2249C94.9559 72.1404 93.8375 72.2928 92.786 72.6722L71.3102 80.4708C71.733 79.1657 71.8183 77.7727 71.558 76.4247C71.2978 75.0767 70.7007 73.8186 69.8236 72.7703C69.0823 71.8853 68.1587 71.1751 67.1175 70.6893C66.0763 70.2035 64.9427 69.954 63.7961 69.9582H52.0321C49.3012 69.9582 46.6511 68.9936 44.4049 67.1789C39.2824 63.0425 28.8758 57.5818 15.2373 65.3314V62.5847C15.2373 61.6741 14.8798 60.8008 14.2434 60.157C13.607 59.5131 12.7439 59.1514 11.8439 59.1514H3.89346C2.99346 59.1514 2.13032 59.5131 1.49392 60.157C0.857524 60.8008 0.5 61.6741 0.5 62.5847V96.9836C0.5 98.8801 2.01898 100.417 3.89346 100.417H11.8439C12.7439 100.417 13.607 100.055 14.2434 99.4114C14.8798 98.7675 15.2373 97.8942 15.2373 96.9836V95.316C17.8228 95.2833 24.3997 95.6593 33.8206 99.4033C39.8642 101.79 46.1501 103 52.42 103C55.8942 103 59.3685 102.624 62.7781 101.872C72.1828 99.7957 86.2253 95.5776 99.7184 87.2231C100.614 86.6582 101.391 85.9196 102.004 85.0497C102.617 84.1799 103.054 83.1961 103.29 82.1548C104.114 78.607 102.465 74.9121 99.2497 73.1627ZM12.4094 96.9673C12.4094 97.2779 12.1509 97.5395 11.8439 97.5395H3.89346C3.58643 97.5395 3.32789 97.2779 3.32789 96.9673V62.5684C3.32789 62.2577 3.58643 61.9961 3.89346 61.9961H11.8439C12.1509 61.9961 12.4094 62.2577 12.4094 62.5684V96.9673ZM100.542 81.5008C100.219 82.8742 99.3952 84.0677 98.2479 84.7707C85.078 92.929 71.3587 97.049 62.1802 99.0763C53.1795 101.055 43.7262 100.253 34.8548 96.7384C25.4015 92.9944 18.6954 92.4549 15.5767 92.4549H15.2212V68.6013C28.1325 60.492 37.9089 65.593 42.6274 69.4024C45.3422 71.6095 48.6872 72.8194 52.016 72.8194H63.78C65.2666 72.8194 66.6887 73.4733 67.6582 74.6341C68.6439 75.7949 69.0479 77.2991 68.7894 78.8359C68.5631 80.2747 67.6582 81.5008 66.414 82.2693C66.3332 82.302 66.2362 82.351 66.1716 82.4164C65.3636 82.8578 64.4264 83.1031 63.4406 83.1031H46.9096C46.134 83.1031 45.4876 83.7407 45.4876 84.5418C45.4876 85.3429 46.1178 85.9806 46.9096 85.9806H63.4568C64.9596 85.9806 66.3816 85.5882 67.6097 84.9015L93.7556 75.4189C95.1129 74.9284 96.6481 75.0265 97.9732 75.7622C100.009 76.8249 101.076 79.2119 100.542 81.5008Z" fill="#115779"/>
<path d="M33.2227 37.9462C34.3053 38.9762 35.4203 40.0552 35.7112 40.9871C36.0344 42.0008 35.7435 43.5703 35.4688 45.1072C35.0487 47.4778 34.5962 49.9302 35.9536 51.794C37.311 53.6742 39.7672 54.0175 42.1426 54.3445C43.6454 54.5571 45.2129 54.7696 46.037 55.3745C46.845 55.9631 47.5237 57.4018 48.1701 58.7752C49.1558 60.8842 50.2869 63.2549 52.5008 63.9906C52.9532 64.1377 53.4057 64.2031 53.842 64.2031C55.5226 64.2031 57.2193 63.2876 58.8514 62.3884C60.2249 61.6363 61.647 60.8679 62.7296 60.8679C63.8123 60.8679 65.2343 61.6363 66.6079 62.3884C68.6924 63.5165 70.8255 64.6936 72.9747 63.9906C75.2046 63.2549 76.3196 60.8842 77.3054 58.7752C77.9517 57.4018 78.6304 55.9794 79.4384 55.3745C80.2625 54.7696 81.83 54.5571 83.3328 54.3445C85.7082 54.0175 88.1644 53.6905 89.5218 51.8104C90.863 49.9466 90.4267 47.4942 90.0066 45.1235C89.7319 43.5867 89.4572 42.0172 89.7642 41.0035C90.0551 40.0716 91.1862 39.0089 92.2528 37.9625C93.9333 36.3439 95.8401 34.5128 95.8401 32.1095C95.8401 29.7061 93.9333 27.875 92.2528 26.2564C91.1701 25.2264 90.0551 24.1474 89.7642 23.2155C89.441 22.2018 89.7319 20.6323 90.0066 19.0955C90.4267 16.7248 90.8792 14.2724 89.5218 12.4086C88.1644 10.5284 85.7082 10.1851 83.3328 9.8581C81.83 9.64556 80.2625 9.43302 79.4384 8.8281C78.6304 8.23952 77.9517 6.80079 77.3054 5.42745C76.3196 3.31839 75.1885 0.947742 72.9747 0.212024C70.8416 -0.490996 68.6924 0.686153 66.6079 1.81425C65.2343 2.56632 63.8123 3.33474 62.7296 3.33474C61.647 3.33474 60.2249 2.56632 58.8514 1.81425C56.7668 0.686153 54.6176 -0.490996 52.4846 0.212024C50.2546 0.947742 49.1396 3.31839 48.1539 5.42745C47.5075 6.80079 46.8288 8.22318 46.0209 8.8281C45.1967 9.43302 43.6293 9.64556 42.1265 9.8581C39.751 10.1851 37.2948 10.5121 35.9374 12.4086C34.5962 14.2724 35.0325 16.7248 35.4527 19.0955C35.7274 20.6323 36.0021 22.2018 35.6951 23.2155C35.388 24.1474 34.273 25.2101 33.2065 26.2564C31.5259 27.875 29.6191 29.7061 29.6191 32.1095C29.6191 34.4965 31.5421 36.3276 33.2227 37.9462ZM35.1618 28.3164C36.503 27.0412 37.8766 25.7169 38.3937 24.082C38.9431 22.398 38.5876 20.4524 38.2482 18.5723C37.925 16.7902 37.6019 14.9427 38.2321 14.0762C38.8784 13.177 40.7206 12.9318 42.5143 12.6865C44.3726 12.4413 46.2956 12.1797 47.7014 11.1333C49.0911 10.1197 49.9153 8.35397 50.7232 6.65364C51.4989 5.00237 52.323 3.28569 53.3895 2.92601C53.535 2.87696 53.6966 2.86061 53.8582 2.86061C54.8439 2.86061 56.2174 3.61268 57.5425 4.33204C59.2231 5.2476 60.9683 6.19586 62.762 6.19586C64.5556 6.19586 66.3008 5.2476 67.9814 4.33204C69.5327 3.48188 71.1325 2.61537 72.1344 2.94235C73.2009 3.28569 74.0089 5.00237 74.8007 6.66999C75.6086 8.37032 76.4328 10.1197 77.8225 11.1497C79.2283 12.1797 81.1513 12.4413 83.0096 12.7029C84.8033 12.9481 86.6455 13.1934 87.2918 14.0926C87.922 14.9754 87.5989 16.8066 87.2757 18.5886C86.9363 20.4688 86.597 22.4144 87.1302 24.0983C87.6473 25.7169 89.037 27.0412 90.3621 28.3328C91.6872 29.608 93.0769 30.9323 93.0769 32.1095C93.0769 33.2866 91.7033 34.6109 90.3621 35.8862C89.0209 37.1614 87.6473 38.4857 87.1302 40.1206C86.5808 41.8046 86.9363 43.7502 87.2757 45.6303C87.5989 47.4124 87.922 49.2435 87.2918 50.1264C86.6455 51.0256 84.8033 51.2708 83.0096 51.5161C81.1513 51.7613 79.2283 52.0229 77.8225 53.0693C76.4328 54.0829 75.6086 55.8487 74.8007 57.549C74.025 59.2166 73.2009 60.9169 72.1344 61.2766C71.1486 61.6036 69.5327 60.7207 67.9814 59.8869C66.3008 58.9714 64.5556 58.0231 62.762 58.0231C60.9683 58.0231 59.2231 58.9714 57.5425 59.8869C55.9912 60.7371 54.3914 61.6036 53.3895 61.2766C52.323 60.9333 51.515 59.2166 50.7232 57.549C49.9153 55.8487 49.0911 54.0993 47.7014 53.0693C46.2956 52.0393 44.3726 51.7777 42.5143 51.5161C40.7206 51.2708 38.8784 51.0256 38.2321 50.1264C37.6019 49.2435 37.925 47.4124 38.2482 45.6303C38.5876 43.7502 38.9269 41.8046 38.3937 40.1206C37.8766 38.5021 36.4869 37.1778 35.1618 35.8862C33.8367 34.6109 32.447 33.2866 32.447 32.1095C32.447 30.916 33.8367 29.5917 35.1618 28.3164Z" fill="#115779"/>
<path d="M62.7458 52.0885C73.6372 52.0885 82.5087 43.1127 82.5087 32.0933C82.5087 21.0739 73.6533 12.0981 62.7458 12.0981C51.8382 12.0981 42.9829 21.0739 42.9829 32.0933C42.9829 43.1127 51.8544 52.0885 62.7458 52.0885ZM62.7458 14.9593C72.0859 14.9593 79.6808 22.6434 79.6808 32.0933C79.6808 41.5432 72.0859 49.2274 62.7458 49.2274C53.4057 49.2274 45.8108 41.5432 45.8108 32.0933C45.8108 22.6434 53.4057 14.9593 62.7458 14.9593Z" fill="#115779"/>
<path d="M56.1367 40.9873C57.0093 41.8702 58.1889 42.3607 59.417 42.3607C60.6451 42.3607 61.8248 41.8702 62.6974 40.9873L73.7019 29.8534C74.5745 28.9706 75.0593 27.7771 75.0593 26.5345C75.0593 25.292 74.5745 24.0985 73.7019 23.2156C72.8283 22.3361 71.6459 21.8423 70.4135 21.8423C69.181 21.8423 67.9987 22.3361 67.125 23.2156L59.417 31.0142L58.3505 29.9352C57.4769 29.0556 56.2946 28.5618 55.0621 28.5618C53.8296 28.5618 52.6473 29.0556 51.7737 29.9352C50.9043 30.8191 50.4163 32.0153 50.4163 33.2623C50.4163 34.5092 50.9043 35.7055 51.7737 36.5894L56.1367 40.9873ZM53.7936 31.9625C54.1491 31.6028 54.6177 31.423 55.0863 31.423C55.5549 31.423 56.0236 31.6028 56.3791 31.9625L58.4475 34.0389C58.9969 34.5947 59.9018 34.5947 60.4512 34.0389L69.1611 25.2266C69.8721 24.5072 71.0194 24.5072 71.7304 25.2266C72.0698 25.5699 72.2637 26.0277 72.2637 26.5182C72.2637 27.0087 72.0698 27.4665 71.7304 27.8261L60.7259 38.96C60.0472 39.6467 58.8353 39.6467 58.1566 38.96L53.8097 34.562C53.0826 33.8427 53.0826 32.6819 53.7936 31.9625Z" fill="#115779"/>
</svg>
