<svg width="28" height="28" viewBox="0 0 28 28" fill="none" xmlns="http://www.w3.org/2000/svg">
<path d="M24.9173 16.6372C24.9173 16.3635 24.712 16.1241 24.4384 16.0557L24.4726 14.0032L24.6436 5.45104C24.6436 5.04054 24.0963 4.8695 23.8568 5.21158C23.5489 5.75892 23.3095 6.34046 23.2411 6.99042L22.3174 14.0032L22.249 14.5163C22.2148 14.7557 22.4201 14.9952 22.6595 14.9952H23.2069C23.3095 14.9952 23.4121 15.0294 23.5147 15.0978C23.5831 15.1663 23.6516 15.2689 23.6516 15.4057V16.0215H23.4463C23.2753 16.0215 23.1384 16.0899 23.0016 16.1925C22.899 16.2951 22.8306 16.4662 22.8306 16.6372L22.8648 21.9395C22.8648 22.2816 23.1384 22.5553 23.4805 22.5553H24.3699C24.712 22.5553 24.9857 22.2816 24.9857 21.9395L24.9173 16.6372ZM14.4153 8.9061C11.6102 8.9061 9.35242 11.1981 9.35242 13.969C9.35242 16.774 11.6102 19.0318 14.4153 19.0318C17.2204 19.0318 19.4781 16.774 19.4781 13.969C19.4781 11.1981 17.2204 8.9061 14.4153 8.9061ZM14.4153 10.6165C12.568 10.6165 11.0628 12.1217 11.0628 13.969C11.0628 14.1742 10.8918 14.3795 10.6523 14.3795C10.4129 14.3795 10.2418 14.2084 10.2418 13.969C10.2418 11.677 12.1233 9.79552 14.4153 9.79552C14.6547 9.79552 14.8258 9.96656 14.8258 10.206C14.8258 10.4455 14.6547 10.6165 14.4153 10.6165ZM14.4153 8.9061C11.6102 8.9061 9.35242 11.1981 9.35242 13.969C9.35242 16.774 11.6102 19.0318 14.4153 19.0318C17.2204 19.0318 19.4781 16.774 19.4781 13.969C19.4781 11.1981 17.2204 8.9061 14.4153 8.9061ZM14.4153 10.6165C12.568 10.6165 11.0628 12.1217 11.0628 13.969C11.0628 14.1742 10.8918 14.3795 10.6523 14.3795C10.4129 14.3795 10.2418 14.2084 10.2418 13.969C10.2418 11.677 12.1233 9.79552 14.4153 9.79552C14.6547 9.79552 14.8258 9.96656 14.8258 10.206C14.8258 10.4455 14.6547 10.6165 14.4153 10.6165ZM14.4153 6.92201C10.5155 6.92201 7.33412 10.1034 7.33412 14.0032C7.33412 17.9029 10.5155 21.0843 14.4153 21.0843C18.315 21.0843 21.4964 17.9029 21.4964 14.0032C21.4964 10.0692 18.315 6.92201 14.4153 6.92201ZM14.4153 19.8528C11.1655 19.8528 8.53142 17.2188 8.53142 13.969C8.53142 10.7191 11.1655 8.08509 14.4153 8.08509C17.6651 8.08509 20.2991 10.7191 20.2991 13.969C20.2991 17.2188 17.6651 19.8528 14.4153 19.8528ZM14.4153 8.9061C11.6102 8.9061 9.35242 11.1981 9.35242 13.969C9.35242 16.774 11.6102 19.0318 14.4153 19.0318C17.2204 19.0318 19.4781 16.774 19.4781 13.969C19.4781 11.1981 17.2204 8.9061 14.4153 8.9061ZM14.4153 10.6165C12.568 10.6165 11.0628 12.1217 11.0628 13.969C11.0628 14.1742 10.8918 14.3795 10.6523 14.3795C10.4129 14.3795 10.2418 14.2084 10.2418 13.969C10.2418 11.677 12.1233 9.79552 14.4153 9.79552C14.6547 9.79552 14.8258 9.96656 14.8258 10.206C14.8258 10.4455 14.6547 10.6165 14.4153 10.6165ZM7.33412 5.41683L7.29991 10.0008C7.29991 11.1639 6.34207 12.0875 5.17899 12.0875C4.0159 12.0875 3.05806 11.1639 3.05806 10.0008V5.41683C3.05806 5.21158 3.2291 5.04054 3.43435 5.04054C3.6396 5.04054 3.81065 5.21158 3.81065 5.41683V9.28239C3.81065 9.52185 4.0159 9.7271 4.25536 9.7271H4.35798C4.59744 9.7271 4.80269 9.52185 4.80269 9.28239V5.41683C4.80269 5.21158 4.97373 5.04054 5.17899 5.04054H5.2474C5.45265 5.04054 5.6237 5.21158 5.6237 5.41683V9.28239C5.6237 9.52185 5.82895 9.7271 6.06841 9.7271H6.13682C6.37628 9.7271 6.58153 9.52185 6.58153 9.28239V5.41683C6.58153 5.21158 6.75258 5.04054 6.95783 5.04054C7.16308 5.04054 7.33412 5.21158 7.33412 5.41683ZM5.58949 23H4.80269C4.25536 23 3.81065 22.5553 3.81065 22.0079V18.0056C3.81065 17.4582 4.25536 17.0135 4.80269 17.0135H5.58949C6.13682 17.0135 6.58153 17.4582 6.58153 18.0056V21.9737C6.61574 22.5211 6.13682 23 5.58949 23ZM5.93157 12.7717V16.3635C5.69211 16.2951 5.45265 16.2267 5.17899 16.2267C4.90532 16.2267 4.66586 16.2609 4.46061 16.3635V12.7717C4.70007 12.8401 4.93953 12.8743 5.21319 12.8743H5.2474C5.45265 12.8743 5.72632 12.8401 5.93157 12.7717Z" fill="#115779"/>
</svg>
