<svg width="20" height="20" viewBox="0 0 20 20" fill="none" xmlns="http://www.w3.org/2000/svg">
<path d="M19.8073 15.9634C19.4703 15.5843 18.8882 15.5498 18.5127 15.8836C18.5075 15.8881 18.0795 16.2517 17.2206 16.6812V4.05091C17.2206 3.54372 16.808 3.1311 16.3008 3.1311C15.7938 3.1311 15.3812 3.54372 15.3812 4.05091V5.3229H13.7959C13.6339 5.3229 13.5025 5.45427 13.5025 5.61646C13.5025 5.77864 13.6339 5.91005 13.7959 5.91005H16.6336V6.88845H3.44375V5.91005H12.4262C12.5034 5.90916 12.5772 5.87783 12.6316 5.82288C12.6859 5.76792 12.7164 5.69375 12.7164 5.61647C12.7164 5.5392 12.6859 5.46503 12.6316 5.41007C12.5772 5.35511 12.5034 5.32379 12.4262 5.3229H4.69617V4.05091C4.69617 3.54372 4.28355 3.1311 3.77636 3.1311C3.26918 3.1311 2.8566 3.54376 2.8566 4.05091V16.6813C2.01765 16.2618 1.58996 15.9052 1.56722 15.8859C1.18804 15.5512 0.607144 15.5861 0.270972 15.9644C-0.0659422 16.3434 -0.0317625 16.9259 0.347456 17.2629C0.473159 17.3746 3.50281 20 10.0386 20C16.5744 20 19.6042 17.3746 19.7299 17.2627C20.1096 16.9254 20.1444 16.3425 19.8073 15.9634ZM16.5053 17.0072C16.3279 17.0806 16.1489 17.1498 15.9682 17.2147V15.9296H16.6336V16.9531C16.5915 16.9711 16.5487 16.9892 16.5053 17.0072H16.5053ZM3.44375 14.364H16.6336V15.3424H3.44375V14.364ZM14.0895 13.7769V12.1722H15.3812V13.7769H14.0895ZM15.3812 11.5851H14.0894V7.4756H15.3811L15.3812 11.5851ZM13.5025 13.7769H12.8371V7.4756H13.5025L13.5025 13.7769ZM10.9584 13.7769V12.1722H12.2501V13.7769H10.9584ZM12.2501 11.5851H10.9584V7.4756H12.2501V11.5851ZM10.3712 13.7769H9.70597V7.4756H10.3712L10.3712 13.7769ZM7.8273 13.7769V12.1722H9.11878V13.7769H7.8273ZM9.11878 11.5851H7.82734V7.4756H9.11882L9.11878 11.5851ZM7.24015 13.7769H6.57484V7.4756H7.24015V13.7769ZM5.98769 11.5851H4.69621V7.4756H5.98769V11.5851ZM4.69621 12.1722H5.98769V13.7769H4.69621V12.1722ZM15.3812 15.9296V17.4111C14.0975 17.8087 12.3178 18.1604 10.0386 18.1604C7.75957 18.1604 5.97992 17.8087 4.69621 17.4111V15.9296H15.3812ZM15.9682 5.3229V4.05091C15.9682 3.86751 16.1174 3.71825 16.3008 3.71825C16.4844 3.71825 16.6336 3.86747 16.6336 4.05091V5.3229H15.9682ZM16.6336 13.7769H15.9682V7.4756H16.6336V13.7769ZM4.10902 7.4756V13.7769H3.44378V7.4756H4.10902ZM3.7764 3.71825C3.9598 3.71825 4.10902 3.86747 4.10902 4.05091V5.3229H3.44378V4.05091C3.44378 3.86751 3.593 3.71825 3.7764 3.71825ZM3.44375 15.9296H4.10902V17.2147C3.88477 17.134 3.66293 17.0468 3.44378 16.9531L3.44375 15.9296ZM19.3399 16.824C19.2211 16.9298 16.3539 19.4129 10.0386 19.4129C3.72343 19.4129 0.856323 16.9298 0.737417 16.824C0.613081 16.7136 0.590191 16.521 0.685737 16.3849C0.799409 16.2227 1.03425 16.1978 1.18179 16.3288C1.21078 16.3541 1.90917 16.954 3.34746 17.5496C4.66691 18.0962 6.89894 18.7476 10.0386 18.7476C13.1784 18.7476 15.4103 18.0962 16.7299 17.5496C18.1711 16.9528 18.8687 16.3521 18.8998 16.3249C19.0364 16.2036 19.2467 16.2165 19.3685 16.3534C19.4903 16.4906 19.4775 16.7017 19.3399 16.824Z" fill="black"/>
<path d="M8.78617 3.09203H9.42796L8.55699 4.18059C8.40605 4.36922 8.54538 4.65758 8.78617 4.65758H10.0386C10.2008 4.65758 10.3322 4.52621 10.3322 4.36402C10.3322 4.20184 10.2008 4.07043 10.0386 4.07043H9.39699L10.2678 2.98188C10.4189 2.79313 10.2795 2.50488 10.0386 2.50488H8.78617C8.70889 2.50577 8.63508 2.5371 8.58076 2.59206C8.52643 2.64702 8.49596 2.72118 8.49596 2.79846C8.49596 2.87574 8.52643 2.9499 8.58076 3.00486C8.63508 3.05982 8.70889 3.09114 8.78617 3.09203ZM10.9779 1.83961H11.6197L10.7487 2.92813C10.5978 3.11672 10.7371 3.40508 10.9779 3.40508H12.2304C12.3926 3.40508 12.5239 3.27375 12.5239 3.11152C12.5239 2.9493 12.3926 2.81797 12.2304 2.81797H11.5887L12.4596 1.72938C12.6106 1.54063 12.4713 1.25242 12.2304 1.25242H10.9779C10.9009 1.25368 10.8275 1.28516 10.7734 1.34007C10.7194 1.39499 10.6891 1.46894 10.6891 1.54598C10.6891 1.62301 10.7194 1.69696 10.7734 1.75188C10.8275 1.80679 10.9009 1.83827 10.9779 1.83953V1.83961ZM13.1697 0.587148H13.8115L12.9405 1.6757C12.7896 1.86434 12.9289 2.1527 13.1697 2.1527H14.4221C14.4992 2.15144 14.5726 2.11996 14.6266 2.06504C14.6807 2.01013 14.7109 1.93618 14.7109 1.85914C14.7109 1.7821 14.6807 1.70815 14.6266 1.65324C14.5726 1.59832 14.4992 1.56684 14.4221 1.56559H13.7805L14.6513 0.476992C14.8024 0.288242 14.6631 0 14.4221 0H13.1697C13.1312 5.12756e-06 13.093 0.00760379 13.0574 0.022362C13.0218 0.0371202 12.9894 0.0587488 12.9622 0.0860125C12.9349 0.113276 12.9133 0.145641 12.8986 0.181258C12.8838 0.216875 12.8763 0.255047 12.8763 0.293594C12.8763 0.371429 12.9072 0.446078 12.9622 0.501127C13.0172 0.556176 13.0919 0.587117 13.1697 0.587148Z" fill="black"/>
</svg>
