<svg width="20" height="20" viewBox="0 0 20 20" fill="none" xmlns="http://www.w3.org/2000/svg">
<path d="M4.37499 8.125H15.625C15.7486 8.12498 15.8694 8.08831 15.9721 8.01963C16.0749 7.95095 16.155 7.85335 16.2023 7.73916C16.2496 7.62498 16.262 7.49933 16.2379 7.37811C16.2137 7.25689 16.1542 7.14554 16.0669 7.05813L10.4419 1.43313C10.3247 1.31596 10.1657 1.25014 9.99999 1.25014C9.83426 1.25014 9.67532 1.31596 9.55811 1.43313L3.93311 7.05813C3.84573 7.14554 3.78623 7.25689 3.76212 7.37811C3.73802 7.49933 3.7504 7.62498 3.79769 7.73916C3.84498 7.85335 3.92507 7.95095 4.02783 8.01963C4.13058 8.08831 4.2514 8.12498 4.37499 8.125ZM15.625 11.875H4.37499C4.2514 11.875 4.13058 11.9117 4.02783 11.9804C3.92507 12.0491 3.84498 12.1467 3.79769 12.2608C3.7504 12.375 3.73802 12.5007 3.76212 12.6219C3.78623 12.7431 3.84573 12.8545 3.93311 12.9419L9.55811 18.5669C9.67532 18.684 9.83426 18.7499 9.99999 18.7499C10.1657 18.7499 10.3247 18.684 10.4419 18.5669L16.0669 12.9419C16.1542 12.8545 16.2137 12.7431 16.2379 12.6219C16.262 12.5007 16.2496 12.375 16.2023 12.2608C16.155 12.1467 16.0749 12.0491 15.9721 11.9804C15.8694 11.9117 15.7486 11.875 15.625 11.875Z" fill="black"/>
</svg>
