<svg width="163" height="24" viewBox="0 0 163 24" fill="none" xmlns="http://www.w3.org/2000/svg">
<path d="M84.053 14L79 22L77 22L79.526 14L74.166 14L72.5 17L71 17L72 12.5L71 8L72.5 8L74.167 11L79.527 11L77 3L79 3L84.053 11L89.5 11C89.697 11 89.892 11.0388 90.074 11.1142C90.256 11.1896 90.4214 11.3001 90.5607 11.4393C90.6999 11.5786 90.8104 11.744 90.8858 11.926C90.9612 12.108 91 12.303 91 12.5C91 12.697 90.9612 12.892 90.8858 13.074C90.8104 13.256 90.6999 13.4214 90.5607 13.5607C90.4214 13.6999 90.256 13.8104 90.074 13.8858C89.892 13.9612 89.697 14 89.5 14L84.053 14Z" fill="#115779"/>
<path d="M0.333333 12C0.333333 13.4728 1.52724 14.6667 3 14.6667C4.47276 14.6667 5.66667 13.4728 5.66667 12C5.66667 10.5272 4.47276 9.33333 3 9.33333C1.52724 9.33333 0.333333 10.5272 0.333333 12ZM157.333 12C157.333 13.4728 158.527 14.6667 160 14.6667C161.473 14.6667 162.667 13.4728 162.667 12C162.667 10.5272 161.473 9.33333 160 9.33333C158.527 9.33333 157.333 10.5272 157.333 12ZM3 12.5H160V11.5H3V12.5Z" fill="#115779"/>
</svg>
