<svg width="24" height="24" viewBox="0 0 24 24" fill="none" xmlns="http://www.w3.org/2000/svg">
<path d="M22.0462 14.655L18.2962 13.2075L16.5 9C16.3707 8.69733 16.164 8.43402 15.9007 8.23654C15.6374 8.03906 15.3268 7.91437 15 7.875V7.125H15.375C15.4745 7.125 15.5698 7.08549 15.6402 7.01517C15.7105 6.94484 15.75 6.84946 15.75 6.75C15.75 6.65054 15.7105 6.55516 15.6402 6.48483C15.5698 6.41451 15.4745 6.375 15.375 6.375H15V4.875C15 4.77554 14.9605 4.68016 14.8902 4.60984C14.8198 4.53951 14.7245 4.5 14.625 4.5H14.25V3C14.25 2.90054 14.2105 2.80516 14.1402 2.73484C14.0698 2.66451 13.9745 2.625 13.875 2.625H9.375V1.875C9.375 1.77554 9.33549 1.68016 9.26517 1.60984C9.19484 1.53951 9.09946 1.5 9 1.5H7.125C7.02554 1.5 6.93016 1.53951 6.85983 1.60984C6.78951 1.68016 6.75 1.77554 6.75 1.875V6.375H6.375C6.27554 6.375 6.18016 6.41451 6.10983 6.48483C6.03951 6.55516 6 6.65054 6 6.75C6 6.84946 6.03951 6.94484 6.10983 7.01517C6.18016 7.08549 6.27554 7.125 6.375 7.125H6.75V7.89375C6.42323 7.93312 6.11258 8.05781 5.84928 8.25529C5.58597 8.45277 5.37929 8.71608 5.25 9.01875L3.5025 13.125H2.625C2.12772 13.125 1.65081 13.3225 1.29917 13.6742C0.947544 14.0258 0.75 14.5027 0.75 15V19.125C0.75 19.4234 0.868526 19.7095 1.0795 19.9205C1.29048 20.1315 1.57663 20.25 1.875 20.25H2.655C2.74962 20.8704 3.0634 21.4365 3.53947 21.8454C4.01554 22.2544 4.62238 22.4793 5.25 22.4793C5.87762 22.4793 6.48446 22.2544 6.96053 21.8454C7.4366 21.4365 7.75038 20.8704 7.845 20.25H15.03C15.1246 20.8704 15.4384 21.4365 15.9145 21.8454C16.3905 22.2544 16.9974 22.4793 17.625 22.4793C18.2526 22.4793 18.8595 22.2544 19.3355 21.8454C19.8116 21.4365 20.1254 20.8704 20.22 20.25H22.125C22.4234 20.25 22.7095 20.1315 22.9205 19.9205C23.1315 19.7095 23.25 19.4234 23.25 19.125V16.4062C23.2501 16.0268 23.1351 15.6563 22.9202 15.3436C22.7053 15.0309 22.4005 14.7908 22.0462 14.655ZM22.4625 16.125H21.75C21.5511 16.125 21.3603 16.046 21.2197 15.9053C21.079 15.7647 21 15.5739 21 15.375V15.0563L21.78 15.3563C21.9467 15.4209 22.0955 15.5244 22.2142 15.6581C22.3329 15.7918 22.418 15.9519 22.4625 16.125ZM9.375 6.375V5.25H14.25V6.375H9.375ZM13.5 3.375V4.5H9.375V3.375H13.5ZM7.5 2.25H8.625V6.375H7.5V2.25ZM14.25 7.125V7.875H7.5V7.125H14.25ZM2.25 15.375V16.125H1.5V15.375H2.25ZM5.25 21.75C4.87916 21.75 4.51665 21.64 4.20831 21.434C3.89996 21.228 3.65964 20.9351 3.51773 20.5925C3.37581 20.2499 3.33868 19.8729 3.41103 19.5092C3.48337 19.1455 3.66195 18.8114 3.92417 18.5492C4.1864 18.287 4.52049 18.1084 4.88421 18.036C5.24792 17.9637 5.62492 18.0008 5.96753 18.1427C6.31014 18.2846 6.60298 18.525 6.80901 18.8333C7.01503 19.1416 7.125 19.5042 7.125 19.875C7.125 20.3723 6.92746 20.8492 6.57583 21.2008C6.22419 21.5525 5.74728 21.75 5.25 21.75ZM17.625 21.75C17.2542 21.75 16.8916 21.64 16.5833 21.434C16.275 21.228 16.0346 20.9351 15.8927 20.5925C15.7508 20.2499 15.7137 19.8729 15.786 19.5092C15.8584 19.1455 16.037 18.8114 16.2992 18.5492C16.5614 18.287 16.8955 18.1084 17.2592 18.036C17.6229 17.9637 17.9999 18.0008 18.3425 18.1427C18.6851 18.2846 18.978 18.525 19.184 18.8333C19.39 19.1416 19.5 19.5042 19.5 19.875C19.5 20.3723 19.3025 20.8492 18.9508 21.2008C18.5992 21.5525 18.1223 21.75 17.625 21.75ZM22.125 19.5H20.22C20.1254 18.8796 19.8116 18.3135 19.3355 17.9046C18.8595 17.4956 18.2526 17.2707 17.625 17.2707C16.9974 17.2707 16.3905 17.4956 15.9145 17.9046C15.4384 18.3135 15.1246 18.8796 15.03 19.5H7.845C7.75038 18.8796 7.4366 18.3135 6.96053 17.9046C6.48446 17.4956 5.87762 17.2707 5.25 17.2707C4.62238 17.2707 4.01554 17.4956 3.53947 17.9046C3.0634 18.3135 2.74962 18.8796 2.655 19.5H1.875C1.77554 19.5 1.68016 19.4605 1.60984 19.3902C1.53951 19.3198 1.5 19.2245 1.5 19.125V16.875H2.625C2.72446 16.875 2.81984 16.8355 2.89016 16.7652C2.96049 16.6948 3 16.5995 3 16.5V15C3 14.9005 2.96049 14.8052 2.89016 14.7348C2.81984 14.6645 2.72446 14.625 2.625 14.625H1.5675C1.64487 14.4062 1.78803 14.2166 1.97735 14.0824C2.16667 13.9481 2.3929 13.8757 2.625 13.875H3.75C3.82361 13.8749 3.89557 13.8532 3.95692 13.8125C4.01827 13.7719 4.06629 13.714 4.095 13.6462L5.97 9.3075C6.05568 9.10719 6.19767 8.93607 6.37874 8.81491C6.5598 8.69376 6.77215 8.62778 6.99 8.625H14.76C14.9804 8.62487 15.196 8.68948 15.38 8.81081C15.564 8.93215 15.7083 9.10486 15.795 9.3075L17.67 13.6462C17.6897 13.6923 17.7184 13.734 17.7545 13.7688C17.7906 13.8035 17.8332 13.8307 17.88 13.8488L20.25 14.7675V15.375C20.25 15.7728 20.408 16.1544 20.6893 16.4357C20.9706 16.717 21.3522 16.875 21.75 16.875H22.5V19.125C22.5 19.2245 22.4605 19.3198 22.3902 19.3902C22.3198 19.4605 22.2245 19.5 22.125 19.5ZM17.625 18.75C17.4025 18.75 17.185 18.816 17 18.9396C16.815 19.0632 16.6708 19.2389 16.5856 19.4445C16.5005 19.65 16.4782 19.8762 16.5216 20.0945C16.565 20.3127 16.6722 20.5132 16.8295 20.6705C16.9868 20.8278 17.1873 20.935 17.4055 20.9784C17.6238 21.0218 17.85 20.9995 18.0555 20.9144C18.2611 20.8292 18.4368 20.685 18.5604 20.5C18.684 20.315 18.75 20.0975 18.75 19.875C18.75 19.5766 18.6315 19.2905 18.4205 19.0795C18.2095 18.8685 17.9234 18.75 17.625 18.75ZM17.625 20.25C17.5508 20.25 17.4783 20.228 17.4167 20.1868C17.355 20.1456 17.3069 20.087 17.2785 20.0185C17.2502 19.95 17.2427 19.8746 17.2572 19.8018C17.2717 19.7291 17.3074 19.6623 17.3598 19.6098C17.4123 19.5574 17.4791 19.5217 17.5518 19.5072C17.6246 19.4927 17.7 19.5002 17.7685 19.5285C17.837 19.5569 17.8956 19.605 17.9368 19.6667C17.978 19.7283 18 19.8008 18 19.875C18 19.9745 17.9605 20.0698 17.8902 20.1402C17.8198 20.2105 17.7245 20.25 17.625 20.25ZM5.25 18.75C5.0275 18.75 4.80999 18.816 4.62498 18.9396C4.43998 19.0632 4.29578 19.2389 4.21064 19.4445C4.12549 19.65 4.10321 19.8762 4.14662 20.0945C4.19002 20.3127 4.29717 20.5132 4.4545 20.6705C4.61184 20.8278 4.81229 20.935 5.03052 20.9784C5.24875 21.0218 5.47495 20.9995 5.68052 20.9144C5.88609 20.8292 6.06179 20.685 6.1854 20.5C6.30902 20.315 6.375 20.0975 6.375 19.875C6.375 19.5766 6.25647 19.2905 6.0455 19.0795C5.83452 18.8685 5.54837 18.75 5.25 18.75ZM5.25 20.25C5.17583 20.25 5.10333 20.228 5.04166 20.1868C4.97999 20.1456 4.93193 20.087 4.90355 20.0185C4.87516 19.95 4.86774 19.8746 4.88221 19.8018C4.89668 19.7291 4.93239 19.6623 4.98484 19.6098C5.03728 19.5574 5.1041 19.5217 5.17684 19.5072C5.24958 19.4927 5.32498 19.5002 5.39351 19.5285C5.46203 19.5569 5.5206 19.605 5.5618 19.6667C5.60301 19.7283 5.625 19.8008 5.625 19.875C5.625 19.9745 5.58549 20.0698 5.51516 20.1402C5.44484 20.2105 5.34946 20.25 5.25 20.25ZM12.75 15.75C12.75 15.8495 12.7105 15.9448 12.6402 16.0152C12.5698 16.0855 12.4745 16.125 12.375 16.125H11.625C11.5255 16.125 11.4302 16.0855 11.3598 16.0152C11.2895 15.9448 11.25 15.8495 11.25 15.75C11.25 15.6505 11.2895 15.5552 11.3598 15.4848C11.4302 15.4145 11.5255 15.375 11.625 15.375H12.375C12.4745 15.375 12.5698 15.4145 12.6402 15.4848C12.7105 15.5552 12.75 15.6505 12.75 15.75ZM15.105 9.60375C15.0763 9.53597 15.0283 9.47814 14.9669 9.43746C14.9056 9.39678 14.8336 9.37506 14.76 9.375H6.99C6.91639 9.37506 6.84443 9.39678 6.78308 9.43746C6.72173 9.47814 6.67371 9.53597 6.645 9.60375L5.03625 13.3538C5.0124 13.4107 5.00301 13.4727 5.0089 13.5342C5.01478 13.5957 5.03577 13.6548 5.07 13.7062C5.10397 13.7578 5.15016 13.8002 5.20446 13.8297C5.25876 13.8591 5.31949 13.8747 5.38125 13.875H16.3688C16.4305 13.8747 16.4912 13.8591 16.5455 13.8297C16.5998 13.8002 16.646 13.7578 16.68 13.7062C16.7142 13.6548 16.7352 13.5957 16.7411 13.5342C16.747 13.4727 16.7376 13.4107 16.7137 13.3538L15.105 9.60375ZM7.2375 10.125H10.5V13.125H5.95125L7.2375 10.125ZM11.25 13.125V10.125H14.5125L15.7987 13.125H11.25Z" fill="black"/>
</svg>
