<svg width="24" height="24" viewBox="0 0 24 24" fill="none" xmlns="http://www.w3.org/2000/svg">
<g clip-path="url(#clip0_3_997)">
<path d="M23.0882 3.94522C22.9292 3.07283 22.5306 2.26165 21.9355 1.59888L21.9321 1.59498C21.6273 1.25081 21.1222 0.777628 20.447 0.477783L20.4316 0.470969C19.78 0.158426 19.0807 0 18.3533 0C17.2775 0 16.26 0.347256 15.4106 1.00432L15.4049 1.00874C14.6748 1.5789 14.1929 2.39363 14.1333 2.49743C14.1306 2.50196 14.128 2.50655 14.1255 2.51117C13.7424 3.21349 13.5399 4.00958 13.5399 4.81342C13.5399 4.98035 13.5487 5.14932 13.566 5.31555C13.574 5.39202 13.6007 5.46533 13.6439 5.52895C13.6871 5.59257 13.7453 5.64452 13.8134 5.68016C13.9011 5.72597 13.9925 5.76416 14.0867 5.79432C14.4616 6.9421 15.2806 7.86004 16.3218 8.37626C15.8755 8.60423 15.4746 8.90565 15.1279 9.27428C15.0444 9.36451 15 9.48407 15.0043 9.6069C15.0086 9.72974 15.0612 9.84592 15.1507 9.93012C15.2403 10.0143 15.3595 10.0597 15.4823 10.0565C15.6052 10.0532 15.7218 10.0015 15.8068 9.91271C15.9717 9.73703 16.1546 9.57914 16.3524 9.44162C16.6345 10.2408 17.3615 10.8263 18.1884 10.8263H18.258C19.0863 10.8263 19.8126 10.1988 20.078 9.34977C21.062 9.96658 21.6915 11.0655 21.6915 12.2411V17.0812L17.4533 19.8312C17.402 19.8645 17.3577 19.9076 17.323 19.958C17.2884 20.0084 17.264 20.0652 17.2512 20.125C17.2385 20.1849 17.2376 20.2467 17.2488 20.3068C17.2599 20.367 17.2828 20.4244 17.3161 20.4757C17.3494 20.5271 17.3925 20.5714 17.4429 20.6061C17.4933 20.6408 17.55 20.6652 17.6099 20.678C17.6698 20.6907 17.7315 20.6915 17.7917 20.6804C17.8519 20.6692 17.9093 20.6463 17.9606 20.6129L22.411 17.7252C22.4762 17.6829 22.5298 17.625 22.5669 17.5567C22.6039 17.4884 22.6234 17.412 22.6234 17.3343V12.2411C22.6234 10.591 21.7022 9.1119 20.2463 8.37387C21.625 7.68577 22.6 6.29698 22.6955 4.67946C22.8287 4.55871 22.9425 4.4181 23.0328 4.2626C23.0885 4.1668 23.1082 4.05424 23.0882 3.94522ZM18.258 9.89442H18.1885C17.6309 9.89442 17.1597 9.3539 17.1597 8.71408C17.1597 8.7061 17.1595 8.69818 17.1591 8.69026C17.5269 8.78687 17.9056 8.83569 18.2858 8.83552C18.617 8.83552 18.9402 8.7986 19.2511 8.72864C19.2146 9.35862 18.7662 9.89442 18.258 9.89442ZM18.2858 7.9036C16.8807 7.9036 15.6349 7.06663 15.0892 5.81203C15.7362 5.62902 16.2311 5.08012 16.3354 4.40407C16.6134 4.43978 16.8952 4.45778 17.1778 4.45778C18.1256 4.45778 19.0386 4.2591 19.8563 3.87865C20.0671 4.60234 20.7364 5.13272 21.5273 5.13272C21.5849 5.13272 21.6423 5.12981 21.699 5.1241C21.3705 6.7072 19.9606 7.9036 18.2858 7.9036ZM21.5273 4.20086C21.0818 4.20086 20.7193 3.83852 20.7193 3.39306V3.13375C20.7193 3.0505 20.697 2.96876 20.6547 2.89705C20.6124 2.82533 20.5517 2.76626 20.4788 2.72598C20.4059 2.6857 20.3236 2.66567 20.2404 2.66799C20.1572 2.6703 20.0761 2.69487 20.0056 2.73914C19.1857 3.25385 18.2078 3.52592 17.1778 3.52592C16.778 3.52624 16.3793 3.48393 15.9885 3.3997C15.9205 3.38496 15.8501 3.38563 15.7824 3.40166C15.7147 3.4177 15.6514 3.44869 15.5973 3.49236C15.5431 3.53603 15.4994 3.59128 15.4694 3.65404C15.4394 3.7168 15.4238 3.78549 15.4238 3.85506V4.13772C15.4238 4.58312 15.0614 4.94552 14.6159 4.94552C14.5854 4.94552 14.5552 4.94383 14.5254 4.94051C14.5185 4.93946 14.5116 4.93859 14.5046 4.93789C14.4942 4.93647 14.4839 4.93483 14.4736 4.933C14.4724 4.89317 14.4717 4.85332 14.4717 4.81348C14.4717 4.16696 14.6339 3.52696 14.9409 2.96228L14.9444 2.9561C14.9483 2.94894 15.3692 2.21931 15.9777 1.74385L15.9808 1.74147C16.6654 1.21184 17.4858 0.931919 18.3533 0.931919C18.9401 0.931919 19.5038 1.05953 20.0286 1.31121C20.0377 1.31558 20.0512 1.32169 20.0688 1.32944C20.587 1.55962 20.9848 1.93216 21.2289 2.20655L21.2371 2.21593C21.6751 2.7011 21.9832 3.28929 22.1326 3.92565C21.9801 4.09829 21.7597 4.20086 21.5273 4.20086ZM14.3172 16.1227C15.3731 15.5014 16.0833 14.3528 16.0833 13.0417C16.0833 12.4517 15.9394 11.8945 15.6851 11.4035C15.6761 11.3832 15.6656 11.3635 15.6539 11.3447C15.0489 10.229 13.8671 9.46969 12.5113 9.46969C11.1552 9.46969 9.97317 10.2293 9.36841 11.3454C9.35697 11.3638 9.34682 11.383 9.33801 11.4028C9.0754 11.9091 8.93866 12.4713 8.93938 13.0417C8.93938 14.3526 9.64927 15.5009 10.7048 16.1223C9.39824 16.7977 8.57058 18.1385 8.57058 19.6224V21.3218C8.57057 21.4002 8.59034 21.4773 8.62805 21.546C8.66576 21.6148 8.7202 21.6728 8.78631 21.7149L12.2611 23.9271C12.3357 23.9746 12.4222 23.9999 12.5106 24C12.599 24.0001 12.6856 23.9751 12.7603 23.9279L16.2433 21.7273C16.3101 21.6851 16.3651 21.6266 16.4031 21.5573C16.441 21.4881 16.4608 21.4102 16.4604 21.3312L16.4522 19.6202C16.4451 18.1328 15.6183 16.7964 14.3172 16.1227ZM12.5113 10.4016C13.3224 10.4016 14.049 10.7691 14.5338 11.3465C13.9059 11.5264 13.2173 11.6202 12.5114 11.6202C11.8053 11.6202 11.1167 11.5264 10.4889 11.3465C10.9736 10.7691 11.7003 10.4016 12.5113 10.4016ZM9.87124 13.0417C9.87124 12.739 9.92244 12.4479 10.0167 12.1769C10.7856 12.4232 11.6388 12.5521 12.5114 12.5521C13.3838 12.5521 14.2369 12.4232 15.0059 12.1769C15.1025 12.455 15.1517 12.7473 15.1514 13.0417C15.1514 14.4974 13.9671 15.6817 12.5113 15.6817C11.0556 15.6817 9.87124 14.4974 9.87124 13.0417ZM13.3384 16.517C13.2801 16.9578 12.8935 17.2558 12.5437 17.2558H12.487C12.1165 17.2558 11.705 16.9425 11.6517 16.5091C11.9329 16.5787 12.2216 16.6138 12.5113 16.6137C12.7958 16.6137 13.0729 16.5802 13.3384 16.517ZM12.5123 22.9823L9.50244 21.0661V19.6224C9.50244 18.5978 10.0201 17.6623 10.8581 17.111C11.1493 17.7754 11.8356 18.1877 12.487 18.1877H12.5437C13.2469 18.1877 13.8685 17.7301 14.137 17.0943C14.9871 17.6424 15.5152 18.5853 15.5202 19.6246L15.5272 21.0775L12.5123 22.9823ZM9.16537 10.4749C9.2306 10.3699 9.25146 10.2433 9.22336 10.123C9.19527 10.0026 9.12053 9.89838 9.01557 9.83314C8.87364 9.74496 8.72673 9.66505 8.57559 9.59381C9.15139 9.29944 9.66075 8.87781 10.0651 8.3504C10.2359 8.40962 10.4155 8.43978 10.5963 8.43963C11.4917 8.43963 12.2201 7.71116 12.2201 6.81576V5.6578C12.2201 4.18583 11.6578 2.79174 10.6369 1.73244C9.61881 0.676224 8.25203 0.0626715 6.78834 0.00477608H6.78793C6.66731 -0.000118724 6.54657 -0.00118709 6.42588 0.00157261C4.96871 0.0367526 3.59419 0.626541 2.5555 1.66225C1.49061 2.72406 0.904144 4.14308 0.904144 5.65785V6.81582C0.904144 7.71122 1.63261 8.43969 2.52807 8.43969C2.71399 8.43969 2.89268 8.4083 3.05915 8.35052C3.50455 8.93145 4.07744 9.38407 4.72623 9.67961C3.28846 10.4357 2.39918 11.8994 2.39918 13.5203V17.3344C2.39917 17.4121 2.4186 17.4885 2.45569 17.5568C2.49278 17.6251 2.54635 17.683 2.61154 17.7253L6.83866 20.4681C6.88998 20.5014 6.94736 20.5243 7.00754 20.5355C7.06771 20.5466 7.12949 20.5458 7.18935 20.5331C7.24921 20.5203 7.30597 20.4959 7.35638 20.4612C7.40679 20.4265 7.44987 20.3822 7.48314 20.3309C7.5504 20.2272 7.57373 20.1011 7.54799 19.9802C7.52226 19.8593 7.44957 19.7537 7.34592 19.6864L3.33109 17.0813V13.5203C3.33109 12.4422 3.83311 11.4523 4.67411 10.8135C4.96253 11.6505 5.70318 12.2794 6.5221 12.2794H6.59165C7.48105 12.2794 8.19094 11.4743 8.44092 10.5749C8.46871 10.5911 8.49626 10.6077 8.52357 10.6246C8.57554 10.6569 8.63337 10.6787 8.69376 10.6887C8.75414 10.6986 8.81589 10.6966 8.87549 10.6827C8.93509 10.6688 8.99137 10.6433 9.0411 10.6076C9.09084 10.572 9.13307 10.5269 9.16537 10.4749ZM3.68051 3.96432C3.37878 4.47769 3.2198 5.06239 3.22002 5.65785V6.81582C3.22002 7.03657 3.11611 7.2335 2.9546 7.3603C2.94087 7.36923 2.92763 7.3789 2.91493 7.38924C2.80077 7.46666 2.66596 7.50796 2.52801 7.50777C2.14645 7.50777 1.83606 7.19738 1.83606 6.81582V5.6578C1.83606 3.07096 3.86205 0.995697 6.44819 0.933142C6.5494 0.93086 6.65066 0.931793 6.75182 0.935938C9.29555 1.03676 11.2882 3.1108 11.2882 5.6578V6.81576C11.2882 7.19733 10.9777 7.50771 10.5962 7.50771C10.4529 7.50771 10.3197 7.46397 10.2091 7.38913C10.1965 7.37884 10.1833 7.36921 10.1696 7.3603C10.0869 7.29564 10.0201 7.21301 9.97406 7.11866C9.92807 7.02431 9.90416 6.92073 9.90415 6.81576V5.6578C9.90415 4.01308 8.67891 2.59178 7.05411 2.35176C6.99093 2.34246 6.92651 2.34625 6.86486 2.36287C6.8032 2.3795 6.74561 2.40862 6.69567 2.44842C6.64573 2.48822 6.6045 2.53785 6.57453 2.59424C6.54456 2.65064 6.5265 2.71258 6.52146 2.77624C6.49603 3.10098 6.43704 3.4222 6.34544 3.73478H4.08199C4.00088 3.73478 3.92117 3.75595 3.85075 3.79621C3.78033 3.83647 3.72165 3.89442 3.68051 3.96432ZM6.59165 11.3475H6.5221C5.99533 11.3475 5.47829 10.708 5.47829 10.0564C5.47829 10.0162 5.47311 9.97666 5.46321 9.93874C5.82241 10.0299 6.19159 10.0759 6.56217 10.0756C6.91863 10.0756 7.26799 10.0336 7.60447 9.95278C7.57278 10.6303 7.05999 11.3475 6.59165 11.3475ZM6.56217 9.1437C5.47614 9.1437 4.4738 8.64926 3.81528 7.80465C4.03386 7.52137 4.15225 7.17356 4.15188 6.81576V5.6578C4.15179 5.31609 4.22429 4.97827 4.36459 4.6667H6.68175C6.77699 4.66671 6.86994 4.63753 6.94808 4.5831C7.02623 4.52866 7.08582 4.45159 7.11882 4.36225C7.2353 4.04702 7.32328 3.72197 7.38168 3.39102C8.31459 3.73059 8.97229 4.63414 8.97229 5.6578V6.81576C8.97192 7.17357 9.09033 7.52139 9.30895 7.80465C8.65049 8.64931 7.64821 9.1437 6.56217 9.1437Z" fill="#041614"/>
</g>
<defs>
<clipPath id="clip0_3_997">
<rect width="24" height="24" fill="white"/>
</clipPath>
</defs>
</svg>
