<svg width="102" height="103" viewBox="0 0 102 103" fill="none" xmlns="http://www.w3.org/2000/svg">
<path d="M101.91 32.6438V30.9173C101.91 28.3717 100.286 26.198 98.0183 25.3754V23.9586C98.0183 10.944 87.7097 0.356074 75.0387 0.356074C62.3677 0.356074 52.059 10.944 52.059 23.9586V25.374C49.7918 26.1954 48.1674 28.3701 48.1674 30.9173V32.6438C48.1674 35.1934 49.7918 37.3703 52.059 38.1927V49.8096H7.72818C5.43663 49.8096 3.57237 51.6738 3.57237 53.9652V86.2144C3.57237 88.506 5.43663 90.37 7.72818 90.37H22.7708L22.1271 94.0245H9.44277C9.25073 94.0245 9.06056 94.0623 8.88313 94.1358C8.70571 94.2093 8.54449 94.317 8.4087 94.4528C8.2729 94.5886 8.16519 94.7498 8.09171 94.9272C8.01823 95.1046 7.98042 95.2948 7.98045 95.4868V101.336C7.9805 101.724 8.13459 102.096 8.40881 102.37C8.68304 102.644 9.05496 102.799 9.44277 102.799H89.9292C96.4635 102.799 101.779 97.4827 101.779 90.9484V69.3188C101.779 65.9095 100.33 62.834 98.0181 60.6702V38.1913C100.286 37.3679 101.91 35.192 101.91 32.6438ZM54.9837 23.9586C54.9837 12.5567 63.9803 3.28071 75.0387 3.28071C86.0969 3.28071 95.0935 12.5567 95.0935 23.9586V25.0234H93.0407V24.4983C93.0408 24.3063 93.003 24.1161 92.9295 23.9387C92.856 23.7612 92.7483 23.6 92.6125 23.4642C92.4767 23.3284 92.3155 23.2207 92.1381 23.1472C91.9606 23.0738 91.7705 23.036 91.5784 23.036H86.871V19.8472C86.871 19.569 86.7917 19.2965 86.6422 19.0618C86.4928 18.8271 86.2794 18.64 86.0273 18.5223C85.7752 18.4043 85.4947 18.3608 85.2187 18.397C84.9427 18.4331 84.6828 18.5474 84.4696 18.7263L79.324 23.036H58.4987C58.3067 23.036 58.1165 23.0738 57.9391 23.1472C57.7617 23.2207 57.6004 23.3284 57.4647 23.4642C57.3289 23.6 57.2211 23.7612 57.1477 23.9387C57.0742 24.1161 57.0364 24.3063 57.0364 24.4983V25.0234H54.9837V23.9586ZM55.1766 49.8096H54.9839V46.8755C55.8292 47.3492 56.7823 47.5977 57.7514 47.5969H59.5891C61.327 50.4925 63.8394 52.845 66.8429 54.389V57.4686H59.3322V53.9654C59.3322 51.6736 57.4679 49.8096 55.1766 49.8096ZM54.9837 41.8985V38.5435H57.0408C57.0616 40.6971 57.4611 42.7609 58.1779 44.6718H57.7512C56.2253 44.672 54.9837 43.4278 54.9837 41.8985ZM85.4087 25.9606H90.1161V38.3687C90.1161 46.6825 83.3523 53.4463 75.0387 53.4463C70.1993 53.4463 65.8882 51.152 63.1275 47.5967H66.6202C66.8143 47.5999 67.0071 47.5644 67.1873 47.4924C67.3676 47.4203 67.5317 47.3132 67.67 47.177C67.8084 47.0409 67.9183 46.8786 67.9934 46.6996C68.0684 46.5206 68.107 46.3284 68.107 46.1343C68.107 45.9402 68.0684 45.7481 67.9934 45.5691C67.9183 45.39 67.8084 45.2278 67.67 45.0916C67.5317 44.9555 67.3676 44.8483 67.1873 44.7763C67.0071 44.7043 66.8143 44.6688 66.6202 44.672H61.3469C60.4325 42.6966 59.9595 40.5456 59.9608 38.3687V25.9606H79.8555C80.1989 25.9607 80.5313 25.8399 80.7944 25.6192L83.946 22.9797V24.4983C83.946 24.6904 83.9838 24.8805 84.0574 25.058C84.1309 25.2354 84.2386 25.3966 84.3745 25.5324C84.5103 25.6682 84.6715 25.7759 84.849 25.8494C85.0264 25.9228 85.2166 25.9607 85.4087 25.9606ZM68.3053 60.3932C68.4973 60.3932 68.6875 60.3554 68.8649 60.2819C69.0423 60.2085 69.2035 60.1008 69.3393 59.965C69.4751 59.8292 69.5828 59.6679 69.6563 59.4905C69.7298 59.3131 69.7676 59.1229 69.7676 58.9309V55.582C71.4355 56.0938 73.2052 56.371 75.0387 56.371C76.8722 56.371 78.6417 56.0938 80.3096 55.582V58.9309C80.3096 59.1229 80.3474 59.3131 80.4208 59.4905C80.4943 59.6679 80.602 59.8292 80.7378 59.965C80.8736 60.1008 81.0348 60.2085 81.2123 60.2819C81.3897 60.3554 81.5799 60.3932 81.7719 60.3932H84.6637L81.9375 71.7717H68.1395L65.4132 60.3932H68.3053ZM83.2344 57.4686V54.389C89.0012 51.4268 92.9699 45.4453 93.0363 38.5437H95.0935V58.6551C93.4845 57.8725 91.7184 57.4668 89.9292 57.4688H83.2344V57.4686ZM51.092 32.6438V30.9173C51.092 29.28 52.4241 27.948 54.0613 27.948H57.0364V35.6189H54.0613C52.4241 35.6189 51.092 34.2843 51.092 32.6438ZM7.72818 87.4456C7.40179 87.4453 7.08885 87.3155 6.85804 87.0847C6.62722 86.8539 6.49738 86.541 6.49701 86.2146V53.9652C6.49738 53.6388 6.62722 53.3258 6.85804 53.0951C7.08885 52.8643 7.40179 52.7345 7.72818 52.7342H55.1766C55.5029 52.7346 55.8158 52.8644 56.0466 53.0951C56.2774 53.3259 56.4072 53.6388 56.4076 53.9652V86.2144C56.4072 86.5408 56.2774 86.8537 56.0466 87.0844C55.8158 87.3152 55.5029 87.445 55.1766 87.4454H39.62L38.3385 80.1764C38.2788 79.8379 38.1017 79.5311 37.8383 79.3101C37.575 79.0891 37.2421 78.968 36.8983 78.968H26.0065C25.6626 78.968 25.3298 79.0892 25.0664 79.3102C24.803 79.5313 24.626 79.838 24.5663 80.1767L23.286 87.4454H7.72818V87.4456ZM46.9808 90.3702V94.0247H40.7799L40.1358 90.3702H46.9808ZM37.81 94.0247H25.097L27.2338 81.8926H35.6716L37.81 94.0247ZM52.0057 99.8742H10.9051V96.9496H52.0057V99.8742ZM57.6922 99.8742H54.9305V95.4872C54.9305 95.0994 54.7764 94.7275 54.5022 94.4533C54.228 94.1791 53.856 94.025 53.4682 94.0249H49.9057V90.3704H55.1768C57.4681 90.3704 59.3324 88.5062 59.3324 86.2148V60.3932H62.4061L69.3582 89.4092H63.2212C59.5295 89.4092 56.5262 92.4125 56.5262 96.1042C56.5249 97.4499 56.9314 98.7643 57.6922 99.8742ZM71.15 99.8742H63.2212C61.1423 99.8742 59.4511 98.1829 59.4511 96.1042C59.4511 94.0253 61.1423 92.3341 63.2212 92.3341H71.15V99.8742ZM72.3655 89.4092L68.8406 74.6965H81.2372L77.7121 89.4092H72.6125H72.3655ZM98.8548 69.3188V90.9486C98.8548 95.8701 94.8507 99.8742 89.9292 99.8742H74.0745V92.3339H89.8518C90.0438 92.3339 90.234 92.2961 90.4114 92.2226C90.5888 92.1491 90.75 92.0414 90.8858 91.9056C91.0216 91.7698 91.1293 91.6086 91.2028 91.4312C91.2763 91.2538 91.3141 91.0636 91.3141 90.8716V74.9723C91.3141 74.1646 90.6595 73.51 89.8518 73.51C89.0441 73.51 88.3895 74.1646 88.3895 74.9723V89.4092H80.7192L87.6713 60.3932H89.9292C94.8509 60.3932 98.8548 64.3973 98.8548 69.3188ZM96.01 35.6189H93.0407V27.948H96.01C97.6506 27.948 98.9852 29.28 98.9852 30.9173V32.6438C98.9854 34.2843 97.6506 35.6189 96.01 35.6189ZM68.1421 32.7743V34.5422C68.1421 35.3499 67.4875 36.0045 66.6798 36.0045C65.8721 36.0045 65.2175 35.3499 65.2175 34.5422V32.7743C65.2175 31.9666 65.8721 31.312 66.6798 31.312C67.4875 31.312 68.1421 31.9666 68.1421 32.7743ZM83.3976 31.312C83.5896 31.312 83.7798 31.3498 83.9572 31.4233C84.1346 31.4967 84.2959 31.6045 84.4316 31.7402C84.5674 31.876 84.6752 32.0373 84.7486 32.2147C84.8221 32.3921 84.8599 32.5823 84.8599 32.7743V34.5422C84.8599 35.3499 84.2053 36.0045 83.3976 36.0045C82.5899 36.0045 81.9352 35.3499 81.9352 34.5422V32.7743C81.9352 32.5823 81.973 32.3921 82.0465 32.2147C82.12 32.0373 82.2277 31.876 82.3635 31.7402C82.4993 31.6045 82.6605 31.4967 82.8379 31.4233C83.0154 31.3498 83.2055 31.312 83.3976 31.312ZM81.7015 43.9569C80.8018 46.4747 78.4009 48.1664 75.7269 48.1664C73.0451 48.1664 70.6433 46.4733 69.7505 43.953C69.621 43.5874 69.6421 43.1854 69.8091 42.8353C69.9761 42.4853 70.2753 42.2159 70.6409 42.0864C71.4019 41.816 72.238 42.2151 72.5077 42.9763C72.9875 44.3312 74.2813 45.2415 75.7269 45.2415C77.1683 45.2415 78.4624 44.3298 78.9473 42.9725C79.0778 42.6073 79.3481 42.3089 79.6986 42.1429C80.0492 41.9769 80.4513 41.957 80.8165 42.0876C81.1818 42.2181 81.4802 42.4884 81.6462 42.8389C81.8121 43.1895 81.832 43.5916 81.7015 43.9569ZM22.6543 45.1347C27.2728 45.1347 31.688 43.7597 35.4658 41.1511L43.6939 42.8387C43.9453 42.8904 44.2059 42.8749 44.4495 42.7939C44.6931 42.7129 44.911 42.5692 45.0814 42.3772C45.2519 42.1852 45.3687 41.9518 45.4203 41.7003C45.4719 41.4489 45.4564 41.1883 45.3753 40.9447L42.7084 32.927C44.3603 29.7225 45.223 26.1697 45.2246 22.5644C45.2246 10.1224 35.0996 0 22.6543 0C10.2125 0 0.0900879 10.1224 0.0900879 22.5644C0.0900879 35.0097 10.2125 45.1347 22.6543 45.1347ZM22.6543 2.92464C33.487 2.92464 42.3 11.7352 42.3 22.5644C42.3 25.8896 41.4504 29.1812 39.8431 32.0837C39.7451 32.2606 39.6849 32.4559 39.6663 32.6573C39.6477 32.8586 39.671 33.0616 39.7348 33.2535L41.8009 39.4647L35.4304 38.1581C35.2302 38.1169 35.0237 38.1182 34.8241 38.1619C34.6245 38.2055 34.4363 38.2906 34.2716 38.4116C30.8837 40.8964 26.8665 42.2099 22.6545 42.2099C11.8252 42.2099 3.01493 33.3969 3.01493 22.5644C3.01472 11.7352 11.825 2.92464 22.6543 2.92464ZM15.2251 29.9998C18.552 33.3267 21.8549 35.4185 25.0418 36.2174C25.9938 36.456 26.9322 36.5745 27.8518 36.5745C30.8016 36.5745 33.5576 35.3556 35.9389 32.9719C36.4785 32.4323 36.7394 31.6928 36.6549 30.9455C36.5714 30.1949 36.1789 29.5507 35.5366 29.1224L29.7869 25.3804C28.7883 24.7387 27.5062 24.8755 26.6687 25.7132L24.8889 27.493C24.7178 27.6639 24.4749 27.6901 24.2714 27.5589C22.9889 26.7319 21.7599 25.7369 20.6211 24.6037C19.4969 23.4794 18.5027 22.2512 17.6663 20.9543C17.5347 20.7499 17.5605 20.5071 17.7319 20.3357C17.7324 20.3351 17.733 20.3345 17.7337 20.3341L19.503 18.5587C20.3495 17.7261 20.4899 16.4428 19.8397 15.4309L16.0937 9.67476C15.6743 9.04549 15.0297 8.6528 14.2789 8.56972C13.5187 8.48583 12.7991 8.73931 12.2535 9.28509C9.12613 12.4095 8.00379 16.1778 9.00764 20.1828C9.80649 23.3699 11.8983 26.6728 15.2251 29.9998ZM13.949 11.7408L17.1961 16.7301L15.6642 18.2674C14.5159 19.4155 14.3282 21.1713 15.2082 22.5379C16.1573 24.0099 17.2828 25.4006 18.5559 26.674C19.8424 27.9542 21.232 29.0788 22.6873 30.0171C24.0533 30.8964 25.8091 30.7085 26.9572 29.5604L28.4913 28.0263L33.4838 31.2756C31.1635 33.413 28.6299 34.1012 25.753 33.38C23.1243 32.7212 20.1988 30.837 17.2933 27.9315C14.3876 25.0256 12.5034 22.1003 11.8446 19.4716C11.1236 16.5953 11.812 14.0615 13.949 11.7408Z" fill="#115779"/>
</svg>
