<svg width="20" height="19" viewBox="0 0 20 19" fill="none" xmlns="http://www.w3.org/2000/svg">
<path d="M17.5414 1.63169H16.1484V1.1145C16.1484 0.94874 16.0826 0.789769 15.9654 0.672559C15.8482 0.555349 15.6892 0.489501 15.5234 0.489501C15.3577 0.489501 15.1987 0.555349 15.0815 0.672559C14.9643 0.789769 14.8984 0.94874 14.8984 1.1145V1.63169H10.625V1.1145C10.625 0.94874 10.5592 0.789769 10.4419 0.672559C10.3247 0.555349 10.1658 0.489501 10 0.489501C9.83424 0.489501 9.67527 0.555349 9.55806 0.672559C9.44085 0.789769 9.375 0.94874 9.375 1.1145V1.63169H5.10156V1.1145C5.10365 1.03114 5.08903 0.948196 5.05857 0.870568C5.0281 0.79294 4.98241 0.722193 4.92419 0.662494C4.86596 0.602795 4.79638 0.555352 4.71954 0.522958C4.6427 0.490565 4.56015 0.473877 4.47676 0.473877C4.39337 0.473877 4.31082 0.490565 4.23398 0.522958C4.15713 0.555352 4.08755 0.602795 4.02933 0.662494C3.9711 0.722193 3.92541 0.79294 3.89495 0.870568C3.86449 0.948196 3.84987 1.03114 3.85195 1.1145V1.63169H2.45898C1.91072 1.6322 1.38504 1.85018 0.99728 2.23779C0.609522 2.6254 0.391349 3.151 0.390625 3.69927V16.4422C0.391245 16.9905 0.609319 17.5161 0.997004 17.9038C1.38469 18.2915 1.91032 18.5096 2.45859 18.5102H17.541C18.0893 18.5096 18.6149 18.2915 19.0026 17.9038C19.3903 17.5161 19.6084 16.9905 19.609 16.4422V3.69927C19.6084 3.151 19.3903 2.62536 19.0026 2.23768C18.6149 1.84999 18.0893 1.63192 17.541 1.6313L17.5414 1.63169ZM2.45898 2.88169H3.85156V3.39848C3.85156 3.56425 3.91741 3.72322 4.03462 3.84043C4.15183 3.95764 4.3108 4.02349 4.47656 4.02349C4.64232 4.02349 4.80129 3.95764 4.9185 3.84043C5.03571 3.72322 5.10156 3.56425 5.10156 3.39848V2.88169H9.375V3.39848C9.37291 3.48185 9.38753 3.56479 9.418 3.64242C9.44846 3.72005 9.49415 3.79079 9.55237 3.85049C9.6106 3.91019 9.68018 3.95763 9.75702 3.99003C9.83387 4.02242 9.91641 4.03911 9.9998 4.03911C10.0832 4.03911 10.1657 4.02242 10.2426 3.99003C10.3194 3.95763 10.389 3.91019 10.4472 3.85049C10.5055 3.79079 10.5511 3.72005 10.5816 3.64242C10.6121 3.56479 10.6267 3.48185 10.6246 3.39848V2.88169H14.898V3.39848C14.898 3.56425 14.9639 3.72322 15.0811 3.84043C15.1983 3.95764 15.3573 4.02349 15.523 4.02349C15.6888 4.02349 15.8478 3.95764 15.965 3.84043C16.0822 3.72322 16.148 3.56425 16.148 3.39848V2.88169H17.541C17.9922 2.88169 18.3594 3.24888 18.3594 3.69966V5.80122H1.64062V3.69966C1.64062 3.24849 2.00781 2.88169 2.45898 2.88169ZM17.5414 17.2606H2.45898C2.24207 17.2604 2.0341 17.1742 1.88068 17.0208C1.72727 16.8675 1.64094 16.6595 1.64062 16.4426V7.05083H18.3594V16.4426C18.3594 16.8938 17.9926 17.2606 17.5414 17.2606Z" fill="#041614"/>
<path d="M6.05391 8.6239H4.22188C4.05612 8.6239 3.89714 8.68975 3.77993 8.80696C3.66272 8.92417 3.59688 9.08314 3.59688 9.2489C3.59688 9.41466 3.66272 9.57363 3.77993 9.69084C3.89714 9.80805 4.05612 9.8739 4.22188 9.8739H6.05391C6.21967 9.8739 6.37864 9.80805 6.49585 9.69084C6.61306 9.57363 6.67891 9.41466 6.67891 9.2489C6.67891 9.08314 6.61306 8.92417 6.49585 8.80696C6.37864 8.68975 6.21967 8.6239 6.05391 8.6239ZM6.05391 11.5946H4.22188C4.05612 11.5946 3.89714 11.6605 3.77993 11.7777C3.66272 11.8949 3.59688 12.0538 3.59688 12.2196C3.59688 12.3854 3.66272 12.5443 3.77993 12.6615C3.89714 12.7788 4.05612 12.8446 4.22188 12.8446H6.05391C6.21967 12.8446 6.37864 12.7788 6.49585 12.6615C6.61306 12.5443 6.67891 12.3854 6.67891 12.2196C6.67891 12.0538 6.61306 11.8949 6.49585 11.7777C6.37864 11.6605 6.21967 11.5946 6.05391 11.5946ZM6.05391 14.5657H4.22188C4.05612 14.5657 3.89714 14.6315 3.77993 14.7488C3.66272 14.866 3.59688 15.0249 3.59688 15.1907C3.59688 15.3565 3.66272 15.5154 3.77993 15.6326C3.89714 15.7498 4.05612 15.8157 4.22188 15.8157H6.05391C6.21967 15.8157 6.37864 15.7498 6.49585 15.6326C6.61306 15.5154 6.67891 15.3565 6.67891 15.1907C6.67891 15.0249 6.61306 14.866 6.49585 14.7488C6.37864 14.6315 6.21967 14.5657 6.05391 14.5657ZM10.8836 8.6239H9.05156C8.8858 8.6239 8.72683 8.68975 8.60962 8.80696C8.49241 8.92417 8.42656 9.08314 8.42656 9.2489C8.42656 9.41466 8.49241 9.57363 8.60962 9.69084C8.72683 9.80805 8.8858 9.8739 9.05156 9.8739H10.8836C11.0494 9.8739 11.2083 9.80805 11.3255 9.69084C11.4427 9.57363 11.5086 9.41466 11.5086 9.2489C11.5086 9.08314 11.4427 8.92417 11.3255 8.80696C11.2083 8.68975 11.0494 8.6239 10.8836 8.6239ZM10.8836 11.5946H9.05156C8.8858 11.5946 8.72683 11.6605 8.60962 11.7777C8.49241 11.8949 8.42656 12.0538 8.42656 12.2196C8.42656 12.3854 8.49241 12.5443 8.60962 12.6615C8.72683 12.7788 8.8858 12.8446 9.05156 12.8446H10.8836C11.0494 12.8446 11.2083 12.7788 11.3255 12.6615C11.4427 12.5443 11.5086 12.3854 11.5086 12.2196C11.5086 12.0538 11.4427 11.8949 11.3255 11.7777C11.2083 11.6605 11.0494 11.5946 10.8836 11.5946ZM10.8836 14.5657H9.05156C8.8858 14.5657 8.72683 14.6315 8.60962 14.7488C8.49241 14.866 8.42656 15.0249 8.42656 15.1907C8.42656 15.3565 8.49241 15.5154 8.60962 15.6326C8.72683 15.7498 8.8858 15.8157 9.05156 15.8157H10.8836C11.0494 15.8157 11.2083 15.7498 11.3255 15.6326C11.4427 15.5154 11.5086 15.3565 11.5086 15.1907C11.5086 15.0249 11.4427 14.866 11.3255 14.7488C11.2083 14.6315 11.0494 14.5657 10.8836 14.5657ZM15.7137 8.6239H13.8816C13.7159 8.6239 13.5569 8.68975 13.4397 8.80696C13.3225 8.92417 13.2566 9.08314 13.2566 9.2489C13.2566 9.41466 13.3225 9.57363 13.4397 9.69084C13.5569 9.80805 13.7159 9.8739 13.8816 9.8739H15.7137C15.8794 9.8739 16.0384 9.80805 16.1556 9.69084C16.2728 9.57363 16.3387 9.41466 16.3387 9.2489C16.3387 9.08314 16.2728 8.92417 16.1556 8.80696C16.0384 8.68975 15.8794 8.6239 15.7137 8.6239ZM15.7137 11.5946H13.8816C13.7159 11.5946 13.5569 11.6605 13.4397 11.7777C13.3225 11.8949 13.2566 12.0538 13.2566 12.2196C13.2566 12.3854 13.3225 12.5443 13.4397 12.6615C13.5569 12.7788 13.7159 12.8446 13.8816 12.8446H15.7137C15.8794 12.8446 16.0384 12.7788 16.1556 12.6615C16.2728 12.5443 16.3387 12.3854 16.3387 12.2196C16.3387 12.0538 16.2728 11.8949 16.1556 11.7777C16.0384 11.6605 15.8794 11.5946 15.7137 11.5946ZM15.7137 14.5657H13.8816C13.7159 14.5657 13.5569 14.6315 13.4397 14.7488C13.3225 14.866 13.2566 15.0249 13.2566 15.1907C13.2566 15.3565 13.3225 15.5154 13.4397 15.6326C13.5569 15.7498 13.7159 15.8157 13.8816 15.8157H15.7137C15.8794 15.8157 16.0384 15.7498 16.1556 15.6326C16.2728 15.5154 16.3387 15.3565 16.3387 15.1907C16.3387 15.0249 16.2728 14.866 16.1556 14.7488C16.0384 14.6315 15.8794 14.5657 15.7137 14.5657Z" fill="#041614"/>
</svg>
