<svg width="34" height="34" viewBox="0 0 34 34" fill="none" xmlns="http://www.w3.org/2000/svg">
<g clip-path="url(#clip0_2_72)">
<path d="M17 0C7.62634 0 0 7.62634 0 17C0 26.3737 7.62634 34.0001 17 34.0001C26.3737 34.0001 34.0001 26.3737 34.0001 17C34.0001 7.62634 26.3737 0 17 0ZM18.1058 27.0866C17.2982 27.2212 15.6911 27.5575 14.875 27.6251C14.1842 27.6823 13.5324 27.2868 13.135 26.7192C12.9388 26.4395 12.813 26.1166 12.7682 25.778C12.7234 25.4393 12.7609 25.0948 12.8776 24.7737L16.0911 15.9376H12.75C12.7471 14.0963 14.1282 12.7425 15.8946 12.223C16.7375 11.975 18.308 11.6356 19.125 11.6876C19.6145 11.7187 20.4676 12.0258 20.865 12.5934C21.0612 12.8731 21.187 13.196 21.2318 13.5347C21.2766 13.8734 21.2391 14.2178 21.1224 14.5389L17.9089 23.3751H21.249C21.2496 25.2142 19.9201 26.7842 18.1058 27.0866ZM19.125 10.625C17.9513 10.625 17 9.67353 17 8.50002C17 7.32638 17.9513 6.375 19.125 6.375C20.2986 6.375 21.25 7.32638 21.25 8.50002C21.25 9.67359 20.2987 10.625 19.125 10.625Z" fill="#041614"/>
</g>
<defs>
<clipPath id="clip0_2_72">
<rect width="34" height="34" fill="white"/>
</clipPath>
</defs>
</svg>
