<svg width="28" height="28" viewBox="0 0 28 28" fill="none" xmlns="http://www.w3.org/2000/svg">
<path fill-rule="evenodd" clip-rule="evenodd" d="M27.0878 24.4078H0.912243V25.0153H27.0878V24.4078ZM24.8855 23.3586V24.0765H17.7066V23.3586H24.8855ZM12.4604 23.3586V24.0765H5.2815V23.3586H12.4604ZM17.7623 23.0273H24.838L24.2048 20.5434C21.5488 20.515 20.3067 20.5937 18.5962 20.1927L17.7623 23.0273ZM5.33723 23.0273H12.4129L11.7797 20.5434C9.12368 20.515 7.88156 20.5937 6.17105 20.1927L5.33723 23.0273ZM4.41361 14.5942C4.38068 14.4418 4.34867 14.2892 4.31758 14.1364H3.27677C3.79881 16.2293 3.87171 18.295 5.2383 19.408C6.80641 20.4221 9.401 20.1457 12.1015 20.2115V19.2722C9.42999 19.1711 6.80635 19.5512 5.45683 17.6001C4.97153 16.8899 4.62957 15.619 4.41361 14.5942ZM16.8387 14.5942C16.8058 14.4418 16.7738 14.2892 16.7427 14.1364H15.7019C16.2239 16.2293 16.2968 18.295 17.6634 19.408C19.2315 20.4221 21.8261 20.1457 24.5266 20.2115V19.2722C21.8551 19.1711 19.2315 19.5512 17.8819 17.6001C17.3966 16.8899 17.0547 15.619 16.8387 14.5942ZM12.2671 18.9407C13.0803 18.9061 13.774 19.1934 13.8277 18.034C13.8283 17.5828 13.6214 17.1144 13.1631 17.1179C10.4452 16.9478 7.76366 16.5025 5.81941 17.5425C7.11435 19.2136 9.72902 18.8476 12.2671 18.9407ZM24.6922 18.9407C25.5053 18.9061 26.1991 19.1934 26.2528 18.034C26.2534 17.5828 26.0465 17.1144 25.5882 17.1179C22.8703 16.9478 20.1888 16.5025 18.2445 17.5425C19.5395 19.2136 22.1541 18.8476 24.6922 18.9407ZM18.6808 15.4474C18.2631 15.5058 17.8469 15.5741 17.4325 15.6523C17.6127 16.3095 17.8101 16.8379 18.0599 17.2621C18.6168 16.8649 18.7684 16.2308 18.6808 15.4474ZM6.2557 15.4474C5.83806 15.5058 5.42186 15.5741 5.00746 15.6523C5.1876 16.3095 5.38508 16.8379 5.63489 17.2621C6.19166 16.8649 6.34331 16.2308 6.2557 15.4474ZM4.9233 15.3309C7.52872 14.84 9.80881 14.7786 11.772 15.1332C12.1519 15.1597 12.0557 14.1641 11.7179 14.1348C9.30639 13.7729 7.00842 13.9126 4.77017 14.6765C4.81795 14.8954 4.869 15.1135 4.9233 15.3309ZM17.3484 15.3309C19.9538 14.84 22.2339 14.7786 24.1971 15.1332C24.577 15.1597 24.4808 14.1641 24.1429 14.1348C21.7314 13.7729 19.4335 13.9126 17.1952 14.6765C17.2431 14.8954 17.2941 15.1135 17.3484 15.3309ZM2.96215 4.41723V8.8643C3.00759 9.04308 4.78084 14.3172 4.70006 14.3501C5.09605 14.216 5.49793 14.0999 5.90445 14.0022C5.42205 12.5242 4.44145 10.7026 3.56956 8.72458L3.56962 6.40523C3.56962 6.38756 3.57257 6.36935 3.57837 6.35223C3.98885 5.02278 4.65768 3.04523 2.9622 2.98474L2.96215 4.41723ZM18.3296 14.0022C17.8472 12.5243 16.8666 10.7027 15.9947 8.72463L15.9947 6.40528C15.9947 6.38762 15.9977 6.36941 16.0035 6.35229C16.414 5.02284 17.0828 3.04528 15.3873 2.9848V8.86436C15.4329 9.04428 17.2056 14.3152 17.1252 14.3502C17.5212 14.216 17.923 14.0999 18.3296 14.0022ZM16.65 13.8051C16.6373 13.7387 15.0521 8.95618 15.056 8.89039V4.58293H14.1724V8.97647L15.621 13.8052L16.65 13.8051ZM4.22488 13.8051C4.2122 13.7387 2.62702 8.95618 2.63085 8.89039V4.58293H1.74727V8.97647L3.19588 13.8052L4.22488 13.8051Z" fill="#115779"/>
</svg>
