<svg width="94" height="20" viewBox="0 0 94 20" fill="none" xmlns="http://www.w3.org/2000/svg">
<path d="M90.502 6.93944C90.502 7.39771 90.1573 7.75777 89.7185 7.75777C89.2955 7.75777 88.9351 7.39771 88.9351 6.93944C88.9351 6.48118 89.2798 6.12111 89.7185 6.12111C90.1573 6.12111 90.502 6.48118 90.502 6.93944ZM88.1674 4.48445C88.1674 4.94272 87.8226 5.30278 87.3839 5.30278C86.9452 5.30278 86.6005 4.94272 86.6005 4.48445C86.6005 4.02619 86.9452 3.66612 87.3839 3.66612C87.8226 3.66612 88.1674 4.04255 88.1674 4.48445ZM90.502 4.48445C90.502 4.94272 90.1573 5.30278 89.7185 5.30278C89.2955 5.30278 88.9351 4.94272 88.9351 4.48445C88.9351 4.02619 89.2798 3.66612 89.7185 3.66612C90.1573 3.66612 90.502 4.04255 90.502 4.48445ZM85.8171 4.48445C85.8171 4.94272 85.4724 5.30278 85.0336 5.30278C84.6106 5.30278 84.2502 4.94272 84.2502 4.48445C84.2502 4.02619 84.5949 3.66612 85.0336 3.66612C85.4724 3.66612 85.8171 4.04255 85.8171 4.48445ZM91.8338 1.86579C92.1315 2.17676 92.1315 2.70049 91.8338 3.02782C91.5361 3.33879 91.0347 3.33879 90.737 3.02782C90.4393 2.71686 90.4393 2.19312 90.737 1.86579C91.0347 1.55483 91.5204 1.55483 91.8338 1.86579ZM93.7767 0.245499C94.0744 0.556465 94.0744 1.0802 93.7767 1.40753C93.479 1.7185 92.9776 1.7185 92.6799 1.40753C92.3822 1.09656 92.3822 0.572831 92.6799 0.245499C92.9776 -0.081833 93.479 -0.081833 93.7767 0.245499ZM83.0907 4.48445C83.0907 4.94272 82.746 5.30278 82.3073 5.30278C81.8842 5.30278 81.5239 4.94272 81.5239 4.48445C81.5239 4.02619 81.8686 3.66612 82.3073 3.66612C82.746 3.66612 83.0907 4.04255 83.0907 4.48445ZM80.7561 4.48445C80.7561 4.94272 80.4114 5.30278 79.9727 5.30278C79.5339 5.30278 79.1892 4.94272 79.1892 4.48445C79.1892 4.02619 79.5339 3.66612 79.9727 3.66612C80.4114 3.66612 80.7561 4.04255 80.7561 4.48445ZM89.7185 8.5761C90.1416 8.5761 90.502 8.93617 90.502 9.39443C90.502 9.8527 90.1573 10.2128 89.7185 10.2128C89.2955 10.2128 88.9351 9.8527 88.9351 9.39443C88.9351 8.93617 89.2955 8.5761 89.7185 8.5761ZM81.1478 16.7267C81.1478 17.1849 80.8031 17.545 80.3644 17.545C79.9413 17.545 79.581 17.1849 79.581 16.7267C79.581 16.2684 79.9257 15.9083 80.3644 15.9083C80.8031 15.9247 81.1478 16.2848 81.1478 16.7267ZM78.8132 14.2881C78.8132 14.7463 78.4685 15.1064 78.0297 15.1064C77.6067 15.1064 77.2463 14.7463 77.2463 14.2881C77.2463 13.8298 77.591 13.4697 78.0297 13.4697C78.4685 13.4697 78.8132 13.8298 78.8132 14.2881ZM81.1478 14.2881C81.1478 14.7463 80.8031 15.1064 80.3644 15.1064C79.9413 15.1064 79.581 14.7463 79.581 14.2881C79.581 13.8298 79.9257 13.4697 80.3644 13.4697C80.8031 13.4697 81.1478 13.8298 81.1478 14.2881ZM76.4786 14.2881C76.4786 14.7463 76.1339 15.1064 75.6951 15.1064C75.2721 15.1064 74.9117 14.7463 74.9117 14.2881C74.9117 13.8298 75.2564 13.4697 75.6951 13.4697C76.1182 13.4697 76.4786 13.8298 76.4786 14.2881ZM80.3644 18.3633C80.7874 18.3633 81.1478 18.7234 81.1478 19.1817C81.1478 19.6399 80.8031 20 80.3644 20C79.9413 20 79.581 19.6399 79.581 19.1817C79.5966 18.7398 79.9413 18.3633 80.3644 18.3633ZM89.7185 11.0147C90.1416 11.0147 90.502 11.3748 90.502 11.8331C90.502 12.2913 90.1573 12.6514 89.7185 12.6514C89.2955 12.6514 88.9351 12.2913 88.9351 11.8331C88.9351 11.3912 89.2955 11.0147 89.7185 11.0147ZM89.7185 13.8789C90.1416 13.8789 90.502 14.239 90.502 14.6972C90.502 15.1555 90.1573 15.5155 89.7185 15.5155C89.2955 15.5155 88.9351 15.1555 88.9351 14.6972C88.9351 14.239 89.2955 13.8789 89.7185 13.8789ZM84.6576 10.6056C84.6576 11.0638 84.3129 11.4239 83.8741 11.4239C83.4511 11.4239 83.0907 11.0638 83.0907 10.6056C83.0907 10.1473 83.4354 9.78724 83.8741 9.78724C84.3129 9.8036 84.6576 10.1637 84.6576 10.6056ZM85.9894 7.98691C86.2871 8.29787 86.2871 8.8216 85.9894 9.14893C85.6917 9.4599 85.1903 9.4599 84.8926 9.14893C84.5949 8.83797 84.5949 8.31424 84.8926 7.98691C85.1903 7.67594 85.676 7.67594 85.9894 7.98691ZM87.9323 6.36661C88.23 6.67758 88.23 7.20131 87.9323 7.52864C87.6346 7.83961 87.1332 7.83961 86.8355 7.52864C86.5378 7.21768 86.5378 6.69394 86.8355 6.36661C87.1332 6.03928 87.6346 6.03928 87.9323 6.36661ZM82.8714 11.6694C83.1691 11.9804 83.1691 12.5041 82.8714 12.8314C82.5737 13.1424 82.0723 13.1424 81.7746 12.8314C81.4769 12.5205 81.4769 11.9967 81.7746 11.6694C82.0723 11.3421 82.558 11.3421 82.8714 11.6694ZM52.0512 17.5777C50.2336 19.1817 48.1027 20 45.6584 20C43.026 20 40.7541 19.0344 38.8425 17.1195C36.9466 15.1718 35.9908 12.8151 35.9908 10.0327C35.9908 7.25041 36.9466 4.89362 38.8425 2.94599C40.7541 0.981997 43.026 0 45.6584 0C47.2096 0 48.5727 0.261865 49.7636 0.801963C50.9387 1.32569 52.1295 2.20949 53.3203 3.45336L53.4143 3.55156L51.5811 5.63011L51.4714 5.53192C50.2963 4.51719 49.4032 3.82979 48.7608 3.46972C47.8206 2.94599 46.7865 2.70049 45.6584 2.70049C43.6998 2.70049 42.0859 3.42062 40.7854 4.84452C39.4849 6.26841 38.8269 8.00327 38.8269 10.0164C38.8269 12.0131 39.4849 13.7316 40.7854 15.1718C42.0859 16.5957 43.7155 17.3159 45.6584 17.3159C47.4603 17.3159 48.9958 16.7758 50.2336 15.6792C51.5341 14.5499 52.1922 13.1097 52.2235 11.3421H45.8464V8.65794H55.0909V10.4255C55.1066 13.4043 54.0881 15.7774 52.0512 17.5777ZM67.9548 17.9869C66.6543 19.2962 65.0875 19.9509 63.2699 19.9509C61.468 19.9509 59.9012 19.2962 58.6007 17.9869C57.3002 16.6776 56.6421 15.0082 56.6421 13.0115C56.6421 11.0147 57.2845 9.3617 58.5693 8.06874C59.8698 6.74305 61.4367 6.08838 63.2542 6.08838C65.0561 6.08838 66.623 6.74305 67.9235 8.06874C69.2553 9.37807 69.9134 11.0311 69.9134 13.0115C69.9134 15.0245 69.271 16.6776 67.9548 17.9869ZM66.1059 9.8527C65.3695 9.05074 64.4294 8.64157 63.2699 8.64157C62.0948 8.64157 61.1546 9.05074 60.4025 9.8527C59.6818 10.6383 59.3214 11.6858 59.3214 13.0115C59.3214 14.3044 59.6975 15.3519 60.4339 16.1702C61.1703 16.9722 62.1104 17.3813 63.2699 17.3813C64.4294 17.3813 65.3695 16.9722 66.1059 16.1702C66.8424 15.3682 67.2184 14.3208 67.2184 13.0115C67.2184 11.7185 66.8424 10.671 66.1059 9.8527ZM34.0479 4.68085C33.7816 4.99182 33.4055 5.13911 32.9198 5.13911C32.4654 5.13911 32.0893 4.99182 31.7916 4.68085C31.5253 4.35352 31.3843 3.97709 31.3843 3.53519C31.3843 3.09329 31.5253 2.71686 31.7916 2.42226C32.0737 2.1113 32.4497 1.96399 32.9198 1.96399C33.3742 1.96399 33.7502 2.12766 34.0166 2.45499C34.2986 2.74959 34.4553 3.12602 34.4553 3.53519C34.4553 3.99345 34.33 4.38625 34.0479 4.68085ZM31.6193 19.6727V6.35025H34.2203V19.6727H31.6193ZM28.0155 17.9214C26.809 19.2635 25.2578 19.9345 23.3776 19.9345C21.3877 19.9345 19.7581 19.2144 18.5203 17.7741C17.3608 16.4157 16.7811 14.7136 16.7811 12.6678C16.7811 10.8183 17.3765 9.2635 18.583 7.98691C19.8051 6.69395 21.2467 6.05565 22.9389 6.05565C24.2707 6.05565 25.4772 6.36661 26.5583 6.97218L26.6367 7.02127V9.91817L26.4173 9.7545C25.9943 9.4599 25.4772 9.19804 24.8974 8.96891C24.3334 8.73977 23.8163 8.62521 23.3463 8.62521C22.1398 8.62521 21.184 9.018 20.4632 9.8036C19.7425 10.5892 19.3821 11.6367 19.3821 12.9624C19.3821 14.2553 19.7581 15.3191 20.4946 16.1375C21.2467 16.9394 22.2181 17.3486 23.4089 17.3486C24.5214 17.3486 25.4302 16.9067 26.1666 16.0393C26.903 15.1718 27.2791 13.8789 27.2791 12.1768V0.310965H29.8487V12.6023C29.8487 14.7954 29.2377 16.563 28.0155 17.9214ZM12.6289 19.6727V11.9149C12.6289 10.9656 12.3469 10.1964 11.7828 9.59083C11.2344 8.9689 10.5607 8.65794 9.73022 8.65794C8.94679 8.65794 8.27303 8.9689 7.67763 9.59083C7.11356 10.1964 6.83152 10.9656 6.83152 11.9149V19.6727H4.26187V11.9149C4.26187 10.1964 4.77893 8.78887 5.79739 7.70867C6.83152 6.61211 8.14769 6.07201 9.73022 6.07201C11.3127 6.07201 12.6132 6.61211 13.663 7.70867C14.7128 8.80524 15.2299 10.2128 15.2299 11.9149V19.6727H12.6289ZM0 19.6727V0.327332H2.72634V19.6727H0Z" fill="#001B94"/>
</svg>
