<svg width="24" height="24" viewBox="0 0 24 24" fill="none" xmlns="http://www.w3.org/2000/svg">
<g clip-path="url(#clip0_3_973)">
<path d="M11.9532 21.8672C12.8075 21.8672 13.5 21.1746 13.5 20.3203C13.5 19.466 12.8075 18.7734 11.9532 18.7734C11.0988 18.7734 10.4063 19.466 10.4063 20.3203C10.4063 21.1746 11.0988 21.8672 11.9532 21.8672Z" fill="#041614"/>
<path d="M23.7483 7.25924C20.6672 3.95348 16.495 2.13286 11.9998 2.13281C7.505 2.13286 3.33281 3.95348 0.251671 7.25924C-0.101297 7.63799 -0.0804381 8.23124 0.298311 8.58425C0.677107 8.93722 1.27031 8.91641 1.62332 8.53761C4.34582 5.61656 8.03094 4.00786 12.0002 4.00781C15.9691 4.00786 19.6542 5.61656 22.3767 8.53761C22.4643 8.63188 22.5705 8.70703 22.6885 8.75836C22.8066 8.8097 22.934 8.8361 23.0627 8.83592C23.2916 8.83592 23.521 8.75258 23.7017 8.58425C24.0804 8.23119 24.1013 7.63799 23.7483 7.25924Z" fill="#041614"/>
<path d="M20.306 11.1308C18.0284 8.83612 15.0786 7.57242 11.9999 7.57251C8.92045 7.57256 5.9706 8.83631 3.69379 11.1309C3.3291 11.4985 3.3314 12.0921 3.69895 12.4567C4.06649 12.8214 4.66007 12.8191 5.02476 12.4516C6.94687 10.5144 9.42403 9.44756 11.9999 9.44751C14.5751 9.44742 17.0523 10.5143 18.9751 12.4517C19.0621 12.5396 19.1658 12.6094 19.28 12.6569C19.3943 12.7045 19.5168 12.7289 19.6405 12.7288C19.888 12.729 20.1255 12.6312 20.301 12.4567C20.6684 12.0919 20.6707 11.4983 20.306 11.1308ZM16.5539 15.0137C15.3343 13.8053 13.586 13.0547 11.9912 13.0547H11.9222C10.3274 13.0547 8.57896 13.8053 7.35932 15.0137C6.99154 15.3781 6.98877 15.9717 7.35318 16.3395C7.44025 16.4276 7.54397 16.4975 7.6583 16.5452C7.77264 16.5929 7.89531 16.6173 8.01918 16.6172C8.26635 16.6175 8.50358 16.5199 8.67895 16.3457C9.54721 15.4854 10.8202 14.9297 11.9223 14.9297H11.991C13.093 14.9297 14.3661 15.4855 15.2343 16.3457C15.6021 16.71 16.1957 16.7074 16.5601 16.3395C16.9245 15.9717 16.9218 15.3781 16.5539 15.0137Z" fill="#041614"/>
</g>
<defs>
<clipPath id="clip0_3_973">
<rect width="24" height="24" fill="white"/>
</clipPath>
</defs>
</svg>
