<svg width="24" height="24" viewBox="0 0 24 24" fill="none" xmlns="http://www.w3.org/2000/svg">
<path d="M19.6827 14.5064C19.6827 14.7248 19.596 14.9342 19.4416 15.0887C19.2871 15.2431 19.0777 15.3298 18.8593 15.3298C18.6409 15.3298 18.4314 15.2431 18.277 15.0887C18.1226 14.9342 18.0358 14.7248 18.0358 14.5064C18.0358 14.288 18.1226 14.0785 18.277 13.9241C18.4314 13.7697 18.6409 13.6829 18.8593 13.6829C19.0777 13.6829 19.2871 13.7697 19.4416 13.9241C19.596 14.0785 19.6827 14.288 19.6827 14.5064ZM4.35081 13.6829C4.13242 13.6829 3.92297 13.7697 3.76854 13.9241C3.61412 14.0785 3.52736 14.288 3.52736 14.5064C3.52736 14.7248 3.61412 14.9342 3.76854 15.0887C3.92297 15.2431 4.13242 15.3298 4.35081 15.3298C4.56921 15.3298 4.77866 15.2431 4.93308 15.0887C5.08751 14.9342 5.17427 14.7248 5.17427 14.5064C5.17427 14.288 5.08751 14.0785 4.93308 13.9241C4.77866 13.7697 4.56921 13.6829 4.35081 13.6829ZM16.9301 12.0164C16.9026 12.1223 16.8085 12.1929 16.7026 12.1929H16.6909C16.6085 12.1929 9.16214 11.8517 7.86422 11.8047L9.0249 12.9653C9.24056 13.181 9.53073 13.3261 9.83267 13.3653L15.1616 14.0751C15.291 14.0907 15.3812 14.2123 15.3655 14.3378C15.3498 14.4554 15.2479 14.5417 15.1341 14.5417H15.1028L9.77385 13.8319C9.36577 13.7768 8.98699 13.5895 8.69551 13.2987L6.73491 11.338C6.70932 11.3115 6.69049 11.2793 6.68001 11.2439C6.68001 11.2322 6.67609 11.2243 6.67217 11.2126C6.66825 11.1866 6.66825 11.1601 6.67217 11.1341V11.1145C6.67217 11.1106 6.67609 11.1067 6.68001 11.1028C6.68786 11.0714 6.70354 11.044 6.72707 11.0165C6.72707 11.0165 6.72707 11.0087 6.73491 11.0087C6.76236 10.9812 6.79373 10.9655 6.82902 10.9538C6.82902 10.9538 6.83294 10.9498 6.83686 10.9498C6.95058 10.9185 9.64053 10.1578 12.0011 10.1578C13.7343 10.1578 14.8518 10.7381 16.1497 11.4125C16.3654 11.5223 16.585 11.6361 16.8124 11.7537C16.9104 11.8047 16.9614 11.9145 16.934 12.0243L16.9301 12.0164ZM15.6361 11.6753C14.5146 11.0989 13.4872 10.6244 11.9972 10.6244C10.2875 10.6244 8.33869 11.0518 7.45249 11.2714C7.53092 11.3067 7.60934 11.3302 7.68384 11.3302C7.99754 11.3302 13.299 11.5694 15.6361 11.6753ZM23.9961 14.3103V15.4867C23.9961 15.5926 23.9255 15.6827 23.8235 15.7141C23.0236 15.9415 20.7376 16.1062 20.6395 16.1141H20.0435C19.7102 16.3611 19.3024 16.5062 18.8593 16.5062C18.4162 16.5062 18.0084 16.3611 17.6751 16.1141H7.29172C6.8251 16.1141 6.24868 16.0906 5.62129 16.0474C5.27622 16.3337 4.83312 16.5023 4.35474 16.5023C3.7195 16.5023 3.15485 16.2043 2.79017 15.7416C1.84908 15.6004 1.21777 15.4514 0.915834 15.3024C0.249229 14.9691 0.217859 14.3338 0.370786 13.9221C0.049247 13.2241 0.0845379 12.6673 0.237465 12.2517V12.236C0.331574 11.9811 0.468816 11.7851 0.594295 11.6439C0.453132 11.5106 0.394314 11.3224 0.394314 11.1734C0.394314 11.044 0.500186 10.9381 0.629586 10.9381H2.98231C3.37051 10.9381 4.12338 10.742 5.08016 10.495C6.91921 10.0205 9.43662 9.3696 12.0011 9.3696C13.9225 9.3696 17.1889 11.1302 17.5731 11.342C17.9692 11.4243 21.1532 12.0792 22.7923 12.7889C22.8981 12.8359 22.9962 12.8791 23.0864 12.9261C23.9882 13.3771 24 14.275 24 14.3142L23.9961 14.3103ZM21.1101 13.0046C21.4238 13.283 21.7806 13.2908 21.8002 13.2908C22.5256 13.2908 23.0236 13.5182 23.3608 13.7888C23.1334 13.4084 22.7099 13.2634 22.31 13.1026C21.8747 13.0555 21.4316 13.0242 21.1101 13.0046ZM0.892307 12.0164C1.11732 11.9715 1.33594 11.8991 1.54323 11.8007H1.10013C1.05308 11.84 0.974653 11.9145 0.892307 12.0164ZM4.35081 16.0357C4.73117 16.0357 5.07624 15.8984 5.34288 15.671C5.34288 15.6671 5.34288 15.6631 5.35072 15.6631C5.67618 15.3612 5.88009 14.9495 5.88009 14.5064C5.88009 13.8319 5.44091 13.2673 4.83312 13.0634C4.6802 13.0124 4.51943 12.9771 4.35081 12.9771C4.14996 12.977 3.95105 13.0165 3.76547 13.0933C3.57988 13.1701 3.41125 13.2828 3.26923 13.4248C3.1272 13.5668 3.01456 13.7354 2.93774 13.921C2.86092 14.1066 2.82144 14.3055 2.82154 14.5064C2.82546 14.8279 2.92349 15.1377 3.11563 15.4004C3.39012 15.7847 3.84106 16.0357 4.35081 16.0357ZM18.8593 16.0357C19.2004 16.0357 19.5141 15.9219 19.769 15.7337C19.7729 15.7337 19.7729 15.7298 19.7729 15.7298C20.1494 15.4318 20.3886 14.9887 20.3886 14.5064C20.3886 13.8319 19.9494 13.2673 19.3416 13.0634C19.1887 13.0124 19.0279 12.9771 18.8593 12.9771C18.6584 12.977 18.4595 13.0165 18.2739 13.0933C18.0884 13.1701 17.9197 13.2828 17.7777 13.4248C17.6357 13.5668 17.523 13.7354 17.4462 13.921C17.3694 14.1066 17.3299 14.3055 17.33 14.5064C17.33 14.9887 17.5692 15.4318 17.9456 15.7298C18.2092 15.9277 18.5297 16.035 18.8593 16.0357ZM23.5255 15.3024V14.7456C23.4549 14.577 23.055 13.7614 21.8002 13.7614C21.761 13.7614 20.8669 13.7496 20.4121 12.8477C20.3729 12.7732 20.3807 12.683 20.4239 12.6164C20.4474 12.5771 20.4827 12.5497 20.5258 12.534C19.0083 12.1144 17.4633 11.8047 17.4398 11.8007C17.4163 11.7968 17.3928 11.789 17.3732 11.7772C17.3379 11.7576 13.8754 9.84799 11.9972 9.84799C9.49544 9.84799 7.00939 10.4911 5.1978 10.9577C4.17044 11.2243 3.42541 11.4165 2.97839 11.4165H2.35884C2.35884 11.4165 2.38629 11.4361 2.39413 11.4518C2.43726 11.5223 2.44118 11.6086 2.40589 11.6792C2.3706 11.7498 2.01769 12.3615 0.64135 12.5419C0.559004 12.8634 0.574689 13.2908 0.841331 13.8202C0.872701 13.8868 0.872701 13.9653 0.841331 14.0319C0.794277 14.126 0.590374 14.624 1.12758 14.8907C1.3354 14.9965 1.82163 15.1142 2.48824 15.2279C2.34315 14.8514 2.31178 14.428 2.41766 14.0437C2.6294 13.1693 3.41365 12.5144 4.35474 12.5144C5.29583 12.5144 6.08007 13.1693 6.29181 14.0437C6.4369 14.573 6.31534 15.1534 6.02517 15.6122C6.49572 15.6396 6.93097 15.6514 7.29172 15.6514H17.2163C17.0555 15.4122 16.9418 15.1377 16.8908 14.8554C16.8399 14.5887 16.8556 14.3025 16.9222 14.0437C17.134 13.1693 17.9182 12.5144 18.8593 12.5144C19.8004 12.5144 20.5846 13.1693 20.7964 14.0437C20.863 14.3025 20.8787 14.5887 20.8277 14.8554C20.7768 15.1377 20.663 15.4122 20.5023 15.6514H20.6238C20.6238 15.6514 22.6433 15.5024 23.5255 15.3102V15.3024Z" fill="black"/>
</svg>
