<svg width="62" height="62" viewBox="0 0 62 62" fill="none" xmlns="http://www.w3.org/2000/svg">
<rect width="62" height="62" rx="31" fill="#09B057"/>
<g clip-path="url(#clip0_1_789)">
<path fill-rule="evenodd" clip-rule="evenodd" d="M40.8839 15.5588H42.735C43.7573 15.5588 44.5861 16.3884 44.5861 17.4161L44.5867 50.1428C44.5867 51.1685 43.7586 52.0001 42.7296 52.0001H19.2704C18.2447 52.0001 17.4133 51.1705 17.4133 50.1428V17.416C17.4133 16.3903 18.245 15.5588 19.2663 15.5588H21.1192V18.0294C21.1192 19.735 22.5018 21.1176 24.2074 21.1176H37.7956C39.5012 21.1176 40.8839 19.735 40.8839 18.0294V15.5588ZM39.6425 27.9176C39.6425 27.5732 39.3654 27.2942 39.0206 27.2942H31.0057C30.9239 27.2938 30.8427 27.3097 30.767 27.341C30.6913 27.3722 30.6225 27.4181 30.5647 27.4761C30.5069 27.5341 30.4611 27.603 30.4301 27.6787C30.399 27.7545 30.3833 27.8357 30.3839 27.9176V29.1413C30.3839 29.4856 30.661 29.7647 31.0057 29.7647H39.0206C39.1025 29.765 39.1836 29.7491 39.2593 29.7179C39.3351 29.6867 39.4038 29.6407 39.4616 29.5827C39.5195 29.5248 39.5652 29.4559 39.5963 29.3801C39.6273 29.3043 39.643 29.2231 39.6425 29.1413V27.9176ZM39.6455 35.947C39.6455 35.6026 39.3684 35.3235 39.0236 35.3235H31.0088C30.9269 35.3232 30.8457 35.3391 30.77 35.3703C30.6943 35.4016 30.6256 35.4475 30.5677 35.5055C30.5099 35.5635 30.4641 35.6323 30.4331 35.7081C30.4021 35.7839 30.3864 35.8651 30.3869 35.947V37.1706C30.3869 37.515 30.664 37.7941 31.0088 37.7941H39.0236C39.1055 37.7944 39.1867 37.7785 39.2624 37.7473C39.3381 37.716 39.4068 37.6701 39.4647 37.6121C39.5225 37.5542 39.5683 37.4853 39.5993 37.4095C39.6304 37.3337 39.6461 37.2525 39.6455 37.1706V35.947ZM24.278 27.4708C24.0392 27.2319 23.652 27.232 23.4047 27.4791L22.5395 28.3445C22.296 28.588 22.2969 28.9836 22.5377 29.2244L23.9515 30.6382C24.434 31.1207 25.2161 31.1207 25.6985 30.6382L28.3508 27.9859C28.5916 27.7452 28.5931 27.3563 28.3459 27.1092L27.4806 26.2438C27.2371 26.0004 26.8432 25.9995 26.6022 26.2405L24.825 28.0178L24.278 27.4708ZM24.278 35.5002C24.0392 35.2613 23.652 35.2614 23.4047 35.5085L22.5395 36.3739C22.296 36.6173 22.2969 37.013 22.5377 37.2538L23.9515 38.6676C24.434 39.15 25.2161 39.15 25.6985 38.6676L28.3508 36.0153C28.5916 35.7745 28.5931 35.3857 28.3459 35.1386L27.4806 34.2732C27.2371 34.0297 26.8432 34.0289 26.6022 34.2699L24.825 36.0471L24.278 35.5002ZM24.278 43.5295C24.0392 43.2907 23.652 43.2907 23.4047 43.5379L22.5395 44.4032C22.296 44.6467 22.2969 45.0424 22.5377 45.2832L23.9515 46.697C24.434 47.1794 25.2161 47.1794 25.6985 46.697L28.3508 44.0447C28.5916 43.8039 28.5931 43.4151 28.3459 43.1679L27.4806 42.3026C27.2371 42.0591 26.8432 42.0583 26.6022 42.2993L24.825 44.0765L24.278 43.5295ZM39.6455 43.9764C39.6455 43.632 39.3684 43.3529 39.0236 43.3529H31.0088C30.9269 43.3526 30.8457 43.3685 30.77 43.3997C30.6943 43.431 30.6256 43.4769 30.5677 43.5349C30.5099 43.5928 30.4641 43.6617 30.4331 43.7375C30.4021 43.8133 30.3864 43.8945 30.3869 43.9764V45.2C30.3869 45.5444 30.664 45.8235 31.0088 45.8235H39.0236C39.1055 45.8238 39.1867 45.8079 39.2624 45.7767C39.3381 45.7454 39.4068 45.6995 39.4647 45.6415C39.5225 45.5835 39.5683 45.5147 39.5993 45.4389C39.6304 45.3631 39.6461 45.2819 39.6455 45.2V43.9764ZM37.7956 12.4706C38.4779 12.4706 39.0309 13.0237 39.0309 13.7059V18.0295C39.0309 18.7117 38.4779 19.2648 37.7956 19.2648H24.2074C23.5252 19.2648 22.9721 18.7117 22.9721 18.0295V13.7058C22.9721 13.0236 23.5252 12.4705 24.2074 12.4705H27.0764C27.211 12.211 27.367 11.9631 27.5427 11.7294C28.3417 10.664 29.5038 10 31.0016 10C32.4993 10 33.6613 10.664 34.4604 11.7294C34.6361 11.9631 34.792 12.211 34.9268 12.4705L37.7956 12.4706Z" fill="white"/>
</g>
<defs>
<clipPath id="clip0_1_789">
<rect width="42" height="42" fill="white" transform="translate(10 10)"/>
</clipPath>
</defs>
</svg>
