<svg width="62" height="62" viewBox="0 0 62 62" fill="none" xmlns="http://www.w3.org/2000/svg">
<rect width="62" height="62" rx="31" fill="#16E2FD"/>
<path d="M47.5638 26.8853L46.4678 25.8156C46.0614 25.4204 45.7396 24.9466 45.5218 24.4232C45.3041 23.8998 45.1951 23.3375 45.2013 22.7706C45.6377 19.3909 43.1708 16.1904 39.6625 16.2803L38.4156 16.3C36.7744 16.4175 35.5216 15.2769 34.4716 14.1738C33.4327 13.1697 32.04 12.6155 30.5953 12.6315C29.1506 12.6475 27.7705 13.2323 26.7541 14.2591C25.6739 15.4357 24.4841 16.6511 22.7641 16.6084L21.5435 16.6281C20.0945 16.6571 18.7154 17.2563 17.7055 18.2957C16.6956 19.3351 16.1363 20.7308 16.1491 22.18L16.1753 23.8534C16.2508 25.3202 15.3688 26.5624 14.3247 27.5088C13.3136 28.551 12.7575 29.9518 12.7784 31.4037C12.7993 32.8556 13.3956 34.2399 14.4363 35.2525L15.4535 36.2435C16.6052 37.2764 16.7876 38.8271 16.7331 40.286C16.7554 41.7371 17.3525 43.12 18.3934 44.1314C19.4343 45.1427 20.8339 45.6998 22.285 45.6803C23.7097 45.5714 25.1089 45.763 26.17 46.8419L27.1872 47.8263C27.703 48.3275 28.3124 48.7221 28.9807 48.9878C29.649 49.2534 30.3631 49.3848 31.0822 49.3745C31.8013 49.3641 32.5113 49.2122 33.1717 48.9274C33.832 48.6426 34.4298 48.2305 34.931 47.7147L36.0335 46.5794C37.1524 45.326 38.8265 45.2505 40.391 45.2931C41.8421 45.2708 43.225 44.6737 44.2364 43.6329C45.2477 42.592 45.8048 41.1924 45.7853 39.7413C45.6967 38.1866 45.7374 36.5322 46.9403 35.3838C49.5988 33.144 50.1054 29.4217 47.5638 26.8853ZM43.1406 31C43.1368 34.2187 41.8565 37.3045 39.5805 39.5805C37.3045 41.8565 34.2187 43.1368 31 43.1406C14.8937 42.4726 14.8989 19.5248 31 18.8594C34.2187 18.8632 37.3045 20.1435 39.5805 22.4195C41.8565 24.6955 43.1368 27.7813 43.1406 31Z" fill="white"/>
<path d="M31 20.1719C28.1291 20.1747 25.3765 21.3164 23.3464 23.3464C21.3164 25.3765 20.1747 28.1291 20.1719 31C20.7651 45.3653 41.2375 45.3614 41.8281 31C41.8253 28.1291 40.6836 25.3765 38.6536 23.3464C36.6235 21.3164 33.8709 20.1747 31 20.1719ZM37.9694 28.7884L30.7572 35.9941C30.5665 36.1852 30.3399 36.3369 30.0905 36.4404C29.841 36.5438 29.5736 36.5971 29.3036 36.5971C29.0336 36.5971 28.7662 36.5438 28.5167 36.4404C28.2673 36.3369 28.0407 36.1852 27.85 35.9941L24.0372 32.1812C23.8534 31.9933 23.7085 31.7708 23.611 31.5267C23.5134 31.2825 23.4651 31.0215 23.4687 30.7586C23.4723 30.4957 23.5278 30.2361 23.6321 29.9948C23.7363 29.7534 23.8873 29.535 24.0762 29.3522C24.2651 29.1693 24.4883 29.0256 24.7329 28.9293C24.9775 28.8329 25.2388 28.7859 25.5016 28.7908C25.7645 28.7957 26.0238 28.8526 26.2646 28.958C26.5055 29.0635 26.7231 29.2155 26.905 29.4053L29.2412 31.9056L35.1606 25.9863C35.5333 25.6192 36.036 25.4142 36.5591 25.4158C37.0822 25.4175 37.5835 25.6258 37.9539 25.9952C38.3242 26.3647 38.5336 26.8655 38.5365 27.3886C38.5394 27.9118 38.3356 28.4149 37.9694 28.7884Z" fill="white"/>
<path d="M36.0925 26.9115L29.6941 33.31C29.6314 33.3716 29.5571 33.4202 29.4755 33.4529C29.394 33.4856 29.3067 33.5018 29.2188 33.5006C29.131 33.4994 29.0442 33.4807 28.9636 33.4458C28.8829 33.4108 28.81 33.3602 28.7491 33.2968L25.9469 30.3043C25.8844 30.2397 25.8098 30.188 25.7273 30.1522C25.6449 30.1164 25.5562 30.0972 25.4663 30.0957C25.3764 30.0941 25.2871 30.1103 25.2035 30.1433C25.1199 30.1763 25.0436 30.2255 24.9789 30.2879C24.9143 30.3504 24.8626 30.425 24.8268 30.5075C24.791 30.5899 24.7718 30.6786 24.7702 30.7685C24.7687 30.8584 24.7849 30.9477 24.8179 31.0313C24.8509 31.115 24.9 31.1913 24.9625 31.2559L28.7753 35.0687C28.9161 35.2075 29.1059 35.2852 29.3036 35.2852C29.5013 35.2852 29.6911 35.2075 29.8319 35.0687L37.0375 27.8565C37.1628 27.7312 37.2332 27.5613 37.2332 27.384C37.2332 27.2068 37.1628 27.0369 37.0375 26.9115C36.9122 26.7862 36.7422 26.7158 36.565 26.7158C36.3878 26.7158 36.2178 26.7862 36.0925 26.9115Z" fill="white"/>
</svg>
