<svg width="62" height="62" viewBox="0 0 62 62" fill="none" xmlns="http://www.w3.org/2000/svg">
<rect width="62" height="62" rx="31" fill="#A2479B"/>
<g clip-path="url(#clip0_1_808)">
<path fill-rule="evenodd" clip-rule="evenodd" d="M31.5401 13.643C28.0843 13.527 24.6792 14.4977 21.8041 16.4185C18.5714 18.5797 16.2039 21.8113 15.1177 25.5451C14.8235 25.5092 14.4713 25.525 14.0531 25.6433C12.4916 26.0869 11.3177 27.3659 10.7896 28.4928C10.1042 29.9613 9.81534 31.9041 10.12 33.9087C10.4226 35.9074 11.267 37.555 12.3231 38.5778C13.3824 39.6012 14.5785 39.9339 15.7667 39.6841C17.5357 39.3066 18.4128 39.0241 18.1652 37.3765L16.9664 29.3868C17.0882 27.2123 17.7138 25.0958 18.794 23.2046C19.8741 21.3134 21.3792 19.6992 23.1903 18.4896C25.631 16.8567 28.5224 16.0302 31.4574 16.1265C34.3924 16.2227 37.2234 17.2368 39.5519 19.0261C41.1596 20.2587 42.4816 21.8245 43.4273 23.616C44.373 25.4076 44.9199 27.3825 45.0306 29.4053L44.1921 34.9938C43.2822 37.488 41.6839 39.6731 39.5825 41.2957C37.4811 42.9182 34.9627 43.9118 32.3195 44.1611H28.7466C28.528 44.1606 28.3114 44.2033 28.1093 44.2867C27.9072 44.3701 27.7236 44.4926 27.5689 44.6472C27.4143 44.8017 27.2917 44.9853 27.2081 45.1873C27.1246 45.3893 27.0818 45.6059 27.0821 45.8245V46.7022C27.0817 46.9208 27.1245 47.1374 27.208 47.3395C27.2915 47.5416 27.4141 47.7253 27.5687 47.8799C27.7234 48.0345 27.907 48.157 28.1092 48.2405C28.3113 48.3239 28.5279 48.3666 28.7466 48.3661H33.2515C33.47 48.3665 33.6863 48.3237 33.8881 48.2401C34.0899 48.1566 34.2733 48.0341 34.4276 47.8795C34.5819 47.725 34.7042 47.5414 34.7874 47.3395C34.8706 47.1375 34.913 46.9211 34.9123 46.7027V46.2433C38.9598 45.2522 42.486 42.7739 44.7893 39.3013L46.2325 39.6841C47.407 39.9888 48.6173 39.6007 49.6761 38.5778C50.7322 37.5544 51.5761 35.9074 51.8792 33.9087C52.1854 31.9036 51.8876 29.9645 51.2106 28.4928C50.531 27.0211 49.5187 26.0864 48.3501 25.7511C47.8606 25.6101 47.3293 25.5583 46.8736 25.5451C45.8927 22.1681 43.8596 19.1924 41.0701 17.0511C38.3282 14.9462 34.9951 13.7542 31.5401 13.643Z" fill="white"/>
<path fill-rule="evenodd" clip-rule="evenodd" d="M36.8134 28.0164C37.3857 28.0171 37.9343 28.2448 38.3389 28.6495C38.7435 29.0542 38.971 29.6029 38.9716 30.1752C38.9706 30.7474 38.7429 31.2959 38.3382 31.7006C37.9336 32.1052 37.3851 32.333 36.8129 32.3339C36.24 32.3341 35.6905 32.1068 35.2851 31.702C34.8797 31.2972 34.6516 30.7481 34.6509 30.1752C34.6511 29.8915 34.7071 29.6105 34.8158 29.3484C34.9246 29.0863 35.0839 28.8482 35.2846 28.6477C35.4854 28.4472 35.7237 28.2882 35.9859 28.1798C36.2481 28.0714 36.5291 28.0157 36.8129 28.0159L36.8134 28.0164ZM30.9994 28.0164C31.4262 28.0167 31.8435 28.1434 32.1983 28.3807C32.5532 28.6181 32.8297 28.9552 32.993 29.3497C33.1562 29.7441 33.1988 30.1781 33.1155 30.5968C33.0321 31.0155 32.8265 31.4 32.5246 31.7018C32.2227 32.0037 31.8381 32.2092 31.4194 32.2925C31.0007 32.3757 30.5667 32.333 30.1723 32.1697C29.7779 32.0063 29.4408 31.7297 29.2036 31.3748C28.9663 31.0199 28.8397 30.6026 28.8396 30.1757C28.8393 29.892 28.8949 29.611 29.0034 29.3489C29.1118 29.0867 29.2709 28.8485 29.4715 28.6479C29.6721 28.4473 29.9103 28.2882 30.1725 28.1798C30.4347 28.0713 30.7156 28.0162 30.9994 28.0164ZM25.1869 28.0164C25.4744 28.0101 25.7603 28.0612 26.0278 28.1669C26.2952 28.2725 26.5389 28.4305 26.7445 28.6316C26.9501 28.8327 27.1134 29.0728 27.225 29.3379C27.3365 29.6029 27.3939 29.8876 27.3939 30.1752C27.3939 30.4628 27.3365 30.7475 27.225 31.0125C27.1134 31.2776 26.9501 31.5177 26.7445 31.7188C26.5389 31.9199 26.2952 32.0779 26.0278 32.1835C25.7603 32.2892 25.4744 32.3403 25.1869 32.3339C24.6201 32.3251 24.0796 32.0937 23.6819 31.6898C23.2843 31.2859 23.0614 30.7418 23.0614 30.1749C23.0614 29.6081 23.2843 29.064 23.6819 28.6601C24.0796 28.2562 24.6201 28.0253 25.1869 28.0164ZM30.9994 18.7415C24.6678 18.7415 19.5656 23.6757 19.5656 30.1747C19.5656 33.2961 20.7458 36.0547 22.6685 38.0788L21.9863 41.1374C21.7613 42.1439 22.4594 42.8209 23.3645 42.3171L26.3508 40.651C27.818 41.2863 29.4005 41.6124 30.9994 41.6089C37.333 41.6089 42.432 36.6778 42.432 30.1762C42.432 23.6768 37.333 18.7425 30.9994 18.7425V18.7415Z" fill="white"/>
</g>
<defs>
<clipPath id="clip0_1_808">
<rect width="42" height="42" fill="white" transform="translate(10 10)"/>
</clipPath>
</defs>
</svg>
