<svg width="24" height="24" viewBox="0 0 24 24" fill="none" xmlns="http://www.w3.org/2000/svg">
<path d="M22.8 8H22.376C22.1284 4.4368 18.6212 1.6 14.3332 1.6H13.9264C13.9738 1.4719 13.9987 1.33658 14 1.2C14 0.88174 13.8736 0.576515 13.6485 0.351472C13.4235 0.126428 13.1183 0 12.8 0C12.4817 0 12.1765 0.126428 11.9515 0.351472C11.7264 0.576515 11.6 0.88174 11.6 1.2C11.6013 1.33658 11.6262 1.4719 11.6736 1.6H11.2668C6.9788 1.6 3.4716 4.4368 3.224 8H2.8C2.48174 8 2.17652 8.12643 1.95147 8.35147C1.72643 8.57652 1.6 8.88174 1.6 9.2C1.6 9.51826 1.72643 9.82348 1.95147 10.0485C2.17652 10.2736 2.48174 10.4 2.8 10.4H7.24C7.21591 10.4873 7.20314 10.5774 7.202 10.668V12C7.26492 13.108 6.98126 14.2081 6.3904 15.1476C6.27291 15.3709 6.15757 15.5953 6.0444 15.8208C5.74591 16.4103 5.51768 17.0328 5.3644 17.6756C5.14108 17.556 4.88588 17.5095 4.63474 17.5426C4.38359 17.5757 4.14914 17.6867 3.9644 17.86C2.2212 19.5232 1.1924 20.096 0.734001 20.29C0.516387 20.3808 0.330549 20.5341 0.199922 20.7304C0.0692958 20.9268 -0.000269134 21.1574 7.82495e-07 21.3932V22.8C7.82495e-07 23.1183 0.126429 23.4235 0.351473 23.6485C0.576516 23.8736 0.881741 24 1.2 24H6.92C7.19246 24 7.45681 23.9074 7.6696 23.7372L8.752 22.8708C8.87664 22.7721 8.9802 22.6493 9.05653 22.5099C9.13287 22.3704 9.18042 22.217 9.19639 22.0588C9.21235 21.9006 9.1964 21.7408 9.14948 21.5889C9.10255 21.437 9.0256 21.296 8.9232 21.1744C9.78677 20.2467 10.7997 19.4704 11.92 18.8776C12.151 18.7623 12.357 18.6028 12.5264 18.408C13.5926 17.17 14.7926 16.0539 16.1044 15.08C16.5198 14.7797 16.8025 14.3298 16.8928 13.8252C17.2956 11.7052 18.2548 10.674 18.5496 10.3988H22.8C23.1183 10.3988 23.4235 10.2724 23.6485 10.0473C23.8736 9.82228 24 9.51706 24 9.1988C24 8.88054 23.8736 8.57532 23.6485 8.35027C23.4235 8.12523 23.1183 7.9988 22.8 7.9988V8ZM12.4 1.2C12.4 1.12089 12.4235 1.04355 12.4674 0.977772C12.5114 0.911992 12.5738 0.860723 12.6469 0.830448C12.72 0.800173 12.8004 0.792252 12.878 0.807686C12.9556 0.82312 13.0269 0.861216 13.0828 0.917157C13.1388 0.973098 13.1769 1.04437 13.1923 1.12196C13.2078 1.19956 13.1998 1.27998 13.1696 1.35307C13.1393 1.42616 13.088 1.48864 13.0222 1.53259C12.9565 1.57654 12.8791 1.6 12.8 1.6C12.6939 1.6 12.5922 1.55786 12.5172 1.48284C12.4421 1.40783 12.4 1.30609 12.4 1.2ZM11.2668 2.4H14.3332C18.1768 2.4 21.3244 4.88 21.5756 8H4.0244C4.2756 4.88 7.4232 2.4 11.2668 2.4ZM8.252 22.2456L7.1692 23.1124C7.09845 23.169 7.01059 23.1999 6.92 23.2H1.2C1.09391 23.2 0.992173 23.1579 0.917158 23.0828C0.842144 23.0078 0.800001 22.9061 0.800001 22.8V21.3932C0.799691 21.3151 0.822503 21.2386 0.865565 21.1734C0.908628 21.1082 0.970015 21.0572 1.042 21.0268C1.6632 20.7644 2.7696 20.1028 4.5128 18.4396C4.58882 18.3672 4.68984 18.327 4.7948 18.3272C4.84673 18.327 4.89819 18.337 4.94624 18.3567C4.99428 18.3764 5.03797 18.4054 5.0748 18.442L8.2844 21.6512C8.3241 21.691 8.35497 21.7387 8.37499 21.7912C8.39502 21.8437 8.40375 21.8999 8.40062 21.956C8.39748 22.0121 8.38256 22.067 8.35681 22.1169C8.33107 22.1669 8.29508 22.2109 8.2512 22.246L8.252 22.2456ZM16.1072 13.6776C16.0542 13.9805 15.8857 14.2509 15.6372 14.432C14.2753 15.4405 13.0294 16.5969 11.9224 17.88C11.8218 17.9959 11.6995 18.091 11.5624 18.16C10.3692 18.7904 9.28923 19.615 8.3668 20.6L6.0564 18.2896C6.18165 17.5542 6.41894 16.8423 6.76 16.1788C6.8824 15.9336 6.9956 15.7164 7.0996 15.5176C7.75045 14.4639 8.06455 13.2368 8 12V10.668C8.00011 10.597 8.02838 10.5288 8.07861 10.4786C8.12885 10.4284 8.19696 10.4001 8.268 10.4C8.45283 10.4003 8.63207 10.4633 8.7764 10.5788C8.91867 10.6921 9.01629 10.8521 9.052 11.0304C9.14474 11.4812 9.1943 11.9398 9.2 12.4C9.18696 12.9656 9.13618 13.5296 9.048 14.0884C9.01539 14.3265 9.03415 14.5689 9.10304 14.7992C9.17193 15.0295 9.28934 15.2423 9.44737 15.4234C9.6054 15.6046 9.80039 15.7497 10.0192 15.8492C10.238 15.9486 10.4756 16.0001 10.716 16C11.1244 15.9998 11.519 15.8523 11.8276 15.5848L14.3596 13.3648C14.5982 13.1568 14.7832 12.8945 14.8992 12.6C15.3716 11.426 15.9548 10.6116 16.4712 10.4H17.48C16.7743 11.3712 16.3043 12.4934 16.1072 13.6776ZM14.3756 10.4H15.2336C14.7815 10.9783 14.4181 11.6209 14.1556 12.3064C14.0865 12.4826 13.9756 12.6394 13.8324 12.7632L12.966 13.5232C13.0524 13.1904 13.1312 12.8432 13.1944 12.4664C13.3317 11.6597 13.7502 10.9277 14.3756 10.4ZM12.4056 12.3336C12.2905 13.1091 12.0722 13.8657 11.7564 14.5832L11.3024 14.9832C11.1218 15.132 10.891 15.206 10.6575 15.1899C10.424 15.1737 10.2056 15.0687 10.0472 14.8964C9.9646 14.8021 9.90333 14.691 9.86758 14.5708C9.83182 14.4506 9.82241 14.3242 9.84 14.2C9.93385 13.6043 9.9873 13.0029 10 12.4C9.99406 11.887 9.93928 11.3758 9.8364 10.8732C9.80194 10.7066 9.74047 10.5468 9.6544 10.4H13.276C12.8255 10.9596 12.5259 11.6253 12.4056 12.3336ZM22.8 9.6H2.8C2.69391 9.6 2.59217 9.55786 2.51716 9.48284C2.44214 9.40783 2.4 9.30609 2.4 9.2C2.4 9.09391 2.44214 8.99217 2.51716 8.91716C2.59217 8.84214 2.69391 8.8 2.8 8.8H22.8C22.9061 8.8 23.0078 8.84214 23.0828 8.91716C23.1579 8.99217 23.2 9.09391 23.2 9.2C23.2 9.30609 23.1579 9.40783 23.0828 9.48284C23.0078 9.55786 22.9061 9.6 22.8 9.6Z" fill="#041614"/>
<path d="M11.1964 3.20001C8.54199 3.22281 6.20399 4.52241 5.24039 6.51041C5.19409 6.60589 5.18761 6.71585 5.22237 6.81611C5.25714 6.91637 5.33032 6.99871 5.42579 7.04501C5.52127 7.09132 5.63123 7.0978 5.73149 7.06303C5.83175 7.02826 5.91409 6.95509 5.96039 6.85961C6.78039 5.16921 8.88759 4.01961 11.2044 4.00001C11.3103 3.99885 11.4114 3.95576 11.4855 3.88018C11.5597 3.80459 11.6008 3.70269 11.6 3.59681C11.5979 3.49105 11.5545 3.39031 11.4791 3.31615C11.4036 3.24199 11.3022 3.20031 11.1964 3.20001Z" fill="#041614"/>
</svg>
