<svg width="25" height="24" viewBox="0 0 25 24" fill="none" xmlns="http://www.w3.org/2000/svg">
<g clip-path="url(#clip0_2_38)">
<path d="M14.4413 18.228H15.8353V20.319H14.4413V18.228ZM19.26 18.228H20.654V20.319H19.26V18.228ZM18.0907 10.812V8.72198H16.1587V9.73998L16.8793 10.813L18.0907 10.812Z" fill="#115779"/>
<path d="M22.868 22.112V17.703H23.3114L23.7234 17.092L18.842 9.77H18.236V11.039H16.816L15.97 9.77H13.626L8.75002 17.084L9.16202 17.702H9.81468V22.111H8.54068C6.63535 19.377 6.12869 13.176 6.30669 8.56299L6.33802 8.469H6.35335C7.18669 8.469 7.92535 9.075 8.38535 10.009L8.39002 10.019C8.73668 10.722 8.94535 11.607 8.94535 12.564C8.94535 13.224 8.84669 13.849 8.66935 14.408L8.67669 14.382C9.04874 14.2391 9.3946 13.9725 9.68869 13.602L9.68469 13.607C9.99088 13.2072 10.2363 12.7135 10.4043 12.1592C10.5724 11.6049 10.6591 11.0029 10.6587 10.394C10.6587 9.439 10.4494 8.558 10.096 7.848L10.1014 7.859C9.79819 7.22484 9.36944 6.75022 8.87608 6.50264C8.38272 6.25507 7.84988 6.24714 7.35335 6.48L7.37069 6.473C7.54735 6.308 7.75069 6.162 7.96468 6.051L7.98602 6.041C8.27687 5.87985 8.58463 5.79822 8.89468 5.8C9.61668 5.8 10.2707 6.233 10.7487 6.934L10.748 6.933C10.8189 6.37211 10.7976 5.79378 10.686 5.248L10.6907 5.273C10.5801 4.78661 10.4047 4.33908 10.1752 3.95764C9.94563 3.57621 9.6667 3.26887 9.3554 3.05434C9.0441 2.83982 8.70695 2.72259 8.36448 2.70981C8.022 2.69703 7.68138 2.78896 7.36335 2.98L7.38002 2.971C7.21915 3.05417 7.06271 3.15546 6.91202 3.274L6.93135 3.26C6.88596 2.94725 6.8187 2.64257 6.73069 2.351L6.73869 2.38C6.15202 0.406996 4.80669 -0.525004 3.73135 0.289996C3.44095 0.512687 3.19143 0.838898 3.00469 1.24L3.00069 1.25C3.37915 1.3057 3.74372 1.49319 4.06536 1.79752C4.387 2.10186 4.65683 2.51464 4.85335 3.003L4.85935 3.019C4.60989 2.83166 4.34586 2.69159 4.07335 2.602L4.05069 2.596C2.39735 2.063 0.824019 3.41 0.542019 5.611C0.46667 6.21478 0.491628 6.83711 0.614686 7.423L0.610019 7.397C0.979723 6.76742 1.45821 6.30332 1.99266 6.05591C2.52712 5.80851 3.09675 5.78743 3.63869 5.995L3.61735 5.988C3.89002 6.074 4.13135 6.198 4.35735 6.361L4.33802 6.348C3.79714 6.23991 3.24706 6.37629 2.75813 6.73969C2.26921 7.10309 1.86366 7.67699 1.59335 8.38799L1.58602 8.408C1.3038 9.12115 1.15566 9.93567 1.15735 10.765C1.15735 12.333 1.67535 13.719 2.46935 14.559L2.47935 14.569C2.82101 14.9131 3.21082 15.1348 3.61869 15.217L3.63269 15.219C3.33855 14.488 3.18382 13.6498 3.18535 12.796C3.18535 11.923 3.34335 11.105 3.61935 10.404L3.61135 10.426C3.81639 9.89064 4.09753 9.42959 4.43478 9.07563C4.77204 8.72167 5.15713 8.48348 5.56269 8.378L5.57935 8.37399C4.63469 14.827 4.37335 19.323 5.15269 22.11H2.88202V23.99H24.314V22.11H22.868V22.112ZM17.568 17.805H22.3454V22.112H17.568V17.805ZM10.3274 16.951L13.6274 12.001L16.9274 16.951V22.112H13.304V18.228H11.4714V22.112H10.3234V16.951H10.3274Z" fill="#115779"/>
</g>
<defs>
<clipPath id="clip0_2_38">
<rect width="24" height="24" fill="white" transform="translate(0.5)"/>
</clipPath>
</defs>
</svg>
