<svg width="68" height="68" viewBox="0 0 68 68" fill="none" xmlns="http://www.w3.org/2000/svg">
<g clip-path="url(#clip0_1_843)">
<path d="M66.0076 53.2578H61.1454L59.2396 48.1751C59.0973 47.7955 58.8425 47.4683 58.5093 47.2374C58.1761 47.0064 57.7803 46.8827 57.3749 46.8827C56.9695 46.8827 56.5737 47.0064 56.2405 47.2374C55.9073 47.4683 55.6525 47.7955 55.5102 48.1751L53.6044 53.2578H48.875C48.0449 53.2578 47.3025 53.7717 47.0103 54.5487C46.7181 55.3256 46.9386 56.2022 47.5628 56.7494L51.1328 59.8731L49.13 65.3197C48.991 65.697 48.9696 66.1076 49.0684 66.4974C49.1672 66.8872 49.3817 67.238 49.6837 67.5036C49.9856 67.7692 50.3609 67.9371 50.7601 67.9854C51.1593 68.0337 51.5638 67.96 51.9203 67.774L57.3749 64.9332L62.8295 67.774C63.186 67.9601 63.5905 68.0338 63.9897 67.9854C64.389 67.9371 64.7642 67.7689 65.066 67.5031C65.3679 67.2376 65.5823 66.8869 65.6812 66.4972C65.78 66.1075 65.7586 65.697 65.6198 65.3197L63.6237 59.8917L67.2985 56.768C67.6093 56.5039 67.8315 56.1507 67.9352 55.7563C68.0389 55.3618 68.019 54.9451 67.8782 54.5623C67.7374 54.1795 67.4826 53.8492 67.148 53.6159C66.8135 53.3826 66.4155 53.2576 66.0076 53.2578ZM42.5 53.2578H37.7706L35.8648 48.1751C35.7225 47.7955 35.4677 47.4683 35.1345 47.2374C34.8013 47.0064 34.4055 46.8827 34.0001 46.8827C33.5947 46.8827 33.199 47.0064 32.8657 47.2374C32.5325 47.4683 32.2778 47.7955 32.1355 48.1751L30.2296 53.2578H25.5002C24.6701 53.2578 23.9277 53.7717 23.6355 54.5487C23.3434 55.3256 23.5638 56.2022 24.188 56.7494L27.758 59.8731L25.7552 65.3197C25.6163 65.697 25.5948 66.1076 25.6936 66.4974C25.7924 66.8872 26.0069 67.238 26.3089 67.5036C26.6108 67.7692 26.9861 67.9371 27.3853 67.9854C27.7845 68.0337 28.189 67.96 28.5456 67.774L34.0001 64.9332L39.4547 67.774C39.8112 67.9601 40.2157 68.0338 40.615 67.9854C41.0142 67.9371 41.3894 67.7689 41.6912 67.5031C41.9931 67.2376 42.2076 66.8869 42.3064 66.4972C42.4053 66.1075 42.3839 65.697 42.245 65.3197L40.2422 59.8731L43.8122 56.7494C44.4364 56.2022 44.6569 55.3256 44.3647 54.5487C44.0725 53.7717 43.3301 53.2578 42.5 53.2578ZM19.1253 53.2578H14.3959L12.49 48.1751C12.3477 47.7955 12.0929 47.4683 11.7597 47.2374C11.4265 47.0064 11.0308 46.8827 10.6254 46.8827C10.2199 46.8827 9.82418 47.0064 9.49097 47.2374C9.15777 47.4683 8.90298 47.7955 8.76068 48.1751L6.85484 53.2578H1.99262C1.15724 53.2578 0.410843 53.7784 0.122642 54.562C-0.165558 55.3456 0.0655335 56.2261 0.701699 56.768L4.37659 59.8917L2.38043 65.3197C2.24149 65.697 2.22002 66.1076 2.31885 66.4974C2.41767 66.8872 2.63216 67.238 2.93411 67.5036C3.23606 67.7692 3.61132 67.9371 4.01054 67.9854C4.40976 68.0337 4.81425 67.96 5.1708 67.774L10.6254 64.9332C16.4547 67.9693 16.3374 67.9998 17.0003 67.9998C17.4744 67.9998 17.9446 67.8311 18.3164 67.5031C18.6183 67.2376 18.8328 66.8869 18.9316 66.4972C19.0305 66.1075 19.0091 65.697 18.8703 65.3197L16.8675 59.8731L20.4374 56.7494C21.0617 56.2022 21.2821 55.3256 20.9899 54.5487C20.6978 53.7717 19.9553 53.2578 19.1253 53.2578ZM62.0233 0.000488281H5.97696C2.68191 0.000488281 0.000456025 2.68195 0.000456025 5.97699V32.1408C0.000456025 35.4358 2.68191 38.1173 5.97696 38.1173H27.8629L32.591 42.8467C32.9801 43.2358 33.4901 43.4297 34.0001 43.4297C34.5101 43.4297 35.0201 43.2358 35.4093 42.8467L40.1373 38.1173H62.0233C65.3183 38.1173 67.9998 35.4358 67.9998 32.1408V5.97699C67.9998 2.68195 65.3183 0.000488281 62.0233 0.000488281ZM26.5627 29.6174H11.6878C10.5876 29.6174 9.69567 28.7254 9.69567 27.6252C9.69567 26.525 10.5876 25.633 11.6878 25.633H26.5627C27.6629 25.633 28.5549 26.525 28.5549 27.6252C28.5549 28.7254 27.6629 29.6174 26.5627 29.6174ZM56.3124 21.1175H11.6878C10.5876 21.1175 9.69567 20.2255 9.69567 19.1253C9.69567 18.0251 10.5876 17.1331 11.6878 17.1331H56.3124C57.4126 17.1331 58.3046 18.0251 58.3046 19.1253C58.3046 20.2255 57.4126 21.1175 56.3124 21.1175ZM56.3124 12.6175H11.6878C10.5876 12.6175 9.69567 11.7256 9.69567 10.6254C9.69567 9.52517 10.5876 8.63321 11.6878 8.63321H56.3124C57.4126 8.63321 58.3046 9.52517 58.3046 10.6254C58.3046 11.7256 57.4126 12.6175 56.3124 12.6175Z" fill="#115779"/>
</g>
<defs>
<clipPath id="clip0_1_843">
<rect width="68" height="68" fill="white"/>
</clipPath>
</defs>
</svg>
