<svg width="68" height="68" viewBox="0 0 68 68" fill="none" xmlns="http://www.w3.org/2000/svg">
<g clip-path="url(#clip0_1_851)">
<path d="M62.5206 20.9917L40.6076 0.879219C39.8878 0.303477 39.0279 0 38.1214 0C37.2149 0 36.3531 0.303477 35.6334 0.879219L13.7226 20.9316C12.0054 22.3031 11.7206 24.8079 13.1 26.5302C14.4671 28.2422 16.975 28.5337 18.6986 27.1529L38.1214 9.22529L57.5484 27.2149C59.1518 28.5061 61.8395 28.2276 63.1431 26.5884C64.5205 24.8733 64.2396 22.3646 62.5206 20.9917ZM58.0415 0.00584375H50.0734C48.9724 0.00584375 48.0814 0.89675 48.0814 1.9979V2.31213L60.0334 13.3358V1.9979C60.0335 0.89675 59.1426 0.00584375 58.0415 0.00584375ZM6.24916 32.0109H1.99956C0.898546 32.0109 0.00750732 32.9018 0.00750732 34.0029V66.0079C0.00750732 67.109 0.898413 68 1.99956 68H6.24916C9.5445 68 12.2252 65.3193 12.2252 62.024V37.9869C12.2252 34.6916 9.54463 32.0109 6.24916 32.0109ZM66.3683 36.7519C64.7347 35.5567 62.4639 35.7958 61.1093 37.2698L50.3524 50.6561C49.5954 51.4529 48.1612 51.931 47.4043 51.931H30.1533C29.0376 51.931 28.1612 51.0547 28.1612 49.939C28.1612 48.8232 29.0375 47.9469 30.1533 47.9469H46.0894C48.2807 47.9469 50.0734 46.1541 50.0734 43.9629C50.0734 41.7717 48.2806 39.979 46.0894 39.979H35.6513C34.6585 39.979 34.1634 39.3493 33.3803 38.6641C32.1852 37.5886 30.8306 36.7917 29.4362 36.2339C25.119 34.471 20.1304 35.0045 16.2093 37.7314V64.0159H46.0896C49.8346 64.0159 53.4203 62.2231 55.6514 59.235L67.205 42.3693C68.5196 40.6163 68.161 38.0666 66.3683 36.7519Z" fill="#115779"/>
<path d="M38.1164 14.6508L20.1921 31.1963V31.7368C21.5071 31.4339 22.8475 31.2288 24.2189 31.2288C26.5398 31.2288 28.8001 31.6724 30.94 32.5458C31.3619 32.7146 31.7403 32.9534 32.1441 33.1521V30.0189C32.1441 28.9179 33.035 28.0268 34.1361 28.0268H42.1042C43.2052 28.0268 44.0963 28.9177 44.0963 30.0189V35.9949H46.0885C49.2846 35.9949 52.047 37.8858 53.3153 40.6072L56.0485 37.206V31.2437L38.1164 14.6508Z" fill="#115779"/>
<path d="M36.1282 32.0109V35.7785L36.3675 35.995H40.1123V32.0109H36.1282Z" fill="#115779"/>
</g>
<defs>
<clipPath id="clip0_1_851">
<rect width="68" height="68" fill="white"/>
</clipPath>
</defs>
</svg>
