<svg width="62" height="62" viewBox="0 0 62 62" fill="none" xmlns="http://www.w3.org/2000/svg">
<rect width="62" height="62" rx="31" fill="#E03126"/>
<g clip-path="url(#clip0_1_798)">
<path d="M30.755 27.3775H30.7725L39.3475 24.455C39.3825 24.2975 39.3825 24.14 39.3825 24C39.3863 23.8511 39.3626 23.7028 39.3125 23.5625C39.1725 23.16 38.91 22.7225 38.5425 22.4075V18.575C38.5425 15.74 37.5275 14.62 36.4775 13.9725C35.935 12.3275 33.6775 10 29.25 10C24 10 20.045 15.1975 20.045 18.575C20.045 19.975 19.9925 21.0775 19.94 21.9175C19.94 22.0925 19.9225 22.25 19.9225 22.39C19.5375 22.74 19.275 23.2125 19.1525 23.6675C19.135 23.7725 19.1175 23.8775 19.1175 24C19.1175 25.365 19.8875 27.3425 19.9925 27.57C20.0975 27.8675 20.325 28.1125 20.6225 28.2525C20.64 28.3225 20.6575 28.4275 20.6575 28.6375C20.6575 30.4925 22.25 32.2425 23.125 33.0825C23.0375 35.0075 22.495 36.3375 21.725 36.67L14.865 38.945C13.9118 39.2622 13.0542 39.8151 12.372 40.5525C11.6897 41.2898 11.2049 42.1876 10.9625 43.1625L10.035 46.8725C9.98853 47.066 9.98645 47.2675 10.0289 47.462C10.0713 47.6564 10.1572 47.8387 10.2801 47.9952C10.403 48.1518 10.5597 48.2785 10.7385 48.3659C10.9172 48.4533 11.1135 48.4992 11.3125 48.5H30.93C30.405 47.835 29.915 47.1 29.46 46.3125C28.1814 44.0735 27.506 41.5409 27.5 38.9625V31.945C27.5 29.88 28.8125 28.06 30.755 27.3775Z" fill="white"/>
<path d="M51.1093 30.6955L41.9218 27.57C41.6485 27.4754 41.3515 27.4754 41.0783 27.57L31.8908 30.6955C31.6308 30.7831 31.405 30.9502 31.2451 31.1732C31.0853 31.3961 30.9996 31.6637 31 31.938V38.9695C31 47.5515 40.5795 51.7235 40.9873 51.8967C41.1495 51.9652 41.3239 52.0004 41.5 52.0004C41.6761 52.0004 41.8505 51.9652 42.0128 51.8967C42.4205 51.7217 52 47.5515 52 38.9695V31.938C52.0004 31.6637 51.9147 31.3961 51.7549 31.1732C51.595 30.9502 51.3692 30.7831 51.1093 30.6955ZM47.2505 37.3315L42.438 43.4565C42.2922 43.6422 42.1104 43.7965 41.9034 43.91C41.6964 44.0236 41.4686 44.0941 41.2337 44.1173C40.9987 44.1405 40.7615 44.116 40.5363 44.0451C40.3111 43.9743 40.1026 43.8586 39.9233 43.705L36.8608 41.08C36.679 40.9328 36.5286 40.7506 36.4185 40.5443C36.3083 40.3379 36.2407 40.1116 36.2195 39.8787C36.1983 39.6457 36.224 39.4109 36.2951 39.1881C36.3663 38.9653 36.4813 38.7589 36.6335 38.5814C36.7857 38.4038 36.972 38.2585 37.1813 38.1541C37.3906 38.0497 37.6187 37.9883 37.8522 37.9736C38.0856 37.9589 38.3196 37.9911 38.5404 38.0684C38.7612 38.1457 38.9642 38.2664 39.1375 38.4235L40.814 39.8602L44.4978 35.172C44.6395 34.991 44.8156 34.8398 45.016 34.727C45.2163 34.6142 45.4369 34.5421 45.6652 34.5148C45.8935 34.4875 46.1249 34.5055 46.3462 34.5678C46.5675 34.6301 46.7743 34.7356 46.9548 34.878C47.1358 35.0193 47.2871 35.195 47.4 35.395C47.5129 35.595 47.5851 35.8153 47.6126 36.0433C47.6401 36.2713 47.6222 36.5024 47.5601 36.7235C47.498 36.9446 47.3927 37.1512 47.2505 37.3315Z" fill="white"/>
</g>
<defs>
<clipPath id="clip0_1_798">
<rect width="42" height="42" fill="white" transform="translate(10 10)"/>
</clipPath>
</defs>
</svg>
