<svg width="97" height="27" viewBox="0 0 97 27" fill="none" xmlns="http://www.w3.org/2000/svg">
<path d="M36.5581 0.953503C36.7141 0.83241 36.9213 0.851608 37.1074 0.847177C38.5999 0.853577 40.0924 0.827487 41.5849 0.848654C41.4781 1.0805 41.3358 1.29266 41.1956 1.50532C39.6563 3.89076 38.118 6.2767 36.5837 8.6651C36.5079 8.67297 36.434 8.68232 36.3597 8.68922C35.0981 8.76896 33.8384 8.88169 32.5753 8.9383C32.1495 8.95799 31.7252 8.99933 31.2989 9.01263C29.7202 9.04561 28.1426 9.21592 26.5979 9.54475C26.2051 9.63335 25.8049 9.70227 25.4293 9.85339L25.4027 10.1438C27.4844 10.3102 29.5844 10.1286 31.6277 9.71359C32.6826 9.50931 33.7458 9.35375 34.8032 9.16276C35.3151 9.08351 35.8217 8.96143 36.3395 8.92402C36.3366 8.95503 36.3302 9.01607 36.3272 9.04708C35.8374 9.84945 35.2974 10.6228 34.8096 11.4276L34.8406 11.4488C34.7362 11.4488 34.6319 11.4517 34.528 11.4507C33.5386 11.3469 32.5689 11.114 31.5918 10.9344C29.5725 10.481 27.4962 10.324 25.4298 10.3624C25.4071 10.447 25.3845 10.5322 25.3623 10.6174C25.8354 10.8364 26.3458 10.9531 26.8489 11.082C27.826 11.3296 28.8243 11.4882 29.828 11.5782C31.2605 11.6821 32.6993 11.6796 34.1313 11.7993C34.2371 11.8086 34.3424 11.8125 34.4498 11.818C34.4596 11.8692 34.4586 11.9199 34.4463 11.9706C34.0697 12.5809 33.6626 13.1716 33.292 13.7855C32.5723 13.5029 31.8595 13.2012 31.1674 12.8561C30.5403 12.5568 29.9151 12.2492 29.259 12.0188C27.9614 11.5723 26.6589 11.114 25.3028 10.8807C25.2786 10.9747 25.255 11.0692 25.2314 11.1638C26.6161 12.0129 28.0938 12.7203 29.6488 13.1972C30.2794 13.3794 30.9198 13.5275 31.5509 13.7087C32.0166 13.8446 32.4936 13.944 32.9489 14.1128C32.9745 14.1237 33.0252 14.1448 33.0508 14.1557C32.6496 14.7414 32.2804 15.3484 31.8832 15.9371C31.2122 15.4833 30.5885 14.9649 29.9663 14.4471C29.636 14.1729 29.323 13.8766 28.9715 13.6289C27.7335 12.7513 26.4276 11.9612 25.0404 11.3415C24.9902 11.4212 24.9395 11.5005 24.8898 11.5802C26.0333 12.7961 27.3422 13.8662 28.8007 14.6829C29.7665 15.182 30.7037 15.7333 31.637 16.2896C31.3757 16.7154 31.1162 17.1825 31.1335 17.6979C31.1556 18.1778 31.4958 18.5795 31.8881 18.8242C32.2819 19.0983 32.7387 19.2559 33.1753 19.4459C32.5251 19.4345 31.8753 19.4129 31.226 19.3819C30.7185 18.7311 30.1711 18.1124 29.6794 17.4498C29.0852 16.6789 28.5349 15.8756 27.9614 15.0895C27.417 14.3604 26.7943 13.6949 26.148 13.0565C25.6621 12.5864 25.1974 12.0882 24.6348 11.7077C24.5811 11.7845 24.525 11.8603 24.4827 11.9445C24.5452 12.199 24.7273 12.4013 24.8514 12.6272C25.6818 14.0262 26.6929 15.3257 27.9097 16.4111C28.5762 16.9718 29.1566 17.6236 29.7788 18.2315C30.1445 18.615 30.5561 18.9576 30.8755 19.3829C29.8069 19.3391 28.7382 19.408 27.671 19.4523C27.6331 19.3696 27.5952 19.2879 27.5587 19.2057C27.2329 18.4077 26.9321 17.5989 26.6633 16.7803C26.3276 15.8136 25.9196 14.8714 25.4317 13.9716C25.0763 13.307 24.6564 12.6799 24.2439 12.0498C24.1391 12.0715 24.0347 12.0936 23.9309 12.1158C23.9747 12.5248 24.0869 12.9211 24.1952 13.3169C24.5309 14.5096 24.9867 15.6723 25.5991 16.7513C25.9097 17.2878 26.303 17.7742 26.5718 18.3358C26.7475 18.7085 27.0045 19.0437 27.127 19.4409C27.3038 19.4887 27.4888 19.4705 27.6695 19.4862C27.3712 19.5502 27.0621 19.4734 26.7623 19.531C26.1603 19.5694 25.5637 19.6615 24.9631 19.7166C24.8991 19.7186 24.8361 19.7201 24.7726 19.7215C24.6156 18.577 24.6993 17.4178 24.5609 16.2718C24.4571 15.3248 24.2612 14.3905 24.0283 13.4675C23.921 13.0589 23.798 12.6548 23.7015 12.2433C23.57 12.2413 23.4386 12.2388 23.3077 12.2369C23.2289 13.7943 23.1984 15.3789 23.5656 16.9054C23.6887 17.4488 23.9102 17.9637 24.0288 18.5081C24.1105 18.8862 24.2247 19.2593 24.2631 19.6457C24.2646 19.694 24.2685 19.7904 24.2705 19.8387C23.7607 19.9006 23.2554 19.9953 22.7578 20.1222C22.4354 20.202 22.1213 20.3117 21.795 20.3743C21.9973 19.2913 22.2552 18.2187 22.5486 17.1569C22.7711 16.4018 22.8696 15.6181 22.9552 14.8384C23.0438 13.972 23.0803 13.1013 23.0773 12.231C22.9636 12.2359 22.8509 12.2413 22.7376 12.2462C22.3537 13.1997 22.0455 14.1847 21.8437 15.1933C21.5469 16.5672 21.5818 17.979 21.4785 19.3735C21.4465 19.7265 21.4494 20.0838 21.3849 20.4338L21.3613 20.5219C20.6284 20.7577 19.8846 21.0403 19.2919 21.5468C18.9705 21.8146 18.7563 22.2581 18.8715 22.6775C19.0123 23.1023 19.3431 23.4311 19.695 23.6915C20.3719 24.1838 21.1477 24.52 21.9343 24.7947C23.0192 25.1609 24.1524 25.3799 25.2944 25.4597C26.2986 25.5404 27.3072 25.5783 28.3148 25.5483C27.0611 25.819 25.7832 25.9775 24.5019 26.0312C22.5836 26.108 20.6254 25.8126 18.874 25.0039C17.9338 24.5338 17.0433 23.9696 16.1863 23.3627C15.4425 22.8237 14.7041 22.2778 13.9529 21.7501C13.1033 21.2121 12.2104 20.7454 11.3007 20.3176C9.69055 19.5783 7.98146 19.0757 6.25071 18.7085C4.21033 18.2827 2.13845 18.0351 0.0769043 17.7368C0.260514 17.7023 0.447569 17.693 0.634132 17.6989C4.44415 17.7594 8.27238 17.4724 12.0007 16.6597C12.2882 16.5938 12.5874 16.5637 12.8592 16.4417C13.4056 16.1896 13.9461 15.9248 14.4782 15.6432C14.6766 15.532 14.8725 15.4119 15.0905 15.3415C14.8769 15.5571 14.6047 15.6989 14.3694 15.8884C14.077 16.1197 13.7826 16.3496 13.4799 16.5682C12.8912 16.995 12.3211 17.4473 11.7383 17.882C11.4602 18.0956 11.1688 18.2935 10.9128 18.5347C11.3086 18.3314 11.6802 18.0858 12.0617 17.8579C13.4213 17.0398 14.7361 16.1478 16.1193 15.3686C17.1344 14.7803 18.1976 14.2679 19.1383 13.56C19.9569 12.9487 20.7529 12.3023 21.4893 11.5925C21.4371 11.5226 21.3859 11.4527 21.3342 11.3833C22.4994 10.6179 23.6532 9.83468 24.813 9.06136C24.9533 9.10517 25.1073 9.17901 25.2516 9.1032C26.6752 8.48099 28.0279 7.69635 29.2708 6.76353C30.7948 5.59493 32.2976 4.39778 33.8507 3.26708C34.4114 2.82405 35.0099 2.43075 35.5598 1.97443C34.9927 2.25895 34.4626 2.61189 33.926 2.94909C33.8044 3.02194 33.6661 3.0564 33.5317 3.09381C33.641 2.99093 33.7596 2.89838 33.8837 2.81372C34.7766 2.19594 35.6681 1.5762 36.5581 0.953503ZM36.3233 5.4443C35.3452 5.7682 34.369 6.09949 33.3855 6.40665C32.434 6.70446 31.484 7.01015 30.5147 7.24643C28.6688 7.69881 26.9016 8.43768 25.2343 9.3444C25.255 9.44187 25.2752 9.53933 25.2964 9.63729C25.9466 9.57231 26.5831 9.41282 27.2181 9.2622C28.8667 8.84821 30.467 8.23832 31.9698 7.44432C32.72 7.10466 33.4845 6.79848 34.244 6.48098C35.1975 6.0926 36.1401 5.67763 37.0941 5.29023C37.2605 5.21688 37.4569 5.17996 37.5721 5.0254C37.1591 5.17406 36.7436 5.31632 36.3233 5.4443ZM21.5917 11.8322C20.6973 12.5544 19.7965 13.2834 19.0448 14.1581C18.4885 14.7449 18.0317 15.4143 17.5518 16.0626C16.9739 16.8891 16.3315 17.6669 15.7329 18.4776C15.1137 19.2977 14.4595 20.0912 13.8555 20.9226C14.2217 20.6347 14.4801 20.2418 14.804 19.9115C15.5217 19.1535 16.2695 18.424 16.9837 17.662C17.698 16.9989 18.3773 16.2994 19.0802 15.624C19.4135 15.3307 19.6941 14.9856 19.9845 14.6514C20.491 14.0518 20.9665 13.4252 21.3992 12.77C21.5784 12.4928 21.7847 12.2324 21.9348 11.9371C21.8462 11.8539 21.7128 11.7225 21.5917 11.8322ZM22.1976 12.0331C21.8895 12.3609 21.6552 12.7493 21.3963 13.1155C20.8499 13.9627 20.3202 14.833 19.9742 15.784C19.4327 17.1874 18.8946 18.5923 18.3359 19.9888C17.9751 20.9271 17.5754 21.8505 17.2367 22.7971C17.4174 22.5451 17.5439 22.2625 17.6813 21.9864C18.014 21.3415 18.367 20.7075 18.7101 20.0681C19.2382 19.1077 19.7517 18.1394 20.3143 17.1987C21.2702 15.6137 22.0564 13.909 22.4925 12.1049C22.3936 12.0808 22.2956 12.0572 22.1976 12.0331ZM68.7276 14.8443C69.5182 14.8286 70.3092 14.835 71.1003 14.8345C70.9851 15.0363 70.8832 15.2672 70.6843 15.3991C69.9208 15.4183 69.1559 15.4094 68.3919 15.4001C68.4918 15.2081 68.609 15.026 68.7276 14.8443ZM72.8084 15.2499C73.1751 14.9881 73.623 14.8419 74.0744 14.8414C76.5194 14.8389 78.9649 14.8419 81.4104 14.8473C81.7068 14.8527 82.0602 14.9019 82.2217 15.1864C82.1153 15.3809 81.9957 15.5669 81.8746 15.752C82.1449 15.7574 82.4156 15.7599 82.6863 15.7663C82.5662 15.9804 82.4314 16.1862 82.2989 16.3924C82.0341 16.4023 81.7663 16.3713 81.5045 16.4161C81.2106 16.6499 81.1486 17.1663 80.7188 17.2199C79.7688 17.2593 78.8168 17.213 77.8667 17.2465C77.6516 17.2544 77.3769 17.3499 77.3695 17.6039C78.137 17.6994 78.9137 17.5694 79.6807 17.6777C79.8687 17.7092 80.0725 17.7299 80.23 17.8495C80.3457 17.9361 80.4323 18.0912 80.3846 18.2374C80.3157 18.4638 80.1739 18.6573 80.0592 18.8611C79.913 19.1003 79.7914 19.3671 79.5674 19.5458C79.3494 19.7146 79.0599 19.724 78.7966 19.7274C77.3366 19.725 75.877 19.7309 74.417 19.723C74.2177 19.7102 73.9597 19.7009 73.8475 19.5054C73.7402 19.2918 73.9351 19.1028 74.0316 18.928C74.1222 18.8055 74.1827 18.5948 74.3688 18.6026C75.148 18.6002 75.9278 18.5903 76.7075 18.6086C76.6149 18.7843 76.5298 18.964 76.4545 19.1476C76.706 19.1889 77.0141 19.2687 77.2273 19.0801C77.4119 18.8611 77.5817 18.609 77.6132 18.3166C77.2322 18.1995 76.8305 18.261 76.4397 18.2467C75.9474 18.2335 75.4399 18.3019 74.9634 18.1463C74.7616 18.0932 74.6267 17.8539 74.7075 17.657C74.8138 17.3888 74.9876 17.149 75.1958 16.9507C75.3907 16.7572 75.6821 16.7385 75.9415 16.7311C76.8842 16.7316 77.8269 16.7272 78.7695 16.7247C78.8158 16.6341 78.8621 16.5436 78.9073 16.453C78.2162 16.4102 77.5241 16.4372 76.832 16.4323C76.0405 16.4299 75.2484 16.4279 74.4564 16.4392C73.8234 17.466 73.1805 18.487 72.5568 19.5202C72.4923 19.6275 72.3998 19.753 72.2565 19.7289C71.4778 19.7117 70.6981 19.7555 69.9208 19.7033C69.9956 19.4966 70.1305 19.3203 70.2462 19.1353C70.8261 18.2202 71.4064 17.3051 71.9873 16.3905C71.7776 16.3875 71.5684 16.3846 71.3602 16.3777C71.4527 16.1576 71.5768 15.9534 71.7008 15.7496C71.9051 15.7525 72.1099 15.7545 72.3151 15.7481C72.4761 15.5792 72.6144 15.3848 72.8084 15.2499ZM74.83 15.751C76.3127 15.7535 77.7953 15.7619 79.2775 15.7565C79.3317 15.6546 79.3863 15.5522 79.44 15.4498C79.0245 15.3257 78.5884 15.3691 78.1616 15.3622C77.3075 15.3646 76.454 15.3582 75.6004 15.3651C75.2977 15.3681 75.0368 15.5453 74.83 15.751ZM46.1934 15.9514C46.5138 15.7742 46.8884 15.752 47.2478 15.751C48.4937 15.7471 49.7395 15.7505 50.9854 15.7555C51.2266 15.7545 51.4806 15.783 51.6893 15.915C51.8124 15.9937 51.9089 16.1547 51.8508 16.3019C51.7573 16.5544 51.6116 16.7833 51.5062 17.0309C51.3507 17.3833 51.0479 17.6531 50.6975 17.8042C50.7457 17.9578 50.8136 18.1296 50.7428 18.2876C50.6157 18.5588 50.439 18.803 50.279 19.055C50.1678 19.2347 50.026 19.4055 49.8281 19.4926C49.5318 19.6423 49.1927 19.6147 48.8717 19.6152C47.4112 19.6162 45.9507 19.6123 44.4902 19.6201C44.3401 19.6196 44.1722 19.6191 44.0526 19.5148C43.9748 19.4533 43.9472 19.3445 43.9792 19.2519C44.0565 18.9856 44.218 18.7557 44.373 18.5293C45.2261 18.5249 46.0792 18.5229 46.9322 18.5229C46.8633 18.6725 46.7703 18.8158 46.7462 18.9817C46.8289 19.089 46.9785 19.0821 47.1006 19.0959C47.3492 19.1121 47.6524 19.0703 47.7873 18.8315C47.9074 18.6228 48.0516 18.422 48.1259 18.1911C48.1245 18.0464 47.9674 17.9795 47.8459 17.9598C47.518 17.9184 47.1867 17.946 46.8579 17.9376C46.948 17.7589 47.0484 17.5852 47.1513 17.4134C47.5884 17.3612 48.0329 17.4144 48.469 17.3489C48.8436 17.2268 48.9977 16.8261 49.1892 16.518C49.0002 16.3324 48.7176 16.3821 48.4794 16.3988C48.2633 16.4771 48.1727 16.7163 48.0275 16.8773C47.1621 16.9029 46.2972 16.8876 45.4319 16.8847C45.6376 16.5421 45.8173 16.1399 46.1934 15.9514ZM64.6793 15.7486C66.7881 15.7688 68.8969 15.7373 71.0062 15.7673C70.9034 15.9917 70.766 16.197 70.6208 16.3954C70.4751 16.3929 70.3294 16.3954 70.1852 16.4023C69.9922 16.6026 69.8952 16.8714 69.7087 17.0757C69.5831 17.2199 69.3789 17.2278 69.2016 17.2352C68.3323 17.2406 67.4625 17.2283 66.5937 17.243C66.3535 17.2435 66.1 17.3696 66.0414 17.6191C66.767 17.6575 67.4935 17.6172 68.2191 17.6506C68.5199 17.662 68.8049 17.7791 69.0574 17.9376C69.0682 18.0932 69.0953 18.2615 69.0161 18.4048C68.8684 18.678 68.7045 18.9423 68.5445 19.2086C68.4451 19.3824 68.3107 19.5443 68.1246 19.628C67.8652 19.7604 67.5654 19.7171 67.2853 19.7235C66.3614 19.7314 65.4374 19.7196 64.5135 19.7353C64.3983 19.9504 64.2629 20.231 63.9867 20.2512C63.4325 20.266 62.8772 20.2566 62.3229 20.2566C62.3333 20.0858 62.3756 19.9179 62.4598 19.7683C62.413 19.6713 62.3377 19.5798 62.3343 19.4685C62.4317 19.2568 62.5828 19.0757 62.6966 18.8724C62.7729 18.7616 62.8314 18.5834 62.9978 18.6017C63.7367 18.6026 64.476 18.5879 65.2149 18.6125C65.1273 18.7941 65.0485 18.9812 65.0037 19.1791C65.2553 19.1865 65.5093 19.2125 65.7598 19.1741C65.8583 19.1663 65.9174 19.0762 65.9779 19.0088C66.1 18.8448 66.2127 18.6696 66.2846 18.4776C66.3151 18.3452 66.1709 18.2536 66.0542 18.2571C65.1583 18.199 64.2452 18.3501 63.3645 18.1222C63.3586 17.9859 63.3193 17.8333 63.4064 17.7136C63.56 17.4729 63.7131 17.2317 63.8716 16.9945C64.0227 16.7651 64.3225 16.7321 64.5745 16.7277C65.5368 16.7267 66.4992 16.7286 67.4615 16.7272C67.5049 16.6356 67.5487 16.5445 67.593 16.4535C66.4849 16.3974 65.3754 16.4569 64.2668 16.4205C64.3781 16.1818 64.5189 15.9578 64.6793 15.7486ZM37.1665 15.7658C39.866 15.7629 42.5655 15.7535 45.265 15.7697C45.1892 15.9745 45.0942 16.1719 44.9711 16.3526C44.7304 16.3826 44.4877 16.3762 44.2465 16.3821C43.9561 16.9019 43.6287 17.3986 43.3196 17.9071C43.0932 18.3275 42.7004 18.7454 42.1801 18.704C41.3142 18.7011 40.4483 18.7075 39.5825 18.6952C39.6523 18.5588 39.6976 18.3964 39.8217 18.2979C39.9708 18.2418 40.1451 18.2536 40.2795 18.1606C40.3961 18.0612 40.4631 17.9184 40.5428 17.7904C40.8141 17.3159 41.136 16.8714 41.3787 16.3806C40.9962 16.3728 40.6142 16.3732 40.2322 16.3821C39.8448 17.0624 39.4579 17.7437 39.0631 18.4205C38.9583 18.5943 38.8618 18.8138 38.9504 19.0137C39.0198 19.0865 39.1296 19.0846 39.2236 19.0919C40.3715 19.1067 41.5199 19.0831 42.6679 19.1092C42.821 19.1111 43.0223 19.1963 43.0287 19.3725C42.9593 19.6418 42.8062 19.88 42.7023 20.1365C41.8355 20.1291 40.9691 20.1365 40.1023 20.1375C40.1717 19.9622 40.213 19.7772 40.2243 19.5891C40.0713 19.5704 39.9182 19.5551 39.7646 19.5542C38.7638 19.5576 37.7626 19.5576 36.7619 19.5522C36.5261 19.5492 36.2632 19.4729 36.1298 19.2647C36.0122 19.0545 36.0909 18.802 36.1968 18.6041C36.5802 17.8589 37.039 17.1544 37.4038 16.3998C37.1763 16.3905 36.9489 16.388 36.7215 16.389C36.8539 16.1704 36.9834 15.947 37.1665 15.7658ZM52.8835 15.7924C53.4811 15.751 54.0797 15.7781 54.6783 15.7693C55.3719 15.7786 56.0664 15.751 56.7595 15.7929C56.6502 15.9809 56.5282 16.1611 56.4036 16.3393C56.1634 16.3447 55.9207 16.3284 55.6854 16.3826C55.462 16.7109 55.2847 17.0668 55.0741 17.403C54.7354 17.9558 54.3982 18.5096 54.0827 19.0757C53.9621 19.3061 53.8316 19.535 53.6465 19.721C52.7915 19.7294 51.9365 19.7274 51.0814 19.7191C51.2301 19.3883 51.4536 19.0998 51.6214 18.7799C51.7583 18.5101 51.9773 18.2773 52.0339 17.9716C51.774 17.9361 51.5121 17.9347 51.2508 17.9416C51.3295 17.7555 51.4285 17.5797 51.5358 17.4089C51.8474 17.405 52.1599 17.4035 52.471 17.3686C52.6842 17.0422 52.9037 16.7188 53.0755 16.3678C52.9146 16.3545 52.7541 16.3437 52.5931 16.3353C52.6783 16.1483 52.7777 15.9686 52.8835 15.7924ZM58.2958 15.7811C59.0426 15.7599 59.7898 15.7727 60.5371 15.7693C61.0835 15.7732 61.6303 15.756 62.1758 15.7894C62.0483 15.9745 61.9429 16.1813 61.7716 16.3309C61.5284 16.3974 61.2149 16.2492 61.0195 16.4579C60.7177 16.8492 60.4809 17.2888 60.1521 17.659C59.9498 17.8781 59.6451 17.9701 59.3532 17.9558C59.1627 18.2216 58.9732 18.488 58.7861 18.7562C58.7118 18.8512 58.6862 18.9689 58.696 19.0875C59.0765 19.1436 59.462 19.1042 59.8445 19.1308C59.7701 19.2957 59.715 19.4744 59.5988 19.6157C59.1927 19.6659 58.7802 19.6265 58.3716 19.6369C57.7814 19.6314 57.1907 19.6383 56.6005 19.6339C56.4401 19.6236 56.2545 19.6211 56.1358 19.4971C56.0044 19.3075 56.0216 19.0457 56.1226 18.8468C56.2722 18.5593 56.4878 18.3088 56.6045 18.0036C56.445 17.9174 56.2624 17.9371 56.0891 17.9416C56.159 17.752 56.2604 17.5763 56.3697 17.407C56.7743 17.3961 57.1829 17.4188 57.5845 17.3563C57.7721 17.3331 57.8956 17.1741 58.0034 17.0348C58.1649 16.8123 58.3337 16.5952 58.4982 16.3747C58.3254 16.359 58.1521 16.3467 57.9793 16.3373C58.0797 16.1493 58.1866 15.9642 58.2958 15.7811ZM84.1774 16.3038C84.2739 16.1158 84.3694 15.9253 84.5101 15.7658C88.5299 15.7604 92.5496 15.7619 96.5693 15.7624C96.7125 15.7673 96.8553 15.7761 97 15.7835C96.8878 15.9647 96.7755 16.1458 96.68 16.3363C96.3881 16.3959 95.9889 16.2925 95.8068 16.5943C95.1767 17.6275 94.5466 18.6607 93.9225 19.6974C93.6748 19.7442 93.4233 19.7265 93.1742 19.7265C92.5742 19.721 91.9746 19.7383 91.3751 19.7137C91.8146 18.9059 92.3128 18.1321 92.7563 17.3262C92.9197 17.0225 93.1929 16.7518 93.1801 16.3821C92.8474 16.3718 92.5141 16.3536 92.1823 16.3782C91.9677 16.3885 91.8417 16.5908 91.7354 16.7513C91.1752 17.6674 90.6165 18.5849 90.0583 19.5025C89.9899 19.6019 89.9234 19.7516 89.7767 19.7265C88.9817 19.7245 88.1863 19.7348 87.3918 19.7161C87.5178 19.4488 87.6989 19.2096 87.8003 18.9295C87.6413 18.7823 87.4198 18.7784 87.217 18.7784H82.9837C82.6534 18.7813 82.3078 18.7385 82.0218 18.5623C81.884 18.4747 81.8244 18.3019 81.8377 18.1453C81.8515 17.8973 82.0115 17.6954 82.1212 17.4828C82.2325 17.2805 82.3895 17.0481 82.6435 17.0309C83.4784 16.995 84.3147 17.0594 85.1496 17.0146C85.4331 17.0176 85.7053 16.7641 85.7245 16.4889C85.5483 16.3511 85.313 16.3713 85.1033 16.3693C84.8232 16.3762 84.5372 16.3398 84.264 16.42C84.234 16.3811 84.2054 16.3422 84.1774 16.3038ZM88.4801 16.3821C88.2734 16.6903 88.1218 17.0402 87.8574 17.307C87.6935 17.4793 87.4489 17.5354 87.2195 17.5394C86.4801 17.5453 85.7398 17.5177 85.0009 17.5487C84.772 17.5453 84.616 17.8328 84.7287 18.0272C84.8232 18.1572 84.9906 18.2148 85.1481 18.2084C86.0341 18.2054 86.9202 18.2103 87.8062 18.2059C88.0371 18.2024 88.3103 18.1532 88.4378 17.9366C88.6234 17.627 88.8011 17.312 88.9817 16.9989C89.0841 16.803 89.2412 16.6105 89.1973 16.3747C88.9581 16.3659 88.7184 16.359 88.4801 16.3821ZM35.897 22.2502C36.0653 22.2035 36.2435 22.2236 36.4163 22.2207C37.8606 22.2197 39.3043 22.2276 40.7486 22.2231C40.9987 22.2182 41.2497 22.2202 41.4998 22.2404C41.3801 22.6888 41.2034 23.1195 41.0622 23.5611C40.7973 24.3383 40.5468 25.121 40.2731 25.8953C40.2509 26.0263 40.1106 25.9982 40.0122 26.0041C39.0439 26.0046 38.0762 26.0154 37.1084 25.9918C37.1704 25.8126 37.2275 25.6315 37.2792 25.4494C36.8431 25.4439 36.4069 25.4341 35.9713 25.4439C35.5376 25.4075 35.4215 26.0273 34.9912 26.0031C34.0845 26.0046 33.1783 26.0164 32.272 25.9933C32.4625 25.7171 32.7131 25.4922 32.942 25.25C33.7906 24.3758 34.6408 23.504 35.4879 22.6293C35.6193 22.4978 35.7395 22.3511 35.897 22.2502ZM36.7623 24.4752C37.0848 24.5057 37.4101 24.5092 37.7331 24.4777C37.9147 23.9618 38.1781 23.4779 38.3376 22.9536C37.8104 23.4587 37.2763 23.9569 36.7623 24.4752ZM43.2669 22.2542C44.4242 22.2468 45.5815 22.2404 46.7388 22.2551C45.9536 23.5138 45.1592 24.7661 44.3499 26.0095C43.203 25.9967 42.0555 26.0135 40.9091 25.9972C41.2428 25.3859 41.6469 24.8168 42.0122 24.2246C42.4227 23.5631 42.8633 22.9202 43.2669 22.2542ZM47.9202 22.2542C50.0758 22.2394 52.2313 22.2542 54.3869 22.2423C54.7113 22.2231 55.1341 22.3959 55.1499 22.7681C55.1272 23.1579 54.8545 23.4631 54.6665 23.7865C54.4435 24.1282 54.2707 24.5298 53.9138 24.7568C53.7056 24.9034 53.4457 24.9281 53.202 24.9684C53.5397 25.2992 53.8981 25.6128 54.187 25.9898C53.1198 26.0194 52.0531 26.0012 50.9859 26.0056C50.8963 26.0056 50.792 26.009 50.7344 25.9268C50.4006 25.534 50.1077 25.1087 49.8085 24.6898C49.4978 25.1023 49.2827 25.5759 48.9805 25.9938C47.8419 26.0169 46.7014 26.0046 45.5623 25.9962C46.3046 24.7218 47.1508 23.5119 47.9202 22.2542ZM50.5641 23.3652C50.4282 23.6251 50.2825 23.8801 50.157 24.1454C50.5065 24.141 50.9003 24.2296 51.2114 24.0258C51.359 23.8855 51.5476 23.6945 51.4851 23.4725C51.2222 23.2647 50.8683 23.3849 50.5641 23.3652ZM59.301 22.3718C59.363 22.233 59.5186 22.2118 59.6545 22.2192C60.7064 22.2325 61.7583 22.2049 62.8103 22.2384C62.2693 23.1205 61.7116 23.9923 61.1612 24.8685C60.9097 25.2406 60.701 25.6413 60.4273 25.9982C59.2794 26.0046 58.1309 26.014 56.983 25.9977C57.7204 24.7671 58.5311 23.5818 59.301 22.3718ZM63.8002 22.4392C63.8676 22.3418 63.9375 22.2084 64.0788 22.2251C64.9973 22.2158 65.9169 22.2231 66.8359 22.2217C66.9373 22.233 67.0825 22.2074 67.1386 22.3181C67.4158 22.7666 67.6747 23.2273 67.9735 23.6625C68.291 23.2264 68.5406 22.7449 68.8408 22.297C68.9068 22.1985 69.0481 22.233 69.1504 22.2202C70.0527 22.231 70.956 22.2074 71.8583 22.2364C71.0638 23.503 70.23 24.744 69.4379 26.012C68.4652 26.0002 67.4921 26.014 66.5199 26.0086C66.1851 25.4853 65.8425 24.9674 65.5034 24.4476C65.179 24.9817 64.8241 25.4961 64.4751 26.0145C63.5319 26.0026 62.5892 26.0081 61.6466 26.01C61.7884 25.6728 62.0113 25.3799 62.192 25.0639C62.7192 24.1833 63.272 23.3189 63.8002 22.4392ZM73.1091 22.2428C73.5605 22.1911 74.0159 22.2379 74.4692 22.2241C76.0927 22.2276 77.7161 22.2187 79.34 22.2222C79.7013 22.235 80.0769 22.2355 80.419 22.3693C80.5628 22.4191 80.6883 22.5613 80.6647 22.7213C80.6351 22.8931 80.5278 23.0363 80.4427 23.184C80.0725 23.7969 79.7038 24.4107 79.3356 25.025C79.0334 25.6187 78.388 26.0199 77.7191 26.0051C75.3868 26.0086 73.0545 26.012 70.7222 25.9938C70.9068 25.6221 71.1559 25.2884 71.37 24.934C71.9459 24.0346 72.516 23.1313 73.1091 22.2428ZM75.8741 23.379C75.7141 23.6512 75.563 23.9288 75.4109 24.2054C75.2435 24.5254 75.0422 24.8291 74.9103 25.1673C75.2066 25.1752 75.5413 25.2288 75.7978 25.0418C76.0981 24.8459 76.231 24.5008 76.3865 24.1951C76.5052 23.9608 76.6927 23.7186 76.6071 23.4405C76.3752 23.3391 76.1192 23.3524 75.8741 23.379ZM82.0828 22.5072C82.1675 22.3797 82.2576 22.1971 82.4412 22.2207C83.5266 22.2295 84.612 22.2069 85.6974 22.2379C85.4607 22.707 85.1496 23.1318 84.868 23.5739C84.4329 24.2936 83.9593 24.9896 83.5158 25.7043C83.4508 25.8077 83.378 25.9052 83.3031 26.0017C82.1562 26.0036 81.0092 26.0149 79.8628 25.9948C80.5687 24.8109 81.3681 23.6861 82.0828 22.5072ZM87.7098 22.3314C87.8018 22.2438 87.9303 22.2163 88.0548 22.2202C89.3829 22.2217 90.711 22.2207 92.0391 22.2212C92.4851 22.2251 92.9316 22.2084 93.377 22.2414C92.9896 23.5084 92.5515 24.7602 92.1341 26.0179C91.0851 26.0169 90.0361 26.0076 88.9871 26.0115C89.058 25.8274 89.124 25.6418 89.1845 25.4538C88.6839 25.4469 88.1818 25.4267 87.6822 25.4592C87.4243 25.5734 87.2825 25.8382 87.0625 26.0022C86.0843 26.0145 85.1048 26.0076 84.1267 26.0051C84.3147 25.6994 84.6076 25.4823 84.8473 25.22C85.8008 24.2566 86.7612 23.2992 87.7098 22.3314ZM88.6593 24.4781C88.9768 24.488 89.2948 24.5013 89.6133 24.4821C89.8299 23.9736 90.0489 23.4656 90.266 22.9576C89.7049 23.437 89.1865 23.9628 88.6593 24.4781Z" fill="#C5012D"/>
<path d="M33.926 2.94905C34.4626 2.61186 34.9927 2.25892 35.5598 1.9744C35.01 2.43071 34.4114 2.82402 33.8507 3.26704C32.2977 4.39774 30.7948 5.5949 29.2708 6.7635C28.0279 7.69631 26.6752 8.48096 25.2516 9.10316C25.1074 9.17897 24.9533 9.10513 24.813 9.06132C25.5238 8.48785 26.3277 8.04433 27.0587 7.49843C27.2935 7.31728 27.5548 7.17551 27.7995 7.00815C28.7436 6.38151 29.6469 5.69236 30.6117 5.09625C31.0803 4.80188 31.4766 4.40562 31.9546 4.12405C32.2932 3.91042 32.6019 3.65248 32.9474 3.44918C33.1438 3.33448 33.3088 3.15973 33.5317 3.09377C33.6661 3.05636 33.8044 3.0219 33.926 2.94905ZM36.3233 5.44427C36.7437 5.31628 37.1591 5.17402 37.5721 5.02536C37.4569 5.17993 37.2605 5.21685 37.0942 5.29019C36.1402 5.67759 35.1975 6.09256 34.244 6.48095C33.4845 6.79845 32.72 7.10463 31.9698 7.44428C30.467 8.23828 28.8667 8.84818 27.2181 9.26216C26.5831 9.41279 25.9467 9.57228 25.2964 9.63726C25.2752 9.5393 25.255 9.44183 25.2344 9.34437C26.9016 8.43764 28.6688 7.69877 30.5147 7.2464C31.484 7.01012 32.434 6.70443 33.3855 6.40662C34.3691 6.09945 35.3452 5.76817 36.3233 5.44427ZM32.5753 8.93826C33.8384 8.88165 35.0981 8.76893 36.3597 8.68918C36.4144 8.68623 36.5231 8.67983 36.5778 8.67688C36.503 8.80634 36.4296 8.93728 36.3272 9.04705C36.3302 9.01604 36.3366 8.955 36.3395 8.92398C35.8217 8.9614 35.3152 9.08347 34.8032 9.16273C33.7459 9.35372 32.6826 9.50927 31.6277 9.71355C29.5844 10.1285 27.4844 10.3102 25.4027 10.1438L25.4293 9.85335C25.8049 9.70223 26.2051 9.63332 26.5979 9.54471C28.1426 9.21589 29.7202 9.04557 31.2989 9.01259C31.7252 8.9993 32.1495 8.95795 32.5753 8.93826ZM25.4298 10.3623C27.4963 10.3239 29.5726 10.481 31.5918 10.9343C32.5689 11.114 33.5386 11.3468 34.5281 11.4507C34.6162 11.4586 34.7038 11.4635 34.7934 11.4684C34.7102 11.6008 34.6285 11.7347 34.5389 11.8632C34.4296 11.7593 34.2652 11.8209 34.1313 11.7992C32.6993 11.6796 31.2605 11.6821 29.8281 11.5782C28.8244 11.4881 27.8261 11.3296 26.849 11.082C26.3459 10.953 25.8354 10.8364 25.3624 10.6173C25.3845 10.5322 25.4072 10.447 25.4298 10.3623ZM25.3028 10.8807C26.6589 11.114 27.9614 11.5723 29.259 12.0188C29.9152 12.2491 30.5403 12.5568 31.1675 12.8561C31.8596 13.2011 32.5723 13.5029 33.292 13.7854C33.2247 13.9131 33.1473 14.0352 33.0607 14.1507C33.0326 14.1413 32.977 14.1221 32.9489 14.1128C32.4936 13.944 32.0166 13.8445 31.5509 13.7087C30.9199 13.5275 30.2794 13.3793 29.6489 13.1972C28.0939 12.7202 26.6161 12.0129 25.2314 11.1637C25.255 11.0692 25.2787 10.9747 25.3028 10.8807ZM24.8898 11.5802C24.9395 11.5004 24.9902 11.4212 25.0404 11.3414C26.4276 11.9612 27.7335 12.7512 28.9715 13.6289C29.323 13.8765 29.6361 14.1728 29.9664 14.447C30.5886 14.9649 31.2123 15.4832 31.8832 15.9371C31.8192 16.066 31.7385 16.1866 31.6371 16.2895C30.7038 15.7333 29.7665 15.182 28.8007 14.6828C27.3422 13.8662 26.0333 12.796 24.8898 11.5802ZM20.2902 12.0542C20.6397 11.8327 20.9735 11.5866 21.3343 11.3833C21.386 11.4527 21.4372 11.5226 21.4893 11.5925C20.7529 12.3023 19.957 12.9486 19.1383 13.56C18.1977 14.2679 17.1344 14.7803 16.1194 15.3685C14.7361 16.1478 13.4213 17.0397 12.0618 17.8578C11.6803 18.0857 11.3086 18.3314 10.9128 18.5347C11.1688 18.2935 11.4602 18.0956 11.7383 17.882C12.3212 17.4473 12.8912 16.9949 13.4799 16.5681C13.7827 16.3496 14.077 16.1197 14.3694 15.8883C14.6047 15.6988 14.8769 15.5571 15.0906 15.3415C15.2318 15.1893 15.4159 15.0889 15.5986 14.9949C16.1533 14.7124 16.6717 14.3658 17.1999 14.0385C17.5971 13.8209 17.9624 13.5521 18.3439 13.3094C19.0035 12.9087 19.639 12.4692 20.2902 12.0542ZM24.4827 11.9444C24.525 11.8603 24.5812 11.7845 24.6348 11.7077C25.1975 12.0882 25.6621 12.5863 26.148 13.0564C26.7943 13.6949 27.417 14.3604 27.9614 15.0894C28.5349 15.8755 29.0852 16.6789 29.6794 17.4498C30.1711 18.1123 30.7185 18.7311 31.226 19.3818C31.1089 19.3818 30.9922 19.3823 30.8756 19.3828C30.5561 18.9575 30.1446 18.6149 29.7788 18.2315C29.1566 17.6235 28.5763 16.9718 27.9098 16.4111C26.6929 15.3257 25.6818 14.0262 24.8514 12.6272C24.7274 12.4012 24.5452 12.1989 24.4827 11.9444ZM21.5917 11.8322C21.7128 11.7224 21.8462 11.8539 21.9348 11.937C21.7847 12.2324 21.5784 12.4928 21.3992 12.7699C20.9666 13.4251 20.491 14.0518 19.9845 14.6513C19.6941 14.9856 19.4135 15.3306 19.0803 15.624C18.3773 16.2994 17.698 16.9989 16.9838 17.6619C16.2695 18.4239 15.5218 19.1534 14.8041 19.9115C14.4802 20.2418 14.2217 20.6346 13.8555 20.9226C14.4595 20.0912 15.1137 19.2977 15.733 18.4776C16.3315 17.6668 16.9739 16.8891 17.5518 16.0626C18.0318 15.4143 18.4886 14.7448 19.0448 14.1581C19.7965 13.2834 20.6973 12.5543 21.5917 11.8322ZM22.1977 12.033C22.2956 12.0572 22.3936 12.0808 22.4925 12.1049C22.0564 13.909 21.2703 15.6137 20.3143 17.1987C19.7517 18.1394 19.2383 19.1077 18.7101 20.068C18.367 20.7075 18.014 21.3415 17.6813 21.9863C17.5439 22.2625 17.4174 22.545 17.2368 22.7971C17.5754 21.8505 17.9752 20.927 18.336 19.9888C18.8947 18.5923 19.4327 17.1874 19.9742 15.784C20.3202 14.833 20.8499 13.9627 21.3963 13.1155C21.6552 12.7493 21.8895 12.3609 22.1977 12.033ZM23.9309 12.1157C24.0348 12.0936 24.1391 12.0714 24.244 12.0498C24.6565 12.6799 25.0764 13.307 25.4318 13.9715C25.9196 14.8714 26.3277 15.8135 26.6634 16.7803C26.9321 17.5989 27.2329 18.4077 27.5588 19.2056C27.5957 19.2987 27.6336 19.3917 27.6695 19.4862C27.4889 19.4704 27.3038 19.4887 27.1271 19.4409C27.0045 19.0437 26.7475 18.7084 26.5718 18.3358C26.303 17.7742 25.9097 17.2878 25.5991 16.7513C24.9868 15.6722 24.5309 14.5095 24.1952 13.3168C24.0869 12.9211 23.9747 12.5248 23.9309 12.1157ZM21.8438 15.1933C22.0456 14.1847 22.3537 13.1997 22.7377 12.2462C22.8509 12.2413 22.9636 12.2358 23.0773 12.2309C23.0803 13.1012 23.0439 13.972 22.9553 14.8384C22.8696 15.6181 22.7712 16.4018 22.5487 17.1569C22.2553 18.2187 21.9973 19.2913 21.795 20.3742C21.6562 20.4392 21.5125 20.4943 21.3663 20.5416L21.385 20.4338C21.4495 20.0838 21.4465 19.7264 21.4785 19.3735C21.5819 17.9789 21.5469 16.5672 21.8438 15.1933ZM23.3077 12.2368C23.4386 12.2388 23.5701 12.2413 23.7015 12.2432C23.798 12.6547 23.921 13.0589 24.0284 13.4675C24.2612 14.3904 24.4571 15.3247 24.561 16.2718C24.6993 17.4178 24.6156 18.577 24.7726 19.7215C24.8361 19.72 24.8991 19.7185 24.9631 19.7166C24.7475 19.8062 24.5137 19.8234 24.2838 19.8391C24.2769 19.7742 24.2696 19.7102 24.2632 19.6457C24.2248 19.2593 24.1106 18.8861 24.0288 18.5081C23.9102 17.9637 23.6887 17.4488 23.5656 16.9053C23.1984 15.3789 23.2289 13.7943 23.3077 12.2368Z" fill="#F19817"/>
</svg>
