<svg width="20" height="20" viewBox="0 0 20 20" fill="none" xmlns="http://www.w3.org/2000/svg">
<g clip-path="url(#clip0_3_889)">
<path d="M1.2662 15.517H0V16.6889H1.2662V18.2003H0V19.3721H19.9998V18.2003H14.3877V13.2331H14.4996C15.4696 13.2331 16.2587 12.444 16.2587 11.474V11.3514H15.0868V11.474C15.0868 11.7978 14.8234 12.0612 14.4996 12.0612H14.3877V8.60933H15.2519C16.1388 8.60933 16.8909 8.02113 17.1388 7.21446H17.7642C18.997 7.21446 20 6.2115 20 4.9787V4.96386C20 3.91547 19.2746 3.03329 18.2994 2.79283C18.0561 1.56022 16.9669 0.627808 15.6639 0.627808H11.3305C10.0505 0.627808 8.97675 1.52768 8.7087 2.7281H8.40543C7.17259 2.7281 6.16963 3.73106 6.16963 4.96386V4.9787C6.16963 6.21154 7.17259 7.21446 8.40543 7.21446H9.13581C9.35397 7.92453 9.96291 8.46507 10.7105 8.58445V8.77503C10.7105 10.073 11.7665 11.1291 13.0646 11.1291H13.2159V18.2003H10.2053V16.6889H11.4715V15.517H10.2053V11.3194H1.2662V15.517ZM2.43806 14.5447H9.03343V15.517H2.43806V14.5447ZM2.43806 16.6889H9.03343V18.2003H2.43806V16.6889ZM13.2158 9.95713H13.0645C12.4127 9.95713 11.8823 9.42682 11.8823 8.77495V8.60929H13.2158V9.95713Z" fill="#1A1E1F"/>
</g>
<defs>
<clipPath id="clip0_3_889">
<rect width="20" height="20" fill="white"/>
</clipPath>
</defs>
</svg>
