<svg width="28" height="28" viewBox="0 0 28 28" fill="none" xmlns="http://www.w3.org/2000/svg">
<g clip-path="url(#clip0_1_793)">
<path d="M17.756 13.3021L20.1872 24.0703L18.5372 25.7202L14.0214 17.0367L9.59964 21.4585L10.7001 25.3077L9.4627 26.5452L6.57534 22.0079L2.03808 19.1206L3.27551 17.8831L7.12559 18.9828L11.5474 14.561L2.86303 10.046L4.51295 8.39611L15.2811 10.8273L19.7747 6.33371C19.9372 6.17121 20.1301 6.04231 20.3424 5.95436C20.5547 5.86642 20.7823 5.82115 21.0121 5.82115C21.2419 5.82115 21.4695 5.86642 21.6818 5.95436C21.8941 6.04231 22.087 6.17121 22.2495 6.33371C22.412 6.49622 22.541 6.68914 22.6289 6.90146C22.7168 7.11378 22.7621 7.34134 22.7621 7.57115C22.7621 7.80097 22.7168 8.02853 22.6289 8.24085C22.541 8.45317 22.412 8.64609 22.2495 8.80859L17.756 13.3021Z" fill="#115779"/>
</g>
<defs>
<clipPath id="clip0_1_793">
<rect width="28" height="28" fill="white" transform="translate(28) rotate(90)"/>
</clipPath>
</defs>
</svg>
