<svg width="24" height="24" viewBox="0 0 24 24" fill="none" xmlns="http://www.w3.org/2000/svg">
<path d="M22.5 11.9555H1.5C0.672984 11.9555 0 12.6285 0 13.4555C0 14.2825 0.672984 14.9555 1.5 14.9555H22.5C23.327 14.9555 24 14.2825 24 13.4555C24 12.6285 23.327 11.9555 22.5 11.9555ZM22.5 13.9555H1.5C1.22498 13.9555 0.999984 13.7315 0.999984 13.4555C0.999984 13.1795 1.22498 12.9554 1.5 12.9554H22.5C22.775 12.9554 23 13.1795 23 13.4555C23 13.7315 22.775 13.9555 22.5 13.9555Z" fill="#041614"/>
<path d="M22.638 13.9745C22.367 13.8995 22.095 14.0525 22.02 14.3186L20.642 19.1426C20.337 20.2096 19.348 20.9555 18.238 20.9555H5.76301C4.65301 20.9555 3.66502 20.2095 3.35902 19.1426L1.98099 14.3185C1.90599 14.0525 1.63299 13.8995 1.36299 13.9745C1.29983 13.9925 1.24084 14.0227 1.18939 14.0635C1.13795 14.1043 1.09507 14.1549 1.0632 14.2123C1.03134 14.2697 1.01112 14.3328 1.00371 14.3981C0.996296 14.4633 1.00183 14.5294 1.02001 14.5925L2.39799 19.4165C2.82498 20.9115 4.20798 21.9555 5.76301 21.9555H18.237C19.792 21.9555 21.176 20.9115 21.603 19.4165L22.981 14.5925C23.057 14.3275 22.904 14.0505 22.638 13.9745Z" fill="#041614"/>
<path d="M5.76299 18.9565C5.54099 18.9565 5.34398 18.8065 5.28201 18.5935L4.63302 16.3195C4.55802 16.0545 4.28301 15.8995 4.01502 15.9755C3.75004 16.0515 3.59601 16.3275 3.67204 16.5935L4.32102 18.8675C4.50304 19.5085 5.09704 19.9555 5.76304 19.9555C6.03904 19.9555 6.26305 19.7325 6.26305 19.4565C6.26301 19.1805 6.03899 18.9565 5.76299 18.9565ZM6.72299 21.0075C6.47601 20.8865 6.17699 20.9835 6.05198 21.2315L5.05199 23.2315C4.92899 23.4785 5.02898 23.7785 5.27601 23.9026C5.33474 23.9321 5.39873 23.9497 5.46429 23.9544C5.52985 23.9591 5.5957 23.9508 5.65805 23.93C5.7204 23.9092 5.77802 23.8763 5.82761 23.8331C5.87721 23.79 5.91778 23.7375 5.94702 23.6786L6.94701 21.6786C7.07001 21.4315 6.96998 21.1315 6.72299 21.0075ZM18.948 23.2325L17.948 21.2325C17.824 20.9845 17.524 20.8855 17.277 21.0085C17.03 21.1325 16.93 21.4325 17.053 21.6795L18.053 23.6795C18.0945 23.7625 18.1583 23.8322 18.2373 23.881C18.3162 23.9297 18.4072 23.9555 18.5 23.9555C18.575 23.9555 18.6509 23.9385 18.724 23.9035C18.971 23.7795 19.071 23.4795 18.948 23.2325ZM20.085 0.0444946C19.575 0.0444946 19.095 0.243479 18.734 0.60451L17.147 2.19151C16.952 2.38651 16.952 2.70353 17.147 2.89853C17.342 3.09353 17.659 3.09353 17.854 2.89853L19.441 1.31251C19.612 1.14053 19.841 1.04551 20.09 1.04551C20.5919 1.04551 20.9999 1.45351 20.9999 1.95549V12.4555C20.9999 12.7315 21.224 12.9555 21.5 12.9555C21.776 12.9555 22 12.7315 22.001 12.4545V1.95451C22.001 0.90151 21.145 0.0444946 20.085 0.0444946Z" fill="#041614"/>
<path d="M18.355 2.69252L17.355 1.69253C17.24 1.57755 17.081 1.52453 16.92 1.55252L14.42 1.96253C14.236 1.99155 14.085 2.12153 14.026 2.29853C13.9671 2.47553 14.012 2.67053 14.1421 2.80352L17.1421 5.89352C17.236 5.99252 17.3671 6.04553 17.5 6.04553C17.5471 6.04553 17.5951 6.03855 17.6431 6.02552C17.7305 5.99998 17.8093 5.95096 17.8708 5.88378C17.9323 5.81661 17.9742 5.73386 17.992 5.64452L18.4921 3.14453C18.5082 3.06373 18.5041 2.9802 18.4802 2.90135C18.4563 2.8225 18.4133 2.75077 18.355 2.69252ZM17.196 4.5145L15.525 2.79353L16.828 2.58053L17.457 3.20955L17.196 4.5145ZM11.853 6.10253C11.658 5.90753 11.341 5.90753 11.146 6.10253L10.146 7.10252C9.95101 7.29752 9.95101 7.61453 10.146 7.80953C10.244 7.90652 10.372 7.95555 10.5 7.95555C10.628 7.95555 10.756 7.90657 10.853 7.80953L11.853 6.80955C12.048 6.6145 12.048 6.29753 11.853 6.10253ZM13.853 8.1025C13.658 7.9075 13.341 7.9075 13.146 8.1025L12.146 9.10249C11.951 9.29749 11.951 9.6145 12.146 9.8095C12.2401 9.90301 12.3674 9.9555 12.5 9.95552C12.628 9.95552 12.756 9.90653 12.853 9.8095L13.853 8.80952C14.048 8.61452 14.048 8.2975 13.853 8.1025ZM14.853 5.1025C14.658 4.9075 14.341 4.9075 14.146 5.1025L13.146 6.10249C12.951 6.29749 12.951 6.6145 13.146 6.8095C13.244 6.90649 13.372 6.95552 13.5 6.95552C13.628 6.95552 13.756 6.90653 13.853 6.8095L14.853 5.80952C15.048 5.61452 15.048 5.2975 14.853 5.1025Z" fill="#041614"/>
</svg>
