<svg width="104" height="103" viewBox="0 0 104 103" fill="none" xmlns="http://www.w3.org/2000/svg">
<path d="M12.129 103H91.871C94.9541 102.996 97.91 101.771 100.09 99.5932C102.27 97.4151 103.496 94.462 103.5 91.3818C103.5 90.9416 103.325 90.5194 103.013 90.2082C102.702 89.8969 102.279 89.722 101.839 89.722H96.8548V39.9297C96.8548 38.1689 96.1547 36.4802 94.9085 35.2352C93.6623 33.9901 91.9721 33.2907 90.2097 33.2907H81.7072C82.1891 29.1068 81.7801 24.8684 80.5071 20.8535C79.2341 16.8386 77.1259 13.138 74.3207 9.99441C71.5155 6.85082 68.0767 4.3353 64.2299 2.61286C60.3832 0.890425 56.2154 0 52 0C47.7846 0 43.6168 0.890425 39.7701 2.61286C35.9233 4.3353 32.4845 6.85082 29.6793 9.99441C26.8741 13.138 24.7659 16.8386 23.4929 20.8535C22.2199 24.8684 21.8109 29.1068 22.2928 33.2907H13.7903C12.0279 33.2907 10.3377 33.9901 9.09148 35.2352C7.84527 36.4802 7.14516 38.1689 7.14516 39.9297V89.722H2.16129C1.72069 89.722 1.29813 89.8969 0.986581 90.2082C0.675028 90.5194 0.5 90.9416 0.5 91.3818C0.503518 94.462 1.72985 97.4151 3.90995 99.5932C6.09005 101.771 9.0459 102.996 12.129 103ZM90.2097 36.6102C91.0909 36.6102 91.936 36.9599 92.5591 37.5824C93.1822 38.2049 93.5323 39.0493 93.5323 39.9297V89.722H90.2097V41.5894C90.2097 41.1492 90.0346 40.727 89.7231 40.4158C89.4115 40.1045 88.989 39.9297 88.5484 39.9297H80.1589C80.5484 38.8432 80.8735 37.7348 81.1324 36.6102H90.2097ZM52 59.8466C57.5622 59.839 63.012 58.2817 67.737 55.3497C72.4619 52.4177 76.2747 48.2272 78.7468 43.2491H86.8871V89.722H63.629C63.301 89.7225 62.9803 89.8195 62.707 90.0009L58.1468 93.0415H45.8532L41.288 90.0009C41.0161 89.8205 40.6973 89.7235 40.371 89.722H17.1129V43.2491H25.2532C27.7253 48.2272 31.5381 52.4177 36.263 55.3497C40.988 58.2817 46.4378 59.839 52 59.8466ZM52 3.41524C57.2572 3.41524 62.3962 4.97272 66.7674 7.89072C71.1386 10.8087 74.5455 14.9562 76.5573 19.8087C78.5691 24.6611 79.0955 30.0006 78.0699 35.152C77.0443 40.3033 74.5127 45.0351 70.7954 48.7491C67.078 52.463 62.3418 54.9922 57.1856 56.0168C52.0295 57.0415 46.685 56.5156 41.828 54.5057C36.9711 52.4957 32.8197 49.092 29.899 44.7249C26.9783 40.3578 25.4194 35.2234 25.4194 29.9712C25.4277 22.9307 28.2308 16.1809 33.2139 11.2025C38.1969 6.22411 44.9529 3.42358 52 3.41524ZM10.4677 39.9297C10.4677 39.0493 10.8178 38.2049 11.4409 37.5824C12.064 36.9599 12.9091 36.6102 13.7903 36.6102H22.8676C23.1265 37.7348 23.4516 38.8432 23.8411 39.9297H15.4516C15.011 39.9297 14.5885 40.1045 14.2769 40.4158C13.9654 40.727 13.7903 41.1492 13.7903 41.5894V89.722H10.4677V39.9297ZM39.8726 93.0415L44.4378 96.0822C44.7097 96.2626 45.0285 96.3595 45.3548 96.361H58.6452C58.9732 96.3605 59.2939 96.2635 59.5672 96.0822L64.1274 93.0415H100.011C99.626 94.9148 98.6059 96.5981 97.123 97.8075C95.6401 99.0169 93.7852 99.6784 91.871 99.6805H12.129C10.2156 99.6753 8.36225 99.0127 6.88001 97.8038C5.39776 96.5949 4.37688 94.9134 3.98871 93.0415H39.8726Z" fill="#115779"/>
<path d="M22.0968 86.403H81.9033C82.3439 86.403 82.7664 86.2281 83.078 85.9168C83.3895 85.6056 83.5646 85.1834 83.5646 84.7432V64.8263C83.5646 64.3861 83.3895 63.9639 83.078 63.6526C82.7664 63.3414 82.3439 63.1665 81.9033 63.1665H22.0968C21.6562 63.1665 21.2337 63.3414 20.9221 63.6526C20.6106 63.9639 20.4355 64.3861 20.4355 64.8263V84.7432C20.4355 85.1834 20.6106 85.6056 20.9221 85.9168C21.2337 86.2281 21.6562 86.403 22.0968 86.403ZM80.242 69.8055H75.2581V73.125H80.242V76.4445H71.9355V79.764H80.242V83.0835H68.613V66.486H80.242V69.8055ZM23.7581 66.486H65.2904V83.0835H23.7581V66.486Z" fill="#115779"/>
<path d="M27.0806 69.8048H40.3709V73.1243H27.0806V69.8048ZM27.0806 76.4438H48.6773V79.7633H27.0806V76.4438ZM45.5292 50.6298C45.647 50.8652 45.8192 51.0692 46.0315 51.2251C46.2438 51.3809 46.4902 51.4841 46.7502 51.526C46.8381 51.5406 46.927 51.5479 47.0161 51.5476C47.4566 51.5475 47.8791 51.3726 48.1906 51.0613L51.5132 47.7418C51.7056 47.5491 51.8476 47.312 51.9267 47.0515C52.0058 46.791 52.0195 46.5151 51.9667 46.248L50.4798 38.8207L55.4205 33.8846L62.1338 47.3103C62.264 47.5705 62.4604 47.792 62.7033 47.9525C62.9461 48.113 63.227 48.2069 63.5176 48.2248H63.6206C63.8941 48.2248 64.1633 48.1575 64.4044 48.0286C64.6455 47.8998 64.8511 47.7135 65.0028 47.4862L68.3254 42.507C68.4572 42.3096 68.5452 42.0863 68.5833 41.8521C68.6214 41.6179 68.6088 41.3782 68.5464 41.1493L64.1572 25.0697C66.1365 22.9444 67.9426 20.6644 69.5581 18.2514C70.0974 17.4422 70.3396 16.4713 70.2434 15.5038C70.1472 14.5363 69.7187 13.632 69.0305 12.9445C68.3424 12.257 67.4372 11.8288 66.4689 11.7328C65.5005 11.6367 64.5287 11.8786 63.7187 12.4174C61.3035 14.0315 59.0214 15.8358 56.8941 17.8133L40.8078 13.4315C40.5787 13.3692 40.3388 13.3566 40.1044 13.3947C39.87 13.4327 39.6464 13.5206 39.4489 13.6523L34.465 16.9718C34.2227 17.1331 34.0271 17.3551 33.8978 17.6157C33.7684 17.8763 33.7099 18.1663 33.7281 18.4566C33.7463 18.7469 33.8405 19.0274 34.0013 19.2698C34.1621 19.5123 34.3839 19.7083 34.6444 19.8382L48.0876 26.5535L43.1469 31.4896L35.7193 30.0041C35.452 29.9505 35.1756 29.9638 34.9147 30.0428C34.6538 30.1219 34.4165 30.2642 34.2241 30.4572L30.9015 33.7767C30.7159 33.9627 30.5772 34.19 30.4966 34.44C30.4161 34.69 30.3961 34.9556 30.4382 35.2148C30.4804 35.474 30.5835 35.7196 30.7392 35.9312C30.8948 36.1429 31.0985 36.3146 31.3335 36.4323L40.8028 41.1626L45.5292 50.6298ZM63.835 43.2688L57.8975 31.4049L61.4693 27.8315L65.1457 41.297L63.835 43.2688ZM38.6897 18.1469L40.6633 16.8324L54.1413 20.5104L50.5646 24.0788L38.6897 18.1469ZM35.9336 33.4315L43.3679 34.917C43.6351 34.9706 43.9116 34.9573 44.1725 34.8782C44.4334 34.7992 44.6706 34.6568 44.863 34.4638L57.7862 21.5527C60.1631 19.1792 62.7684 17.0455 65.5644 15.1826C65.7 15.103 65.8539 15.0596 66.0112 15.0565C66.1685 15.0534 66.3239 15.0907 66.4627 15.1648C66.6014 15.2389 66.7188 15.3474 66.8035 15.4798C66.8882 15.6123 66.9375 15.7642 66.9466 15.9212C66.9479 16.0984 66.8958 16.2719 66.797 16.4191C64.9324 19.2124 62.7967 21.8153 60.421 24.19L47.4978 37.1012C47.3054 37.2939 47.1634 37.531 47.0843 37.7915C47.0052 38.052 46.9915 38.3279 47.0443 38.595L48.5311 46.0223L47.4663 47.0862L43.5273 39.1875C43.3665 38.8656 43.1053 38.6046 42.7831 38.4439L34.877 34.4954L35.9336 33.4315Z" fill="#115779"/>
</svg>
