<svg width="24" height="24" viewBox="0 0 24 24" fill="none" xmlns="http://www.w3.org/2000/svg">
<path d="M18.7686 20.831H5.23027C4.40179 20.8313 3.60732 21.1605 3.0215 21.7463C2.43568 22.3321 2.10644 23.1266 2.10615 23.9551H21.8928C21.8928 23.5448 21.8121 23.1385 21.6551 22.7595C21.4981 22.3804 21.268 22.036 20.9779 21.7458C20.6878 21.4557 20.3433 21.2256 19.9643 21.0686C19.5852 20.9117 19.1789 20.8309 18.7686 20.831ZM12 6.25177C8.35438 6.25177 5.75177 8.85493 5.75177 12.6786V19.7422H18.2482V12.6786C18.2482 8.85493 15.6473 6.25177 12 6.25177ZM16.1677 14.0857C16.0233 14.0857 15.8848 14.0284 15.7827 13.9263C15.6807 13.8242 15.6233 13.6857 15.6233 13.5414C15.6233 11.5882 14.6641 9.79559 13.3914 9.37207C13.3235 9.34948 13.2607 9.31374 13.2066 9.26688C13.1525 9.22002 13.1082 9.16296 13.0761 9.09897C13.0441 9.03497 13.0249 8.96529 13.0198 8.8939C13.0147 8.82252 13.0237 8.75082 13.0463 8.68291C13.0689 8.61499 13.1046 8.5522 13.1515 8.4981C13.1983 8.444 13.2554 8.39966 13.3194 8.36761C13.3834 8.33556 13.4531 8.31643 13.5244 8.31132C13.5958 8.3062 13.6675 8.31519 13.7354 8.33778C15.46 8.91317 16.712 11.1015 16.712 13.5414C16.712 13.6857 16.6547 13.8242 16.5526 13.9263C16.4505 14.0284 16.312 14.0857 16.1677 14.0857ZM3.66848 13.0444H0.544366C0.399991 13.0444 0.261529 12.987 0.159441 12.8849C0.0573527 12.7828 0 12.6444 0 12.5C0 12.3556 0.0573527 12.2172 0.159441 12.1151C0.261529 12.013 0.399991 11.9556 0.544366 11.9556H3.66848C3.81286 11.9556 3.95132 12.013 4.05341 12.1151C4.15549 12.2172 4.21285 12.3556 4.21285 12.5C4.21285 12.6444 4.15549 12.7828 4.05341 12.8849C3.95132 12.987 3.81286 13.0444 3.66848 13.0444ZM5.70768 7.01824C5.63618 7.01831 5.56538 7.00426 5.49933 6.97689C5.43328 6.94951 5.37329 6.90936 5.32281 6.85874L3.24007 4.77545C3.1409 4.67278 3.08604 4.53527 3.08728 4.39254C3.08852 4.24981 3.14577 4.11328 3.2467 4.01235C3.34763 3.91142 3.48416 3.85417 3.62689 3.85293C3.76962 3.85169 3.90713 3.90656 4.0098 4.00572L6.09254 6.089C6.16865 6.16513 6.22048 6.26212 6.24147 6.3677C6.26247 6.47328 6.25169 6.58272 6.21049 6.68217C6.1693 6.78163 6.09955 6.86664 6.01005 6.92646C5.92055 6.98627 5.81532 7.01821 5.70768 7.01824ZM12 4.71285C11.8556 4.71285 11.7172 4.65549 11.6151 4.55341C11.513 4.45132 11.4556 4.31286 11.4556 4.16848V1.04437C11.4556 0.899991 11.513 0.761529 11.6151 0.659441C11.7172 0.557353 11.8556 0.5 12 0.5C12.1444 0.5 12.2828 0.557353 12.3849 0.659441C12.487 0.761529 12.5444 0.899991 12.5444 1.04437V4.16848C12.5444 4.31286 12.487 4.45132 12.3849 4.55341C12.2828 4.65549 12.1444 4.71285 12 4.71285ZM18.4099 6.90011C18.3023 6.90009 18.197 6.86815 18.1075 6.80833C18.018 6.74851 17.9483 6.6635 17.9071 6.56405C17.8659 6.46459 17.8551 6.35516 17.8761 6.24957C17.8971 6.14399 17.9489 6.04701 18.025 5.97088L20.1078 3.88813C20.2112 3.79262 20.3475 3.74082 20.4882 3.74358C20.629 3.74634 20.7632 3.80344 20.8627 3.90294C20.9623 4.00243 21.0195 4.13659 21.0224 4.27731C21.0252 4.41804 20.9735 4.55441 20.8781 4.65787L18.7948 6.74061C18.7443 6.79123 18.6843 6.83139 18.6183 6.85876C18.5522 6.88613 18.4814 6.90018 18.4099 6.90011ZM23.4556 13.0444H20.3315C20.1871 13.0444 20.0487 12.987 19.9466 12.8849C19.8445 12.7828 19.7872 12.6444 19.7872 12.5C19.7872 12.3556 19.8445 12.2172 19.9466 12.1151C20.0487 12.013 20.1871 11.9556 20.3315 11.9556H23.4556C23.6 11.9556 23.7385 12.013 23.8406 12.1151C23.9426 12.2172 24 12.3556 24 12.5C24 12.6444 23.9426 12.7828 23.8406 12.8849C23.7385 12.987 23.6 13.0444 23.4556 13.0444Z" fill="#0DB561"/>
</svg>
