<svg width="62" height="62" viewBox="0 0 62 62" fill="none" xmlns="http://www.w3.org/2000/svg">
<rect width="62" height="62" rx="31" fill="#04AAE0"/>
<path fill-rule="evenodd" clip-rule="evenodd" d="M20.8201 42.0608L20.497 42.2044L17.2092 38.9166L18.4478 36.1279C17.6299 34.8003 17.029 33.3507 16.6677 31.8338L13.8218 30.7384V26.0889L16.6681 24.9932C17.0294 23.4766 17.6302 22.0273 18.448 20.6999L17.2092 17.9107L20.497 14.6228L23.2865 15.8617C24.6137 15.044 26.0629 14.4433 27.5794 14.0821L28.6753 11.2353H33.3247L34.4205 14.0821C34.7227 14.154 35.0222 14.2355 35.3185 14.3262L34.1952 17.9191L35.4626 18.7654L34.0654 20.9048C33.1198 20.5183 32.0848 20.3047 30.9999 20.3047C26.5212 20.3047 22.8912 23.9349 22.8912 28.4135C22.8912 30.6925 23.831 32.7516 25.3443 34.2247L20.8201 42.0608ZM36.6548 34.2255C38.1686 32.7524 39.1088 30.6929 39.1088 28.4135C39.1088 25.82 37.8915 23.5112 35.9968 22.0269L38.5628 18.2948L36.8704 17.1555L38.2977 15.6151C38.4375 15.695 38.5761 15.7772 38.7133 15.8617L41.503 14.6228L44.7908 17.9105L43.5522 20.6992C44.3701 22.0268 44.971 23.4764 45.3322 24.9933L48.1782 26.0887V30.7384L45.3316 31.834C44.9703 33.3505 44.3695 34.7997 43.5518 36.127L44.7908 38.9165L41.503 42.2044L41.1794 42.0606L36.6548 34.2255ZM34.0205 32.2985L41.6624 45.5319C42.2906 46.6193 42.2906 47.9331 41.6624 49.0205C41.0342 50.1094 39.8958 50.7647 38.6395 50.7647H23.359C22.1026 50.7647 20.9658 50.1094 20.3376 49.0205C19.7094 47.9331 19.7094 46.6193 20.3376 45.5319L27.9778 32.2985C28.606 31.2096 29.7428 30.5527 30.9992 30.5527C32.2556 30.5527 33.3924 31.2096 34.0205 32.2985ZM32.8719 33.6202C32.4794 32.9392 31.7858 32.5386 30.9993 32.5386C30.2145 32.5386 29.5186 32.9394 29.1263 33.621L22.2472 45.5358C21.855 46.2169 21.855 47.0173 22.247 47.6981L22.2473 47.6985C22.6397 48.378 23.3356 48.7804 24.1201 48.7804H37.8785C38.6644 48.7804 39.3578 48.3788 39.7518 47.7001L39.7524 47.6991C40.145 47.0173 40.145 46.2169 39.753 45.5361L39.7528 45.5358L32.8723 33.621L32.8719 33.6202ZM31.7304 34.2784L31.7306 34.2788L38.6111 46.1938C38.7643 46.4599 38.7646 46.7726 38.612 47.0389C38.4571 47.305 38.1861 47.4628 37.8785 47.4628H24.1201C23.8136 47.4628 23.542 47.3054 23.3887 47.0403C23.2354 46.7736 23.2354 46.4603 23.3889 46.1937L30.268 34.2787C30.4213 34.0125 30.693 33.8562 30.9993 33.8562C31.3064 33.8562 31.5773 34.0125 31.7304 34.2784ZM30.9992 43.2583C31.401 43.2583 31.731 42.9411 31.7454 42.5393L31.9335 37.3193C31.9415 37.1089 31.8713 36.9255 31.7246 36.774C31.5795 36.6226 31.3978 36.546 31.1874 36.546H30.8111C30.6006 36.546 30.4205 36.6226 30.2737 36.774C30.1287 36.9255 30.0585 37.1089 30.0649 37.3193L30.2546 42.5393C30.2612 42.7323 30.3426 42.9152 30.4815 43.0494C30.6204 43.1835 30.806 43.2585 30.9992 43.2583ZM30.9992 46.1681C31.5253 46.1681 31.9542 45.7392 31.9542 45.213C31.9542 44.6869 31.5253 44.258 30.9992 44.258C30.473 44.258 30.0441 44.6869 30.0441 45.213C30.0441 45.7392 30.473 46.1681 30.9992 46.1681Z" fill="white"/>
</svg>
