<svg width="24" height="21" viewBox="0 0 24 21" fill="none" xmlns="http://www.w3.org/2000/svg">
<path fill-rule="evenodd" clip-rule="evenodd" d="M20.3843 13.1081H16.0312C15.8438 13.1089 15.6642 13.1838 15.5317 13.3163C15.3991 13.4489 15.3243 13.6284 15.3234 13.8159V15.4558C15.3243 15.6433 15.3991 15.8228 15.5317 15.9554C15.6642 16.088 15.8438 16.1628 16.0312 16.1636H20.3845C20.572 16.1628 20.7516 16.088 20.8841 15.9554C21.0167 15.8228 21.0915 15.6433 21.0923 15.4558V13.816C21.0915 13.6285 21.0167 13.4489 20.8841 13.3164C20.7516 13.1838 20.572 13.109 20.3845 13.1082L20.3843 13.1081ZM17.204 14.348C17.2706 14.4146 17.3122 14.5023 17.3214 14.5961C17.3307 14.6899 17.3072 14.784 17.2548 14.8624C17.2025 14.9408 17.1246 14.9986 17.0344 15.026C16.9442 15.0533 16.8473 15.0486 16.7602 15.0126C16.6731 14.9765 16.6012 14.9114 16.5568 14.8282C16.5123 14.7451 16.4981 14.6492 16.5164 14.5567C16.5348 14.4643 16.5847 14.381 16.6576 14.3212C16.7304 14.2614 16.8218 14.2288 16.916 14.2288C16.9695 14.2287 17.0225 14.2392 17.0719 14.2596C17.1213 14.2801 17.1662 14.3101 17.204 14.348ZM16.916 13.5031C17.1781 13.5031 17.4321 13.594 17.6347 13.7602C17.8373 13.9265 17.976 14.1579 18.0272 14.4149C18.0783 14.672 18.0388 14.9388 17.9152 15.17C17.7917 15.4011 17.5918 15.5823 17.3497 15.6826C17.1075 15.7829 16.8381 15.7962 16.5873 15.7201C16.3365 15.644 16.1198 15.4833 15.9742 15.2654C15.8285 15.0475 15.763 14.7858 15.7887 14.525C15.8144 14.2642 15.9297 14.0203 16.115 13.835C16.2201 13.7296 16.3449 13.646 16.4824 13.5891C16.6199 13.5321 16.7672 13.5029 16.916 13.5031ZM7.62708 7.59983H12.4875C13.1595 7.09077 13.6547 6.38353 13.9032 5.57791C14.1517 4.7723 14.141 3.90898 13.8725 3.10981C13.604 2.31064 13.0913 1.61597 12.4067 1.12383C11.7222 0.631694 10.9004 0.366943 10.0574 0.366943C9.21429 0.366943 8.3925 0.631694 7.70798 1.12383C7.02345 1.61597 6.51076 2.31064 6.24225 3.10981C5.97374 3.90898 5.96297 4.7723 6.21147 5.57791C6.45997 6.38353 6.95518 7.09077 7.62722 7.59983H7.62708ZM9.69427 1.71523C9.69427 1.61901 9.73249 1.52673 9.80053 1.45869C9.86857 1.39065 9.96085 1.35242 10.0571 1.35242C10.1533 1.35242 10.2456 1.39065 10.3136 1.45869C10.3817 1.52673 10.4199 1.61901 10.4199 1.71523V2.18773C10.6928 2.26656 10.9327 2.43193 11.1035 2.65894C11.2743 2.88595 11.3667 3.1623 11.3668 3.44637C11.3673 3.49436 11.3583 3.54198 11.3403 3.58648C11.3224 3.63097 11.2957 3.67146 11.262 3.70558C11.2282 3.73971 11.1881 3.76681 11.1438 3.7853C11.0995 3.80379 11.052 3.81331 11.004 3.81331C10.956 3.81331 10.9085 3.80379 10.8642 3.7853C10.8199 3.76681 10.7797 3.73971 10.746 3.70558C10.7122 3.67146 10.6856 3.63097 10.6676 3.58648C10.6496 3.54198 10.6406 3.49436 10.6412 3.44637C10.6412 3.29148 10.5797 3.14294 10.4701 3.03341C10.3606 2.92389 10.2121 2.86236 10.0572 2.86236C9.90228 2.86236 9.75373 2.92389 9.64421 3.03341C9.53469 3.14294 9.47316 3.29148 9.47316 3.44637C9.47316 3.83736 9.83606 3.96158 10.1938 4.08387C10.7844 4.28605 11.3668 4.48536 11.3668 5.34012C11.3666 5.62419 11.2742 5.90053 11.1035 6.12754C10.9327 6.35454 10.6928 6.51992 10.4199 6.59876V7.07127C10.4199 7.16749 10.3817 7.25977 10.3136 7.32781C10.2456 7.39585 10.1533 7.43408 10.0571 7.43408C9.96085 7.43408 9.86857 7.39585 9.80053 7.32781C9.73249 7.25977 9.69427 7.16749 9.69427 7.07127V6.59867C9.42136 6.51982 9.18146 6.35445 9.01068 6.12744C8.83991 5.90044 8.7475 5.6241 8.74739 5.34003C8.74684 5.29204 8.75583 5.24442 8.77381 5.19993C8.7918 5.15543 8.81844 5.11495 8.85218 5.08082C8.88592 5.04669 8.9261 5.0196 8.97038 5.00111C9.01467 4.98262 9.06219 4.97309 9.11018 4.97309C9.15817 4.97309 9.20569 4.98262 9.24997 5.00111C9.29426 5.0196 9.33444 5.04669 9.36818 5.08082C9.40192 5.11495 9.42856 5.15543 9.44655 5.19993C9.46453 5.24442 9.47351 5.29204 9.47297 5.34003C9.47297 5.49492 9.5345 5.64347 9.64402 5.75299C9.75355 5.86252 9.90209 5.92405 10.057 5.92405C10.2119 5.92405 10.3604 5.86252 10.4699 5.75299C10.5795 5.64347 10.641 5.49492 10.641 5.34003C10.641 5.00253 10.3035 4.88712 9.96131 4.76994C9.35878 4.56369 8.74753 4.35444 8.74753 3.44637C8.74762 3.1623 8.84002 2.88595 9.01079 2.65894C9.18157 2.43193 9.42149 2.26656 9.6944 2.18773L9.69427 1.71523ZM5.4263 5.44255H1.9335C1.64743 5.44255 1.37307 5.55619 1.17078 5.75847C0.968501 5.96076 0.854858 6.23511 0.854858 6.52119C0.854858 6.80726 0.968501 7.08162 1.17078 7.2839C1.37307 7.48619 1.64743 7.59983 1.9335 7.59983H6.5573C5.99884 6.99151 5.60897 6.24787 5.4263 5.44255Z" fill="#0DB561"/>
<path fill-rule="evenodd" clip-rule="evenodd" d="M16.0312 12.3825H20.2027V10.098C20.2011 9.6284 20.0138 9.17847 19.6817 8.84639C19.3496 8.5143 18.8997 8.32701 18.4301 8.32537H1.9335C1.54444 8.32559 1.16585 8.19928 0.854858 7.96551V19.1737C0.856501 19.6433 1.04379 20.0933 1.37588 20.4254C1.70796 20.7574 2.15789 20.9447 2.62753 20.9464H18.4298C18.8995 20.9447 19.3494 20.7574 19.6815 20.4254C20.0136 20.0933 20.2009 19.6433 20.2025 19.1737V16.8891H16.0312C15.6513 16.8883 15.2872 16.737 15.0186 16.4683C14.7499 16.1997 14.5987 15.8356 14.5978 15.4557V13.8159C14.5986 13.436 14.7499 13.0719 15.0186 12.8032C15.2872 12.5346 15.6513 12.3833 16.0312 12.3825ZM16.0635 4.76957C16.014 4.97626 15.9791 5.18614 15.9588 5.3977C16.2858 4.89205 16.7093 4.45588 17.2051 4.11416C18.1486 3.45923 19.3322 3.13771 20.539 3.18604C20.621 3.18447 20.7011 3.21075 20.7663 3.26059C20.8314 3.31043 20.8777 3.38089 20.8976 3.46045L21.0798 4.18654L23.1451 1.39223L19.8942 0.0537109C19.9453 0.223867 20.0544 0.499023 20.0718 0.668617C20.0766 0.715893 20.0721 0.76366 20.0585 0.809189C20.0449 0.854718 20.0224 0.897118 19.9924 0.933968C19.9624 0.970819 19.9254 1.0014 19.8836 1.02396C19.8418 1.04652 19.7959 1.06062 19.7486 1.06546C18.8968 1.15284 18.1134 1.57959 17.4803 2.20921C16.7822 2.91662 16.2921 3.80236 16.0635 4.76957ZM16.0632 6.96679C16.0497 7.04957 16.0078 7.1251 15.9448 7.18047C15.8818 7.23585 15.8016 7.26766 15.7177 7.27046C15.6339 7.27327 15.5517 7.2469 15.4851 7.19585C15.4186 7.14481 15.3718 7.07225 15.3527 6.99055C15.2609 6.60037 15.2151 6.20077 15.2164 5.79993C15.2167 5.68099 15.221 5.56191 15.2293 5.4427H14.6881C14.5055 6.24802 14.1156 6.99166 13.5571 7.59998H17.8207C17.8467 7.59964 17.8715 7.58916 17.8899 7.57077C17.9083 7.55238 17.9188 7.52754 17.9191 7.50154V5.54095C17.9188 5.51494 17.9083 5.4901 17.8899 5.47172C17.8715 5.45333 17.8467 5.44285 17.8207 5.44251H16.8195C16.4564 5.88753 16.1979 6.40845 16.0632 6.96679Z" fill="#0DB561"/>
</svg>
