<svg width="28" height="28" viewBox="0 0 28 28" fill="none" xmlns="http://www.w3.org/2000/svg">
<path d="M18.2035 12.6805C18.1685 12.6595 12.2343 9.60751 12.1958 9.58651C11.9647 9.45124 11.7018 9.37994 11.4341 9.37994C11.1663 9.37994 10.9034 9.45124 10.6724 9.58651C10.1955 9.86213 9.91113 10.3556 9.91113 10.9069V17.0931C9.91113 17.6444 10.1955 18.1379 10.6724 18.4135C10.9156 18.5535 11.1825 18.6218 11.4441 18.6218C11.6961 18.6218 11.9429 18.5588 12.159 18.4328L18.2035 15.3195C18.6804 15.043 18.9648 14.5495 18.9648 14C18.9648 13.4505 18.6804 12.957 18.2035 12.6805ZM22.6669 5.33751C22.5027 5.17344 22.2801 5.08131 22.0479 5.08139C21.8158 5.08147 21.5933 5.17376 21.4292 5.33794C21.2651 5.50213 21.173 5.72477 21.1731 5.95688C21.1732 6.18899 21.2654 6.41156 21.4296 6.57563C23.4098 8.55488 24.5 11.1913 24.5 14C24.5 16.8088 23.4098 19.4451 21.4296 21.4244C21.3461 21.5051 21.2794 21.6016 21.2335 21.7084C21.1877 21.8152 21.1635 21.93 21.1625 22.0462C21.1615 22.1623 21.1837 22.2776 21.2277 22.3851C21.2717 22.4926 21.3366 22.5903 21.4188 22.6725C21.5009 22.7546 21.5986 22.8196 21.7062 22.8636C21.8137 22.9076 21.9289 22.9297 22.0451 22.9287C22.1613 22.9277 22.2761 22.9036 22.3829 22.8577C22.4896 22.8119 22.5862 22.7452 22.6669 22.6616C24.9769 20.3525 26.25 17.276 26.25 14C26.25 10.724 24.9778 7.64751 22.6669 5.33751Z" fill="#115779"/>
<path d="M20.1539 7.85226C20.0732 7.76868 19.9766 7.70202 19.8699 7.65617C19.7631 7.61031 19.6483 7.58617 19.5321 7.58516C19.4159 7.58415 19.3007 7.60629 19.1932 7.65029C19.0856 7.69428 18.9879 7.75925 18.9058 7.84141C18.8236 7.92357 18.7587 8.02126 18.7147 8.1288C18.6707 8.23633 18.6485 8.35155 18.6495 8.46773C18.6505 8.58391 18.6747 8.69873 18.7205 8.80548C18.7664 8.91224 18.8331 9.00879 18.9166 9.0895C21.6248 11.7968 21.6248 16.2033 18.9166 18.9105C18.8331 18.9912 18.7664 19.0878 18.7205 19.1945C18.6747 19.3013 18.6505 19.4161 18.6495 19.5323C18.6485 19.6485 18.6707 19.7637 18.7147 19.8712C18.7587 19.9787 18.8236 20.0764 18.9058 20.1586C18.9879 20.2408 19.0856 20.3057 19.1932 20.3497C19.3007 20.3937 19.4159 20.4159 19.5321 20.4149C19.6483 20.4138 19.7631 20.3897 19.8699 20.3438C19.9766 20.298 20.0732 20.2313 20.1539 20.1478C21.7936 18.508 22.6966 16.3249 22.6966 14C22.6966 11.6751 21.7936 9.49201 20.1539 7.85226ZM6.5695 6.57563C6.6508 6.49439 6.7153 6.39794 6.75932 6.29177C6.80333 6.1856 6.82601 6.07181 6.82605 5.95688C6.82609 5.84195 6.8035 5.72813 6.75955 5.62194C6.71561 5.51574 6.65118 5.41924 6.56994 5.33794C6.4887 5.25665 6.39224 5.19215 6.28608 5.14813C6.17991 5.10411 6.06611 5.08143 5.95118 5.08139C5.83625 5.08135 5.72244 5.10395 5.61625 5.14789C5.51005 5.19184 5.41355 5.25627 5.33225 5.33751C3.02225 7.64751 1.75 10.7249 1.75 14C1.75 17.2751 3.02225 20.3525 5.33225 22.6625C5.41332 22.744 5.50971 22.8087 5.61588 22.8529C5.72205 22.8971 5.83589 22.9198 5.95088 22.9198C6.06586 22.9198 6.17971 22.8971 6.28587 22.8529C6.39204 22.8087 6.48843 22.744 6.5695 22.6625C6.65085 22.5812 6.71539 22.4847 6.75943 22.3785C6.80346 22.2723 6.82613 22.1584 6.82613 22.0434C6.82613 21.9285 6.80346 21.8146 6.75943 21.7084C6.71539 21.6021 6.65085 21.5056 6.5695 21.4244C2.47625 17.3311 2.47625 10.6689 6.5695 6.57563Z" fill="#115779"/>
<path d="M9.08337 7.85226C8.91929 7.68822 8.69677 7.59607 8.46475 7.59607C8.23273 7.59607 8.01021 7.68822 7.84613 7.85226C6.20638 9.49201 5.30338 11.6751 5.30338 14C5.30338 16.3249 6.20638 18.508 7.84613 20.1478C7.9272 20.2293 8.02359 20.294 8.12975 20.3382C8.23592 20.3823 8.34977 20.405 8.46475 20.405C8.57973 20.405 8.69358 20.3823 8.79975 20.3382C8.90591 20.294 9.0023 20.2293 9.08337 20.1478C9.24741 19.9837 9.33956 19.7612 9.33956 19.5291C9.33956 19.2971 9.24741 19.0746 9.08337 18.9105C7.77437 17.6015 7.05338 15.8576 7.05338 14C7.05338 12.1424 7.77437 10.3985 9.08337 9.08951C9.24741 8.92542 9.33956 8.7029 9.33956 8.47088C9.33956 8.23886 9.24741 8.01634 9.08337 7.85226Z" fill="#115779"/>
</svg>
