<svg width="24" height="24" viewBox="0 0 24 24" fill="none" xmlns="http://www.w3.org/2000/svg">
<g clip-path="url(#clip0_1_1624)">
<path d="M21.18 10.8375L19.8889 10.6226C19.7242 10.5954 19.5676 10.5318 19.4307 10.4363C19.2937 10.3409 19.1798 10.2161 19.0972 10.071L18.6097 9.21825C17.9198 8.01397 16.9244 7.01297 15.724 6.31626C14.5236 5.61954 13.1607 5.25175 11.7727 5.25H10.7273C9.33936 5.25172 7.97647 5.61945 6.77608 6.3161C5.57569 7.01275 4.58027 8.01367 3.89025 9.21787L3.36525 10.1332C3.28981 10.2647 3.18873 10.3796 3.06801 10.4712C2.94729 10.5628 2.80939 10.6292 2.6625 10.6665L1.41975 10.977C1.11033 11.0545 0.825872 11.2098 0.593445 11.4282C0.361018 11.6467 0.188352 11.921 0.091875 12.225C0.08775 12.2347 0.087375 12.2464 0.084 12.2565C0.0297082 12.4313 0.00140568 12.6131 0 12.7961L0 15.375C0.000595447 15.8721 0.198331 16.3487 0.549832 16.7002C0.901334 17.0517 1.3779 17.2494 1.875 17.25H3.25688C3.46897 17.6987 3.80415 18.0779 4.22341 18.3434C4.64266 18.609 5.12872 18.75 5.625 18.75C6.12128 18.75 6.60734 18.609 7.02659 18.3434C7.44585 18.0779 7.78103 17.6987 7.99312 17.25H16.0069C16.219 17.6987 16.5542 18.0779 16.9734 18.3434C17.3927 18.609 17.8787 18.75 18.375 18.75C18.8713 18.75 19.3573 18.609 19.7766 18.3434C20.1958 18.0779 20.531 17.6987 20.7431 17.25H22.125C22.6221 17.2494 23.0987 17.0517 23.4502 16.7002C23.8017 16.3487 23.9994 15.8721 24 15.375V14.1664C24.002 13.367 23.7193 12.593 23.2026 11.983C22.6859 11.373 21.9689 10.9669 21.18 10.8375ZM22.8353 12.75C22.9836 12.9812 23.0946 13.2343 23.1641 13.5H22.875C22.5775 13.4999 22.2921 13.3824 22.0807 13.173C21.962 13.0533 21.8711 12.9089 21.8145 12.75H22.8353ZM0.75375 12.75H1.39463L1.20713 13.5H0.75V12.7961C0.75 12.7804 0.753375 12.7654 0.75375 12.75ZM5.625 18C5.25416 18 4.89165 17.89 4.58331 17.684C4.27496 17.478 4.03464 17.1851 3.89273 16.8425C3.75081 16.4999 3.71368 16.1229 3.78603 15.7592C3.85837 15.3955 4.03695 15.0614 4.29917 14.7992C4.5614 14.537 4.89549 14.3584 5.25921 14.286C5.62292 14.2137 5.99992 14.2508 6.34253 14.3927C6.68514 14.5346 6.97798 14.775 7.18401 15.0833C7.39003 15.3916 7.5 15.7542 7.5 16.125C7.4994 16.6221 7.30167 17.0987 6.95017 17.4502C6.59867 17.8017 6.1221 17.9994 5.625 18ZM18.375 18C18.0042 18 17.6416 17.89 17.3333 17.684C17.025 17.478 16.7846 17.1851 16.6427 16.8425C16.5008 16.4999 16.4637 16.1229 16.536 15.7592C16.6084 15.3955 16.787 15.0614 17.0492 14.7992C17.3114 14.537 17.6455 14.3584 18.0092 14.286C18.3729 14.2137 18.7499 14.2508 19.0925 14.3927C19.4351 14.5346 19.728 14.775 19.934 15.0833C20.14 15.3916 20.25 15.7542 20.25 16.125C20.2494 16.6221 20.0517 17.0987 19.7002 17.4502C19.3487 17.8017 18.8721 17.9994 18.375 18ZM22.125 16.5H20.97C21.027 16.1261 21.0026 15.7444 20.8983 15.3809C20.7941 15.0173 20.6126 14.6806 20.3662 14.3937C20.1197 14.1069 19.8142 13.8767 19.4706 13.7188C19.1269 13.561 18.7532 13.4793 18.375 13.4793C17.9968 13.4793 17.6231 13.561 17.2794 13.7188C16.9358 13.8767 16.6303 14.1069 16.3838 14.3937C16.1374 14.6806 15.9559 15.0173 15.8517 15.3809C15.7474 15.7444 15.723 16.1261 15.78 16.5H8.22C8.27701 16.1261 8.25257 15.7444 8.14835 15.3809C8.04413 15.0173 7.86259 14.6806 7.61616 14.3937C7.36973 14.1069 7.06422 13.8767 6.72055 13.7188C6.37689 13.561 6.00318 13.4793 5.625 13.4793C5.24682 13.4793 4.87311 13.561 4.52945 13.7188C4.18578 13.8767 3.88028 14.1069 3.63384 14.3937C3.38741 14.6806 3.20587 15.0173 3.10165 15.3809C2.99743 15.7444 2.97299 16.1261 3.03 16.5H1.875C1.57663 16.5 1.29048 16.3815 1.0795 16.1705C0.868526 15.9595 0.75 15.6734 0.75 15.375V14.25H1.5C1.5836 14.25 1.6648 14.2221 1.7307 14.1706C1.79661 14.1192 1.84344 14.0472 1.86375 13.9661L2.23875 12.4661C2.2526 12.4108 2.25367 12.3531 2.24186 12.2973C2.23006 12.2416 2.20569 12.1892 2.17063 12.1443C2.13556 12.0994 2.09071 12.063 2.03948 12.038C1.98825 12.013 1.932 12 1.875 12H1.08337C1.22634 11.8565 1.40559 11.7545 1.602 11.7049L2.84512 11.394C3.09026 11.3321 3.32044 11.2215 3.52195 11.0688C3.72347 10.9162 3.89221 10.7245 4.01813 10.5052L4.54125 9.58988C5.16561 8.50038 6.06627 7.59482 7.15235 6.96454C8.23843 6.33426 9.47153 6.00156 10.7273 6H11.7727C13.0287 6.00129 14.2621 6.33387 15.3485 6.96416C16.4349 7.59445 17.3358 8.50016 17.9603 9.58988L18.4478 10.4426C18.5851 10.6844 18.7746 10.8924 19.0026 11.0516C19.2306 11.2107 19.4912 11.3169 19.7655 11.3625L21.0566 11.5778C21.4342 11.6402 21.7935 11.7843 22.1096 12H21.375C21.2755 12 21.1802 12.0395 21.1098 12.1098C21.0395 12.1802 21 12.2755 21 12.375C20.9998 12.6213 21.0481 12.8652 21.1422 13.0928C21.2364 13.3204 21.3745 13.5272 21.5486 13.7014C21.7228 13.8755 21.9296 14.0136 22.1572 14.1078C22.3848 14.2019 22.6287 14.2502 22.875 14.25H23.25V15.375C23.25 15.6734 23.1315 15.9595 22.9205 16.1705C22.7095 16.3815 22.4234 16.5 22.125 16.5Z" fill="black"/>
<path d="M12.75 11.25H12C11.9005 11.25 11.8052 11.2895 11.7348 11.3598C11.6645 11.4302 11.625 11.5255 11.625 11.625C11.625 11.7244 11.6645 11.8198 11.7348 11.8902C11.8052 11.9605 11.9005 12 12 12H12.75C12.8495 12 12.9448 11.9605 13.0152 11.8902C13.0855 11.8198 13.125 11.7244 13.125 11.625C13.125 11.5255 13.0855 11.4302 13.0152 11.3598C12.9448 11.2895 12.8495 11.25 12.75 11.25ZM5.625 11.25H4.875C4.77554 11.25 4.68016 11.2895 4.60984 11.3598C4.53951 11.4302 4.5 11.5255 4.5 11.625C4.5 11.7244 4.53951 11.8198 4.60984 11.8902C4.68016 11.9605 4.77554 12 4.875 12H5.625C5.72446 12 5.81984 11.9605 5.89017 11.8902C5.96049 11.8198 6 11.7244 6 11.625C6 11.5255 5.96049 11.4302 5.89017 11.3598C5.81984 11.2895 5.72446 11.25 5.625 11.25ZM18.375 15C18.1525 15 17.935 15.066 17.75 15.1896C17.565 15.3132 17.4208 15.4889 17.3356 15.6945C17.2505 15.9 17.2282 16.1262 17.2716 16.3445C17.315 16.5627 17.4222 16.7632 17.5795 16.9205C17.7368 17.0778 17.9373 17.185 18.1555 17.2284C18.3738 17.2718 18.6 17.2495 18.8055 17.1644C19.0111 17.0792 19.1868 16.935 19.3104 16.75C19.434 16.565 19.5 16.3475 19.5 16.125C19.5 15.8266 19.3815 15.5405 19.1705 15.3295C18.9595 15.1185 18.6734 15 18.375 15ZM18.375 16.5C18.3008 16.5 18.2283 16.478 18.1667 16.4368C18.105 16.3956 18.0569 16.337 18.0285 16.2685C18.0002 16.2 17.9927 16.1246 18.0072 16.0518C18.0217 15.9791 18.0574 15.9123 18.1098 15.8598C18.1623 15.8074 18.2291 15.7717 18.3018 15.7572C18.3746 15.7427 18.45 15.7502 18.5185 15.7785C18.587 15.8069 18.6456 15.855 18.6868 15.9167C18.728 15.9783 18.75 16.0508 18.75 16.125C18.75 16.2244 18.7105 16.3198 18.6402 16.3902C18.5698 16.4605 18.4745 16.5 18.375 16.5ZM5.625 15C5.4025 15 5.18499 15.066 4.99998 15.1896C4.81498 15.3132 4.67078 15.4889 4.58564 15.6945C4.50049 15.9 4.47821 16.1262 4.52162 16.3445C4.56503 16.5627 4.67217 16.7632 4.82951 16.9205C4.98684 17.0778 5.1873 17.185 5.40552 17.2284C5.62375 17.2718 5.84995 17.2495 6.05552 17.1644C6.26109 17.0792 6.43679 16.935 6.5604 16.75C6.68402 16.565 6.75 16.3475 6.75 16.125C6.75 15.8266 6.63147 15.5405 6.4205 15.3295C6.20952 15.1185 5.92337 15 5.625 15ZM5.625 16.5C5.55083 16.5 5.47833 16.478 5.41666 16.4368C5.35499 16.3956 5.30693 16.337 5.27855 16.2685C5.25016 16.2 5.24274 16.1246 5.25721 16.0518C5.27168 15.9791 5.30739 15.9123 5.35984 15.8598C5.41228 15.8074 5.4791 15.7717 5.55184 15.7572C5.62458 15.7427 5.69998 15.7502 5.76851 15.7785C5.83703 15.8069 5.8956 15.855 5.9368 15.9167C5.97801 15.9783 6 16.0508 6 16.125C6 16.2244 5.96049 16.3198 5.89017 16.3902C5.81984 16.4605 5.72446 16.5 5.625 16.5ZM10.5 6.37499H10.305C9.18002 6.37194 8.08017 6.70757 7.14857 7.3382C6.21696 7.96883 5.49674 8.86527 5.08163 9.91087L4.90163 10.3609C4.87889 10.4178 4.87045 10.4794 4.87704 10.5403C4.88363 10.6012 4.90504 10.6596 4.93942 10.7103C4.9738 10.7611 5.02008 10.8026 5.07422 10.8313C5.12837 10.86 5.18872 10.875 5.25 10.875H10.5C10.5995 10.875 10.6948 10.8355 10.7652 10.7652C10.8355 10.6948 10.875 10.5994 10.875 10.5V6.74999C10.875 6.65053 10.8355 6.55515 10.7652 6.48482C10.6948 6.4145 10.5995 6.37499 10.5 6.37499ZM10.125 10.125H5.80463C6.16084 9.26328 6.75772 8.52241 7.5239 7.99099C8.29007 7.45957 9.19311 7.16009 10.125 7.12837V10.125ZM17.418 9.91049C17.1066 9.12981 16.6232 8.42933 16.0039 7.86111C15.9307 7.79378 15.8337 7.75829 15.7344 7.76244C15.635 7.76659 15.5413 7.81004 15.474 7.88324C15.4067 7.95644 15.3712 8.05339 15.3753 8.15276C15.3795 8.25213 15.4229 8.34578 15.4961 8.41311C16.0158 8.88953 16.4251 9.47379 16.6954 10.125H12.375V7.12837C13.0994 7.15555 13.8087 7.34359 14.4514 7.67886C14.495 7.70167 14.5428 7.71564 14.5918 7.72C14.6409 7.72436 14.6903 7.71902 14.7373 7.70427C14.7843 7.68952 14.8279 7.66566 14.8657 7.63405C14.9035 7.60245 14.9346 7.56371 14.9574 7.52005C14.9802 7.4764 14.9942 7.42868 14.9986 7.37962C15.0029 7.33056 14.9976 7.28112 14.9828 7.23413C14.9681 7.18714 14.9442 7.14351 14.9126 7.10574C14.881 7.06797 14.8423 7.03679 14.7986 7.01399C13.9947 6.59484 13.1016 6.37564 12.195 6.37499H12C11.9005 6.37499 11.8052 6.4145 11.7348 6.48482C11.6645 6.55515 11.625 6.65053 11.625 6.74999V10.5C11.625 10.5994 11.6645 10.6948 11.7348 10.7652C11.8052 10.8355 11.9005 10.875 12 10.875H17.25C17.3113 10.875 17.3716 10.86 17.4258 10.8313C17.4799 10.8026 17.5262 10.7611 17.5606 10.7103C17.595 10.6596 17.6164 10.6012 17.623 10.5403C17.6296 10.4794 17.6211 10.4178 17.5984 10.3609L17.418 9.91049Z" fill="black"/>
</g>
<defs>
<clipPath id="clip0_1_1624">
<rect width="24" height="24" fill="white"/>
</clipPath>
</defs>
</svg>
