<svg width="62" height="62" viewBox="0 0 62 62" fill="none" xmlns="http://www.w3.org/2000/svg">
<rect width="62" height="62" rx="31" fill="#FDB816"/>
<path d="M42.207 38.4961C39.8539 38.4961 37.9395 36.5817 37.9395 34.2285C37.9395 31.8753 39.8539 29.9609 42.207 29.9609C44.5602 29.9609 46.4746 31.8753 46.4746 34.2285C46.4746 36.5817 44.5602 38.4961 42.207 38.4961ZM19.793 38.4961C17.4398 38.4961 15.5254 36.5817 15.5254 34.2285C15.5254 31.8753 17.4398 29.9609 19.793 29.9609C22.1461 29.9609 24.0605 31.8753 24.0605 34.2285C24.0605 36.5817 22.1461 38.4961 19.793 38.4961ZM38.4219 14.9688C37.0151 14.9688 35.7503 14.1871 35.1212 12.9289L34.9645 12.6155C34.8721 12.4306 34.73 12.275 34.5541 12.1663C34.3782 12.0576 34.1755 12 33.9688 12L28.0312 12C27.8245 12 27.6218 12.0576 27.4459 12.1663C27.2701 12.275 27.1279 12.4305 27.0355 12.6154L26.8788 12.9288C26.2497 14.1871 24.9849 14.9688 23.5781 14.9688C22.9633 14.9688 22.4648 15.4672 22.4648 16.082V22.4349C22.4648 24.9327 23.253 27.3122 24.744 29.3162C26.2349 31.3201 28.2877 32.7588 30.6801 33.4765C30.8888 33.5391 31.1112 33.5391 31.3199 33.4765C33.7123 32.7588 35.7651 31.3201 37.256 29.3162C38.747 27.3122 39.5352 24.9327 39.5352 22.4349V16.082C39.5352 15.4672 39.0367 14.9688 38.4219 14.9688ZM34.936 21.4497L30.7376 25.6481C30.5202 25.8655 30.2353 25.9742 29.9505 25.9742C29.6656 25.9742 29.3806 25.8655 29.1633 25.6481L27.0641 23.5489C26.6293 23.1141 26.6293 22.4093 27.0641 21.9745C27.4988 21.5397 28.2037 21.5397 28.6385 21.9745L29.9505 23.2864L33.3618 19.8753C33.7965 19.4405 34.5014 19.4405 34.9362 19.8753C35.3708 20.3101 35.3708 21.0149 34.936 21.4497ZM46.7596 38.8549C45.5867 40.0092 43.9788 40.7227 42.207 40.7227C40.4325 40.7227 38.8221 40.007 37.6488 38.8493C37.0255 39.298 36.4719 39.8363 36.0059 40.4468L36.6176 40.9826C38.4718 42.6066 39.5352 44.9464 39.5352 47.4023V50H48.8867C49.5015 50 50 49.5015 50 48.8867V45.1758C50 42.5769 48.721 40.2715 46.7596 38.8549ZM15.2404 38.8549C13.279 40.2715 12 42.5769 12 45.1758V48.8867C12 49.5015 12.4985 50 13.1133 50H22.4648V47.4023C22.4648 44.9464 23.5282 42.6066 25.3824 40.9826L25.9941 40.4468C25.5281 39.8363 24.9745 39.298 24.3512 38.8493C23.1779 40.007 21.5675 40.7227 19.793 40.7227C18.0212 40.7227 16.4133 40.0092 15.2404 38.8549ZM35.1506 42.6575C34.1029 43.7508 32.6301 44.4336 31 44.4336C29.3699 44.4336 27.8971 43.7508 26.8494 42.6575C25.5281 43.8148 24.6914 45.5121 24.6914 47.4023V50H37.3086V47.4023C37.3086 45.5121 36.4719 43.8148 35.1506 42.6575ZM31 42.207C29.0561 42.207 27.4746 40.6256 27.4746 38.6816C27.4746 36.7377 29.0561 35.1562 31 35.1562C32.9439 35.1562 34.5254 36.7377 34.5254 38.6816C34.5254 40.6256 32.9439 42.207 31 42.207Z" fill="white"/>
</svg>
