<svg width="28" height="28" viewBox="0 0 28 28" fill="none" xmlns="http://www.w3.org/2000/svg">
<path d="M9.81754 18.165C9.12138 18.7094 8.55838 19.4052 8.17127 20.1996C7.78416 20.9941 7.58311 21.8663 7.58337 22.75V24.5H4.08337C3.11504 24.5 2.33337 23.7183 2.33337 22.75V21.5833C2.33337 19.3258 4.15921 17.5 6.41671 17.5H7.58337C8.41171 17.5 9.17587 17.745 9.81754 18.165Z" fill="white"/>
<path d="M21 17.5C22.4497 17.5 23.625 16.3247 23.625 14.875C23.625 13.4253 22.4497 12.25 21 12.25C19.5503 12.25 18.375 13.4253 18.375 14.875C18.375 16.3247 19.5503 17.5 21 17.5Z" fill="white"/>
<path d="M7 17.5C8.44975 17.5 9.625 16.3247 9.625 14.875C9.625 13.4253 8.44975 12.25 7 12.25C5.55025 12.25 4.375 13.4253 4.375 14.875C4.375 16.3247 5.55025 17.5 7 17.5Z" fill="white"/>
<path d="M25.6667 21.5833V22.75C25.6667 23.7183 24.885 24.5 23.9167 24.5H20.4167V22.75C20.4167 20.8892 19.5417 19.2325 18.1825 18.165C18.8242 17.745 19.5883 17.5 20.4167 17.5H21.5833C23.8408 17.5 25.6667 19.3258 25.6667 21.5833Z" fill="white"/>
<path d="M14.0001 18.0833C15.772 18.0833 17.2084 16.6469 17.2084 14.875C17.2084 13.1031 15.772 11.6667 14.0001 11.6667C12.2282 11.6667 10.7917 13.1031 10.7917 14.875C10.7917 16.6469 12.2282 18.0833 14.0001 18.0833Z" fill="white"/>
<path d="M14.5836 18.0833H13.4169C10.8438 18.0833 8.75022 20.1769 8.75022 22.75V24.5C8.75022 25.4648 9.53538 26.25 10.5002 26.25H17.5002C18.465 26.25 19.2502 25.4648 19.2502 24.5V22.75C19.2502 20.1769 17.1566 18.0833 14.5836 18.0833ZM22.4585 9.73233L21.051 10.2328C20.9586 10.2657 20.8597 10.2755 20.7627 10.2615C20.6657 10.2475 20.5736 10.21 20.4943 10.1524C20.415 10.0948 20.351 10.0187 20.3077 9.9308C20.2644 9.84287 20.2432 9.74571 20.246 9.64775L20.2868 8.15441L19.3756 6.97024C19.3159 6.89254 19.276 6.80147 19.2594 6.7049C19.2428 6.60833 19.2499 6.50916 19.2802 6.41596C19.3104 6.32276 19.3629 6.23832 19.4331 6.16995C19.5033 6.10157 19.5891 6.05131 19.6831 6.0235L21.1163 5.60116L21.961 4.36858C22.0164 4.28773 22.0906 4.2216 22.1773 4.1759C22.264 4.1302 22.3605 4.10632 22.4585 4.10632C22.5566 4.10632 22.6531 4.1302 22.7398 4.1759C22.8265 4.2216 22.9007 4.28773 22.9561 4.36858L23.8008 5.60116L25.234 6.0235C25.6406 6.14308 25.7999 6.63424 25.5415 6.97024L24.6303 8.15441L24.6711 9.64775C24.6737 9.74567 24.6524 9.84274 24.6091 9.93061C24.5658 10.0185 24.5018 10.0945 24.4226 10.1521C24.3433 10.2097 24.2513 10.2471 24.1543 10.2612C24.0574 10.2752 23.9585 10.2655 23.8661 10.2328L22.4585 9.73233ZM5.54188 9.73233L4.1343 10.2328C4.04196 10.2657 3.94301 10.2755 3.84601 10.2615C3.74901 10.2475 3.65689 10.21 3.57762 10.1524C3.49834 10.0948 3.4343 10.0187 3.39103 9.9308C3.34776 9.84287 3.32658 9.74571 3.3293 9.64775L3.37013 8.15441L2.45897 6.97024C2.39927 6.89254 2.35938 6.80147 2.34275 6.7049C2.32611 6.60833 2.33324 6.50916 2.3635 6.41596C2.39376 6.32276 2.44626 6.23832 2.51645 6.16995C2.58664 6.10157 2.67242 6.05131 2.76638 6.0235L4.19963 5.60116L5.0443 4.36858C5.09969 4.28773 5.17395 4.2216 5.26065 4.1759C5.34735 4.1302 5.44388 4.10632 5.54188 4.10632C5.63989 4.10632 5.73642 4.1302 5.82312 4.1759C5.90982 4.2216 5.98407 4.28773 6.03947 4.36858L6.88413 5.60116L8.31738 6.0235C8.72397 6.14308 8.88322 6.63424 8.6248 6.97024L7.71363 8.15441L7.75447 9.64775C7.75705 9.74567 7.73577 9.84274 7.69247 9.93061C7.64916 10.0185 7.58513 10.0945 7.50589 10.1521C7.42665 10.2097 7.33459 10.2471 7.23765 10.2612C7.14071 10.2752 7.04181 10.2655 6.94947 10.2328L5.54188 9.73233ZM14.0002 8.41983L12.3313 9.01308C12.2218 9.05197 12.1045 9.06361 11.9896 9.047C11.8746 9.03038 11.7654 8.986 11.6714 8.9177C11.5774 8.8494 11.5015 8.75924 11.4502 8.65501C11.3989 8.55078 11.3738 8.43562 11.377 8.31949L11.4254 6.54908L10.345 5.14499C10.2743 5.05286 10.227 4.94489 10.2073 4.83041C10.1876 4.71592 10.1961 4.59836 10.232 4.48787C10.2678 4.37739 10.3301 4.2773 10.4133 4.19624C10.4965 4.11519 10.5982 4.05562 10.7096 4.02266L12.4089 3.52158L13.4105 2.06033C13.4761 1.96444 13.5642 1.886 13.667 1.83181C13.7698 1.77761 13.8843 1.74928 14.0005 1.74928C14.1167 1.74928 14.2312 1.77761 14.334 1.83181C14.4368 1.886 14.5249 1.96444 14.5905 2.06033L15.5921 3.52158L17.2914 4.02266C17.4028 4.05562 17.5045 4.11519 17.5877 4.19624C17.6709 4.2773 17.7332 4.37739 17.7691 4.48787C17.805 4.59836 17.8134 4.71592 17.7937 4.83041C17.774 4.94489 17.7267 5.05286 17.656 5.14499L16.5756 6.54908L16.624 8.31949C16.6272 8.43562 16.6021 8.55078 16.5508 8.65501C16.4995 8.75924 16.4236 8.8494 16.3296 8.9177C16.2356 8.986 16.1264 9.03038 16.0115 9.047C15.8965 9.06361 15.7792 9.05197 15.6697 9.01308L14.0002 8.41983Z" fill="white"/>
</svg>
