<svg width="12" height="12" viewBox="0 0 12 12" fill="none" xmlns="http://www.w3.org/2000/svg">
<g clip-path="url(#clip0_1_1338)">
<path fill-rule="evenodd" clip-rule="evenodd" d="M5.20206 11.2022C2.33251 11.2022 0 8.86942 0 6.00015C0 3.13088 2.33251 0.798096 5.20206 0.798096C6.5178 0.798096 7.7527 1.27589 8.71466 2.15785C8.39404 2.34796 8.08493 2.55686 7.78897 2.78347C7.05665 2.19204 6.14338 1.87012 5.20206 1.87162C2.92796 1.87162 1.07352 3.72605 1.07352 6.00015C1.07352 8.27425 2.92796 10.1284 5.20206 10.1284C8.36614 10.1284 10.2447 6.74619 8.8838 4.11665C9.15151 3.86762 9.42873 3.62901 9.71483 3.40134C10.1702 4.18752 10.4041 5.07916 10.4041 5.99988C10.4041 8.86942 8.0716 11.2022 5.20206 11.2022Z" fill="#008234"/>
<path fill-rule="evenodd" clip-rule="evenodd" d="M5.33879 8.67427C5.3113 8.67384 5.28456 8.66528 5.26195 8.64966C5.23933 8.63404 5.22185 8.61207 5.21172 8.58651C5.20204 8.56714 4.36271 6.40017 3.06469 5.58022C2.81084 5.42409 2.61568 5.25827 2.69374 4.88733C2.77181 4.52635 3.01569 4.32122 3.45501 4.22378C4.23565 4.05769 5.07525 5.26796 5.38723 5.76569C6.48068 4.17506 8.66675 1.67646 11.8486 1.38358C12.0019 1.36558 12.0589 1.59313 11.9169 1.6568C11.8682 1.67618 7.32001 3.75512 5.47526 8.5962C5.46147 8.62014 5.44157 8.63999 5.41759 8.6537C5.39361 8.66742 5.36641 8.67452 5.33879 8.67427Z" fill="#008234"/>
</g>
<defs>
<clipPath id="clip0_1_1338">
<rect width="12" height="12" fill="white"/>
</clipPath>
</defs>
</svg>
