<svg width="25" height="24" viewBox="0 0 25 24" fill="none" xmlns="http://www.w3.org/2000/svg">
<path d="M2.63315 9.86662C2.04524 9.86672 1.56679 10.3451 1.56665 10.9334C1.56665 11.5215 2.04515 12 2.63334 12C3.2211 12 3.69965 11.5218 3.70007 10.9331C3.69984 10.345 3.22134 9.86662 2.63315 9.86662ZM22.3665 9.86672C21.7787 9.86672 21.3002 10.3451 21.3 10.9336C21.3003 11.5216 21.7787 12 22.3665 12H22.367C22.9548 11.9998 23.4331 11.5215 23.4334 10.9334C23.4333 10.3452 22.9549 9.86672 22.3665 9.86672ZM12.4999 0C11.912 0 11.4336 0.478359 11.4334 1.06687C11.4335 1.65492 11.912 2.13333 12.4999 2.13333H12.5003C13.0881 2.13309 13.5665 1.65473 13.5667 1.06664C13.5667 0.4785 13.0882 0 12.4999 0ZM19.476 2.88994C18.8882 2.88994 18.4098 3.3683 18.4096 3.95681C18.4098 4.54481 18.8883 5.02327 19.476 5.02327H19.4766C20.0643 5.02303 20.5427 4.54467 20.5429 3.95658C20.5429 3.36844 20.0644 2.88994 19.476 2.88994ZM5.52351 2.88994C4.93574 2.88994 4.45729 3.3683 4.45706 3.95681C4.45729 4.54481 4.93574 5.02327 5.52351 5.02327H5.52403C6.11179 5.02303 6.59015 4.54467 6.59038 3.95658C6.59038 3.36844 6.11184 2.88994 5.52351 2.88994ZM19.476 16.8435C18.8882 16.8435 18.4098 17.3219 18.4096 17.9104C18.4098 18.4984 18.8883 18.9768 19.476 18.9768H19.4766C20.0643 18.9766 20.5427 18.4982 20.5429 17.9101C20.5429 17.322 20.0644 16.8435 19.476 16.8435ZM5.52351 16.8435C4.93574 16.8435 4.45729 17.3219 4.45706 17.9104C4.45729 18.4984 4.93574 18.9768 5.52351 18.9768H5.52403C6.11179 18.9766 6.59015 18.4982 6.59038 17.9101C6.59038 17.322 6.11184 16.8435 5.52351 16.8435Z" fill="#115779"/>
<path d="M21.3 10.9333C21.3 6.08097 17.3523 2.1333 12.5 2.1333C7.64767 2.1333 3.69995 6.08097 3.69995 10.9333C3.69995 14.6127 5.97015 17.7714 9.18315 19.0837L8.17389 22.3999H6.63329V24H18.3666V22.4H16.826L15.8168 19.0838C19.0298 17.7715 21.3 14.6128 21.3 10.9333ZM13.3 22.4V21.0667H11.7V22.4H9.84639L10.7135 19.5509C11.3012 19.6725 11.8998 19.7336 12.5 19.7333C13.112 19.7333 13.7095 19.6703 14.2865 19.5509L15.1536 22.4H13.3ZM12.4999 13.6809L13.8181 18.012C13.3906 18.0914 12.9501 18.1333 12.4999 18.1333C12.0497 18.1333 11.6093 18.0914 11.1818 18.012L12.4999 13.6809ZM11.7 10.9333C11.7 10.4921 12.0589 10.1333 12.5 10.1333C12.9412 10.1333 13.3 10.4921 13.3 10.9333C13.3 11.3744 12.9412 11.7333 12.5 11.7333C12.0589 11.7333 11.7 11.3744 11.7 10.9333ZM15.3486 17.5452L13.9238 12.8638C14.5155 12.4263 14.8999 11.7239 14.8999 10.9333C14.8999 9.60991 13.8234 8.53329 12.4999 8.53329C11.1766 8.53329 10.0999 9.60991 10.0999 10.9333C10.0999 11.724 10.4845 12.4263 11.0762 12.8638L9.65139 17.5452C7.09412 16.4393 5.29998 13.8921 5.29998 10.9333C5.29998 6.96321 8.5299 3.73328 12.5 3.73328C16.4701 3.73328 19.7 6.96321 19.7 10.9333C19.7 13.8921 17.9059 16.4393 15.3486 17.5452Z" fill="#115779"/>
</svg>
