<svg width="24" height="24" viewBox="0 0 24 24" fill="none" xmlns="http://www.w3.org/2000/svg">
<path d="M9.74997 11.625C9.65051 11.625 9.55513 11.5854 9.4848 11.5151C9.41448 11.4448 9.37497 11.3494 9.37497 11.25C9.39391 10.331 9.63475 9.43032 10.077 8.62458C10.1228 8.53632 10.2019 8.46988 10.2967 8.43988C10.3915 8.40989 10.4944 8.4188 10.5827 8.46465C10.6709 8.5105 10.7374 8.58953 10.7674 8.68437C10.7974 8.7792 10.7884 8.88207 10.7426 8.97033C10.3562 9.66941 10.1443 10.4514 10.125 11.25C10.125 11.3494 10.0855 11.4448 10.0151 11.5151C9.94481 11.5854 9.84943 11.625 9.74997 11.625ZM6.37534 13.2243C6.30711 13.2244 6.24015 13.2059 6.18167 13.1707C6.12318 13.1356 6.0754 13.0851 6.04347 13.0248C5.64497 12.2528 5.35306 11.4303 5.17572 10.5798C5.16357 10.5312 5.1613 10.4805 5.16907 10.431C5.17683 10.3814 5.19447 10.3339 5.22092 10.2912C5.24738 10.2486 5.28213 10.2117 5.3231 10.1828C5.36407 10.1538 5.41044 10.1334 5.45945 10.1226C5.50847 10.1119 5.55914 10.1112 5.60846 10.1204C5.65778 10.1296 5.70475 10.1486 5.74658 10.1763C5.78842 10.204 5.82427 10.2398 5.85201 10.2816C5.87975 10.3234 5.89882 10.3704 5.90809 10.4197C6.07113 11.2036 6.33971 11.9617 6.70647 12.6735C6.73674 12.7306 6.75171 12.7946 6.74993 12.8593C6.74815 12.9239 6.72968 12.987 6.69632 13.0424C6.66296 13.0978 6.61584 13.1436 6.55953 13.1755C6.50322 13.2073 6.43964 13.224 6.37497 13.224L6.37534 13.2243Z" fill="#041614"/>
<path d="M5.25 9.375C5.45711 9.375 5.625 9.20711 5.625 9C5.625 8.79289 5.45711 8.625 5.25 8.625C5.04289 8.625 4.875 8.79289 4.875 9C4.875 9.20711 5.04289 9.375 5.25 9.375Z" fill="#041614"/>
<path d="M11.25 7.875C11.4571 7.875 11.625 7.70711 11.625 7.5C11.625 7.29289 11.4571 7.125 11.25 7.125C11.0429 7.125 10.875 7.29289 10.875 7.5C10.875 7.70711 11.0429 7.875 11.25 7.875Z" fill="#041614"/>
<path d="M22.7951 15.519C21.9183 14.4569 20.8768 13.5423 19.7104 12.81C20.3635 11.1111 20.6716 9.29905 20.6167 7.47973C20.6119 7.38755 20.5731 7.30041 20.5079 7.23507C20.4427 7.16972 20.3557 7.13079 20.2635 7.12573C18.5575 7.07871 16.8576 7.34879 15.2501 7.92223C14.487 6.50604 13.4642 5.24611 12.2351 4.20823C12.1684 4.15464 12.0854 4.12543 11.9998 4.12543C11.9142 4.12543 11.8312 4.15464 11.7645 4.20823C10.5354 5.24611 9.51258 6.50604 8.74949 7.92223C7.14218 7.34878 5.44238 7.07871 3.73649 7.12573C3.64438 7.13078 3.55737 7.16966 3.49218 7.23493C3.42698 7.3002 3.38819 7.38724 3.38324 7.47936C3.32829 9.2988 3.63641 11.111 4.28961 12.81C3.12315 13.5423 2.08167 14.4569 1.20486 15.519C1.15301 15.5849 1.12482 15.6663 1.12482 15.7502C1.12482 15.834 1.15301 15.9155 1.20486 15.9814C1.32936 16.14 4.29674 19.875 8.06249 19.875C9.58236 19.875 10.9455 19.14 12 18.4485C13.0545 19.14 14.4176 19.875 15.9375 19.875C19.7032 19.875 22.6706 16.14 22.7951 15.981C22.8469 15.9151 22.875 15.8338 22.875 15.75C22.875 15.6662 22.8469 15.5849 22.7951 15.519ZM19.8739 7.86898C19.8682 9.02586 19.6654 12.7946 17.3599 15.1065C16.1976 16.2027 14.7724 16.9808 13.2217 17.3655C14.3756 16.1595 16.125 13.8956 16.125 11.25C16.1146 10.3394 15.9244 9.4398 15.5655 8.60286C16.9514 8.12294 18.4069 7.87486 19.8735 7.86861L19.8739 7.86898ZM12 4.99686C12.8021 5.72173 15.375 8.27961 15.375 11.25C15.375 14.2204 12.8021 16.7782 12 17.5031C11.1979 16.7782 8.62499 14.22 8.62499 11.25C8.62499 8.27998 11.1979 5.72173 12 4.99686ZM8.43449 8.60286C8.07556 9.4398 7.88542 10.3394 7.87499 11.25C7.87499 13.8956 9.62436 16.1595 10.7782 17.3655C9.22771 16.9808 7.80258 16.2027 6.64049 15.1065C4.33424 12.7946 4.13174 9.02548 4.12649 7.86898C5.59307 7.87511 7.0486 8.12306 8.43449 8.60286ZM1.99049 15.75C2.75295 14.8838 3.63182 14.1275 4.60199 13.5026C4.9861 14.2907 5.49532 15.0114 6.10986 15.6367C7.46927 16.9243 9.15915 17.8096 10.9916 18.1942C10.1136 18.7556 9.10352 19.0766 8.06249 19.125C5.17499 19.125 2.68874 16.5461 1.99049 15.75ZM15.9375 19.125C14.8966 19.0765 13.8867 18.7555 13.0087 18.1942C14.8413 17.8094 16.5311 16.9238 17.8905 15.636C18.5049 15.0108 19.014 14.2902 19.398 13.5022C20.3681 14.1275 21.247 14.8839 22.0099 15.75C21.3127 16.5465 18.8306 19.125 15.9375 19.125Z" fill="#041614"/>
</svg>
