<svg width="24" height="25" viewBox="0 0 24 25" fill="none" xmlns="http://www.w3.org/2000/svg">
<g clip-path="url(#clip0_1_1016)">
<path d="M9.5827 0.500854H4.13231V3.82448L9.5827 2.91609V0.500854ZM21.5818 23.0928V7.3575H12.7031V23.0928H11.2969V4.05609L2.41819 5.53584V23.0928H0V24.4991H24V23.0928H21.5818ZM18.1098 9.37954H19.6035V10.7858H18.1098V9.37954ZM18.1098 12.8079H19.6035V14.2141H18.1098V12.8079ZM18.1098 16.2362H19.6035V17.6424H18.1098V16.2362ZM18.1098 19.6645H19.6035V21.0708H18.1098V19.6645ZM14.6815 9.37954H16.1752V10.7858H14.6815V9.37954ZM14.6815 12.8079H16.1752V14.2141H14.6815V12.8079ZM14.6815 16.2362H16.1752V17.6424H14.6815V16.2362ZM14.6815 19.6645H16.1752V21.0708H14.6815V19.6645ZM7.82484 5.95125H9.31852V7.3575H7.82484V5.95125ZM7.82484 9.37954H9.31852V10.7858H7.82484V9.37954ZM7.82484 12.8079H9.31852V14.2141H7.82484V12.8079ZM7.82484 16.2362H9.31852V17.6424H7.82484V16.2362ZM4.39655 9.37954H5.89022V10.7858H4.39655V9.37954ZM4.39655 12.8079H5.89022V14.2141H4.39655V12.8079ZM4.39655 16.2362H5.89022V17.6424H4.39655V16.2362ZM4.44023 19.6645H9.27483V23.0928H7.86858V21.0708H5.84648V23.0928H4.44023V19.6645Z" fill="#0DB561"/>
</g>
<defs>
<clipPath id="clip0_1_1016">
<rect width="24" height="24" fill="white" transform="translate(0 0.5)"/>
</clipPath>
</defs>
</svg>
